<svg width="417" height="112" viewBox="0 0 417 112" fill="none" xmlns="http://www.w3.org/2000/svg">
<rect width="198.5" height="112" fill="#CCCCCC"/>
<g clip-path="url(#clip0_88_3358)">
<path fill-rule="evenodd" clip-rule="evenodd" d="M122 39.6667V72.3333C122 74.9 119.9 77 117.333 77H84.6667C82.1 77 80 74.9 80 72.3333V39.6667C80 37.1 82.1 35 84.6667 35H117.333C119.9 35 122 37.1 122 39.6667ZM98.6667 66.5233L93.7667 60.62C93.2767 60.0367 92.39 60.06 91.9467 60.6667L86.1367 68.1333C85.53 68.9033 86.0667 70.0233 87.0467 70.0233H115.023C115.98 70.0233 116.54 68.9267 115.957 68.1567L107.767 57.2367C107.3 56.6067 106.367 56.6067 105.9 57.2133L98.6667 66.5233ZM107.918 51.0588C109.737 51.0588 111.212 49.584 111.212 47.7647C111.212 45.9454 109.737 44.4706 107.918 44.4706C106.098 44.4706 104.624 45.9454 104.624 47.7647C104.624 49.584 106.098 51.0588 107.918 51.0588Z" fill="white"/>
</g>
<rect x="218" width="198.5" height="112" fill="#CCCCCC"/>
<g clip-path="url(#clip1_88_3358)">
<path fill-rule="evenodd" clip-rule="evenodd" d="M338 39.6667V72.3333C338 74.9 335.9 77 333.333 77H300.667C298.1 77 296 74.9 296 72.3333V39.6667C296 37.1 298.1 35 300.667 35H333.333C335.9 35 338 37.1 338 39.6667ZM314.667 66.5233L309.767 60.62C309.277 60.0367 308.39 60.06 307.947 60.6667L302.137 68.1333C301.53 68.9033 302.067 70.0233 303.047 70.0233H331.023C331.98 70.0233 332.54 68.9267 331.957 68.1567L323.767 57.2367C323.3 56.6067 322.367 56.6067 321.9 57.2133L314.667 66.5233ZM323.918 51.0588C325.737 51.0588 327.212 49.584 327.212 47.7647C327.212 45.9454 325.737 44.4706 323.918 44.4706C322.098 44.4706 320.624 45.9454 320.624 47.7647C320.624 49.584 322.098 51.0588 323.918 51.0588Z" fill="white"/>
</g>
<defs>
<clipPath id="clip0_88_3358">
<rect width="56" height="56" fill="white" transform="translate(73 28)"/>
</clipPath>
<clipPath id="clip1_88_3358">
<rect width="56" height="56" fill="white" transform="translate(289 28)"/>
</clipPath>
</defs>
</svg>
