<svg width="417" height="112" viewBox="0 0 417 112" fill="none" xmlns="http://www.w3.org/2000/svg">
<rect width="130.039" height="112" fill="#CCCCCC"/>
<rect x="143.48" width="130.039" height="112" fill="#CCCCCC"/>
<g clip-path="url(#clip0_88_3359)">
<path fill-rule="evenodd" clip-rule="evenodd" d="M230 39.6667V72.3333C230 74.9 227.9 77 225.333 77H192.667C190.1 77 188 74.9 188 72.3333V39.6667C188 37.1 190.1 35 192.667 35H225.333C227.9 35 230 37.1 230 39.6667ZM206.667 66.5233L201.767 60.62C201.277 60.0367 200.39 60.06 199.947 60.6667L194.137 68.1333C193.53 68.9033 194.067 70.0233 195.047 70.0233H223.023C223.98 70.0233 224.54 68.9267 223.957 68.1567L215.767 57.2367C215.3 56.6067 214.367 56.6067 213.9 57.2133L206.667 66.5233ZM215.918 51.0588C217.737 51.0588 219.212 49.584 219.212 47.7647C219.212 45.9454 217.737 44.4706 215.918 44.4706C214.098 44.4706 212.624 45.9454 212.624 47.7647C212.624 49.584 214.098 51.0588 215.918 51.0588Z" fill="white"/>
</g>
<rect x="286.961" width="130.039" height="112" fill="#CCCCCC"/>
<g clip-path="url(#clip1_88_3359)">
<path fill-rule="evenodd" clip-rule="evenodd" d="M373 39.6667V72.3333C373 74.9 370.9 77 368.333 77H335.667C333.1 77 331 74.9 331 72.3333V39.6667C331 37.1 333.1 35 335.667 35H368.333C370.9 35 373 37.1 373 39.6667ZM349.667 66.5233L344.767 60.62C344.277 60.0367 343.39 60.06 342.947 60.6667L337.137 68.1333C336.53 68.9033 337.067 70.0233 338.047 70.0233H366.023C366.98 70.0233 367.54 68.9267 366.957 68.1567L358.767 57.2367C358.3 56.6067 357.367 56.6067 356.9 57.2133L349.667 66.5233ZM358.918 51.0588C360.737 51.0588 362.212 49.584 362.212 47.7647C362.212 45.9454 360.737 44.4706 358.918 44.4706C357.098 44.4706 355.624 45.9454 355.624 47.7647C355.624 49.584 357.098 51.0588 358.918 51.0588Z" fill="white"/>
</g>
<g clip-path="url(#clip2_88_3359)">
<path fill-rule="evenodd" clip-rule="evenodd" d="M86 39.6667V72.3333C86 74.9 83.9 77 81.3333 77H48.6667C46.1 77 44 74.9 44 72.3333V39.6667C44 37.1 46.1 35 48.6667 35H81.3333C83.9 35 86 37.1 86 39.6667ZM62.6667 66.5233L57.7667 60.62C57.2767 60.0367 56.39 60.06 55.9467 60.6667L50.1367 68.1333C49.53 68.9033 50.0667 70.0233 51.0467 70.0233H79.0233C79.98 70.0233 80.54 68.9267 79.9567 68.1567L71.7667 57.2367C71.3 56.6067 70.3667 56.6067 69.9 57.2133L62.6667 66.5233ZM71.9176 51.0588C73.7369 51.0588 75.2118 49.584 75.2118 47.7647C75.2118 45.9454 73.7369 44.4706 71.9176 44.4706C70.0984 44.4706 68.6235 45.9454 68.6235 47.7647C68.6235 49.584 70.0984 51.0588 71.9176 51.0588Z" fill="white"/>
</g>
<defs>
<clipPath id="clip0_88_3359">
<rect width="56" height="56" fill="white" transform="translate(181 28)"/>
</clipPath>
<clipPath id="clip1_88_3359">
<rect width="56" height="56" fill="white" transform="translate(324 28)"/>
</clipPath>
<clipPath id="clip2_88_3359">
<rect width="56" height="56" fill="white" transform="translate(37 28)"/>
</clipPath>
</defs>
</svg>
