<svg width="417" height="112" viewBox="0 0 417 112" fill="none" xmlns="http://www.w3.org/2000/svg">
<rect width="96.75" height="112" fill="#CCCCCC"/>
<g clip-path="url(#clip0_88_3360)">
<path fill-rule="evenodd" clip-rule="evenodd" d="M69 39.6667V72.3333C69 74.9 66.9 77 64.3333 77H31.6667C29.1 77 27 74.9 27 72.3333V39.6667C27 37.1 29.1 35 31.6667 35H64.3333C66.9 35 69 37.1 69 39.6667ZM45.6667 66.5233L40.7667 60.62C40.2767 60.0367 39.39 60.06 38.9467 60.6667L33.1367 68.1333C32.53 68.9033 33.0667 70.0233 34.0467 70.0233H62.0233C62.98 70.0233 63.54 68.9267 62.9567 68.1567L54.7667 57.2367C54.3 56.6067 53.3667 56.6067 52.9 57.2133L45.6667 66.5233ZM54.9176 51.0588C56.7369 51.0588 58.2118 49.584 58.2118 47.7647C58.2118 45.9454 56.7369 44.4706 54.9176 44.4706C53.0984 44.4706 51.6235 45.9454 51.6235 47.7647C51.6235 49.584 53.0984 51.0588 54.9176 51.0588Z" fill="white"/>
</g>
<rect x="106.75" width="96.75" height="112" fill="#CCCCCC"/>
<g clip-path="url(#clip1_88_3360)">
<path fill-rule="evenodd" clip-rule="evenodd" d="M176 39.6667V72.3333C176 74.9 173.9 77 171.333 77H138.667C136.1 77 134 74.9 134 72.3333V39.6667C134 37.1 136.1 35 138.667 35H171.333C173.9 35 176 37.1 176 39.6667ZM152.667 66.5233L147.767 60.62C147.277 60.0367 146.39 60.06 145.947 60.6667L140.137 68.1333C139.53 68.9033 140.067 70.0233 141.047 70.0233H169.023C169.98 70.0233 170.54 68.9267 169.957 68.1567L161.767 57.2367C161.3 56.6067 160.367 56.6067 159.9 57.2133L152.667 66.5233ZM161.918 51.0588C163.737 51.0588 165.212 49.584 165.212 47.7647C165.212 45.9454 163.737 44.4706 161.918 44.4706C160.098 44.4706 158.624 45.9454 158.624 47.7647C158.624 49.584 160.098 51.0588 161.918 51.0588Z" fill="white"/>
</g>
<rect x="213.5" width="96.75" height="112" fill="#CCCCCC"/>
<g clip-path="url(#clip2_88_3360)">
<path fill-rule="evenodd" clip-rule="evenodd" d="M283 39.6667V72.3333C283 74.9 280.9 77 278.333 77H245.667C243.1 77 241 74.9 241 72.3333V39.6667C241 37.1 243.1 35 245.667 35H278.333C280.9 35 283 37.1 283 39.6667ZM259.667 66.5233L254.767 60.62C254.277 60.0367 253.39 60.06 252.947 60.6667L247.137 68.1333C246.53 68.9033 247.067 70.0233 248.047 70.0233H276.023C276.98 70.0233 277.54 68.9267 276.957 68.1567L268.767 57.2367C268.3 56.6067 267.367 56.6067 266.9 57.2133L259.667 66.5233ZM268.918 51.0588C270.737 51.0588 272.212 49.584 272.212 47.7647C272.212 45.9454 270.737 44.4706 268.918 44.4706C267.098 44.4706 265.624 45.9454 265.624 47.7647C265.624 49.584 267.098 51.0588 268.918 51.0588Z" fill="white"/>
</g>
<rect x="320.25" width="96.75" height="112" fill="#CCCCCC"/>
<g clip-path="url(#clip3_88_3360)">
<path fill-rule="evenodd" clip-rule="evenodd" d="M390 39.6667V72.3333C390 74.9 387.9 77 385.333 77H352.667C350.1 77 348 74.9 348 72.3333V39.6667C348 37.1 350.1 35 352.667 35H385.333C387.9 35 390 37.1 390 39.6667ZM366.667 66.5233L361.767 60.62C361.277 60.0367 360.39 60.06 359.947 60.6667L354.137 68.1333C353.53 68.9033 354.067 70.0233 355.047 70.0233H383.023C383.98 70.0233 384.54 68.9267 383.957 68.1567L375.767 57.2367C375.3 56.6067 374.367 56.6067 373.9 57.2133L366.667 66.5233ZM375.918 51.0588C377.737 51.0588 379.212 49.584 379.212 47.7647C379.212 45.9454 377.737 44.4706 375.918 44.4706C374.098 44.4706 372.624 45.9454 372.624 47.7647C372.624 49.584 374.098 51.0588 375.918 51.0588Z" fill="white"/>
</g>
<defs>
<clipPath id="clip0_88_3360">
<rect width="56" height="56" fill="white" transform="translate(20 28)"/>
</clipPath>
<clipPath id="clip1_88_3360">
<rect width="56" height="56" fill="white" transform="translate(127 28)"/>
</clipPath>
<clipPath id="clip2_88_3360">
<rect width="56" height="56" fill="white" transform="translate(234 28)"/>
</clipPath>
<clipPath id="clip3_88_3360">
<rect width="56" height="56" fill="white" transform="translate(341 28)"/>
</clipPath>
</defs>
</svg>
