<svg width="414" height="81" viewBox="0 0 414 81" fill="none" xmlns="http://www.w3.org/2000/svg">
<circle cx="40.5" cy="40.5" r="40.5" fill="#CCCCCC"/>
<g clip-path="url(#clip0_88_3362)">
<path fill-rule="evenodd" clip-rule="evenodd" d="M58.25 29.5833V56.4167C58.25 58.525 56.525 60.25 54.4167 60.25H27.5833C25.475 60.25 23.75 58.525 23.75 56.4167V29.5833C23.75 27.475 25.475 25.75 27.5833 25.75H54.4167C56.525 25.75 58.25 27.475 58.25 29.5833ZM39.0833 51.6442L35.0583 46.795C34.6558 46.3158 33.9275 46.335 33.5633 46.8333L28.7908 52.9667C28.2925 53.5992 28.7333 54.5192 29.5383 54.5192H52.5192C53.305 54.5192 53.765 53.6183 53.2858 52.9858L46.5583 44.0158C46.175 43.4983 45.4083 43.4983 45.025 43.9967L39.0833 51.6442ZM46.6824 38.9412C48.1768 38.9412 49.3882 37.7297 49.3882 36.2353C49.3882 34.7409 48.1768 33.5294 46.6824 33.5294C45.1879 33.5294 43.9765 34.7409 43.9765 36.2353C43.9765 37.7297 45.1879 38.9412 46.6824 38.9412Z" fill="white"/>
</g>
<circle cx="151.5" cy="40.5" r="40.5" fill="#CCCCCC"/>
<g clip-path="url(#clip1_88_3362)">
<path fill-rule="evenodd" clip-rule="evenodd" d="M169.25 29.5833V56.4167C169.25 58.525 167.525 60.25 165.417 60.25H138.583C136.475 60.25 134.75 58.525 134.75 56.4167V29.5833C134.75 27.475 136.475 25.75 138.583 25.75H165.417C167.525 25.75 169.25 27.475 169.25 29.5833ZM150.083 51.6442L146.058 46.795C145.656 46.3158 144.928 46.335 144.563 46.8333L139.791 52.9667C139.293 53.5992 139.733 54.5192 140.538 54.5192H163.519C164.305 54.5192 164.765 53.6183 164.286 52.9858L157.558 44.0158C157.175 43.4983 156.408 43.4983 156.025 43.9967L150.083 51.6442ZM157.682 38.9412C159.177 38.9412 160.388 37.7297 160.388 36.2353C160.388 34.7409 159.177 33.5294 157.682 33.5294C156.188 33.5294 154.976 34.7409 154.976 36.2353C154.976 37.7297 156.188 38.9412 157.682 38.9412Z" fill="white"/>
</g>
<circle cx="262.5" cy="40.5" r="40.5" fill="#CCCCCC"/>
<g clip-path="url(#clip2_88_3362)">
<path fill-rule="evenodd" clip-rule="evenodd" d="M279.25 29.5833V56.4167C279.25 58.525 277.525 60.25 275.417 60.25H248.583C246.475 60.25 244.75 58.525 244.75 56.4167V29.5833C244.75 27.475 246.475 25.75 248.583 25.75H275.417C277.525 25.75 279.25 27.475 279.25 29.5833ZM260.083 51.6442L256.058 46.795C255.656 46.3158 254.928 46.335 254.563 46.8333L249.791 52.9667C249.293 53.5992 249.733 54.5192 250.538 54.5192H273.519C274.305 54.5192 274.765 53.6183 274.286 52.9858L267.558 44.0158C267.175 43.4983 266.408 43.4983 266.025 43.9967L260.083 51.6442ZM267.682 38.9412C269.177 38.9412 270.388 37.7297 270.388 36.2353C270.388 34.7409 269.177 33.5294 267.682 33.5294C266.188 33.5294 264.976 34.7409 264.976 36.2353C264.976 37.7297 266.188 38.9412 267.682 38.9412Z" fill="white"/>
</g>
<circle cx="373.5" cy="40.5" r="40.5" fill="#CCCCCC"/>
<g clip-path="url(#clip3_88_3362)">
<path fill-rule="evenodd" clip-rule="evenodd" d="M390.25 29.5833V56.4167C390.25 58.525 388.525 60.25 386.417 60.25H359.583C357.475 60.25 355.75 58.525 355.75 56.4167V29.5833C355.75 27.475 357.475 25.75 359.583 25.75H386.417C388.525 25.75 390.25 27.475 390.25 29.5833ZM371.083 51.6442L367.058 46.795C366.656 46.3158 365.928 46.335 365.563 46.8333L360.791 52.9667C360.293 53.5992 360.733 54.5192 361.538 54.5192H384.519C385.305 54.5192 385.765 53.6183 385.286 52.9858L378.558 44.0158C378.175 43.4983 377.408 43.4983 377.025 43.9967L371.083 51.6442ZM378.682 38.9412C380.177 38.9412 381.388 37.7297 381.388 36.2353C381.388 34.7409 380.177 33.5294 378.682 33.5294C377.188 33.5294 375.976 34.7409 375.976 36.2353C375.976 37.7297 377.188 38.9412 378.682 38.9412Z" fill="white"/>
</g>
<defs>
<clipPath id="clip0_88_3362">
<rect width="46" height="46" fill="white" transform="translate(18 20)"/>
</clipPath>
<clipPath id="clip1_88_3362">
<rect width="46" height="46" fill="white" transform="translate(129 20)"/>
</clipPath>
<clipPath id="clip2_88_3362">
<rect width="46" height="46" fill="white" transform="translate(239 20)"/>
</clipPath>
<clipPath id="clip3_88_3362">
<rect width="46" height="46" fill="white" transform="translate(350 20)"/>
</clipPath>
</defs>
</svg>
