<svg width="417" height="57" viewBox="0 0 417 57" fill="none" xmlns="http://www.w3.org/2000/svg">
<circle cx="28.5" cy="28.5" r="28.5" fill="#CCCCCC"/>
<g clip-path="url(#clip0_88_3365)">
<path fill-rule="evenodd" clip-rule="evenodd" d="M40.875 20.6667V39.3333C40.875 40.8 39.6375 42 38.125 42H18.875C17.3625 42 16.125 40.8 16.125 39.3333V20.6667C16.125 19.2 17.3625 18 18.875 18H38.125C39.6375 18 40.875 19.2 40.875 20.6667ZM27.125 36.0133L24.2375 32.64C23.9487 32.3067 23.4263 32.32 23.165 32.6667L19.7413 36.9333C19.3838 37.3733 19.7 38.0133 20.2775 38.0133H36.7638C37.3275 38.0133 37.6575 37.3867 37.3138 36.9467L32.4875 30.7067C32.2125 30.3467 31.6625 30.3467 31.3875 30.6933L27.125 36.0133ZM32.5765 27.1765C33.6486 27.1765 34.5176 26.3337 34.5176 25.2941C34.5176 24.2545 33.6486 23.4118 32.5765 23.4118C31.5044 23.4118 30.6353 24.2545 30.6353 25.2941C30.6353 26.3337 31.5044 27.1765 32.5765 27.1765Z" fill="white"/>
</g>
<circle cx="388.5" cy="28.5" r="28.5" fill="#CCCCCC"/>
<g clip-path="url(#clip1_88_3365)">
<path fill-rule="evenodd" clip-rule="evenodd" d="M400.875 20.6667V39.3333C400.875 40.8 399.638 42 398.125 42H378.875C377.362 42 376.125 40.8 376.125 39.3333V20.6667C376.125 19.2 377.362 18 378.875 18H398.125C399.638 18 400.875 19.2 400.875 20.6667ZM387.125 36.0133L384.237 32.64C383.949 32.3067 383.426 32.32 383.165 32.6667L379.741 36.9333C379.384 37.3733 379.7 38.0133 380.278 38.0133H396.764C397.328 38.0133 397.658 37.3867 397.314 36.9467L392.487 30.7067C392.212 30.3467 391.663 30.3467 391.388 30.6933L387.125 36.0133ZM392.576 27.1765C393.649 27.1765 394.518 26.3337 394.518 25.2941C394.518 24.2545 393.649 23.4118 392.576 23.4118C391.504 23.4118 390.635 24.2545 390.635 25.2941C390.635 26.3337 391.504 27.1765 392.576 27.1765Z" fill="white"/>
</g>
<circle cx="118.5" cy="28.5" r="28.5" fill="#CCCCCC"/>
<g clip-path="url(#clip2_88_3365)">
<path fill-rule="evenodd" clip-rule="evenodd" d="M130.875 20.6667V39.3333C130.875 40.8 129.638 42 128.125 42H108.875C107.362 42 106.125 40.8 106.125 39.3333V20.6667C106.125 19.2 107.362 18 108.875 18H128.125C129.638 18 130.875 19.2 130.875 20.6667ZM117.125 36.0133L114.237 32.64C113.949 32.3067 113.426 32.32 113.165 32.6667L109.741 36.9333C109.384 37.3733 109.7 38.0133 110.278 38.0133H126.764C127.328 38.0133 127.658 37.3867 127.314 36.9467L122.487 30.7067C122.212 30.3467 121.663 30.3467 121.388 30.6933L117.125 36.0133ZM122.576 27.1765C123.649 27.1765 124.518 26.3337 124.518 25.2941C124.518 24.2545 123.649 23.4118 122.576 23.4118C121.504 23.4118 120.635 24.2545 120.635 25.2941C120.635 26.3337 121.504 27.1765 122.576 27.1765Z" fill="white"/>
</g>
<circle cx="208.5" cy="28.5" r="28.5" fill="#CCCCCC"/>
<g clip-path="url(#clip3_88_3365)">
<path fill-rule="evenodd" clip-rule="evenodd" d="M220.875 20.6667V39.3333C220.875 40.8 219.638 42 218.125 42H198.875C197.362 42 196.125 40.8 196.125 39.3333V20.6667C196.125 19.2 197.362 18 198.875 18H218.125C219.638 18 220.875 19.2 220.875 20.6667ZM207.125 36.0133L204.237 32.64C203.949 32.3067 203.426 32.32 203.165 32.6667L199.741 36.9333C199.384 37.3733 199.7 38.0133 200.278 38.0133H216.764C217.328 38.0133 217.658 37.3867 217.314 36.9467L212.487 30.7067C212.212 30.3467 211.663 30.3467 211.388 30.6933L207.125 36.0133ZM212.576 27.1765C213.649 27.1765 214.518 26.3337 214.518 25.2941C214.518 24.2545 213.649 23.4118 212.576 23.4118C211.504 23.4118 210.635 24.2545 210.635 25.2941C210.635 26.3337 211.504 27.1765 212.576 27.1765Z" fill="white"/>
</g>
<circle cx="298.5" cy="28.5" r="28.5" fill="#CCCCCC"/>
<g clip-path="url(#clip4_88_3365)">
<path fill-rule="evenodd" clip-rule="evenodd" d="M310.875 20.6667V39.3333C310.875 40.8 309.638 42 308.125 42H288.875C287.362 42 286.125 40.8 286.125 39.3333V20.6667C286.125 19.2 287.362 18 288.875 18H308.125C309.638 18 310.875 19.2 310.875 20.6667ZM297.125 36.0133L294.237 32.64C293.949 32.3067 293.426 32.32 293.165 32.6667L289.741 36.9333C289.384 37.3733 289.7 38.0133 290.278 38.0133H306.764C307.328 38.0133 307.658 37.3867 307.314 36.9467L302.487 30.7067C302.212 30.3467 301.663 30.3467 301.388 30.6933L297.125 36.0133ZM302.576 27.1765C303.649 27.1765 304.518 26.3337 304.518 25.2941C304.518 24.2545 303.649 23.4118 302.576 23.4118C301.504 23.4118 300.635 24.2545 300.635 25.2941C300.635 26.3337 301.504 27.1765 302.576 27.1765Z" fill="white"/>
</g>
<defs>
<clipPath id="clip0_88_3365">
<rect width="33" height="32" fill="white" transform="translate(12 14)"/>
</clipPath>
<clipPath id="clip1_88_3365">
<rect width="33" height="32" fill="white" transform="translate(372 14)"/>
</clipPath>
<clipPath id="clip2_88_3365">
<rect width="33" height="32" fill="white" transform="translate(102 14)"/>
</clipPath>
<clipPath id="clip3_88_3365">
<rect width="33" height="32" fill="white" transform="translate(192 14)"/>
</clipPath>
<clipPath id="clip4_88_3365">
<rect width="33" height="32" fill="white" transform="translate(282 14)"/>
</clipPath>
</defs>
</svg>
