<svg width="97" height="112" viewBox="0 0 97 112" fill="none" xmlns="http://www.w3.org/2000/svg">
<rect width="96.75" height="112" fill="#CCCCCC"/>
<g clip-path="url(#clip0_1_345)">
<path fill-rule="evenodd" clip-rule="evenodd" d="M69 39.6667V72.3333C69 74.9 66.9 77 64.3333 77H31.6667C29.1 77 27 74.9 27 72.3333V39.6667C27 37.1 29.1 35 31.6667 35H64.3333C66.9 35 69 37.1 69 39.6667ZM45.6667 66.5233L40.7667 60.62C40.2767 60.0367 39.39 60.06 38.9467 60.6667L33.1367 68.1333C32.53 68.9033 33.0667 70.0233 34.0467 70.0233H62.0233C62.98 70.0233 63.54 68.9267 62.9567 68.1567L54.7667 57.2367C54.3 56.6067 53.3667 56.6067 52.9 57.2133L45.6667 66.5233ZM54.9176 51.0588C56.7369 51.0588 58.2118 49.584 58.2118 47.7647C58.2118 45.9454 56.7369 44.4706 54.9176 44.4706C53.0984 44.4706 51.6235 45.9454 51.6235 47.7647C51.6235 49.584 53.0984 51.0588 54.9176 51.0588Z" fill="white"/>
</g>
<defs>
<clipPath id="clip0_1_345">
<rect width="56" height="56" fill="white" transform="translate(20 28)"/>
</clipPath>
</defs>
</svg>
