<svg width="199" height="112" viewBox="0 0 199 112" fill="none" xmlns="http://www.w3.org/2000/svg">
<rect width="198.5" height="112" fill="#CCCCCC"/>
<g clip-path="url(#clip0_82_3355)">
<path fill-rule="evenodd" clip-rule="evenodd" d="M122 39.6667V72.3333C122 74.9 119.9 77 117.333 77H84.6667C82.1 77 80 74.9 80 72.3333V39.6667C80 37.1 82.1 35 84.6667 35H117.333C119.9 35 122 37.1 122 39.6667ZM98.6667 66.5233L93.7667 60.62C93.2767 60.0367 92.39 60.06 91.9467 60.6667L86.1367 68.1333C85.53 68.9033 86.0667 70.0233 87.0467 70.0233H115.023C115.98 70.0233 116.54 68.9267 115.957 68.1567L107.767 57.2367C107.3 56.6067 106.367 56.6067 105.9 57.2133L98.6667 66.5233ZM107.918 51.0588C109.737 51.0588 111.212 49.584 111.212 47.7647C111.212 45.9454 109.737 44.4706 107.918 44.4706C106.098 44.4706 104.624 45.9454 104.624 47.7647C104.624 49.584 106.098 51.0588 107.918 51.0588Z" fill="white"/>
</g>
<defs>
<clipPath id="clip0_82_3355">
<rect width="56" height="56" fill="white" transform="translate(73 28)"/>
</clipPath>
</defs>
</svg>
