<svg width="131" height="112" viewBox="0 0 131 112" fill="none" xmlns="http://www.w3.org/2000/svg">
<rect width="130.039" height="112" fill="#CCCCCC"/>
<g clip-path="url(#clip0_1_348)">
<path fill-rule="evenodd" clip-rule="evenodd" d="M86 39.6667V72.3333C86 74.9 83.9 77 81.3333 77H48.6667C46.1 77 44 74.9 44 72.3333V39.6667C44 37.1 46.1 35 48.6667 35H81.3333C83.9 35 86 37.1 86 39.6667ZM62.6667 66.5233L57.7667 60.62C57.2767 60.0367 56.39 60.06 55.9467 60.6667L50.1367 68.1333C49.53 68.9033 50.0667 70.0233 51.0467 70.0233H79.0233C79.98 70.0233 80.54 68.9267 79.9567 68.1567L71.7667 57.2367C71.3 56.6067 70.3667 56.6067 69.9 57.2133L62.6667 66.5233ZM71.9176 51.0588C73.7369 51.0588 75.2118 49.584 75.2118 47.7647C75.2118 45.9454 73.7369 44.4706 71.9176 44.4706C70.0984 44.4706 68.6235 45.9454 68.6235 47.7647C68.6235 49.584 70.0984 51.0588 71.9176 51.0588Z" fill="white"/>
</g>
<defs>
<clipPath id="clip0_1_348">
<rect width="56" height="56" fill="white" transform="translate(37 28)"/>
</clipPath>
</defs>
</svg>
