<svg width="57" height="57" viewBox="0 0 57 57" fill="none" xmlns="http://www.w3.org/2000/svg">
<circle cx="28.5" cy="28.5" r="28.5" fill="#CCCCCC"/>
<g clip-path="url(#clip0_1_376)">
<path fill-rule="evenodd" clip-rule="evenodd" d="M40.875 20.6667V39.3333C40.875 40.8 39.6375 42 38.125 42H18.875C17.3625 42 16.125 40.8 16.125 39.3333V20.6667C16.125 19.2 17.3625 18 18.875 18H38.125C39.6375 18 40.875 19.2 40.875 20.6667ZM27.125 36.0133L24.2375 32.64C23.9487 32.3067 23.4263 32.32 23.165 32.6667L19.7413 36.9333C19.3838 37.3733 19.7 38.0133 20.2775 38.0133H36.7638C37.3275 38.0133 37.6575 37.3867 37.3138 36.9467L32.4875 30.7067C32.2125 30.3467 31.6625 30.3467 31.3875 30.6933L27.125 36.0133ZM32.5765 27.1765C33.6486 27.1765 34.5176 26.3337 34.5176 25.2941C34.5176 24.2545 33.6486 23.4118 32.5765 23.4118C31.5044 23.4118 30.6353 24.2545 30.6353 25.2941C30.6353 26.3337 31.5044 27.1765 32.5765 27.1765Z" fill="white"/>
</g>
<defs>
<clipPath id="clip0_1_376">
<rect width="33" height="32" fill="white" transform="translate(12 14)"/>
</clipPath>
</defs>
</svg>
