<svg width="81" height="81" viewBox="0 0 81 81" fill="none" xmlns="http://www.w3.org/2000/svg">
<circle cx="40.5" cy="40.5" r="40.5" fill="#CCCCCC"/>
<g clip-path="url(#clip0_82_3356)">
<path fill-rule="evenodd" clip-rule="evenodd" d="M59.25 29.5833V56.4167C59.25 58.525 57.525 60.25 55.4167 60.25H28.5833C26.475 60.25 24.75 58.525 24.75 56.4167V29.5833C24.75 27.475 26.475 25.75 28.5833 25.75H55.4167C57.525 25.75 59.25 27.475 59.25 29.5833ZM40.0833 51.6442L36.0583 46.795C35.6558 46.3158 34.9275 46.335 34.5633 46.8333L29.7908 52.9667C29.2925 53.5992 29.7333 54.5192 30.5383 54.5192H53.5192C54.305 54.5192 54.765 53.6183 54.2858 52.9858L47.5583 44.0158C47.175 43.4983 46.4083 43.4983 46.025 43.9967L40.0833 51.6442ZM47.6824 38.9412C49.1768 38.9412 50.3882 37.7297 50.3882 36.2353C50.3882 34.7409 49.1768 33.5294 47.6824 33.5294C46.1879 33.5294 44.9765 34.7409 44.9765 36.2353C44.9765 37.7297 46.1879 38.9412 47.6824 38.9412Z" fill="white"/>
</g>
<defs>
<clipPath id="clip0_82_3356">
<rect width="46" height="46" fill="white" transform="translate(19 20)"/>
</clipPath>
</defs>
</svg>
