<svg width="417" height="112" viewBox="0 0 417 112" fill="none" xmlns="http://www.w3.org/2000/svg">
<rect width="417" height="112" fill="#CCCCCC"/>
<g clip-path="url(#clip0_82_3354)">
<path fill-rule="evenodd" clip-rule="evenodd" d="M230 39.6667V72.3333C230 74.9 227.9 77 225.333 77H192.667C190.1 77 188 74.9 188 72.3333V39.6667C188 37.1 190.1 35 192.667 35H225.333C227.9 35 230 37.1 230 39.6667ZM206.667 66.5233L201.767 60.62C201.277 60.0367 200.39 60.06 199.947 60.6667L194.137 68.1333C193.53 68.9033 194.067 70.0233 195.047 70.0233H223.023C223.98 70.0233 224.54 68.9267 223.957 68.1567L215.767 57.2367C215.3 56.6067 214.367 56.6067 213.9 57.2133L206.667 66.5233ZM215.918 51.0588C217.737 51.0588 219.212 49.584 219.212 47.7647C219.212 45.9454 217.737 44.4706 215.918 44.4706C214.098 44.4706 212.624 45.9454 212.624 47.7647C212.624 49.584 214.098 51.0588 215.918 51.0588Z" fill="white"/>
</g>
<defs>
<clipPath id="clip0_82_3354">
<rect width="56" height="56" fill="white" transform="translate(181 28)"/>
</clipPath>
</defs>
</svg>
