<svg width="30" height="30" viewBox="0 0 30 30" fill="none" xmlns="http://www.w3.org/2000/svg">
<rect width="30" height="30" rx="5" fill="#FF8B0A"/>
<path d="M15.0888 9.19632L13.3211 10.9641C12.997 11.2882 12.997 11.8185 13.3211 12.1426C13.6452 12.4667 14.1755 12.4667 14.4996 12.1426L16.2673 10.3748C17.2396 9.40256 18.8306 9.40256 19.8029 10.3748C20.7752 11.3471 20.7752 12.9381 19.8029 13.9104L18.0351 15.6781C17.711 16.0022 17.711 16.5326 18.0351 16.8566C18.3592 17.1807 18.8895 17.1807 19.2136 16.8566L20.9814 15.0889C22.6077 13.4625 22.6077 10.8227 20.9814 9.19632C19.355 7.56998 16.7152 7.56998 15.0888 9.19632ZM12.7318 17.4459C13.0559 17.77 13.5862 17.77 13.9103 17.4459L17.4459 13.9104C17.7699 13.5863 17.7699 13.0559 17.4459 12.7319C17.1218 12.4078 16.5914 12.4078 16.2673 12.7319L12.7318 16.2674C12.4077 16.5915 12.4077 17.1218 12.7318 17.4459ZM15.6781 18.0352L13.9103 19.8029C12.9381 20.7752 11.3471 20.7752 10.3748 19.8029C9.40252 18.8307 9.40252 17.2397 10.3748 16.2674L12.1426 14.4996C12.4666 14.1755 12.4666 13.6452 12.1426 13.3211C11.8185 12.997 11.2881 12.997 10.964 13.3211L9.19628 15.0889C7.56993 16.7152 7.56993 19.3551 9.19628 20.9814C10.8226 22.6078 13.4625 22.6078 15.0888 20.9814L16.8566 19.2137C17.1807 18.8896 17.1807 18.3592 16.8566 18.0352C16.5325 17.7111 16.0022 17.7111 15.6781 18.0352Z" fill="white"/>
</svg>
