<svg width="30" height="30" viewBox="0 0 30 30" fill="none" xmlns="http://www.w3.org/2000/svg">
<rect width="30" height="30" rx="5" fill="#FF8B0A"/>
<g clip-path="url(#clip0_101_3354)">
<path fill-rule="evenodd" clip-rule="evenodd" d="M22.5 9.16667V20.8333C22.5 21.75 21.75 22.5 20.8333 22.5H9.16667C8.25 22.5 7.5 21.75 7.5 20.8333V9.16667C7.5 8.25 8.25 7.5 9.16667 7.5H20.8333C21.75 7.5 22.5 8.25 22.5 9.16667ZM14.1667 18.7583L12.4167 16.65C12.2417 16.4417 11.925 16.45 11.7667 16.6667L9.69167 19.3333C9.475 19.6083 9.66667 20.0083 10.0167 20.0083H20.0083C20.35 20.0083 20.55 19.6167 20.3417 19.3417L17.4167 15.4417C17.25 15.2167 16.9167 15.2167 16.75 15.4333L14.1667 18.7583ZM17.4706 13.2353C18.1203 13.2353 18.6471 12.7086 18.6471 12.0588C18.6471 11.4091 18.1203 10.8824 17.4706 10.8824C16.8208 10.8824 16.2941 11.4091 16.2941 12.0588C16.2941 12.7086 16.8208 13.2353 17.4706 13.2353Z" fill="white"/>
</g>
<defs>
<clipPath id="clip0_101_3354">
<rect width="20" height="20" fill="white" transform="translate(5 5)"/>
</clipPath>
</defs>
</svg>
