<svg width="24" height="24" viewBox="0 0 24 24" fill="none" xmlns="http://www.w3.org/2000/svg">
<mask id="mask0_106_3357" style="mask-type:luminance" maskUnits="userSpaceOnUse" x="2" y="8" width="20" height="15">
<path fill-rule="evenodd" clip-rule="evenodd" d="M2.00049 8.79395H22.0001V22.5379H2.00049V8.79395Z" fill="white"/>
</mask>
<g mask="url(#mask0_106_3357)">
<path fill-rule="evenodd" clip-rule="evenodd" d="M17.5655 22.5379H6.43549C3.99049 22.5379 2.00049 20.5489 2.00049 18.1029V13.2279C2.00049 10.7829 3.99049 8.79395 6.43549 8.79395H7.36849C7.78249 8.79395 8.11849 9.12995 8.11849 9.54395C8.11849 9.95795 7.78249 10.2939 7.36849 10.2939H6.43549C4.81649 10.2939 3.50049 11.6099 3.50049 13.2279V18.1029C3.50049 19.7219 4.81649 21.0379 6.43549 21.0379H17.5655C19.1835 21.0379 20.5005 19.7219 20.5005 18.1029V13.2189C20.5005 11.6059 19.1885 10.2939 17.5765 10.2939H16.6335C16.2195 10.2939 15.8835 9.95795 15.8835 9.54395C15.8835 9.12995 16.2195 8.79395 16.6335 8.79395H17.5765C20.0155 8.79395 22.0005 10.7789 22.0005 13.2189V18.1029C22.0005 20.5489 20.0105 22.5379 17.5655 22.5379Z" fill="#B3B3B3"/>
</g>
<mask id="mask1_106_3357" style="mask-type:luminance" maskUnits="userSpaceOnUse" x="11" y="2" width="2" height="14">
<path fill-rule="evenodd" clip-rule="evenodd" d="M11.25 2H12.75V15.5409H11.25V2Z" fill="white"/>
</mask>
<g mask="url(#mask1_106_3357)">
<path fill-rule="evenodd" clip-rule="evenodd" d="M12 15.541C11.586 15.541 11.25 15.205 11.25 14.791V2.75C11.25 2.336 11.586 2 12 2C12.414 2 12.75 2.336 12.75 2.75V14.791C12.75 15.205 12.414 15.541 12 15.541Z" fill="#B3B3B3"/>
</g>
<path fill-rule="evenodd" clip-rule="evenodd" d="M9.0852 6.42902C8.8942 6.42902 8.7022 6.35602 8.5562 6.21002C8.2632 5.91802 8.2612 5.44402 8.5542 5.15002L11.4692 2.22202C11.7502 1.93902 12.2502 1.93902 12.5312 2.22202L15.4472 5.15002C15.7392 5.44402 15.7382 5.91802 15.4452 6.21002C15.1512 6.50202 14.6772 6.50202 14.3852 6.20802L12.0002 3.81402L9.6162 6.20802C9.4702 6.35602 9.2772 6.42902 9.0852 6.42902Z" fill="#B3B3B3"/>
</svg>
