<svg xmlns="http://www.w3.org/2000/svg" width="30" height="30" viewBox="0 0 30 30" fill="none">
  <path d="M15.3437 5C15.8184 5 16.2106 5.35269 16.2727 5.81029L16.2812 5.9375V24.6875C16.2812 25.2053 15.8615 25.625 15.3437 25.625C14.8691 25.625 14.4769 25.2723 14.4148 24.8147L14.4062 24.6875V5.9375C14.4062 5.41973 14.826 5 15.3437 5Z" fill="current"/>
  <path d="M22.2094 16.464C22.5747 16.0971 23.1683 16.0958 23.5352 16.4611C23.8688 16.7933 23.9002 17.314 23.6286 17.6816L23.5381 17.787L16.0081 25.3495C15.675 25.684 15.1523 25.7145 14.7847 25.4408L14.6795 25.3495L7.14822 17.787C6.78286 17.4202 6.78409 16.8266 7.15096 16.4612C7.48448 16.1291 8.00537 16.0999 8.37182 16.373L8.47678 16.4639L15.3441 23.359L22.2094 16.464Z" fill="current"/>
</svg>