<svg xmlns="http://www.w3.org/2000/svg" width="30" height="30" viewBox="0 0 30 30" fill="none">
  <path d="M20.6867 8.25522C19.4209 7.0828 17.8686 6.24784 16.1731 5.84243C13.9514 5.31118 11.6153 5.54891 9.54611 6.51677C7.47696 7.48464 5.7971 9.12546 4.78085 11.1713C3.76461 13.2171 3.47203 15.547 3.95089 17.7806C4.42975 20.0142 5.65176 22.0194 7.41736 23.4688C9.18296 24.9183 11.3878 25.7262 13.6719 25.7608C15.956 25.7954 18.1843 25.0545 19.9929 23.6592C21.8016 22.2638 23.0837 20.2965 23.6299 18.0785L23.6897 17.8357L23.447 17.7759L22.5362 17.5516L22.2935 17.4919L22.2337 17.7346C21.7653 19.6368 20.6657 21.324 19.1146 22.5207C17.5635 23.7173 15.6525 24.3527 13.6937 24.323C11.7348 24.2934 9.84392 23.6005 8.32973 22.3574C6.81554 21.1144 5.76754 19.3947 5.35686 17.4792C4.94619 15.5637 5.1971 13.5655 6.06864 11.811C6.94018 10.0565 8.38084 8.64929 10.1554 7.81925C11.9299 6.9892 13.9334 6.78533 15.8387 7.24093C17.0981 7.54206 18.2653 8.11952 19.2606 8.92202L17.1097 8.65928C16.7155 8.61114 16.357 8.89163 16.3088 9.28577C16.2607 9.67991 16.5412 10.0385 16.9353 10.0866L21.1248 10.5983C21.519 10.6465 21.8775 10.366 21.9256 9.97185L22.4374 5.78233C22.4855 5.38819 22.205 5.02965 21.8109 4.98151C21.4168 4.93336 21.0582 5.21385 21.0101 5.60799L20.6867 8.25522Z" fill="current" stroke="current" stroke-width="0.5"/>
</svg>