<svg xmlns="http://www.w3.org/2000/svg" width="20" height="20" viewBox="0 0 20 20" fill="none">
  <g clip-path="url(#clip0_25_3901)">
    <path fill-rule="evenodd" clip-rule="evenodd" d="M17.5 4.16667V15.8333C17.5 16.75 16.75 17.5 15.8333 17.5H4.16667C3.25 17.5 2.5 16.75 2.5 15.8333V4.16667C2.5 3.25 3.25 2.5 4.16667 2.5H15.8333C16.75 2.5 17.5 3.25 17.5 4.16667ZM9.16667 13.7583L7.41667 11.65C7.24167 11.4417 6.925 11.45 6.76667 11.6667L4.69167 14.3333C4.475 14.6083 4.66667 15.0083 5.01667 15.0083H15.0083C15.35 15.0083 15.55 14.6167 15.3417 14.3417L12.4167 10.4417C12.25 10.2167 11.9167 10.2167 11.75 10.4333L9.16667 13.7583ZM12.4706 8.23529C13.1203 8.23529 13.6471 7.70857 13.6471 7.05882C13.6471 6.40908 13.1203 5.88235 12.4706 5.88235C11.8208 5.88235 11.2941 6.40908 11.2941 7.05882C11.2941 7.70857 11.8208 8.23529 12.4706 8.23529Z" fill="white"/>
  </g>
  <defs>
    <clipPath id="clip0_25_3901">
      <rect width="20" height="20" fill="white"/>
    </clipPath>
  </defs>
</svg>