<svg xmlns="http://www.w3.org/2000/svg" width="20" height="20" viewBox="0 0 20 20" fill="none">
  <path d="M10.0888 4.19632L8.32107 5.96409C7.99698 6.28818 7.99698 6.81851 8.32107 7.1426C8.64516 7.46669 9.17549 7.46669 9.49958 7.1426L11.2673 5.37483C12.2396 4.40256 13.8306 4.40256 14.8029 5.37483C15.7752 6.3471 15.7752 7.93809 14.8029 8.91037L13.0351 10.6781C12.711 11.0022 12.711 11.5326 13.0351 11.8566C13.3592 12.1807 13.8895 12.1807 14.2136 11.8566L15.9814 10.0889C17.6077 8.46253 17.6077 5.82267 15.9814 4.19632C14.355 2.56998 11.7152 2.56998 10.0888 4.19632ZM7.73181 12.4459C8.0559 12.77 8.58623 12.77 8.91032 12.4459L12.4459 8.91037C12.7699 8.58628 12.7699 8.05595 12.4459 7.73186C12.1218 7.40777 11.5914 7.40777 11.2673 7.73186L7.73181 11.2674C7.40772 11.5915 7.40772 12.1218 7.73181 12.4459ZM10.6781 13.0352L8.91032 14.8029C7.93805 15.7752 6.34706 15.7752 5.37479 14.8029C4.40252 13.8307 4.40252 12.2397 5.37479 11.2674L7.14256 9.49962C7.46665 9.17553 7.46665 8.6452 7.14256 8.32111C6.81847 7.99702 6.28814 7.99702 5.96405 8.32111L4.19628 10.0889C2.56993 11.7152 2.56993 14.3551 4.19628 15.9814C5.82262 17.6078 8.46249 17.6078 10.0888 15.9814L11.8566 14.2137C12.1807 13.8896 12.1807 13.3592 11.8566 13.0352C11.5325 12.7111 11.0022 12.7111 10.6781 13.0352Z" fill="white"/>
</svg>