<svg xmlns="http://www.w3.org/2000/svg" width="30" height="30" viewBox="0 0 30 30" fill="none">
  <path fill-rule="evenodd" clip-rule="evenodd" d="M25.9373 27.4243H16.8711C16.3536 27.4243 15.9336 27.0043 15.9336 26.4868C15.9336 25.9693 16.3536 25.5493 16.8711 25.5493H25.9373C26.4548 25.5493 26.8748 25.9693 26.8748 26.4868C26.8748 27.0043 26.4548 27.4243 25.9373 27.4243Z" fill="current"/>
  <mask id="mask0_911_2173" style="mask-type:luminance" maskUnits="userSpaceOnUse" x="2" y="3" width="22" height="25">
    <path fill-rule="evenodd" clip-rule="evenodd" d="M2.5 3.75H23.9757V27.4244H2.5V3.75Z" fill="current"/>
  </mask>
  <g mask="url(#mask0_911_2173)">
    <path fill-rule="evenodd" clip-rule="evenodd" d="M16.3878 6.2708L4.61909 20.9896C4.40534 21.2571 4.32659 21.6021 4.40534 21.9333L5.25659 25.5396L9.05534 25.4921C9.41659 25.4883 9.75034 25.3271 9.97159 25.0521C13.9928 20.0208 21.6591 10.4283 21.8766 10.1471C22.0816 9.81455 22.1616 9.34455 22.0541 8.89205C21.9441 8.4283 21.6553 8.03455 21.2391 7.7833C21.1503 7.72205 19.0441 6.08705 18.9791 6.0358C18.1866 5.4008 17.0303 5.5108 16.3878 6.2708ZM4.51659 27.4246C4.08284 27.4246 3.70534 27.1271 3.60409 26.7033L2.58034 22.3646C2.36909 21.4658 2.57909 20.5383 3.15534 19.8183L14.9303 5.0908C14.9353 5.0858 14.9391 5.07955 14.9441 5.07455C16.2353 3.5308 18.5703 3.3033 20.1453 4.56705C20.2078 4.6158 22.2991 6.2408 22.2991 6.2408C23.0591 6.6933 23.6528 7.50205 23.8778 8.45955C24.1016 9.40705 23.9391 10.3846 23.4178 11.2108C23.3791 11.2721 23.3453 11.3246 11.4353 26.2246C10.8616 26.9396 10.0016 27.3558 9.07784 27.3671L4.52909 27.4246H4.51659Z" fill="current"/>
  </g>
  <path fill-rule="evenodd" clip-rule="evenodd" d="M20.2798 14.6057C20.0798 14.6057 19.8798 14.542 19.7085 14.412L12.8935 9.17697C12.4835 8.86197 12.406 8.27447 12.721 7.86197C13.0373 7.45197 13.6248 7.37572 14.036 7.69072L20.8523 12.9245C21.2623 13.2395 21.3398 13.8282 21.0235 14.2395C20.8398 14.4795 20.561 14.6057 20.2798 14.6057Z" fill="current"/>
</svg>