<svg xmlns="http://www.w3.org/2000/svg" width="30" height="30" viewBox="0 0 30 30" fill="none">
  <path fill-rule="evenodd" clip-rule="evenodd" d="M15.3087 27.4999C13.6149 27.4999 11.9637 27.4812 10.3299 27.4474C8.23992 27.4062 6.79367 26.0512 6.55743 23.9112C6.16368 20.3612 5.48992 11.9937 5.48367 11.9099C5.44117 11.3937 5.82618 10.9412 6.34242 10.8999C6.85118 10.8862 7.31117 11.2437 7.35243 11.7587C7.35868 11.8437 8.03118 20.1824 8.42118 23.7049C8.55492 24.9212 9.21117 25.5487 10.3687 25.5724C13.4937 25.6387 16.6824 25.6424 20.1199 25.5799C21.3499 25.5562 22.0149 24.9412 22.1524 23.6962C22.5399 20.2037 23.2149 11.8437 23.2224 11.7587C23.2637 11.2437 23.7199 10.8837 24.2312 10.8999C24.7474 10.9424 25.1324 11.3937 25.0912 11.9099C25.0837 11.9949 24.4062 20.3837 24.0162 23.9024C23.7737 26.0862 22.3312 27.4149 20.1537 27.4549C18.4874 27.4837 16.8799 27.4999 15.3087 27.4999Z" fill="current"/>
  <path fill-rule="evenodd" clip-rule="evenodd" d="M25.885 8.73682H4.6875C4.17 8.73682 3.75 8.31682 3.75 7.79932C3.75 7.28182 4.17 6.86182 4.6875 6.86182H25.885C26.4025 6.86182 26.8225 7.28182 26.8225 7.79932C26.8225 8.31682 26.4025 8.73682 25.885 8.73682Z" fill="current"/>
  <path fill-rule="evenodd" clip-rule="evenodd" d="M21.8002 8.73674C20.3777 8.73674 19.1427 7.72299 18.8627 6.32799L18.559 4.80799C18.4952 4.57674 18.2315 4.37549 17.9315 4.37549H12.6402C12.3402 4.37549 12.0765 4.57674 12.0002 4.86549L11.709 6.32799C11.4302 7.72299 10.194 8.73674 8.77148 8.73674C8.25398 8.73674 7.83398 8.31674 7.83398 7.79924C7.83398 7.28174 8.25398 6.86174 8.77148 6.86174C9.30398 6.86174 9.76648 6.48174 9.87148 5.95924L10.1752 4.43924C10.484 3.27424 11.4927 2.50049 12.6402 2.50049H17.9315C19.079 2.50049 20.0877 3.27424 20.384 4.38299L20.7015 5.95924C20.8052 6.48174 21.2677 6.86174 21.8002 6.86174C22.3177 6.86174 22.7377 7.28174 22.7377 7.79924C22.7377 8.31674 22.3177 8.73674 21.8002 8.73674Z" fill="current"/>
</svg>