<svg xmlns="http://www.w3.org/2000/svg" width="30" height="30" viewBox="0 0 30 30" fill="none">
  <path d="M14.6562 25C14.1816 25 13.7894 24.6473 13.7273 24.1897L13.7188 24.0625L13.7188 5.3125C13.7188 4.79473 14.1385 4.375 14.6563 4.375C15.1309 4.375 15.5231 4.72769 15.5852 5.18529L15.5938 5.3125L15.5938 24.0625C15.5938 24.5803 15.174 25 14.6562 25Z" fill="current"/>
  <path d="M7.79059 13.536C7.42526 13.9029 6.83167 13.9042 6.46477 13.5389C6.13122 13.2067 6.09984 12.686 6.37137 12.3184L6.46191 12.213L13.9919 4.65053C14.325 4.31598 14.8477 4.28555 15.2153 4.55924L15.3205 4.65047L22.8518 12.213C23.2171 12.5798 23.2159 13.1734 22.849 13.5388C22.5155 13.8709 21.9946 13.9001 21.6282 13.627L21.5232 13.5361L14.6559 6.64101L7.79059 13.536Z" fill="current"/>
</svg>