<svg width="162.278" height="87.436" viewBox="0 0 465 251" fill="none" xmlns="http://www.w3.org/2000/svg">
<path d="M439.03 89.3693L438.321 89.3204C438.174 89.296 437.489 89.0269 437.489 89.0269L437.293 88.8557C436.486 88.4888 437.098 87.8285 437.098 87.8285L437.978 86.9724C438.247 86.6055 438.712 86.3854 438.712 86.3854C438.957 86.2631 439.152 86.1408 439.47 85.9941C439.91 85.7495 440.4 85.5538 440.938 85.3092C441.5 85.0646 441.109 85.2603 441.72 84.9668C441.818 84.9179 441.892 84.8934 441.965 84.8445C441.916 84.7711 441.892 84.6733 441.843 84.5755C440.742 82.3986 439.592 79.9772 438.37 77.8493C438.149 77.5069 437.978 77.14 437.734 76.7732L437.416 76.9688L435.117 78.4119L433.82 79.3413L433.453 79.4881H432.695C432.279 79.5125 431.766 79.3169 431.766 79.3169C431.301 79.2679 431.13 78.632 431.13 78.632L431.032 78.3385L431.13 78.045L431.374 77.6781L431.815 77.0178L432.793 76.0883C433.796 75.4279 434.75 74.4496 435.728 73.7648C435.777 73.7158 435.826 73.6914 435.875 73.6425C434.138 70.683 432.279 67.7969 429.809 65.4978C429.638 65.6934 429.491 65.8646 429.344 66.0603C428.39 67.5034 426.923 68.6774 425.969 70.1449L424.917 70.7564C424.33 71.0499 424.037 70.7564 424.037 70.7564C423.67 70.7074 423.45 70.2672 423.45 70.2672L423.279 69.9737C422.936 69.7046 423.083 69.1421 423.083 69.1421L423.181 68.4572L423.67 67.4789C424.257 66.8674 424.232 66.6473 424.697 65.9625L425.358 65.1309C425.847 64.495 426.385 63.859 426.874 63.2231C425.04 62.2448 422.3 61.1197 420.784 60.9485C419.781 60.8506 418.607 60.9485 417.702 61.5355C417.36 62.4649 417.042 63.4677 416.822 64.446C416.528 65.7423 416.381 66.4272 416.259 67.4055C416.259 67.5278 416.137 68.0659 415.99 68.4328C415.843 69.4356 415.745 70.365 415.501 71.4167C415.354 72.1994 415.109 73.1044 414.963 73.7892C414.767 74.5474 414.645 75.2567 414.449 75.9905C414.009 77.7026 413.715 79.3658 413.544 81.1268C413.471 81.8606 413.422 82.8878 413.373 83.5727C413.299 84.3064 413.079 85.2114 413.079 86.0919C413.177 87.6817 412.761 89.0514 412.859 90.5923C412.933 92.0109 413.275 93.7719 414.449 94.7747C415.012 95.2639 415.819 95.753 416.455 96.0955C417.36 96.5846 418.558 96.7314 419.561 97.0983C420.392 97.3918 421.395 97.563 422.423 97.5385C423.694 97.4896 425.211 96.7069 426.434 96.3645C429.564 95.4351 432.769 96.8537 435.679 97.3428C436.242 97.4407 436.829 97.563 437.416 97.7097C438.321 97.3918 439.152 97.0493 439.617 96.6091C440.791 95.5084 442.723 93.4539 442.943 91.9864C443.163 90.5923 443.115 89.0758 442.87 87.6328C441.941 88.122 441.109 88.6111 440.082 89.2226C439.837 89.3693 439.103 89.4183 439.103 89.4183L439.03 89.3693Z" fill="#F3C300"/>
<path d="M464.711 57.3528C464.638 56.9125 464.613 56.4233 464.295 56.0565C464.051 55.8363 463.073 55.2249 462.828 55.1515C460.994 54.5889 459.82 55.763 459.82 55.763L459.159 56.2521C459.159 56.2521 458.988 56.4233 458.866 56.4723C458.621 56.6435 458.425 56.7168 458.181 56.888C457.863 57.0837 457.569 57.4751 457.227 57.7196C456.395 58.38 455.27 59.1627 454.488 59.9209C453.362 60.9971 452.751 61.5841 451.553 62.2445C451.063 62.5135 450.696 62.9049 450.33 63.2228C449.963 63.4919 449.669 63.6631 449.253 63.8832C448.055 64.5191 446.93 65.1551 445.805 65.9622C445.047 66.5492 443.701 67.4297 442.821 68.2613C442.405 68.6526 442.014 69.044 441.622 69.313C441.231 69.5821 440.766 69.9245 440.375 70.218C439.935 70.5604 439.543 70.7316 439.152 71.123C438.785 71.4409 438.32 71.6366 437.929 71.979C437.318 72.566 436.584 73.0552 435.85 73.5444C435.801 73.5933 435.752 73.6177 435.703 73.6666C434.725 74.3515 433.771 75.3298 432.768 75.9902L431.79 76.9196L431.35 77.58L431.105 77.9469L431.007 78.2404L431.105 78.5339C431.105 78.5339 431.276 79.1698 431.741 79.2187C431.741 79.2187 432.255 79.4389 432.67 79.4144H433.429L433.796 79.2677L435.092 78.3382L437.391 76.8952L437.709 76.6995L440.717 74.8651C442.527 73.8379 443.652 72.7128 445.291 71.8322L445.609 71.6121C445.903 71.4898 446.514 71.2208 446.832 71.074C448.52 70.218 449.302 69.7777 450.697 68.7749C451.895 67.9433 453.289 66.9894 454.585 66.1823C455.319 65.7176 456.028 65.4486 456.64 64.9349C456.713 64.8371 456.836 64.7393 456.933 64.6903L461.483 61.9265L463.635 60.141C463.855 59.9943 464.075 59.8231 464.247 59.7008C464.956 59.0649 464.858 58.3066 464.736 57.3772L464.711 57.3528Z" fill="#6F7271"/>
<path d="M442.869 45.5151C442.625 45.2705 442.233 44.9036 441.891 44.8302C441.084 44.6101 440.423 45.1727 439.812 45.5395C439.298 45.833 438.589 46.1755 438.246 46.6402C438.026 46.9581 437.88 47.3739 437.61 47.7163C437.39 48.0099 437.219 48.3034 436.975 48.5969C436.779 48.9148 436.583 49.2328 436.363 49.5507C436.094 49.9176 436.021 50.2111 435.703 50.5535C435.311 50.9693 434.896 51.4585 434.675 51.9966C434.48 52.3879 434.162 52.7548 433.844 53.0972C432.914 54.1979 432.376 55.323 431.447 56.5214C431.104 57.0106 430.591 57.5487 430.371 58.0623C430.224 58.3803 429.882 58.9428 429.686 59.2119C429.417 59.6766 429.123 60.0679 428.683 60.5082C428.292 60.924 428.023 61.3887 427.729 61.8779C427.411 62.3915 427.216 62.6605 426.922 63.0519C426.922 63.0763 426.873 63.1253 426.849 63.1497C426.36 63.7612 425.821 64.4216 425.332 65.0575L424.672 65.8891C424.232 66.5739 424.232 66.7941 423.645 67.4055L423.155 68.3839L423.058 69.0687C423.058 69.0687 422.911 69.6068 423.253 69.9003L423.424 70.1938C423.424 70.1938 423.669 70.6341 424.012 70.683C424.012 70.683 424.305 70.9765 424.892 70.683L425.944 70.0715C426.898 68.604 428.365 67.43 429.319 65.9869C429.466 65.7912 429.613 65.5956 429.784 65.4244C430.566 64.3971 431.52 63.4188 432.156 62.3181C432.523 61.7067 432.963 61.0707 433.404 60.5327C434.382 59.2608 435.36 58.0379 436.436 56.8883C437.488 55.7388 438.467 54.5892 439.249 53.3418C439.861 52.4124 440.912 51.752 441.548 50.8715C441.989 50.26 442.453 49.673 442.625 49.0127C442.869 48.1811 443.236 47.3984 443.138 46.469C443.138 46.151 443.089 45.7597 442.82 45.5151H442.869Z" fill="#6F7271"/>
<path d="M464.858 74.5474C464.662 74.0338 464.198 73.7403 463.562 73.7647C463.024 73.7892 462.486 74.0093 462.021 74.1316C461.556 74.2784 461.043 74.5229 460.553 74.7675C460.138 74.9387 459.795 75.2322 459.404 75.4279C458.499 75.8926 457.594 76.3084 456.811 76.871C455.417 77.8982 453.876 78.5097 452.311 79.2924C450.99 79.9527 449.718 80.7599 448.471 81.567C448.079 81.8116 447.639 82.1051 447.15 82.3252C444.778 83.328 444.533 83.646 443.237 84.1841C442.674 84.4287 442.356 84.551 441.891 84.7711C441.818 84.82 441.745 84.8689 441.647 84.8934C441.035 85.1869 441.427 84.9912 440.864 85.2358C440.326 85.4804 439.837 85.6761 439.397 85.9206C439.103 86.0674 438.883 86.1897 438.638 86.312C438.638 86.312 438.198 86.5566 437.905 86.899L437.024 87.755C437.024 87.755 436.413 88.391 437.22 88.7823L437.415 88.9535C437.415 88.9535 438.125 89.2226 438.247 89.247L438.956 89.2959C438.956 89.2959 439.69 89.247 439.935 89.1003C440.962 88.5133 441.794 87.9996 442.723 87.5105C443.383 87.168 444.093 86.8256 445.022 86.4832C446.27 86.0185 447.639 85.5782 448.862 84.9912C450.941 83.9884 453.045 82.7655 455.197 82.0317C456.42 81.5915 457.863 81.0534 459.086 80.3196C460.113 79.7082 461.36 79.2434 462.486 78.8277C463.097 78.5831 463.317 78.4852 463.782 78.045C464.173 77.6781 464.54 77.3112 464.809 76.8465C465.127 76.2595 465.005 75.0855 464.76 74.4496L464.858 74.5474Z" fill="#6F7271"/>
<path d="M449.791 102.137C448.005 101.281 445.657 100.694 443.872 99.9109C441.817 99.0549 439.567 98.1988 437.317 97.6607C436.754 97.514 436.167 97.3917 435.58 97.2938C432.67 96.8047 429.466 95.4105 426.335 96.3155C425.088 96.6579 423.596 97.4406 422.324 97.4895C421.272 97.514 420.294 97.3428 419.462 97.0493C418.459 96.6824 417.285 96.5356 416.356 96.0465C415.72 95.704 414.913 95.1904 414.35 94.7257C413.176 93.7229 412.858 91.9619 412.761 90.5433C412.663 89.0024 413.079 87.6327 412.981 86.0429C412.981 85.1868 413.201 84.2819 413.274 83.5236C413.323 82.8388 413.372 81.8115 413.445 81.0778C413.617 79.3168 413.935 77.6536 414.35 75.9415C414.546 75.1833 414.644 74.474 414.864 73.7402C415.011 73.0554 415.255 72.1749 415.402 71.3677C415.647 70.316 415.744 69.3866 415.891 68.3838C416.038 68.0169 416.136 67.4788 416.16 67.3565C416.258 66.3782 416.429 65.6933 416.723 64.397C416.967 63.4431 417.261 62.4403 417.603 61.4865C417.775 61.0707 417.946 60.6549 418.141 60.2391C418.973 58.5514 419.511 56.5214 420.441 54.7848C420.441 54.7848 421.003 53.8798 421.101 53.5863C421.248 53.3417 421.419 52.9749 421.419 52.9749C421.419 52.9749 421.761 52.4857 422.128 51.8987C422.642 51.0426 422.568 51.3606 422.886 50.7981C423.033 50.6758 423.155 50.5045 423.229 50.3089C423.351 50.0888 423.498 49.9175 423.547 49.624C423.645 49.037 423.547 48.3522 423.253 47.863C422.886 47.276 422.324 46.42 421.443 46.371C420.71 46.3466 419.829 46.8113 419.267 47.2026C418.924 47.4472 418.631 47.7163 418.435 48.0342C417.554 48.9392 416.87 50.3578 416.527 51.3851C416.087 52.9015 415.475 54.3935 415.109 55.9588C414.742 57.5731 413.983 58.527 413.543 60.0679C413.348 60.8016 412.932 61.8044 412.785 62.5626C412.687 63.1986 412.54 64.5193 412.54 65.0819C412.369 66.0602 411.953 68.2615 411.807 68.9952C411.513 70.9275 411.293 72.7374 410.73 74.6452C409.801 77.6291 408.676 80.9555 408.798 84.2085C408.921 87.2658 408.651 90.8368 409.581 93.6984C409.777 94.3344 410.046 94.8969 410.413 95.4594C410.535 95.704 410.682 95.9486 410.853 96.1688C411.171 96.609 411.342 96.8047 411.709 97.1716C411.978 97.4406 412.222 97.6363 412.443 97.9053C412.883 98.4189 413.665 98.7858 414.252 99.1527C414.937 99.593 415.255 99.9843 416.038 100.253C416.723 100.522 417.31 100.718 417.946 100.816C418.655 100.938 419.584 100.914 420.318 100.816C421.297 100.694 422.397 100.425 423.424 100.498C424.232 100.522 424.941 100.571 425.773 100.522C427.485 100.376 429.148 99.544 430.835 99.7152C432.768 99.8865 434.357 100.816 436.314 101.501C437.659 101.99 438.711 102.234 439.567 102.748C440.423 103.262 441.206 103.824 441.964 104.338C443.407 105.292 444.924 106.246 446.66 107.004C447.614 107.444 448.25 107.933 448.935 108.276C450.084 108.838 451.65 109.23 452.946 109.67C453.704 109.914 454.634 110.379 455.27 109.914C455.783 109.548 456.003 108.789 456.003 108.276C456.664 104.729 452.506 103.506 449.742 102.161L449.791 102.137Z" fill="#6F7271"/>
<path d="M369.983 13.1319C371.671 12.7895 373.285 13.1319 375.046 13.5722L378.739 14.9663C380.304 15.4065 381.332 15.7245 382.457 16.6784L384.56 18.3905C385.954 19.4911 387.373 20.6162 388.645 21.9859C389.158 22.5729 389.501 23.2578 389.843 23.9671L390.357 24.9943C391.629 27.1956 391.922 30.7421 391.922 30.7665C392.191 32.3808 391.922 33.0657 391.458 34.4598L390.822 36.2942C390.381 37.6394 389.966 38.8868 389.256 40.1097C388.278 41.7485 386.713 43.3138 385.636 44.3411C384.927 45.0014 383.973 45.4662 383.019 45.9064L381.063 46.9337L380.304 47.4718L378.715 48.4501C378.715 48.4501 378.568 48.499 378.495 48.5235L380.574 48.6458L381.65 48.817C382.53 48.9882 383.435 49.135 384.389 49.0127C385.343 48.8904 386.223 48.5235 387.031 48.2055L389.305 47.4718L392.094 46.9092C394.295 46.2488 395.713 45.295 396.667 43.7785L397.303 42.8002C398.428 41.1125 399.48 39.4983 399.896 37.4927L400.703 33.5548L400.825 30.7176V28.0761C400.825 26.7064 400.923 25.3857 400.556 23.9671L400.385 23.2578C399.92 21.2032 399.358 18.8797 398.184 17.2165C396.667 15.0886 395.029 13.2297 393.341 11.6399C391.8 10.9306 390.235 10.3436 388.694 9.8789C374.948 8.04451 366.73 11.4198 362.45 17.4855C364.602 15.2353 367.341 13.5232 369.983 13.0585V13.1319Z" fill="#F18A00"/>
<path d="M405.375 27.3179L405.571 28.4919L405.742 29.4458C405.742 29.4458 405.62 32.1118 405.595 32.2096C405.424 33.3836 404.812 34.5821 404.201 35.7316L403.467 37.2481C403.003 38.2998 402.244 39.2048 401.462 40.0853L400.214 41.5283L398.698 43.0203L397.915 43.6807L396.839 44.7569L395.323 46.2244L394.418 46.7625L392.852 47.8142C391.678 48.8659 390.7 49.2083 389.232 49.722L388.841 49.8687C385.637 51.0183 382.677 51.6787 379.596 51.9232C375.731 52.2412 371.402 51.9232 366.021 50.8226C365.434 50.7003 364.896 50.5291 364.358 50.309C367.097 54.8094 371.133 58.2336 377.419 59.6277C395.909 60.7039 408.383 45.5395 408.848 31.2068C408.383 26.8532 406.769 23.2088 404.47 20.2004C404.91 21.3255 405.204 22.4751 405.277 23.5757L405.351 27.2934L405.375 27.3179Z" fill="#F18A00"/>
<path d="M378.984 43.9252C381.307 42.9469 383.704 41.9441 385.319 39.8407L386.444 38.5688C387.251 37.7617 388.034 36.8812 388.425 35.9273C388.694 35.1935 388.547 34.1418 388.425 33.2858L388.327 32.5765C388.131 29.8371 387.569 27.3668 386.713 25.2389C386.028 23.5268 385.172 22.4751 384.022 21.1787L381.992 18.8796C381.943 18.8063 381.65 18.5617 381.65 18.5617C380.207 17.3387 378.421 15.8223 376.489 15.9202L372.6 16.2381C370.839 16.5072 369.347 17.7056 367.88 18.8796L366.559 19.9069C365.214 20.8608 363.942 22.1571 363.257 23.2333L361.569 26.0705C360.273 27.9538 359.906 30.3752 359.686 32.5275C359.49 34.7777 360.053 36.9301 361.276 38.4465L362.01 39.3759C362.694 40.2809 363.477 41.3326 364.382 41.9196L366.559 42.8001L369.298 44.3655C372.405 46.0287 375.315 45.4172 378.739 43.9497L379.008 43.8274L378.984 43.9252Z" fill="#F18A00"/>
<path d="M372.38 0.388964L367.831 1.7831L364.945 3.22616C363.429 3.95992 361.741 4.88935 360.445 6.40578L359.075 8.70489C359.075 8.70489 357.827 10.4414 357.705 10.5882L356.971 11.9334L356.018 12.9118C354.134 15.4065 353.205 18.1214 352.349 21.4967L351.713 24.5785L351.664 27.4402C351.419 29.6659 351.419 31.3291 351.664 32.87L351.884 34.4598L352.349 37.1747L353.767 41.137C354.257 42.3844 354.599 43.2893 355.577 44.2432L356.507 45.4172C356.947 46.0532 357.363 46.6646 358.072 46.9826L360.983 48.5969C362.059 49.2328 363.159 49.8932 364.309 50.3579C364.847 50.578 365.385 50.7737 365.972 50.8715C371.353 51.9477 375.658 52.2901 379.547 51.9721C382.628 51.7276 385.564 51.0672 388.792 49.9176L389.183 49.7709C390.651 49.2328 391.629 48.8904 392.803 47.8631L394.369 46.8114L395.274 46.2733L396.79 44.8058L397.866 43.7296L398.649 43.0692L400.165 41.5772L401.413 40.1342C402.171 39.2537 402.954 38.3487 403.418 37.297L404.152 35.7806C404.739 34.631 405.351 33.4325 405.546 32.2585C405.546 32.1607 405.693 29.5192 405.693 29.5192L405.497 28.5408L405.302 27.3668L405.228 23.6491C405.155 22.5729 404.837 21.4234 404.421 20.2738C403.932 18.9775 402.538 16.0669 402.538 16.0669C401.975 14.9418 401.168 13.8901 400.434 12.9118L398.649 10.5637C397.181 8.55814 395.616 6.4547 393.855 4.74259C393.048 3.95992 391.776 3.6175 390.651 3.29954L385.025 1.4896C382.726 0.706926 379.767 -0.149125 377.076 0.0220851L372.331 0.437881L372.38 0.388964ZM369.274 44.4389L366.535 42.8735L364.358 41.993C363.453 41.3816 362.67 40.3543 361.985 39.4493L361.252 38.5199C360.029 37.0035 359.466 34.8511 359.662 32.6009C359.906 30.4486 360.273 28.0272 361.545 26.1439L363.233 23.3067C363.893 22.2305 365.165 20.9342 366.535 19.9803L367.855 18.953C369.323 17.779 370.839 16.5561 372.576 16.3115L376.465 15.9935C378.397 15.9202 380.183 17.4366 381.626 18.6351C381.626 18.6351 381.919 18.8797 381.968 18.953C381.968 18.953 383.974 21.2277 383.998 21.2521C385.123 22.5729 386.004 23.6002 386.689 25.3123C387.545 27.4402 388.107 29.886 388.303 32.6499L388.401 33.3592C388.523 34.2152 388.67 35.2669 388.401 36.0007C388.009 36.9546 387.227 37.8351 386.42 38.6422L385.294 39.9141C383.705 42.0175 381.283 43.0203 378.96 43.9986L378.691 44.1209C375.291 45.564 372.356 46.1999 369.25 44.5367L369.274 44.4389ZM400.826 28.1495V30.791L400.703 33.6282L399.896 37.566C399.48 39.5716 398.429 41.1614 397.304 42.8735L396.668 43.8519C395.714 45.3683 394.295 46.2977 392.094 46.9826L389.306 47.5451L387.031 48.2789C386.224 48.5969 385.319 48.9637 384.39 49.086C383.436 49.2083 382.531 49.0371 381.65 48.8904L380.574 48.7192L378.495 48.5969C378.495 48.5969 378.642 48.5479 378.715 48.5235L380.305 47.5451L381.063 47.007L383.02 45.9798C383.949 45.5395 384.928 45.0748 385.637 44.4144C386.713 43.3872 388.303 41.8218 389.257 40.1831C389.966 38.9602 390.382 37.6883 390.822 36.3676L391.458 34.5332C391.923 33.139 392.192 32.4542 391.923 30.8399C391.923 30.8155 391.629 27.269 390.357 25.0677L389.844 24.0404C389.501 23.3311 389.159 22.6463 388.645 22.0593C387.373 20.7141 385.955 19.589 384.561 18.4639L382.457 16.7518C381.357 15.7979 380.305 15.4799 378.74 15.0397L375.046 13.6455C373.285 13.2053 371.671 12.8628 369.983 13.2053C367.342 13.6944 364.603 15.3821 362.45 17.6323C361.276 18.8552 360.322 20.2004 359.637 21.6679C358.366 24.3828 357.02 27.5869 357.461 30.9133L357.534 31.8427C357.632 33.1146 357.73 34.313 358.317 35.4626C358.708 36.2697 358.904 37.2236 359.075 38.0797C359.319 39.6695 360.004 41.137 360.787 42.4822L359.466 41.3082L357.289 39.2537C356.213 38.1286 355.773 37.0279 355.186 35.4381L353.939 33.2613L353.621 32.7721C353.156 32.0628 353.18 31.0111 353.18 30.0572V27.0733C353.474 25.1411 354.281 23.38 355.064 21.6435L355.748 20.1271C356.287 18.8797 356.922 18.0481 357.656 17.1186L360.004 14.3059L360.811 13.0341L361.814 11.4932C362.45 10.7839 363.38 10.099 364.26 9.4631L365.312 8.70489L368.565 6.4547C370.619 5.3296 372.698 4.30234 375.242 4.18005H378.935C379.131 4.22896 383.485 5.13393 385.221 6.01444L386.909 7.0417L387.985 7.751C389.893 8.90056 391.678 10.2458 393.39 11.8356C395.078 13.4254 396.717 15.2842 398.233 17.4121C399.407 19.0753 399.97 21.3989 400.434 23.4534L400.606 24.1627C400.948 25.5813 400.875 26.9021 400.875 28.2718L400.826 28.1495Z" fill="#6F7271"/>
<path d="M323.291 117.472C319.94 117.472 317.764 120.114 317.666 124.15V154.796C317.666 159.297 316.81 162.109 314.975 163.332L312.798 164.873C310.964 166.12 310.083 167.759 310.083 169.863C310.083 173.385 312.798 175.879 316.663 175.879C321.677 175.879 326.789 171.208 328.281 165.313C328.819 163.234 328.819 162.501 328.819 157.462V124.125C328.819 120.163 326.642 117.448 323.291 117.448V117.472Z" fill="#4D525A"/>
<path d="M344.913 117.472C341.635 117.472 339.459 120.114 339.361 124.15V155.041C339.361 159.028 341.635 161.718 344.986 161.718C348.337 161.718 350.441 159.101 350.538 155.041V124.15C350.538 120.187 348.264 117.472 344.913 117.472Z" fill="#4D525A"/>
<path d="M238.004 117.472C226.264 117.472 217.043 127.403 217.043 140.146V154.87C217.043 158.954 219.367 161.742 222.816 161.742C226.264 161.742 228.392 159.052 228.466 154.87V139.803C228.563 133.933 232.599 129.482 238.004 129.482C243.141 129.482 247.25 133.909 247.348 139.534V154.87C247.348 158.954 249.622 161.742 253.071 161.742C256.52 161.742 258.648 159.052 258.745 154.87V139.876C258.745 127.403 249.476 117.497 238.004 117.497V117.472Z" fill="#4D525A"/>
<path d="M380.769 117.472C369.005 117.472 359.784 127.403 359.784 140.146V154.87C359.784 158.954 362.132 161.742 365.58 161.742C369.029 161.742 371.157 159.052 371.255 154.87V139.803C371.304 133.933 375.364 129.482 380.794 129.482C385.905 129.482 390.039 133.909 390.161 139.534V154.87C390.161 158.954 392.411 161.742 395.836 161.742C399.26 161.742 401.412 159.052 401.51 154.87V139.876C401.51 127.403 392.265 117.497 380.794 117.497L380.769 117.472Z" fill="#4D525A"/>
<path d="M112.629 117.472C109.279 117.472 107.077 120.114 107.004 124.15V141.931C107.004 146.285 104.093 149.733 100.229 149.733C97.6118 149.733 95.0926 148.021 94.0898 145.575C93.5028 144.01 93.3316 142.958 93.3316 139.363V124.15C93.3316 120.187 91.0814 117.472 87.8039 117.472H87.7306C84.4531 117.472 82.2763 120.114 82.2029 124.15V141.931C82.2029 146.285 79.2679 149.733 75.4034 149.733C72.7864 149.733 70.2916 148.021 69.2643 145.575C68.6773 144.01 68.5306 142.958 68.5306 139.363V124.15C68.5306 120.187 66.2804 117.472 62.9051 117.472C59.5298 117.472 57.4753 120.114 57.3774 124.15V140.414C57.3774 145.208 58.2335 149.342 59.7988 152.155C63.1741 158.025 69.2643 161.718 75.5013 161.718C80.0995 161.718 84.5509 159.712 87.8284 156.313C91.2526 159.737 95.7774 161.718 100.327 161.718C105.683 161.718 110.893 159.027 114.244 154.478C117.032 150.687 118.206 146.627 118.206 140.757V124.125C118.206 120.163 115.931 117.448 112.678 117.448L112.629 117.472Z" fill="#4D525A"/>
<path d="M171.012 145.893C173.482 155.261 181.407 161.987 190.897 161.987C202.637 161.987 211.882 152.081 211.882 139.363C211.882 127.427 202.393 117.472 190.995 117.472C181.456 117.472 173.36 124.492 170.939 133.86H163.993C161.596 124.565 153.402 117.595 143.839 117.595C132.441 117.595 123.049 127.623 123.049 139.73C123.049 151.837 132.245 162.134 143.741 162.134C153.426 162.134 161.375 155.383 163.87 145.893H171.012ZM190.995 129.677C196.18 129.677 200.485 134.202 200.485 139.534C200.485 145.478 196.376 150.002 190.897 150.002C185.418 150.002 181.529 145.478 181.529 139.779C181.529 134.08 185.785 129.653 190.995 129.653V129.677ZM143.765 150.149C138.58 150.149 134.373 145.624 134.373 139.95C134.373 134.275 138.653 129.8 143.839 129.8C149.024 129.8 153.329 134.324 153.329 139.681C153.329 145.624 149.22 150.149 143.765 150.149Z" fill="#4D525A"/>
<path d="M291.715 164.506V158.343C300.423 155.848 306.709 147.948 306.709 138.458C306.709 126.742 297.488 117.497 285.674 117.497C274.594 117.497 265.374 126.987 265.374 138.409C265.374 147.923 271.88 156.019 280.587 158.416V164.433C271.953 166.854 265.496 175.023 265.496 184.611C265.496 196.009 274.766 205.401 286.017 205.401C297.268 205.401 306.806 196.18 306.806 184.685C306.806 174.975 300.545 167.05 291.691 164.531L291.715 164.506ZM276.698 138.384C276.698 133.175 280.905 128.895 285.845 128.895C291.373 128.895 295.58 133.004 295.58 138.433C295.58 143.863 291.373 147.85 286.09 147.85C280.807 147.85 276.698 143.57 276.698 138.384ZM286.237 194.052C280.978 194.052 276.771 189.796 276.771 184.587C276.771 179.377 280.978 175.097 285.943 175.097C291.471 175.097 295.678 179.181 295.678 184.66C295.678 190.139 291.471 194.052 286.212 194.052H286.237Z" fill="#4D525A"/>
<path d="M50.4797 101.892C49.3057 100.963 48.523 100.302 48.523 100.302C46.4929 98.6879 44.7319 97.4894 42.7018 95.8996C42.3594 95.6061 41.699 94.8968 41.3811 94.6278C40.7696 94.1386 40.1581 93.6494 39.5711 93.1847C38.9841 92.6955 38.3482 92.3287 37.7612 91.8639C37.3209 91.4971 36.9052 91.0323 36.5138 90.6655C35.5844 89.9072 34.655 89.1735 33.7745 88.4397C32.7716 87.6081 31.8178 86.9722 30.8883 86.214C29.9345 85.3824 29.005 84.4285 28.149 83.6703L27.4397 83.0588L27.1462 83.866C26.7304 85.0644 26.7304 86.4097 26.7304 87.706L26.5102 90.7633C25.3362 98.1743 22.817 107.273 20.3467 116.078C25.8988 114.733 28.8094 113.265 34.7773 111.529C38.2259 110.501 40.8674 108.936 44.1449 107.591C47.6669 106.148 50.0394 105.879 53.3902 104.191C52.8522 103.751 52.363 103.433 51.8494 103.017C51.4091 102.65 50.8955 102.185 50.5041 101.867L50.4797 101.892Z" fill="#00A0DF"/>
<path d="M23.2575 57.8422C25.5811 55.5921 24.2114 52.6081 23.5021 50.4313C19.1485 45.0749 15.4552 46.3956 12.0799 48.9393C10.7347 50.9938 8.6802 53.8066 10.5635 56.6193C14.5503 59.8968 18.7327 59.7745 23.2331 57.8422H23.2575Z" fill="#CF3339"/>
<path d="M23.0126 78.6076C23.5263 80.3442 23.8198 82.1052 23.8931 82.2519C23.8931 83.4504 23.9421 84.6733 23.8687 85.8474C23.8442 86.361 23.8687 86.7034 23.8198 87.2415C23.7709 87.6573 23.6486 88.2198 23.5996 88.6356C23.3306 90.5434 22.9393 92.4267 22.4501 94.31C22.1566 95.4596 21.8386 96.6336 21.5207 97.7831C21.1049 99.2507 20.8603 100.278 20.5668 101.281C20.2977 102.137 19.8575 103.14 19.564 104.02C19.0503 105.708 18.5123 107.444 17.9742 109.205C17.3382 111.358 17.0447 113.681 16.5556 115.956C16.1398 117.741 15.2593 119.723 14.9168 121.361C14.6967 122.535 14.3298 123.587 14.2075 124.541C14.1342 125.103 14.2809 125.568 14.2075 126.082C14.3054 126.131 14.8679 127.696 15.2593 127.818C15.9196 128.063 17.3138 126.84 17.4116 126.864C17.4605 126.644 17.7296 126.326 17.9252 125.641C18.072 125.128 18.0965 124.272 18.2921 123.611C18.6345 122.291 19.2705 121.312 19.6129 120.016L20.2977 116.103C22.7681 107.322 25.2873 98.1989 26.4613 90.788L26.6814 87.7307C26.6814 86.4344 26.6814 85.0891 27.0972 83.8907L27.3907 83.0835L28.1 83.695C28.9805 84.4532 29.8855 85.4071 30.8394 86.2387C31.7688 86.9969 32.7227 87.6328 33.7255 88.4644C34.606 89.1737 35.5354 89.9319 36.4649 90.6902C36.8807 91.057 37.272 91.5217 37.7123 91.8886C38.2993 92.3533 38.9352 92.7202 39.5222 93.2094C40.1092 93.6741 40.7207 94.1633 41.3321 94.6525C41.6501 94.9215 42.3105 95.6308 42.6529 95.9243C44.683 97.5386 46.444 98.7126 48.474 100.327C48.474 100.327 49.2567 100.987 50.4307 101.917C50.8221 102.235 51.3112 102.699 51.7759 103.066C52.2896 103.482 52.7787 103.8 53.3168 104.24C53.4391 104.338 53.5859 104.436 53.7326 104.558C54.0261 104.778 54.2707 105.121 54.5398 105.341C54.8822 105.585 55.2246 105.732 55.5426 106.001C56.4475 106.711 57.328 107.664 58.0863 108.251C58.5754 108.667 59.0157 108.765 59.3826 109.059C60.1163 109.646 60.6055 110.012 60.6544 110.061C60.8012 110.086 61.4371 110.11 61.8529 110.061C62.4154 109.964 62.7579 109.694 62.7579 109.694C63.1492 109.474 63.5894 108.472 63.7362 107.811C63.8096 107.469 63.2715 106.931 63.3449 106.857C62.9046 106.441 62.5622 105.977 62.0486 105.512C61.486 104.998 60.6055 104.436 59.994 103.898C58.5999 102.724 57.1568 101.452 55.567 100.18C54.98 99.7154 54.0995 99.2507 53.4881 98.7615C52.0205 97.6364 50.6998 96.4868 49.1833 95.3617C47.6424 94.2122 46.1016 92.9893 44.6585 91.9131C42.4817 90.3477 40.4516 89.027 38.7151 87.804C38.1281 87.3882 37.6633 86.9969 37.1252 86.63C36.2203 86.0186 35.193 85.4805 34.3125 84.8935C34.0435 84.7467 33.9456 84.5755 33.7255 84.4043C33.5298 84.282 33.2608 84.1597 33.0896 84.013C32.2824 83.4504 31.4998 82.8145 30.6682 82.0807C30.3502 81.7872 30.0078 81.5671 29.6654 81.2002C29.2251 80.7355 28.736 80.1485 28.2712 79.6104L27.244 77.6293L26.2412 75.7215C26.7793 75.5258 27.3174 75.2812 27.8799 75.0856C28.7849 74.7431 29.5186 74.4252 30.6682 73.8626C31.7688 73.3246 33.0896 72.9332 34.1902 72.3707C35.2664 71.7837 36.1224 71.0254 37.1986 70.3406C38.5683 69.4601 39.9869 68.5307 41.381 67.479C42.3594 66.7452 43.46 66.1337 44.8052 64.9597C45.8814 64.0058 47.1044 62.5872 48.1805 61.4866C49.379 60.3126 50.1861 59.2364 51.2868 57.9156C51.6047 57.5243 52.2162 57.084 52.5586 56.6927C54.7599 54.0756 56.8144 51.3118 58.4287 48.548C59.5049 46.7136 60.3854 44.8792 60.9724 43.1182C61.6328 41.137 61.7551 39.3516 61.5838 37.5661C61.5105 36.9057 61.0702 36.0497 60.8745 35.4626C59.4315 35.4626 58.4776 35.536 57.4993 35.9518C54.8088 37.1258 53.488 40.1342 52.5342 42.9959C52.2407 43.9009 51.7026 44.8792 51.3602 45.8331C50.871 47.2517 50.4796 48.548 49.648 49.8198C49.1344 50.5536 48.1561 51.3363 47.5202 52.07C46.0526 53.7821 44.683 55.4209 42.7507 57.0351C41.9925 57.6711 41.4055 58.4782 40.5984 59.1141C39.6445 59.8968 38.4705 60.4593 37.5166 61.2175C36.0002 62.3671 34.5571 63.4922 33.2119 64.5439C31.2063 66.1337 29.1273 67.2344 27.4886 68.2127C26.3635 68.8975 25.3117 69.4846 24.2111 70.0716C24.1377 69.7047 24.0399 69.1911 24.0644 69.24C23.9665 68.7019 23.4284 67.1854 22.8659 65.8647C22.6213 65.3266 22.4501 64.7396 22.23 64.2749C21.912 63.6145 21.5696 63.0764 21.4473 62.7095C21.056 61.7556 20.2977 61.7312 20.2977 61.7312C20.2977 61.7312 19.8086 61.8046 19.3928 62.0491C19.246 62.1714 19.1482 62.3426 19.0259 62.4649C19.0259 62.6606 19.1237 63.1987 19.246 63.6879C19.3438 64.177 19.3928 64.6173 19.4906 65.0086C19.6374 65.5956 19.6374 66.4517 19.9064 67.2099L20.2977 69.4356C20.2977 69.4356 20.9337 71.4412 21.007 71.6369C20.2733 71.9793 19.4906 72.2973 18.6345 72.6642C17.9742 72.9577 16.7023 73.3246 15.9686 73.6425C14.819 74.1317 13.1803 74.9388 11.1013 75.7215C10.0985 76.0884 8.80219 76.3819 7.77493 76.7977C6.47863 77.3358 5.20678 77.6782 4.08168 78.2407C3.44576 78.5342 2.85875 78.9989 2.34512 79.2924C1.56245 79.7572 0.730856 80.173 0.339518 80.5888C-0.296406 81.2981 -0.0273609 82.0074 1.04882 82.5454C1.75812 82.8879 3.59251 82.3253 3.59251 82.3253C4.93773 81.9584 6.28296 81.616 7.60372 81.2491C8.9734 80.8823 10.3675 80.6621 11.6883 80.3197C12.8379 80.0262 13.9385 79.6104 15.0636 79.2924C17.6562 78.5831 20.1265 77.8739 22.5968 77.0423L23.0126 78.6076Z" fill="#6F7271"/>
<path d="M381.039 214.353H379.987C378.324 214.402 376.783 214.744 375.658 215.038C374.777 215.282 373.848 215.331 372.943 215.404C372.307 215.453 371.622 215.478 370.986 215.6L369.617 215.869C368.883 216.04 368.149 216.212 367.317 216.285L364.92 216.432C362.206 216.578 359.417 216.75 356.727 217.508C355.113 217.973 353.523 218.633 352.006 219.269C352.006 219.269 351.713 219.391 351.468 219.489V219.685C351.664 219.807 351.884 219.88 352.055 219.929C353.498 220.418 355.113 221.103 356.629 221.348C359.662 221.837 362.206 222.987 365.043 223.843C366.755 224.381 366.437 224.552 368.149 224.968C370.155 225.432 369.714 225.481 371.696 225.946C372.943 226.215 372.821 226.68 374.092 226.876C374.826 226.998 375.487 227.12 376.245 227.316C376.612 227.365 377.027 227.609 377.297 227.658C378.373 227.927 378.642 226.949 378.642 226.949C378.593 226.753 378.886 226.509 378.984 226.337C379.204 225.946 379.498 225.139 379.596 224.527C379.767 223.989 380.256 223.231 380.378 222.644C381.063 219.244 382.629 217.386 383.289 215.404C383.338 215.307 383.509 214.279 383.631 214.059C383.534 214.059 382.873 214.255 382.873 214.255C382.262 214.377 381.626 214.353 381.014 214.304L381.039 214.353Z" fill="#CF3339"/>
<path d="M347.017 223.769C346.797 223.133 346.479 222.277 346.283 221.764C344.913 222.229 343.593 222.693 342.247 223.623L341.709 223.99C340.364 224.943 339.092 225.873 337.649 226.729L336.5 227.34L335.326 228.563L333.418 230.691C332.88 231.376 332.978 230.911 332.415 231.596L329.529 233.993L327.01 235.803C327.01 235.803 326.276 236.61 325.469 237.368C324.857 237.931 324.075 238.493 324.075 238.493C323.855 238.714 323.806 238.86 323.806 239.007C323.806 239.178 323.903 239.325 323.952 239.374L325.322 240.303C326.007 240.67 327.083 241.037 327.621 241.746L332.073 243.581L334.91 245.269C334.91 245.269 336.549 246.345 336.451 246.296L338.774 247.396L339.361 247.788C339.361 247.788 340.682 248.424 340.853 248.521C341.025 248.644 341.171 248.717 341.294 248.668C341.709 248.473 342.052 247.225 342.125 246.443C342.125 245.171 342.516 244.143 342.908 243.116C343.275 242.211 343.666 241.257 343.715 240.108L344.4 237.882C345.011 236.194 345.818 233.92 345.818 232.403L346.161 230.202C346.161 230.202 346.895 226.289 347.139 225.066C347.139 224.894 347.09 224.748 347.041 224.577C347.041 224.307 346.968 224.087 346.919 223.843L347.017 223.769Z" fill="#A8AD00"/>
<path d="M359.93 186.983C359.759 190.016 358.512 192.389 357.289 194.712C356.482 196.204 355.674 197.77 355.185 199.506L354.452 201.805L353.62 204.642L353.351 205.816L353.057 207.162L352.617 208.874L352.348 209.999L352.03 211.295L351.517 213.13C351.468 213.399 351.37 213.643 351.296 213.888C351.394 213.912 351.761 213.986 352.177 214.181L352.421 214.132C353.057 214.035 353.669 214.035 354.256 214.01C354.696 213.814 355.112 213.668 355.65 213.496C357.656 212.909 357.484 212.298 359.197 211.026C360.126 210.341 362.156 209.485 363.061 208.849C364.235 207.993 366.216 206.844 367.415 206.159L370.765 203.958C371.01 203.86 371.524 203.64 372.037 203.395C372.037 203.395 373.113 202.93 372.184 201.414C371.206 200.142 369.86 198.503 369.347 197.819C367.928 195.911 368.491 196.327 367.439 195.177C366.803 194.468 366.29 192.951 365.556 192.291C364.92 191.704 363.012 187.766 362.352 187.203C361.08 186.152 360.493 184.171 359.197 183.315C359.784 184.122 359.979 185.173 359.979 186.201C359.979 186.47 359.979 186.739 359.979 186.983H359.93Z" fill="#F3C300"/>
<path d="M391.213 211.687C390.602 209.021 384.927 209.706 384.267 209.779C383.704 209.852 383.191 209.95 382.677 210.121C381.307 210.537 380.451 210.488 380.451 210.488C379.448 210.586 378.397 210.684 377.394 210.831L375.144 211.124C373.823 211.295 372.576 211.393 371.279 211.785C369.861 212.2 368.344 212.616 366.779 212.763C365.874 212.836 365.091 212.812 364.309 212.763C362.963 212.738 361.716 212.689 360.248 213.154C359.441 213.399 358.61 213.521 357.754 213.668L356.629 213.839C355.895 213.986 354.329 214.01 354.281 214.01C353.694 214.01 353.082 214.035 352.446 214.133L352.202 214.181C351.786 214.01 351.443 213.937 351.321 213.888C351.394 213.643 351.492 213.374 351.541 213.13L352.055 211.295L352.373 209.999L352.642 208.874L353.082 207.162L353.376 205.817L353.645 204.643L354.476 201.805L355.21 199.506C355.699 197.77 356.506 196.18 357.313 194.712C358.512 192.389 359.759 190.016 359.955 186.983C359.955 186.739 359.955 186.47 359.955 186.201C359.955 185.174 359.784 184.097 359.172 183.364C358.879 182.948 358.463 182.63 357.851 182.483L357.24 182.214L356.677 182.263C355.944 182.361 355.014 182.434 354.501 183.192C354.183 183.682 354.036 184.244 353.938 184.782L353.498 186.299L353.131 187.448L352.837 188.696C352.544 190.31 351.835 191.753 351.835 191.753C351.639 192.218 351.394 192.682 351.174 193.245C351.028 193.71 350.93 194.174 350.856 194.615C350.734 195.177 350.612 195.715 350.367 196.278C349.878 197.305 349.78 198.283 349.633 199.188C349.536 199.898 349.462 200.607 349.218 201.341L348.459 203.933L347.995 205.67C347.457 207.455 346.796 209.779 346.527 211.809C345.622 211.246 344.937 210.708 344.448 210.17C344.448 210.17 340.853 206.55 340.021 205.45C339.214 204.398 338.236 203.542 337.282 202.735C336.719 202.221 336.157 201.756 335.643 201.194C334.738 200.289 333.589 199.164 332.341 197.574C332.341 197.574 330.58 195.324 330.018 194.468C329.528 193.783 329.039 193.098 328.403 192.34C327.939 191.753 327.67 191.606 327.303 191.41L326.716 191.019L326.006 190.872C326.006 190.872 325.248 191.19 325.028 191.508C324.808 191.851 324.759 192.218 324.759 192.536C324.759 192.805 324.759 193.025 324.832 193.172C325.004 193.979 325.444 194.394 325.835 194.761L326.275 195.202C326.887 195.911 327.278 196.84 327.719 197.819C328.085 198.675 328.477 199.555 329.039 200.313C329.039 200.313 331.363 203.86 332.072 204.422L333.05 205.474C333.417 205.939 333.711 206.526 334.078 207.113C334.567 208.018 335.081 208.898 335.79 209.559C336.157 209.926 336.695 210.61 337.135 211.173C337.135 211.173 339.728 214.45 340.413 215.6C340.755 216.187 341.073 216.627 341.366 217.019C340.266 217.386 339.092 217.826 337.918 218.364C337.918 218.364 333.466 220.736 332.292 221.226C331.461 221.592 330.58 221.861 329.724 222.13C328.746 222.448 327.767 222.742 326.862 223.182C325.86 223.622 325.028 224.209 324.221 224.748L322.753 225.726C321.897 226.215 318.644 227.756 317.935 228.123L314.707 230.031C312.31 231.351 310.573 232.305 310.231 234.8C310.182 235.118 310.157 235.412 310.157 235.705C310.157 237.295 310.891 238.273 312.554 239.08C314.902 240.205 315.856 239.814 318.302 238.762L319.28 238.175C320.014 237.539 320.748 237.05 321.53 236.561L322.46 235.999C322.46 235.999 325.224 234.066 325.909 233.675L327.963 232.648C328.795 232.256 329.626 231.841 330.433 231.4C331.387 230.838 331.901 230.422 332.512 229.884L333.099 229.419C333.98 228.71 334.934 228.221 335.961 227.707L336.573 227.389L337.722 226.778C339.165 225.922 340.437 224.992 341.782 224.038L342.32 223.671C343.641 222.766 344.986 222.277 346.356 221.813C346.552 222.302 346.87 223.182 347.09 223.818C347.139 224.063 347.188 224.283 347.212 224.552C347.236 224.723 347.285 224.87 347.31 225.041C347.408 225.506 347.53 225.946 347.652 226.386L347.921 227.414C348.166 228.367 348.557 229.175 348.924 229.957C349.34 230.862 349.78 231.694 349.927 232.77C350.367 235.558 351.81 238.371 353.131 241.11C354.354 243.63 354.965 245.097 354.965 245.097C355.675 246.736 356.898 249.818 358.316 250.405C359.026 250.674 359.392 250.502 359.588 250.331C359.784 250.111 359.906 249.842 359.906 249.5C359.906 249.157 359.808 248.766 359.661 248.448L359.197 247.298C358.928 246.711 358.659 246.173 358.487 245.562L357.705 243.116C357.142 241.404 356.58 239.765 356.237 238.029C356.115 237.539 355.944 237.026 355.773 236.512C355.552 235.901 355.332 235.265 355.283 234.653C355.112 233.602 354.819 232.648 354.55 231.718L353.522 227.903C353.278 226.802 353.009 225.701 352.666 224.552L352.495 224.063C352.055 222.644 351.59 221.201 351.566 219.807V219.538C351.786 219.44 352.104 219.318 352.104 219.318C353.62 218.682 355.21 218.021 356.824 217.557C359.49 216.799 362.303 216.627 365.018 216.481L367.415 216.334C368.271 216.26 369.005 216.114 369.714 215.918L371.084 215.649C371.744 215.527 372.404 215.502 373.04 215.453C373.945 215.38 374.85 215.331 375.755 215.086C376.88 214.793 378.421 214.426 380.084 214.377H381.136C381.748 214.45 382.383 214.475 382.995 214.353C382.995 214.353 384.414 213.912 385.001 213.912C385.734 213.912 386.346 213.912 387.055 213.815H387.667C388.767 213.741 390.504 213.643 391.115 212.812C391.335 212.518 391.409 212.127 391.311 211.736L391.213 211.687Z" fill="#6F7271"/>
<path d="M419.39 203.615C420.906 203.787 421.885 204.251 423.45 204.496C424.233 204.618 424.991 204.985 425.798 204.985C426.409 204.985 427.412 205.107 427.926 205.376H427.975C427.975 205.376 428.073 205.45 428.097 205.474C428.611 205.572 429.1 205.621 429.638 205.719C430.983 206.012 432.426 206.599 433.771 206.991C434.75 207.26 435.459 207.431 436.389 207.749C438.101 208.287 439.152 208.214 440.791 208.434C441.305 208.507 441.916 208.727 442.381 208.752C442.381 208.752 443.457 208.947 442.846 208.042C441.794 206.868 441.06 206.477 440.106 205.23C439.544 204.471 438.737 203.64 438.223 202.833C437.147 201.218 436.56 200.362 435.606 198.675C435.019 197.647 435.459 197.427 434.897 196.376C434.236 195.006 433.184 192.658 432.671 191.215C432.255 189.87 431.913 188.231 431.57 187.228C431.057 185.638 430.983 183.241 430.665 181.652C430.421 180.502 430.054 176.197 429.785 173.8C429.638 172.602 429.736 171.477 429.711 170.303C429.687 170.229 429.638 170.18 429.589 170.132C429.418 169.936 429.124 169.373 428.073 170.132C427.681 170.449 426.287 171.844 426.14 172.088C426.043 172.235 425.138 173.825 425.064 173.996C424.037 175.097 423.156 176.589 422.545 177.591C419.806 182.19 417.58 185.785 416.21 187.888C413.911 191.337 411.832 194.199 409.753 197.77C408.995 199.09 408.261 200.313 409.337 201.243C410.169 202.001 412.126 202.441 413.422 202.906C414.327 203.273 415.232 203.542 416.112 203.835C416.235 203.738 416.357 203.664 416.479 203.615C417.286 203.42 418.558 203.566 419.341 203.664L419.39 203.615Z" fill="#CF3339"/>
<path d="M440.815 149.904C442.747 146.529 440.179 143.936 438.467 141.246C433.502 138.849 427.95 138.849 425.504 143.912C424.966 146.92 423.523 150.002 426.409 152.399C431.716 154.209 436.51 154.013 440.79 149.904H440.815Z" fill="#00A0DF"/>
<path d="M451.896 211.051C451.651 210.366 451.284 209.975 450.648 209.51C450.33 209.29 449.523 208.605 449.45 208.532C448.398 207.676 447.42 206.697 446.49 205.67C445.854 204.985 445.17 204.496 444.607 203.738C444.02 203.004 443.555 202.026 443.017 201.219C442.137 199.898 441.623 199.286 440.865 197.843C440.522 197.207 439.789 195.715 439.495 195.055C438.908 193.783 438.346 192.34 437.832 191.068C437.563 190.383 437.563 189.601 437.343 188.94C436.927 187.864 436.903 187.302 436.487 185.907C436.193 184.954 435.802 182.532 435.631 181.578C435.288 180.135 435.19 176.638 435.044 175.488C434.799 173.629 434.652 171.819 434.677 170.083L434.579 166.683L434.163 164.164L433.796 159.761C432.842 157.487 431.693 158.049 430.886 159.835C430.69 160.25 430.519 160.764 430.348 161.327C430.25 161.693 430.176 162.085 430.103 162.501C429.932 163.406 429.834 164.213 429.736 164.946C429.589 166.634 429.736 170.254 429.736 170.327C429.736 171.477 429.663 172.602 429.81 173.825C430.079 176.246 430.445 180.527 430.69 181.676C431.032 183.29 431.106 185.687 431.595 187.253C431.937 188.28 432.255 189.919 432.696 191.239C433.209 192.682 434.261 195.031 434.921 196.4C435.459 197.452 435.044 197.648 435.631 198.699C436.585 200.411 437.172 201.267 438.248 202.857C438.786 203.64 439.569 204.496 440.131 205.254C441.085 206.502 441.819 206.893 442.87 208.067C443.506 208.972 442.406 208.776 442.406 208.776C441.941 208.776 441.33 208.532 440.816 208.458C439.177 208.238 438.125 208.336 436.413 207.773C435.459 207.455 434.775 207.284 433.796 207.015C432.451 206.624 431.008 206.012 429.663 205.743C429.125 205.646 428.636 205.572 428.122 205.499C428.073 205.474 428.024 205.45 428 205.401H427.951C427.437 205.156 426.434 205.01 425.823 205.01C425.04 205.01 424.257 204.618 423.475 204.52C421.909 204.251 420.931 203.811 419.415 203.64C418.632 203.542 417.385 203.395 416.553 203.591C416.431 203.64 416.308 203.713 416.186 203.811C415.697 204.154 415.428 204.838 416.015 205.328C416.504 205.743 417.238 205.841 417.874 206.012C418.828 206.233 419.659 206.551 420.564 206.868C421.42 207.162 422.227 207.48 423.083 207.651C423.67 207.773 423.866 207.725 424.38 207.92C424.673 208.018 424.991 208.165 425.309 208.263C425.358 208.263 426.703 208.654 427.364 208.899C427.828 209.07 428.587 209.559 429.076 209.73C430.445 210.17 431.864 210.635 433.38 211.075C434.481 211.393 435.655 211.711 436.756 212.054C436.878 212.078 438.443 212.518 439.079 212.665C439.789 212.861 440.449 213.032 441.207 213.228C442.039 213.423 442.821 213.619 443.678 213.644C445.292 213.692 446.955 213.864 448.594 213.79C450.184 213.717 452.752 212.983 451.993 211.051H451.896Z" fill="#6F7271"/>
<path d="M346.185 93.6005C346.992 93.1358 347.555 92.8667 348.264 92.2308C349.658 90.9345 351.199 89.5648 352.593 88.2929C353.547 87.4614 354.208 86.6053 355.039 85.7248C356.066 84.6486 357.265 83.5724 358.243 82.4229C359.344 81.1021 359.882 79.1699 360.224 77.4823C360.445 76.3572 360.762 74.376 360.102 73.3732C359.588 72.615 356.702 71.9546 356.433 73.1286C354.428 73.0797 352.251 74.058 350.612 75.1342C349.585 75.8191 348.876 76.724 347.995 77.629C347.604 78.0448 347.212 78.4606 346.894 78.9253C346.625 79.2922 346.21 79.5857 345.99 79.9526C345.794 80.2705 345.794 80.7108 345.574 81.0777C345.378 81.3712 345.133 81.5668 344.987 81.8603C344.644 82.5696 344.498 83.0833 344.008 83.7436C343.25 84.8198 342.149 85.4802 341.269 86.4096C340.804 86.8988 340.462 87.4858 340.144 88.0484C339.508 89.1245 338.774 89.9806 338.04 90.9834C337.747 91.3992 337.796 91.7416 337.674 92.1574C337.135 93.7472 336.304 94.7011 335.472 96.1197C335.423 96.3643 334.885 97.1959 334.861 97.5138C334.861 97.9052 335.717 99.0547 335.864 99.2749L337.6 98.7123L340.584 97.5628L344.864 94.9457L345.402 94.6522C345.402 94.6522 345.28 94.3831 346.136 93.6494L346.185 93.6005Z" fill="#CB007B"/>
<path d="M329.162 93.2337C328.967 92.9891 328.722 92.9157 328.502 92.7445C328.037 92.3287 327.964 92.0352 327.695 91.4238C327.181 90.1275 326.374 89.3448 325.396 88.3909C324.76 87.755 324.369 86.9234 323.782 86.2875C322.828 85.2113 321.238 84.7466 320.039 83.9394C319.575 83.6459 319.403 83.328 318.963 82.9611C318.034 82.0806 316.591 81.518 315.515 80.8577C314.414 80.1973 313.387 79.2923 312.139 78.9988C311.259 78.7542 310.305 78.8765 309.4 78.7053C307.908 78.4118 306.44 77.9226 304.973 77.6536C303.163 77.3601 301.353 76.9932 299.543 76.8464C297.831 76.6997 296.021 76.1371 294.26 76.1861C293.428 76.1861 292.328 76.0638 291.619 76.5774C290.934 77.0177 290.616 78.4118 290.518 79.1945C290.224 81.2979 290.322 84.0128 290.885 85.9695C291.056 86.4831 291.178 86.8011 291.398 87.2169C292.132 88.2442 292.67 89.5405 293.453 90.4699C294.26 91.3993 295.043 92.3532 295.703 93.4538C296.461 94.6034 297.684 95.9731 298.369 96.4622C299.152 96.9759 300.693 97.3672 301.451 97.9542C301.769 98.1988 301.818 98.0765 302.16 98.3456C302.821 98.9815 303.701 99.3728 304.508 99.6908C307.076 100.718 309.644 101.77 312.188 102.944C314.732 104.093 317.422 104.485 320.113 103.824C321.849 103.408 323.561 103.091 325.225 102.65C326.545 102.308 327.744 101.476 328.918 100.694C329.676 100.18 330.508 99.3973 330.972 98.4678C331.095 98.2477 331.437 97.5873 331.437 97.3183L331.339 97.2449C330.532 95.9975 330.116 94.3343 329.114 93.2582L329.162 93.2337Z" fill="#A8AD00"/>
<path d="M361.716 72.395C360.713 71.4166 360.273 71.172 358.903 71.172C357.974 71.172 357.582 70.8785 356.726 70.9764C356.066 71.0497 354.378 71.4411 353.767 71.5878C352.299 71.9547 351.565 72.8597 350.245 73.4222C348.924 73.9603 347.946 75.061 346.869 75.9659C345.598 76.9932 344.742 78.5585 343.616 79.7325C342.394 80.9799 341.904 82.3496 340.706 83.4503C339.605 84.4775 338.529 85.9206 337.746 87.2903C337.233 88.1708 336.744 88.8067 336.132 89.6383C335.79 90.1274 335.594 90.7389 335.178 91.3015C334.493 92.3043 334.127 93.2581 333.295 94.1387C333.05 94.4322 331.901 91.9863 331.901 91.9863C331.485 91.277 330.507 90.0785 330.091 89.5404C329.7 89.0024 329.382 88.3909 328.892 87.9262C326.936 86.3119 325.688 84.6243 323.463 83.2301C322.484 82.6431 322.044 82.0806 320.283 80.7598C320.356 80.7109 317.764 78.8031 316.81 78.2406C315.88 77.678 314.633 77.4334 313.899 76.7486C313.435 76.3328 313.19 76.0148 312.53 75.7458C308.298 73.9603 304.996 72.1993 300.471 71.5389C299.077 71.3432 297.634 70.8296 296.167 70.903C295.653 70.9519 293.868 71.0253 293.403 71.0987C292.669 71.221 291.177 71.6857 290.615 72.0525C289 73.0553 288.364 74.5962 287.875 76.6997C287.655 77.678 287.802 78.8765 287.802 79.8793C287.802 80.5397 287.68 81.8115 287.802 82.5697C287.875 82.5208 287.949 84.3308 287.998 84.2818C287.998 84.8688 288.095 85.089 288.267 85.676C288.438 86.263 288.707 86.7522 288.854 87.3881C289.049 88.2441 289.587 88.611 289.905 89.4426C290.174 90.1519 290.419 90.0785 290.664 90.7634C291.226 92.3043 292.302 93.2582 293.207 94.5545C293.868 95.4594 294.748 96.2666 295.36 96.878C295.775 97.3183 296.411 97.9542 296.925 98.2966C297.439 98.688 298.001 98.8592 298.515 99.3239C299.175 99.9109 302.012 102.357 302.917 102.895C303.773 103.384 307.613 104.436 308.421 104.656C309.888 105.047 311.356 105.365 312.896 105.659C314.609 105.952 315.954 105.928 317.617 106.123C318.546 106.221 319.5 106.123 320.454 106.05C321.139 106.001 321.775 105.879 322.435 105.805C323.463 105.659 324.343 105.536 325.321 105.096C326.129 104.705 326.936 104.289 327.767 103.849C328.525 103.457 329.382 102.968 329.993 102.43C330.482 101.99 330.776 101.427 331.265 101.012C331.778 100.547 331.999 100.449 332.317 99.8131C333.442 100.229 333.368 101.623 333.613 102.21C333.906 102.846 334.004 103.066 334.053 103.775C334.078 104.338 334.273 104.827 334.298 105.365C334.396 106.49 334.224 107.273 334.029 108.398C333.955 108.716 333.637 109.45 333.833 109.817C334.224 110.575 334.983 109.596 335.203 109.303C335.936 108.202 336.572 107.762 336.719 106.392C336.768 105.977 337.159 105.292 337.037 104.803C337.062 104.387 336.988 103.531 337.062 103.042L336.939 102.161C336.621 100.791 336.866 101.183 336.499 100.082C336.401 99.7152 336.181 99.4706 335.912 99.2016C335.765 99.0059 334.909 97.8564 334.909 97.4406C334.934 97.1226 335.496 96.291 335.521 96.0464C336.352 94.6278 337.184 93.6739 337.722 92.0841C337.844 91.6439 337.82 91.3015 338.089 90.9101C338.798 89.9073 339.532 89.0513 340.192 87.9751C340.51 87.4125 340.853 86.8255 341.317 86.3364C342.198 85.4069 343.323 84.771 344.057 83.6704C344.546 82.9855 344.693 82.4964 345.035 81.7871C345.182 81.4936 345.451 81.2979 345.622 81.0044C345.842 80.662 345.842 80.2217 346.038 79.8793C346.258 79.5369 346.674 79.2189 346.943 78.852C347.285 78.3873 347.677 77.9471 348.043 77.5557C348.899 76.6263 349.609 75.7458 350.66 75.061C352.275 74.0092 354.476 73.0309 356.482 73.0553C356.751 71.8813 359.637 72.5417 360.15 73.2999C360.811 74.3027 360.517 76.2839 360.273 77.409C359.906 79.0966 359.392 81.0288 358.292 82.3496C357.313 83.5236 356.115 84.5998 355.088 85.6515C354.256 86.5076 353.596 87.3881 352.642 88.2197C351.247 89.4915 349.682 90.8612 348.312 92.1575C347.603 92.7934 347.041 93.0625 346.233 93.5272C345.402 94.2609 345.402 94.4566 345.5 94.53C345.549 94.5545 345.573 94.5789 345.573 94.6034C345.793 94.6034 346.747 94.1631 347.31 93.7962C347.823 93.4783 348.875 92.9157 349.34 92.5489C350.685 91.546 352.006 90.3476 353.327 89.3448C353.962 88.8556 354.647 88.1708 355.234 87.6816C355.944 87.0457 356.849 86.5565 357.558 85.9206C358.732 84.8444 359.735 83.8171 360.664 82.5453C361.153 81.8849 361.52 80.5886 362.132 79.2678C362.596 78.2406 362.645 76.8464 362.694 75.6969C362.743 74.4495 362.645 73.2266 361.765 72.346L361.716 72.395ZM331.02 98.4434C330.58 99.3728 329.724 100.131 328.966 100.669C327.792 101.452 326.593 102.259 325.272 102.626C323.609 103.066 321.873 103.36 320.161 103.8C317.47 104.46 314.78 104.069 312.236 102.919C309.692 101.745 307.124 100.694 304.556 99.6663C303.749 99.3483 302.868 98.957 302.208 98.3211C301.866 98.052 301.817 98.1743 301.499 97.9297C300.741 97.3672 299.175 96.9514 298.417 96.4378C297.732 95.9241 296.485 94.5545 295.751 93.4294C295.091 92.3287 294.308 91.3993 293.501 90.4454C292.718 89.516 292.18 88.2197 291.446 87.1924C291.226 86.7766 291.104 86.4587 290.933 85.945C290.37 83.9883 290.248 81.2734 290.566 79.17C290.664 78.3873 290.982 76.9932 291.666 76.5529C292.376 76.0393 293.476 76.1616 294.308 76.1616C296.093 76.1127 297.879 76.6752 299.591 76.822C301.401 76.9687 303.211 77.3356 305.021 77.6291C306.488 77.8982 307.956 78.3873 309.448 78.6808C310.353 78.852 311.307 78.7297 312.187 78.9743C313.41 79.2678 314.462 80.1973 315.562 80.8332C316.639 81.4936 318.082 82.0561 319.011 82.9366C319.427 83.3035 319.623 83.6215 320.087 83.915C321.261 84.7221 322.851 85.1868 323.829 86.263C324.416 86.9234 324.832 87.7305 325.444 88.3664C326.398 89.3203 327.205 90.103 327.743 91.3993C328.012 92.0108 328.085 92.3043 328.55 92.7201C328.746 92.9157 329.015 92.9891 329.21 93.2092C330.238 94.2854 330.653 95.9486 331.436 97.196L331.534 97.2694C331.534 97.5384 331.191 98.1988 331.069 98.4189L331.02 98.4434Z" fill="#6F7271"/>
<path d="M100.13 190.016C100.644 190.872 101.916 192.609 103.261 193.832C104.679 195.006 105.56 195.715 107.614 196.669L107.786 196.742C108.862 197.085 109.987 196.669 110.476 195.642C110.794 194.859 110.476 193.685 109.889 193.367C107.688 192.169 106 191.288 104.679 189.674C103.408 188.157 102.429 185.809 102.429 183.486V182.043H107.712C108.788 182.043 109.62 181.211 109.62 180.184C109.62 179.157 108.788 178.325 107.712 178.325H92.4501C91.3984 178.325 90.5668 179.157 90.5668 180.184C90.5668 181.211 91.3984 182.043 92.4501 182.043H97.4886V183.559C97.4886 185.736 96.5591 187.815 95.4341 189.454C93.9665 191.484 92.2544 193.123 90.2244 194.321C89.3928 194.786 89.1726 196.009 89.6863 196.865C90.4445 198.088 91.6674 198.161 92.7191 197.598L92.9148 197.525C95.1406 196.229 95.8498 195.544 97.513 193.856C99.0539 192.242 99.8121 190.799 100.13 190.041V190.016Z" fill="#4D525A"/>
<path d="M85.0397 193.44H56.4476C55.4937 193.44 54.6377 194.296 54.6377 195.348C54.6377 196.253 55.4937 197.134 56.4476 197.134H68.2611V199.555C64.2744 200.509 61.535 203.517 61.535 207.186C61.535 211.564 65.7419 215.233 70.9271 215.233C76.1123 215.233 80.3192 211.589 80.3192 207.186C80.3192 203.493 77.3108 200.387 73.3241 199.506V197.134H85.0397C86.0915 197.134 86.8741 196.253 86.8741 195.348C86.8741 194.321 86.0915 193.44 85.0397 193.44ZM75.4275 207.186C75.4275 209.583 73.2996 211.442 70.8293 211.442C68.359 211.442 66.2311 209.534 66.2311 207.186C66.2311 204.838 68.359 202.906 70.9271 202.906C73.4953 202.906 75.4275 204.765 75.4275 207.186Z" fill="#4D525A"/>
<path d="M70.7316 192.193C75.8434 192.193 80.0992 188.402 80.0992 183.73C80.0992 179.059 75.8434 175.243 70.7316 175.243C65.6197 175.243 61.2661 179.083 61.2661 183.73C61.2661 188.377 65.5953 192.193 70.7316 192.193ZM70.7316 179.181C73.3242 179.181 75.501 181.187 75.501 183.73C75.501 186.274 73.2997 188.304 70.7316 188.304C68.1634 188.304 65.9377 186.225 65.9377 183.73C65.9377 181.236 68.0901 179.181 70.7316 179.181Z" fill="#4D525A"/>
<path d="M161.057 188.206C160.006 188.206 159.125 189.111 159.125 190.212C159.125 191.312 160.006 192.217 161.057 192.217H176.417C176.222 193.44 175.953 194.541 175.781 195.984C175.781 195.984 175.659 198.039 177.762 198.185C179.866 198.381 180.428 196.791 180.428 196.791C180.428 196.791 182.043 186.152 181.798 181.578C181.798 181.578 181.774 179.132 179.059 179.132H161.277C160.201 179.132 159.345 180.159 159.345 181.26C159.345 182.067 160.201 182.948 161.277 182.948H176.857C176.882 183.681 176.931 185.663 176.784 188.231H161.082L161.057 188.206Z" fill="#4D525A"/>
<path d="M116.42 209.387H103.041C101.867 209.387 101.916 208.311 101.916 208.311V203.028C101.916 201.756 100.865 200.729 99.5927 200.729C98.3208 200.729 97.2446 201.756 97.2446 203.028V210.439C97.2446 212.225 98.3453 213.325 100.4 213.325H116.42C117.447 213.325 118.279 212.518 118.279 211.491C118.279 210.464 117.447 209.387 116.42 209.387Z" fill="#4D525A"/>
<path d="M115.344 202.686C116.664 202.686 117.667 201.732 117.667 200.484V178.325C117.667 177.053 116.64 176.05 115.344 176.05C114.047 176.05 112.996 177.053 112.996 178.325V200.484C112.996 201.732 114.072 202.686 115.344 202.686Z" fill="#4D525A"/>
<path d="M212.274 199.702H195.813C194.761 199.702 193.954 200.705 193.954 201.781C193.954 202.857 194.761 203.42 195.813 203.42H209.608C210.806 203.42 210.733 204.52 210.733 204.52V211.002C210.733 212.322 211.809 213.325 213.056 213.325C214.304 213.325 215.355 212.347 215.355 211.002V202.71C215.355 200.876 214.255 199.702 212.249 199.702H212.274Z" fill="#4D525A"/>
<path d="M213.423 176.05C212.176 176.05 211.124 176.857 211.124 178.178V196.155C211.124 197.5 212.151 198.283 213.423 198.283C214.695 198.283 215.722 197.5 215.722 196.155V178.178C215.722 176.857 214.671 176.05 213.423 176.05Z" fill="#4D525A"/>
<path d="M206.135 193.489V179.743C206.135 178.447 205.083 177.347 203.811 177.347C202.539 177.347 201.512 178.423 201.512 179.743V183.51H194.199V179.646C194.199 178.349 193.172 177.273 191.924 177.273C190.677 177.273 189.601 178.349 189.601 179.646V193.44C189.674 194.247 190.09 195.837 192.144 196.008H203.566C205.621 195.813 206.061 194.296 206.135 193.465V193.489ZM201.512 191.435C201.463 191.802 201.243 192.266 200.387 192.266H195.373C194.37 192.266 194.248 191.63 194.199 191.312V187.057H201.512V191.41V191.435Z" fill="#4D525A"/>
<path d="M134.079 196.449C135.694 194.859 136.721 192.535 137.601 190.75C138.8 192.609 140.316 194.981 141.857 196.253C142.151 196.62 143.594 197.109 144.548 195.642C145.404 194.174 144.254 193.122 144.083 193C142.175 191.459 141.074 189.502 140.487 187.301C139.778 185.222 139.705 184.464 139.705 181.798V180.013C139.705 178.692 138.653 177.616 137.43 177.616C136.207 177.616 135.302 178.667 135.302 179.988V181.774C135.302 183.828 135.204 184.097 134.96 185.956C134.691 187.644 134.153 189.405 133.223 190.725C132.318 189.405 131.805 187.741 131.56 186.103C131.267 184.219 131.267 183.926 131.267 181.798V180.013C131.267 178.692 130.288 177.64 129.065 177.64C127.842 177.64 127.109 178.692 127.084 180.013V181.798C127.084 184.513 126.913 185.173 126.326 187.154C125.714 189.502 124.198 191.704 122.217 193.367C122.07 193.514 121.092 194.786 122.095 196.155C123.244 197.672 125.103 196.889 125.372 196.644C126.717 195.055 127.989 192.511 128.992 190.897C129.946 192.462 130.997 194.859 132.514 196.522C133.052 196.913 133.566 196.913 134.055 196.522L134.079 196.449Z" fill="#4D525A"/>
<path d="M141.099 197.941C136.036 197.941 131.927 201.83 131.927 206.428C131.927 211.026 136.036 214.719 141.099 214.719C146.162 214.719 150.222 211.051 150.222 206.428C150.222 201.805 146.211 197.941 141.099 197.941ZM141.001 210.855C138.556 210.855 136.623 208.752 136.623 206.404C136.623 203.786 138.678 201.952 141.099 201.952C143.521 201.952 145.477 203.786 145.477 206.404C145.477 208.727 143.325 210.855 140.977 210.855H141.001Z" fill="#4D525A"/>
<path d="M184.977 199.384H156.19C155.065 199.384 154.16 200.289 154.16 201.414C154.16 202.539 155.065 203.224 156.19 203.224H184.977C186.054 203.224 186.91 202.515 186.91 201.414C186.91 200.313 186.054 199.384 184.977 199.384Z" fill="#4D525A"/>
<path d="M148.412 176.05C147.164 176.05 146.137 176.857 146.137 178.178V196.84C146.137 197.892 147.164 198.846 148.412 198.846C149.708 198.846 150.784 197.892 150.784 196.84V178.178C150.784 176.857 149.733 176.05 148.412 176.05Z" fill="#4D525A"/>
</svg>
