<svg width="202" height="139" viewBox="0 0 202 139" fill="none" xmlns="http://www.w3.org/2000/svg">
<rect width="202" height="91" fill="#F3F3F3"/>
<path d="M87.4319 105.73V95.97H89.7219V96.75H88.5319V104.93H89.7219V105.73H87.4319ZM92.8612 103.21V103.76H98.3512V104.75H91.5612V102.27H96.7412V101.77H91.5412V100.78H98.0512V103.21H92.8612ZM97.8312 99.19H98.9412V100.23H90.6512V99.19H96.5112C96.5512 98.92 96.5912 98.68 96.6212 98.43L91.5412 98.65L91.4012 97.64L96.6812 97.52C96.6912 97.34 96.6912 97.16 96.6912 96.99H91.6612V95.97H97.9912V96.79C97.9912 97.5 97.9912 98.26 97.8312 99.19ZM101.36 100.11V101.74C102.2 101.72 103 101.67 103.92 101.53L104.02 102.6C102.84 102.79 101.84 102.82 100.73 102.82H100.08V99.07H102.28V97.6H100.07V96.54H103.55V100.11H101.36ZM106.48 95.64H107.73V104.85H106.48V100.18H105.65V104.42H104.42V95.81H105.65V99.12H106.48V95.64ZM117.08 99.98L116.52 101.09C114.92 100.77 113.74 99.88 113.15 98.71C112.56 99.88 111.39 100.78 109.79 101.09L109.23 99.98C111.3 99.63 112.45 98.17 112.45 96.85V96.19H113.86V96.85C113.86 98.2 115 99.63 117.08 99.98ZM109.03 102.67H117.37V103.74H109.03V102.67ZM118.279 105.73V104.93H119.469V96.75H118.279V95.97H120.569V105.73H118.279Z" fill="#333333"/>
<path d="M45.8151 114.062H46.2591V118.058H45.8151V114.062ZM42.8151 118.964H46.4331V119.336H42.8151V118.964ZM42.8151 117.68H43.2531V119.156H42.8151V117.68ZM43.3371 115.082H43.6971V115.316C43.6971 116.282 43.0671 117.074 42.1851 117.386L41.9691 117.038C42.7551 116.774 43.3371 116.084 43.3371 115.316V115.082ZM43.4091 115.082H43.7751V115.316C43.7751 116.042 44.3691 116.69 45.1551 116.936L44.9451 117.29C44.0511 116.996 43.4091 116.246 43.4091 115.316V115.082ZM42.0831 114.794H45.0171V115.154H42.0831V114.794ZM43.3371 114.08H43.7751V114.98H43.3371V114.08ZM47.9866 114.41H51.3586V114.776H47.9866V114.41ZM47.3626 116.732H52.2466V117.104H47.3626V116.732ZM49.5706 116.978H50.0146V119.462H49.5706V116.978ZM51.1546 114.41H51.5866V114.878C51.5866 115.436 51.5866 116.066 51.3886 116.972L50.9446 116.906C51.1546 116.042 51.1546 115.424 51.1546 114.878V114.41ZM52.8822 116.336H57.7662V116.702H52.8822V116.336ZM53.5422 115.514H57.1842V115.874H53.5422V115.514ZM53.5422 114.248H57.1242V114.608H53.9802V115.796H53.5422V114.248ZM53.4762 117.2H57.1302V118.442H53.9262V119.162H53.4942V118.106H56.6922V117.554H53.4762V117.2ZM53.4942 119.036H57.2982V119.39H53.4942V119.036ZM58.6477 114.656H61.1137V115.022H58.6477V114.656ZM59.5177 116.198H59.9557V118.028H59.5177V116.198ZM60.9277 114.656H61.3657V114.92C61.3657 115.34 61.3657 116.06 61.2037 117.08L60.7657 117.038C60.9277 116.042 60.9277 115.34 60.9277 114.92V114.656ZM62.0797 114.056H62.5237V119.456H62.0797V114.056ZM62.4037 116.33H63.4117V116.708H62.4037V116.33ZM58.4017 118.262L58.3477 117.884C59.3257 117.878 60.6397 117.866 61.7377 117.728L61.7617 118.058C60.6337 118.232 59.3617 118.256 58.4017 118.262ZM68.9952 114.056H69.4392V117.308H68.9952V114.056ZM69.3192 115.508H70.2492V115.88H69.3192V115.508ZM66.0672 117.626H69.4392V119.384H66.0672V117.626ZM69.0012 117.986H66.4992V119.018H69.0012V117.986ZM65.2752 114.638H68.4672V115.004H65.2752V114.638ZM66.8712 115.292C67.6392 115.292 68.1552 115.67 68.1552 116.252C68.1552 116.84 67.6392 117.212 66.8712 117.212C66.0972 117.212 65.5812 116.84 65.5812 116.252C65.5812 115.67 66.0972 115.292 66.8712 115.292ZM66.8712 115.634C66.3492 115.634 66.0012 115.88 66.0012 116.252C66.0012 116.63 66.3492 116.87 66.8712 116.87C67.3812 116.87 67.7292 116.63 67.7292 116.252C67.7292 115.88 67.3812 115.634 66.8712 115.634ZM66.6492 114.008H67.0932V114.824H66.6492V114.008ZM71.7247 114.71H72.1027C72.1027 115.826 71.9467 117.11 71.1547 118.16L70.8007 117.944C71.5627 116.996 71.7247 115.832 71.7247 114.74V114.71ZM70.9027 114.71H71.9407V115.076H70.9027V114.71ZM72.9127 114.71H73.2907C73.2907 115.796 73.2307 117.344 72.3547 118.52L72.0007 118.31C72.8467 117.236 72.9127 115.778 72.9127 114.74V114.71ZM72.2827 114.71H73.1407V115.076H72.2827V114.71ZM74.9467 114.056H75.3727V119.456H74.9467V114.056ZM73.0447 116.192H74.0527V116.558H73.0447V116.192ZM73.9567 114.2H74.3767V119.174H73.9567V114.2ZM77.6322 118.382H82.5342V118.754H77.6322V118.382ZM79.8522 116.948H80.2902V118.49H79.8522V116.948ZM78.2142 114.512H81.9222V117.038H78.2142V114.512ZM81.4902 114.872H78.6462V116.678H81.4902V114.872ZM85.5877 115.274H87.2557V115.646H85.5877V115.274ZM85.5877 116.99H87.2557V117.362H85.5877V116.99ZM84.5857 114.476C85.3717 114.476 85.9237 115.208 85.9237 116.354C85.9237 117.494 85.3717 118.232 84.5857 118.232C83.8057 118.232 83.2537 117.494 83.2537 116.354C83.2537 115.208 83.8057 114.476 84.5857 114.476ZM84.5857 114.872C84.0457 114.872 83.6737 115.466 83.6737 116.354C83.6737 117.242 84.0457 117.836 84.5857 117.836C85.1257 117.836 85.5037 117.242 85.5037 116.354C85.5037 115.466 85.1257 114.872 84.5857 114.872ZM87.1417 114.05H87.5857V119.462H87.1417V114.05ZM90.5172 114.614H94.0032V114.98H90.5172V114.614ZM90.0072 118.31H94.8912V118.682H90.0072V118.31ZM91.2372 116.51H91.6752V118.454H91.2372V116.51ZM93.8592 114.614H94.2912V115.214C94.2912 115.916 94.2912 116.606 94.1052 117.602L93.6672 117.548C93.8592 116.6 93.8592 115.898 93.8592 115.214V114.614ZM92.5692 116.51H93.0072V118.454H92.5692V116.51ZM95.7727 114.656H98.2387V115.022H95.7727V114.656ZM96.6427 116.198H97.0807V118.028H96.6427V116.198ZM98.0527 114.656H98.4907V114.92C98.4907 115.34 98.4907 116.06 98.3287 117.08L97.8907 117.038C98.0527 116.042 98.0527 115.34 98.0527 114.92V114.656ZM99.2047 114.056H99.6487V119.456H99.2047V114.056ZM99.5287 116.33H100.537V116.708H99.5287V116.33ZM95.5267 118.262L95.4727 117.884C96.4507 117.878 97.7647 117.866 98.8627 117.728L98.8867 118.058C97.7587 118.232 96.4867 118.256 95.5267 118.262ZM101.292 114.656H103.758V115.022H101.292V114.656ZM102.162 116.198H102.6V118.028H102.162V116.198ZM103.572 114.656H104.01V114.92C104.01 115.34 104.01 116.06 103.848 117.08L103.41 117.038C103.572 116.042 103.572 115.34 103.572 114.92V114.656ZM104.724 114.056H105.168V119.456H104.724V114.056ZM105.048 116.33H106.056V116.708H105.048V116.33ZM101.046 118.262L100.992 117.884C101.97 117.878 103.284 117.866 104.382 117.728L104.406 118.058C103.278 118.232 102.006 118.256 101.046 118.262ZM109.446 115.472H110.694V115.844H109.446V115.472ZM110.55 114.056H110.994V117.278H110.55V114.056ZM109.23 117.452C110.34 117.452 111.018 117.818 111.018 118.454C111.018 119.084 110.34 119.45 109.23 119.45C108.12 119.45 107.436 119.084 107.436 118.454C107.436 117.818 108.12 117.452 109.23 117.452ZM109.23 117.8C108.396 117.8 107.874 118.046 107.874 118.454C107.874 118.856 108.396 119.102 109.23 119.102C110.064 119.102 110.58 118.856 110.58 118.454C110.58 118.046 110.064 117.8 109.23 117.8ZM107.964 114.602H108.33V115.058C108.33 116.042 107.7 116.882 106.824 117.218L106.596 116.864C107.382 116.57 107.964 115.844 107.964 115.058V114.602ZM108.048 114.602H108.414V115.052C108.414 115.76 108.966 116.438 109.74 116.708L109.512 117.062C108.648 116.744 108.048 115.952 108.048 115.052V114.602ZM106.74 114.464H109.62V114.83H106.74V114.464ZM114.281 116.174H115.325V116.546H114.281V116.174ZM116.237 114.056H116.669V119.456H116.237V114.056ZM115.175 114.176H115.595V119.18H115.175V114.176ZM113.303 114.518C113.999 114.518 114.449 115.238 114.449 116.384C114.449 117.53 113.999 118.25 113.303 118.25C112.607 118.25 112.157 117.53 112.157 116.384C112.157 115.238 112.607 114.518 113.303 114.518ZM113.303 114.932C112.853 114.932 112.565 115.502 112.565 116.384C112.565 117.266 112.853 117.842 113.303 117.842C113.753 117.842 114.041 117.266 114.041 116.384C114.041 115.502 113.753 114.932 113.303 114.932ZM122.919 114.056H123.363V116.858H122.919V114.056ZM119.865 117.134H123.363V118.4H120.321V119.24H119.883V118.07H122.919V117.488H119.865V117.134ZM119.883 119.036H123.573V119.396H119.883V119.036ZM119.187 114.428H122.079V114.782H119.187V114.428ZM119.085 116.66L119.031 116.288C120.003 116.282 121.299 116.258 122.349 116.132L122.373 116.456C121.299 116.618 120.039 116.66 119.085 116.66ZM119.733 114.59H120.165V116.444H119.733V114.59ZM121.095 114.59H121.533V116.444H121.095V114.59ZM125.684 116.84H126.122V118.478H125.684V116.84ZM127.682 116.84H128.126V118.478H127.682V116.84ZM124.46 118.382H129.362V118.754H124.46V118.382ZM126.896 114.41C128.042 114.41 128.852 114.95 128.852 115.79C128.852 116.624 128.042 117.164 126.896 117.164C125.762 117.164 124.946 116.624 124.946 115.79C124.946 114.95 125.762 114.41 126.896 114.41ZM126.896 114.764C126.014 114.764 125.372 115.172 125.372 115.79C125.372 116.402 126.014 116.81 126.896 116.81C127.784 116.81 128.426 116.402 128.426 115.79C128.426 115.172 127.784 114.764 126.896 114.764ZM133.718 114.062H134.162V118.112H133.718V114.062ZM134.018 115.856H134.972V116.228H134.018V115.856ZM129.998 114.734H133.19V115.094H129.998V114.734ZM131.594 115.412C132.356 115.412 132.878 115.802 132.878 116.414C132.878 117.014 132.356 117.41 131.594 117.41C130.826 117.41 130.304 117.014 130.304 116.414C130.304 115.802 130.826 115.412 131.594 115.412ZM131.594 115.76C131.078 115.76 130.724 116.018 130.724 116.414C130.724 116.798 131.078 117.056 131.594 117.056C132.104 117.056 132.452 116.798 132.452 116.414C132.452 116.018 132.104 115.76 131.594 115.76ZM131.372 114.062H131.816V114.92H131.372V114.062ZM130.82 118.964H134.414V119.336H130.82V118.964ZM130.82 117.788H131.264V119.12H130.82V117.788ZM136.805 114.698H139.565V115.058H136.805V114.698ZM138.191 115.358C138.869 115.358 139.337 115.73 139.337 116.3C139.337 116.876 138.869 117.254 138.191 117.254C137.513 117.254 137.045 116.876 137.045 116.3C137.045 115.73 137.513 115.358 138.191 115.358ZM138.191 115.694C137.747 115.694 137.441 115.94 137.441 116.3C137.441 116.666 137.747 116.912 138.191 116.912C138.635 116.912 138.941 116.666 138.941 116.3C138.941 115.94 138.635 115.694 138.191 115.694ZM137.975 114.08H138.407V114.968H137.975V114.08ZM140.951 114.062H141.377V117.416H140.951V114.062ZM140.033 115.586H141.083V115.952H140.033V115.586ZM139.805 114.152H140.225V117.374H139.805V114.152ZM137.771 117.746H141.377V119.456H140.939V118.112H137.771V117.746ZM146.327 114.062H146.771V117.128H146.327V114.062ZM143.303 117.452H146.771V119.384H143.303V117.452ZM146.339 117.812H143.735V119.018H146.339V117.812ZM143.789 114.272H144.155V114.794C144.155 115.802 143.519 116.648 142.631 116.99L142.409 116.636C143.207 116.342 143.789 115.604 143.789 114.794V114.272ZM143.867 114.272H144.233V114.794C144.233 115.574 144.827 116.264 145.613 116.534L145.391 116.882C144.509 116.57 143.867 115.772 143.867 114.794V114.272ZM149.456 114.656H151.922V115.022H149.456V114.656ZM150.326 116.198H150.764V118.028H150.326V116.198ZM151.736 114.656H152.174V114.92C152.174 115.34 152.174 116.06 152.012 117.08L151.574 117.038C151.736 116.042 151.736 115.34 151.736 114.92V114.656ZM152.888 114.056H153.332V119.456H152.888V114.056ZM153.212 116.33H154.22V116.708H153.212V116.33ZM149.21 118.262L149.156 117.884C150.134 117.878 151.448 117.866 152.546 117.728L152.57 118.058C151.442 118.232 150.17 118.256 149.21 118.262ZM155.36 114.284H158.984V116.102H155.36V114.284ZM158.546 114.638H155.798V115.742H158.546V114.638ZM154.73 116.81H159.608V117.176H154.73V116.81ZM156.95 116.006H157.394V116.96H156.95V116.006ZM155.27 117.758H159.002V119.456H158.558V118.124H155.27V117.758ZM162.685 114.152C163.873 114.152 164.581 114.482 164.581 115.088C164.581 115.694 163.873 116.03 162.685 116.03C161.503 116.03 160.795 115.694 160.795 115.088C160.795 114.482 161.503 114.152 162.685 114.152ZM162.685 114.488C161.791 114.488 161.257 114.71 161.257 115.088C161.257 115.466 161.791 115.688 162.685 115.688C163.585 115.688 164.119 115.466 164.119 115.088C164.119 114.71 163.585 114.488 162.685 114.488ZM160.249 116.408H165.127V116.768H160.249V116.408ZM160.843 117.26H164.497V118.448H161.293V119.132H160.861V118.118H164.059V117.602H160.843V117.26ZM160.861 119.042H164.665V119.396H160.861V119.042ZM28.0346 123.518H28.4006V123.95C28.4006 124.898 27.7586 125.678 26.8706 125.99L26.6486 125.636C27.4406 125.378 28.0346 124.706 28.0346 123.95V123.518ZM28.1186 123.518H28.4846V123.95C28.4846 124.664 29.0846 125.3 29.8706 125.546L29.6486 125.894C28.7726 125.606 28.1186 124.862 28.1186 123.95V123.518ZM26.7746 123.422H29.7326V123.782H26.7746V123.422ZM30.5426 123.056H30.9866V125.978H30.5426V123.056ZM27.5306 126.248H27.9686V126.92H30.5486V126.248H30.9866V128.384H27.5306V126.248ZM27.9686 127.28V128.018H30.5486V127.28H27.9686ZM34.3102 125.75H34.7482V126.698H34.3102V125.75ZM32.0902 125.594H36.9682V125.96H32.0902V125.594ZM34.5262 126.554C35.6842 126.554 36.3742 126.896 36.3742 127.502C36.3742 128.102 35.6842 128.444 34.5262 128.444C33.3742 128.444 32.6842 128.102 32.6842 127.502C32.6842 126.896 33.3742 126.554 34.5262 126.554ZM34.5262 126.908C33.6622 126.908 33.1282 127.124 33.1282 127.502C33.1282 127.88 33.6622 128.096 34.5262 128.096C35.3962 128.096 35.9242 127.88 35.9242 127.502C35.9242 127.124 35.3962 126.908 34.5262 126.908ZM34.2502 123.488H34.6462V123.656C34.6462 124.532 33.6082 125.108 32.5402 125.246L32.3782 124.892C33.3022 124.79 34.2502 124.304 34.2502 123.656V123.488ZM34.4242 123.488H34.8142V123.656C34.8142 124.298 35.7622 124.79 36.6862 124.892L36.5242 125.246C35.4562 125.108 34.4242 124.532 34.4242 123.656V123.488ZM32.5402 123.308H36.5302V123.668H32.5402V123.308ZM39.0077 123.608H39.3737V124.064C39.3737 125.042 38.7437 125.864 37.8677 126.2L37.6337 125.846C38.4197 125.558 39.0077 124.838 39.0077 124.064V123.608ZM39.0917 123.608H39.4577V124.058C39.4577 124.766 40.0097 125.444 40.7837 125.714L40.5557 126.068C39.6917 125.75 39.0917 124.958 39.0917 124.058V123.608ZM40.4897 124.484H41.7257V124.856H40.4897V124.484ZM37.7837 123.44H40.6637V123.806H37.7837V123.44ZM38.4497 126.59H42.0377V128.456H41.5937V126.956H38.4497V126.59ZM41.5937 123.056H42.0377V126.29H41.5937V123.056ZM45.5652 123.41C46.6872 123.41 47.5212 123.998 47.5212 124.886C47.5212 125.78 46.6872 126.368 45.5652 126.368C44.4492 126.368 43.6152 125.78 43.6152 124.886C43.6152 123.998 44.4492 123.41 45.5652 123.41ZM45.5652 123.776C44.6952 123.776 44.0412 124.226 44.0412 124.886C44.0412 125.552 44.6952 126.002 45.5652 126.002C46.4472 126.002 47.0952 125.552 47.0952 124.886C47.0952 124.226 46.4472 123.776 45.5652 123.776ZM43.1292 127.358H48.0312V127.73H43.1292V127.358ZM48.6488 127.406H53.5508V127.778H48.6488V127.406ZM50.8688 126.224H51.3068V127.562H50.8688V126.224ZM49.2548 123.464H52.9328V125.072H49.7048V126.182H49.2668V124.712H52.4948V123.83H49.2548V123.464ZM49.2668 125.996H53.0588V126.356H49.2668V125.996ZM55.8042 123.476H58.2102V123.848H55.8042V123.476ZM56.6442 124.676H57.0822V126.026H56.6442V124.676ZM58.0362 123.476H58.4682V123.758C58.4682 124.1 58.4682 124.64 58.3242 125.36L57.8862 125.312C58.0362 124.592 58.0362 124.1 58.0362 123.758V123.476ZM59.2422 123.056H59.6862V127.124H59.2422V123.056ZM59.4762 124.832H60.4842V125.204H59.4762V124.832ZM56.3082 127.964H59.8662V128.336H56.3082V127.964ZM56.3082 126.752H56.7522V128.078H56.3082V126.752ZM55.5282 126.242L55.4742 125.87C56.4402 125.87 57.7662 125.852 58.8702 125.696L58.9002 126.026C57.7782 126.218 56.4822 126.242 55.5282 126.242ZM65.0018 123.05H65.4398V128.462H65.0018V123.05ZM61.3418 126.776H61.7858C62.6798 126.776 63.4898 126.74 64.4678 126.584L64.5158 126.95C63.5198 127.112 62.7038 127.148 61.7858 127.148H61.3418V126.776ZM61.3298 123.566H63.8138V125.468H61.7858V126.92H61.3418V125.102H63.3698V123.932H61.3298V123.566ZM71.6172 123.056H72.0612V126.218H71.6172V123.056ZM71.9412 124.364H72.8712V124.742H71.9412V124.364ZM68.1132 123.35H68.5512V124.202H70.1652V123.35H70.5972V125.864H68.1132V123.35ZM68.5512 124.562V125.504H70.1652V124.562H68.5512ZM68.7072 126.524H72.1092V126.884H69.1512V128.276H68.7072V126.524ZM68.7072 128.018H72.2112V128.384H68.7072V128.018ZM74.0228 126.296H74.4668V126.95H77.1968V126.296H77.6348V128.384H74.0228V126.296ZM74.4668 127.298V128.024H77.1968V127.298H74.4668ZM73.3988 125.534H78.2768V125.9H73.3988V125.534ZM75.6128 123.116H75.9968V123.368C75.9968 124.304 74.9048 124.964 73.8488 125.126L73.6808 124.778C74.6108 124.646 75.6128 124.076 75.6128 123.368V123.116ZM75.6848 123.116H76.0628V123.368C76.0628 124.058 77.0828 124.652 77.9948 124.778L77.8268 125.126C76.7828 124.964 75.6848 124.292 75.6848 123.368V123.116ZM82.8843 123.056H83.3223V128.456H82.8843V123.056ZM79.2723 123.584H79.7103V126.932H79.2723V123.584ZM79.2723 126.668H79.7103C80.5383 126.668 81.3843 126.602 82.3023 126.41L82.3563 126.794C81.4143 126.986 80.5683 127.052 79.7103 127.052H79.2723V126.668ZM88.1278 123.05H88.5778V128.462H88.1278V123.05ZM88.4698 125.21H89.4778V125.582H88.4698V125.21ZM84.6718 126.728H85.0918C86.1058 126.728 86.8018 126.692 87.6058 126.542L87.6598 126.92C86.8258 127.076 86.1238 127.106 85.0918 127.106H84.6718V126.728ZM84.6718 123.584H87.1798V123.95H85.1158V126.896H84.6718V123.584ZM90.4554 128.084C90.2574 128.084 90.0894 127.922 90.0894 127.694C90.0894 127.454 90.2574 127.298 90.4554 127.298C90.6594 127.298 90.8274 127.454 90.8274 127.694C90.8274 127.922 90.6594 128.084 90.4554 128.084ZM94.4307 124.562H95.8107V124.928H94.4307V124.562ZM95.5527 123.062H95.9967V127.022H95.5527V123.062ZM92.5707 127.964H96.1527V128.336H92.5707V127.964ZM92.5707 126.668H93.0147V128.144H92.5707V126.668ZM92.9667 123.722H93.3327V124.178C93.3327 125.156 92.7027 125.984 91.8267 126.32L91.5927 125.96C92.3787 125.678 92.9667 124.958 92.9667 124.178V123.722ZM93.0507 123.722H93.4167V124.172C93.4167 124.88 93.9687 125.564 94.7427 125.84L94.5147 126.188C93.6507 125.87 93.0507 125.078 93.0507 124.172V123.722ZM91.7427 123.512H94.6227V123.878H91.7427V123.512ZM97.0822 125.834H101.984V126.2H97.0822V125.834ZM99.3442 126.062H99.7822V127.322H99.3442V126.062ZM97.7182 123.314H101.342V125.192H97.7182V123.314ZM100.904 123.668H98.1562V124.832H100.904V123.668ZM97.7122 127.964H101.438V128.336H97.7122V127.964ZM97.7122 126.788H98.1562V128.096H97.7122V126.788ZM106.716 124.346H108.096V124.724H106.716V124.346ZM105.324 123.38H105.684V124.058C105.684 125.096 105.066 125.96 104.19 126.32L103.956 125.96C104.748 125.66 105.324 124.898 105.324 124.058V123.38ZM105.402 123.38H105.762V124.082C105.762 124.844 106.32 125.558 107.088 125.846L106.848 126.188C106.008 125.852 105.402 125.036 105.402 124.082V123.38ZM107.928 123.062H108.372V127.106H107.928V123.062ZM104.922 127.964H108.504V128.336H104.922V127.964ZM104.922 126.65H105.366V128.126H104.922V126.65ZM110.621 123.392H110.981V124.136C110.981 124.916 110.495 125.756 109.721 126.104L109.475 125.756C110.177 125.444 110.621 124.742 110.621 124.136V123.392ZM110.693 123.392H111.047V124.136C111.047 124.736 111.479 125.348 112.163 125.612L111.923 125.954C111.155 125.648 110.693 124.91 110.693 124.136V123.392ZM113.579 123.062H114.005V126.398H113.579V123.062ZM112.679 124.526H113.729V124.892H112.679V124.526ZM112.421 123.164H112.841V126.224H112.421V123.164ZM112.241 126.524C113.351 126.524 114.035 126.878 114.035 127.484C114.035 128.096 113.351 128.444 112.241 128.444C111.131 128.444 110.447 128.096 110.447 127.484C110.447 126.878 111.131 126.524 112.241 126.524ZM112.241 126.872C111.407 126.872 110.885 127.1 110.885 127.484C110.885 127.868 111.407 128.102 112.241 128.102C113.075 128.102 113.591 127.868 113.591 127.484C113.591 127.1 113.075 126.872 112.241 126.872ZM118.955 123.056H119.399V126.116H118.955V123.056ZM115.325 123.368H115.769V125.558H115.325V123.368ZM115.325 125.312H115.757C116.657 125.312 117.467 125.252 118.337 125.066L118.403 125.432C117.497 125.624 116.681 125.684 115.757 125.684H115.325V125.312ZM115.925 126.386H119.399V128.378H115.925V126.386ZM118.961 126.746H116.363V128.018H118.961V126.746ZM122.26 123.452C123.1 123.452 123.694 123.968 123.694 124.712C123.694 125.462 123.1 125.978 122.26 125.978C121.414 125.978 120.814 125.462 120.814 124.712C120.814 123.968 121.414 123.452 122.26 123.452ZM122.26 123.842C121.672 123.842 121.246 124.196 121.246 124.712C121.246 125.228 121.672 125.594 122.26 125.594C122.836 125.594 123.262 125.228 123.262 124.712C123.262 124.196 122.836 123.842 122.26 123.842ZM124.438 123.05H124.882V128.462H124.438V123.05ZM120.598 127.262L120.532 126.884C121.522 126.884 122.896 126.884 124.078 126.698L124.114 127.028C122.896 127.256 121.57 127.262 120.598 127.262ZM127.376 123.644H130.568V124.004H127.376V123.644ZM128.972 124.304C129.74 124.304 130.256 124.682 130.256 125.276C130.256 125.87 129.74 126.242 128.972 126.242C128.198 126.242 127.682 125.87 127.682 125.276C127.682 124.682 128.198 124.304 128.972 124.304ZM128.972 124.652C128.45 124.652 128.102 124.898 128.102 125.276C128.102 125.648 128.45 125.894 128.972 125.894C129.482 125.894 129.83 125.648 129.83 125.276C129.83 124.898 129.482 124.652 128.972 124.652ZM131.096 123.056H131.54V126.428H131.096V123.056ZM131.42 124.562H132.35V124.934H131.42V124.562ZM128.048 126.734H131.54V128.456H131.096V127.1H128.048V126.734ZM128.75 123.026H129.194V123.842H128.75V123.026ZM133.501 126.296H133.945V126.95H136.675V126.296H137.113V128.384H133.501V126.296ZM133.945 127.298V128.024H136.675V127.298H133.945ZM132.877 125.534H137.755V125.9H132.877V125.534ZM135.091 123.116H135.475V123.368C135.475 124.304 134.383 124.964 133.327 125.126L133.159 124.778C134.089 124.646 135.091 124.076 135.091 123.368V123.116ZM135.163 123.116H135.541V123.368C135.541 124.058 136.561 124.652 137.473 124.778L137.305 125.126C136.261 124.964 135.163 124.292 135.163 123.368V123.116ZM140.033 123.476H142.439V123.848H140.033V123.476ZM140.873 124.676H141.311V126.026H140.873V124.676ZM142.265 123.476H142.697V123.758C142.697 124.1 142.697 124.64 142.553 125.36L142.115 125.312C142.265 124.592 142.265 124.1 142.265 123.758V123.476ZM143.471 123.056H143.915V127.124H143.471V123.056ZM143.705 124.832H144.713V125.204H143.705V124.832ZM140.537 127.964H144.095V128.336H140.537V127.964ZM140.537 126.752H140.981V128.078H140.537V126.752ZM139.757 126.242L139.703 125.87C140.669 125.87 141.995 125.852 143.099 125.696L143.129 126.026C142.007 126.218 140.711 126.242 139.757 126.242ZM149.23 123.05H149.668V128.462H149.23V123.05ZM145.57 126.776H146.014C146.908 126.776 147.718 126.74 148.696 126.584L148.744 126.95C147.748 127.112 146.932 127.148 146.014 127.148H145.57V126.776ZM145.558 123.566H148.042V125.468H146.014V126.92H145.57V125.102H147.598V123.932H145.558V123.566ZM150.772 127.406H155.674V127.778H150.772V127.406ZM152.992 126.224H153.43V127.562H152.992V126.224ZM151.378 123.464H155.056V125.072H151.828V126.182H151.39V124.712H154.618V123.83H151.378V123.464ZM151.39 125.996H155.182V126.356H151.39V125.996ZM158.983 123.812H159.343V124.736C159.343 125.846 158.617 126.992 157.807 127.412L157.543 127.058C158.299 126.686 158.983 125.66 158.983 124.736V123.812ZM159.061 123.812H159.415V124.736C159.415 125.606 160.063 126.56 160.825 126.926L160.567 127.28C159.739 126.866 159.061 125.792 159.061 124.736V123.812ZM157.735 123.614H160.639V123.986H157.735V123.614ZM161.317 123.056H161.767V128.456H161.317V123.056ZM161.659 125.258H162.667V125.636H161.659V125.258ZM167.125 123.056H167.563V128.456H167.125V123.056ZM165.541 123.638H165.979C165.979 125.186 165.247 126.56 163.465 127.43L163.225 127.076C164.791 126.32 165.541 125.144 165.541 123.71V123.638ZM163.465 123.638H165.727V124.004H163.465V123.638ZM170.862 123.578H171.246V123.818C171.246 124.784 170.172 125.486 169.14 125.666L168.966 125.312C169.872 125.174 170.862 124.556 170.862 123.818V123.578ZM170.97 123.578H171.354V123.818C171.354 124.556 172.344 125.174 173.25 125.312L173.082 125.666C172.038 125.486 170.97 124.784 170.97 123.818V123.578ZM170.88 126.38H171.318V128.45H170.88V126.38ZM168.666 126.146H173.55V126.518H168.666V126.146ZM169.128 123.398H173.076V123.764H169.128V123.398ZM174.816 125.6H178.512V125.966H174.816V125.6ZM174.186 127.394H179.088V127.766H174.186V127.394ZM176.406 125.756H176.844V127.55H176.406V125.756ZM174.816 123.494H178.452V123.866H175.26V125.762H174.816V123.494ZM67.8972 132.644H71.0892V133.004H67.8972V132.644ZM69.4932 133.304C70.2612 133.304 70.7772 133.682 70.7772 134.276C70.7772 134.87 70.2612 135.242 69.4932 135.242C68.7192 135.242 68.2032 134.87 68.2032 134.276C68.2032 133.682 68.7192 133.304 69.4932 133.304ZM69.4932 133.652C68.9712 133.652 68.6232 133.898 68.6232 134.276C68.6232 134.648 68.9712 134.894 69.4932 134.894C70.0032 134.894 70.3512 134.648 70.3512 134.276C70.3512 133.898 70.0032 133.652 69.4932 133.652ZM71.6172 132.056H72.0612V135.428H71.6172V132.056ZM71.9412 133.562H72.8712V133.934H71.9412V133.562ZM68.5692 135.734H72.0612V137.456H71.6172V136.1H68.5692V135.734ZM69.2712 132.026H69.7152V132.842H69.2712V132.026ZM74.0228 135.296H74.4668V135.95H77.1968V135.296H77.6348V137.384H74.0228V135.296ZM74.4668 136.298V137.024H77.1968V136.298H74.4668ZM73.3988 134.534H78.2768V134.9H73.3988V134.534ZM75.6128 132.116H75.9968V132.368C75.9968 133.304 74.9048 133.964 73.8488 134.126L73.6808 133.778C74.6108 133.646 75.6128 133.076 75.6128 132.368V132.116ZM75.6848 132.116H76.0628V132.368C76.0628 133.058 77.0828 133.652 77.9948 133.778L77.8268 134.126C76.7828 133.964 75.6848 133.292 75.6848 132.368V132.116ZM81.3543 132.152C82.5423 132.152 83.2503 132.482 83.2503 133.088C83.2503 133.694 82.5423 134.03 81.3543 134.03C80.1723 134.03 79.4643 133.694 79.4643 133.088C79.4643 132.482 80.1723 132.152 81.3543 132.152ZM81.3543 132.488C80.4603 132.488 79.9263 132.71 79.9263 133.088C79.9263 133.466 80.4603 133.688 81.3543 133.688C82.2543 133.688 82.7883 133.466 82.7883 133.088C82.7883 132.71 82.2543 132.488 81.3543 132.488ZM78.9183 134.408H83.7963V134.768H78.9183V134.408ZM79.5123 135.26H83.1663V136.448H79.9623V137.132H79.5303V136.118H82.7283V135.602H79.5123V135.26ZM79.5303 137.042H83.3343V137.396H79.5303V137.042ZM87.1538 132.362H87.5258V132.932C87.5258 133.97 86.9078 134.804 86.0138 135.152L85.7798 134.786C86.5898 134.498 87.1538 133.778 87.1538 132.932V132.362ZM87.2318 132.362H87.5918V132.914C87.5918 133.694 88.1558 134.372 88.9298 134.642L88.6898 134.99C87.8378 134.666 87.2318 133.886 87.2318 132.914V132.362ZM89.7578 132.056H90.2018V135.26H89.7578V132.056ZM88.4378 135.416C89.5478 135.416 90.2258 135.794 90.2258 136.436C90.2258 137.078 89.5478 137.444 88.4378 137.444C87.3278 137.444 86.6438 137.078 86.6438 136.436C86.6438 135.794 87.3278 135.416 88.4378 135.416ZM88.4378 135.776C87.6038 135.776 87.0818 136.022 87.0818 136.436C87.0818 136.844 87.6038 137.09 88.4378 137.09C89.2718 137.09 89.7878 136.844 89.7878 136.436C89.7878 136.022 89.2718 135.776 88.4378 135.776ZM88.5518 133.226H89.8658V133.598H88.5518V133.226ZM92.6493 132.632H93.0153V133.082C93.0153 134.072 92.3973 134.882 91.5093 135.206L91.2813 134.852C92.0793 134.57 92.6493 133.874 92.6493 133.082V132.632ZM92.7273 132.632H93.0933V133.082C93.0933 133.796 93.6333 134.432 94.4133 134.696L94.1973 135.044C93.3213 134.744 92.7273 133.988 92.7273 133.082V132.632ZM91.4193 132.458H94.3053V132.83H91.4193V132.458ZM95.0313 132.056H95.4753V135.32H95.0313V132.056ZM95.3553 133.448H96.2853V133.82H95.3553V133.448ZM93.7593 135.476C94.8573 135.476 95.5293 135.836 95.5293 136.454C95.5293 137.084 94.8573 137.444 93.7593 137.444C92.6673 137.444 91.9953 137.084 91.9953 136.454C91.9953 135.836 92.6673 135.476 93.7593 135.476ZM93.7593 135.83C92.9433 135.83 92.4333 136.064 92.4333 136.454C92.4333 136.856 92.9433 137.09 93.7593 137.09C94.5813 137.09 95.0913 136.856 95.0913 136.454C95.0913 136.064 94.5813 135.83 93.7593 135.83ZM98.2588 132.53H98.6248V133.532C98.6248 134.744 97.9228 135.884 97.0648 136.322L96.7888 135.956C97.5688 135.584 98.2588 134.552 98.2588 133.532V132.53ZM98.3308 132.53H98.6968V133.532C98.6968 134.516 99.3808 135.512 100.155 135.872L99.8848 136.226C99.0448 135.8 98.3308 134.708 98.3308 133.532V132.53ZM100.779 132.05H101.223V137.462H100.779V132.05ZM106.304 132.056H106.748V134.882H106.304V132.056ZM103.274 135.164H106.748V136.406H103.718V137.174H103.286V136.07H106.31V135.518H103.274V135.164ZM103.286 137.042H106.934V137.396H103.286V137.042ZM104.702 132.296H105.17C105.17 133.634 104.312 134.582 102.662 135.014L102.5 134.66C103.994 134.276 104.702 133.49 104.702 132.494V132.296ZM102.728 132.296H104.912V132.656H102.728V132.296ZM104.63 133.22V133.532L102.536 133.694L102.458 133.322L104.63 133.22ZM111.402 132.248H111.792V132.566C111.792 133.592 110.694 134.312 109.632 134.492L109.452 134.138C110.388 133.994 111.402 133.352 111.402 132.566V132.248ZM111.48 132.248H111.864V132.566C111.864 133.34 112.89 133.994 113.814 134.138L113.634 134.492C112.578 134.312 111.48 133.574 111.48 132.566V132.248ZM111.402 135.386H111.84V137.456H111.402V135.386ZM109.188 135.116H114.072V135.488H109.188V135.116ZM117.417 135.386H117.765V135.698C117.765 136.388 117.303 137.09 116.541 137.384L116.313 137.054C116.991 136.802 117.417 136.214 117.417 135.698V135.386ZM117.507 135.386H117.843V135.698C117.843 136.244 118.173 136.832 118.821 137.09L118.629 137.432C117.867 137.132 117.507 136.4 117.507 135.698V135.386ZM119.415 135.386H119.751V135.698C119.751 136.316 119.385 137.108 118.629 137.432L118.443 137.09C119.079 136.796 119.415 136.166 119.415 135.698V135.386ZM119.499 135.386H119.847V135.698C119.847 136.256 120.267 136.82 120.951 137.054L120.723 137.384C119.949 137.102 119.499 136.424 119.499 135.698V135.386ZM120.015 132.062H120.459V135.152H120.015V132.062ZM117.573 132.374C118.383 132.374 118.971 132.884 118.971 133.634C118.971 134.378 118.383 134.882 117.573 134.882C116.757 134.882 116.169 134.378 116.169 133.634C116.169 132.884 116.757 132.374 117.573 132.374ZM117.573 132.752C117.015 132.752 116.607 133.118 116.607 133.634C116.607 134.15 117.015 134.516 117.573 134.516C118.131 134.516 118.539 134.15 118.539 133.634C118.539 133.118 118.131 132.752 117.573 132.752ZM122.187 135.296H122.631V135.95H125.361V135.296H125.799V137.384H122.187V135.296ZM122.631 136.298V137.024H125.361V136.298H122.631ZM121.563 134.534H126.441V134.9H121.563V134.534ZM123.777 132.116H124.161V132.368C124.161 133.304 123.069 133.964 122.013 134.126L121.845 133.778C122.775 133.646 123.777 133.076 123.777 132.368V132.116ZM123.849 132.116H124.227V132.368C124.227 133.058 125.247 133.652 126.159 133.778L125.991 134.126C124.947 133.964 123.849 133.292 123.849 132.368V132.116ZM131.048 132.056H131.486V137.456H131.048V132.056ZM127.436 132.584H127.874V135.932H127.436V132.584ZM127.436 135.668H127.874C128.702 135.668 129.548 135.602 130.466 135.41L130.52 135.794C129.578 135.986 128.732 136.052 127.874 136.052H127.436V135.668ZM136.292 132.05H136.742V137.462H136.292V132.05ZM136.634 134.21H137.642V134.582H136.634V134.21ZM132.836 135.728H133.256C134.27 135.728 134.966 135.692 135.77 135.542L135.824 135.92C134.99 136.076 134.288 136.106 133.256 136.106H132.836V135.728ZM132.836 132.584H135.344V132.95H133.28V135.896H132.836V132.584ZM138.619 137.084C138.421 137.084 138.253 136.922 138.253 136.694C138.253 136.454 138.421 136.298 138.619 136.298C138.823 136.298 138.991 136.454 138.991 136.694C138.991 136.922 138.823 137.084 138.619 137.084Z" fill="#666666"/>
</svg>
