<svg width="72" height="115" viewBox="0 0 72 115" fill="none" xmlns="http://www.w3.org/2000/svg">
<path d="M21.3295 81V80.32H22.9695V74.72H21.6695V74.19C22.3095 74.08 22.7695 73.91 23.1495 73.68H23.7795V80.32H25.2695V81H21.3295ZM27.2677 77.06C26.9377 77.06 26.6577 76.8 26.6577 76.41C26.6577 76.02 26.9377 75.75 27.2677 75.75C27.6077 75.75 27.8877 76.02 27.8877 76.41C27.8877 76.8 27.6077 77.06 27.2677 77.06ZM27.2677 81.14C26.9377 81.14 26.6577 80.87 26.6577 80.49C26.6577 80.09 26.9377 79.83 27.2677 79.83C27.6077 79.83 27.8877 80.09 27.8877 80.49C27.8877 80.87 27.6077 81.14 27.2677 81.14ZM29.5033 81V80.32H31.1433V74.72H29.8433V74.19C30.4833 74.08 30.9433 73.91 31.3233 73.68H31.9533V80.32H33.4433V81H29.5033ZM38.7216 78.43C40.5516 78.43 41.6716 79.05 41.6716 80.09C41.6716 81.14 40.5516 81.75 38.7216 81.75C36.9016 81.75 35.7816 81.14 35.7816 80.09C35.7816 79.05 36.9016 78.43 38.7216 78.43ZM38.7216 79.03C37.3616 79.03 36.5116 79.43 36.5116 80.09C36.5116 80.76 37.3616 81.16 38.7216 81.16C40.0916 81.16 40.9416 80.76 40.9416 80.09C40.9416 79.43 40.0916 79.03 38.7216 79.03ZM40.8416 72.76H41.5816V78.18H40.8416V72.76ZM41.3816 75.05H42.9316V75.68H41.3816V75.05ZM35.0016 73.32H35.7316V74.72H38.4216V73.32H39.1416V77.46H35.0016V73.32ZM35.7316 75.31V76.86H38.4216V75.31H35.7316ZM43.8008 77.39H51.9708V78H43.8008V77.39ZM47.5708 77.77H48.3008V79.87H47.5708V77.77ZM44.8608 73.19H50.9008V76.32H44.8608V73.19ZM50.1708 73.78H45.5908V75.72H50.1708V73.78ZM44.8508 80.94H51.0608V81.56H44.8508V80.94ZM44.8508 78.98H45.5908V81.16H44.8508V78.98Z" fill="#EE7D00"/>
<path d="M15.9245 93.105L15.6845 92.59C16.6245 92.475 17.1145 92.025 17.1795 91.585H15.8545V91.06H19.2695V91.585H17.9645C18.0295 92.025 18.5145 92.475 19.4495 92.59L19.2145 93.105C18.4095 92.995 17.8445 92.65 17.5695 92.18C17.2945 92.65 16.7295 92.995 15.9245 93.105ZM19.6495 93.37V93.895H17.8845V95.44H17.2245V93.895H15.4895V93.37H19.6495ZM21.412 95V94.405H22.207V92.065H21.537V91.61C21.907 91.54 22.162 91.445 22.397 91.295H22.942V94.405H23.637V95H21.412ZM27.0413 91.335V91.85H24.2763V91.335H25.3313V90.84H25.9913V91.335H27.0413ZM25.1463 92.895C25.1463 93.135 25.3563 93.265 25.6613 93.265C25.9713 93.265 26.1763 93.135 26.1763 92.895C26.1763 92.66 25.9713 92.53 25.6613 92.53C25.3563 92.53 25.1463 92.66 25.1463 92.895ZM25.9913 93.73V94.095C26.3663 94.07 26.7413 94.045 27.1013 93.995L27.1513 94.475C26.1463 94.66 25.0813 94.665 24.2663 94.665L24.1863 94.13C24.5313 94.13 24.9213 94.13 25.3313 94.12V93.73C24.8363 93.635 24.5163 93.325 24.5163 92.895C24.5163 92.38 24.9863 92.03 25.6613 92.03C26.3313 92.03 26.8013 92.38 26.8013 92.895C26.8013 93.325 26.4813 93.635 25.9913 93.73ZM27.3413 90.825H28.0013V95.43H27.3413V90.825ZM29.7487 95.91L30.9937 90.97H31.4787L30.2387 95.91H29.7487ZM35.405 93.42L34.76 93.365C34.865 92.71 34.88 92.215 34.88 91.805H33.16V91.28H35.53V91.655C35.53 92.1 35.53 92.66 35.405 93.42ZM34.4 92.6V93.94C34.845 93.925 35.295 93.895 35.715 93.845L35.75 94.32C34.815 94.48 33.785 94.5 32.985 94.505L32.925 93.965C33.18 93.965 33.46 93.965 33.75 93.96V92.6H34.4ZM37.205 92.675V93.225H36.585V95.425H35.925V90.82H36.585V92.675H37.205ZM38.0246 94.445V93.92H41.2246V95.435H40.5646V94.445H38.0246ZM38.7246 91.52V92.115H40.5496V91.52H38.7246ZM39.9696 93.065H41.7246V93.59H37.5646V93.065H39.3096V92.635H38.0746V91.005H41.1996V92.635H39.9696V93.065ZM44.7742 92.575L44.8392 93.1C44.2742 93.22 43.7442 93.245 42.7142 93.245H42.3242V91.135H44.3892V91.66H42.9792V92.715C43.8142 92.71 44.2742 92.68 44.7742 92.575ZM44.2792 94.905C44.8642 94.905 45.1892 94.775 45.1892 94.495C45.1892 94.22 44.8642 94.09 44.2792 94.09C43.6992 94.09 43.3742 94.22 43.3742 94.495C43.3742 94.775 43.6992 94.905 44.2792 94.905ZM44.2792 93.565C45.2342 93.565 45.8392 93.915 45.8392 94.495C45.8392 95.085 45.2342 95.435 44.2792 95.435C43.3342 95.435 42.7242 95.085 42.7242 94.495C42.7242 93.915 43.3342 93.565 44.2792 93.565ZM45.7992 91.915H46.3992V92.45H45.7992V93.485H45.1342V90.82H45.7992V91.915ZM48.0916 95V94.405H48.8866V92.065H48.2166V91.61C48.5866 91.54 48.8416 91.445 49.0766 91.295H49.6216V94.405H50.3166V95H48.0916ZM52.101 95.07C51.346 95.07 50.846 94.41 50.846 93.135C50.846 91.855 51.346 91.23 52.101 91.23C52.856 91.23 53.351 91.86 53.351 93.135C53.351 94.41 52.856 95.07 52.101 95.07ZM52.101 94.495C52.421 94.495 52.656 94.175 52.656 93.135C52.656 92.1 52.421 91.8 52.101 91.8C51.781 91.8 51.541 92.1 51.541 93.135C51.541 94.175 51.781 94.495 52.101 94.495ZM56.7653 92.35V91.935H54.9703V92.35H56.7653ZM57.4203 90.97V92.865H54.3153V90.97H54.9703V91.44H56.7653V90.97H57.4203ZM54.9253 94.085V94.825H57.4953V95.35H54.2653V94.085H54.9253ZM53.7803 93.185H57.9553V93.705H56.2553V94.43H55.5953V93.705H53.7803V93.185Z" fill="#333333"/>
<path d="M12.7413 107.918H16.4653V108.338H12.7413V107.918ZM14.6033 108.688C15.4993 108.688 16.1013 109.129 16.1013 109.822C16.1013 110.515 15.4993 110.949 14.6033 110.949C13.7003 110.949 13.0983 110.515 13.0983 109.822C13.0983 109.129 13.7003 108.688 14.6033 108.688ZM14.6033 109.094C13.9943 109.094 13.5883 109.381 13.5883 109.822C13.5883 110.256 13.9943 110.543 14.6033 110.543C15.1983 110.543 15.6043 110.256 15.6043 109.822C15.6043 109.381 15.1983 109.094 14.6033 109.094ZM17.0813 107.232H17.5993V111.166H17.0813V107.232ZM17.4593 108.989H18.5443V109.423H17.4593V108.989ZM13.5253 111.523H17.5993V113.532H17.0813V111.95H13.5253V111.523ZM14.3443 107.197H14.8623V108.149H14.3443V107.197ZM19.8877 111.012H20.4057V111.775H23.5907V111.012H24.1017V113.448H19.8877V111.012ZM20.4057 112.181V113.028H23.5907V112.181H20.4057ZM19.1597 110.123H24.8507V110.55H19.1597V110.123ZM21.7427 107.302H22.1907V107.596C22.1907 108.688 20.9167 109.458 19.6847 109.647L19.4887 109.241C20.5737 109.087 21.7427 108.422 21.7427 107.596V107.302ZM21.8267 107.302H22.2677V107.596C22.2677 108.401 23.4577 109.094 24.5217 109.241L24.3257 109.647C23.1077 109.458 21.8267 108.674 21.8267 107.596V107.302ZM25.9492 107.722H28.7562V108.156H25.9492V107.722ZM26.9292 109.122H27.4402V110.697H26.9292V109.122ZM28.5532 107.722H29.0572V108.051C29.0572 108.45 29.0572 109.08 28.8892 109.92L28.3782 109.864C28.5532 109.024 28.5532 108.45 28.5532 108.051V107.722ZM29.9602 107.232H30.4782V111.978H29.9602V107.232ZM30.2332 109.304H31.4092V109.738H30.2332V109.304ZM26.5372 112.958H30.6882V113.392H26.5372V112.958ZM26.5372 111.544H27.0552V113.091H26.5372V111.544ZM25.6272 110.949L25.5642 110.515C26.6912 110.515 28.2382 110.494 29.5262 110.312L29.5612 110.697C28.2522 110.921 26.7402 110.949 25.6272 110.949ZM36.6796 107.225H37.1906V113.539H36.6796V107.225ZM32.4096 111.572H32.9276C33.9706 111.572 34.9156 111.53 36.0566 111.348L36.1126 111.775C34.9506 111.964 33.9986 112.006 32.9276 112.006H32.4096V111.572ZM32.3956 107.827H35.2936V110.046H32.9276V111.74H32.4096V109.619H34.7756V108.254H32.3956V107.827ZM40.3727 107.645H43.2847V110.2H40.3727V107.645ZM42.7807 108.065H40.8697V109.787H42.7807V108.065ZM44.6707 107.232H45.1887V110.858H44.6707V107.232ZM42.9557 111.593H43.3967V111.719C43.3967 112.629 42.2277 113.336 41.0167 113.511L40.8347 113.112C41.8847 112.979 42.9557 112.37 42.9557 111.719V111.593ZM43.0327 111.593H43.4807V111.719C43.4807 112.356 44.5167 112.972 45.5597 113.112L45.3777 113.511C44.1667 113.336 43.0327 112.601 43.0327 111.719V111.593ZM41.0867 111.299H45.3427V111.712H41.0867V111.299ZM42.9557 110.669H43.4807V111.481H42.9557V110.669ZM49.5957 107.554H50.0227V108.212C50.0227 109.423 49.3157 110.403 48.2937 110.809L48.0207 110.396C48.9517 110.046 49.5957 109.199 49.5957 108.212V107.554ZM49.6867 107.554H50.1067V108.247C50.1067 109.115 50.7717 109.913 51.6607 110.228L51.3877 110.634C50.4007 110.263 49.6867 109.339 49.6867 108.247V107.554ZM52.3957 107.232H52.9137V111.075H52.3957V107.232ZM52.7737 108.891H53.8587V109.325H52.7737V108.891ZM50.9117 111.25C52.1997 111.25 52.9767 111.663 52.9767 112.384C52.9767 113.105 52.1997 113.518 50.9117 113.518C49.6307 113.518 48.8537 113.105 48.8537 112.384C48.8537 111.663 49.6307 111.25 50.9117 111.25ZM50.9117 111.663C49.9597 111.663 49.3647 111.929 49.3647 112.384C49.3647 112.839 49.9597 113.105 50.9117 113.105C51.8707 113.105 52.4657 112.839 52.4657 112.384C52.4657 111.929 51.8707 111.663 50.9117 111.663ZM58.8352 107.232H59.3532V110.802H58.8352V107.232ZM59.2132 108.793H60.2982V109.22H59.2132V108.793ZM54.7752 109.997H55.2582C56.5392 109.997 57.2742 109.955 58.1352 109.78L58.1982 110.207C57.3162 110.389 56.5672 110.424 55.2582 110.424H54.7752V109.997ZM54.7752 107.659H57.5402V108.079H55.2862V110.235H54.7752V107.659ZM55.4192 111.152H59.3532V113.441H55.4192V111.152ZM58.8422 111.572H55.9232V113.021H58.8422V111.572Z" fill="#666666"/>
<rect width="72" height="68" fill="#F3F3F3"/>
</svg>
