<svg width="155" height="117" viewBox="0 0 155 117" fill="none" xmlns="http://www.w3.org/2000/svg">
<path d="M61.4319 83.73V73.97H63.7219V74.75H62.5319V82.93H63.7219V83.73H61.4319ZM66.8612 81.21V81.76H72.3512V82.75H65.5612V80.27H70.7412V79.77H65.5412V78.78H72.0512V81.21H66.8612ZM71.8312 77.19H72.9412V78.23H64.6512V77.19H70.5112C70.5512 76.92 70.5912 76.68 70.6212 76.43L65.5412 76.65L65.4012 75.64L70.6812 75.52C70.6912 75.34 70.6912 75.16 70.6912 74.99H65.6612V73.97H71.9912V74.79C71.9912 75.5 71.9912 76.26 71.8312 77.19ZM75.3604 78.11V79.74C76.2004 79.72 77.0004 79.67 77.9204 79.53L78.0204 80.6C76.8404 80.79 75.8404 80.82 74.7304 80.82H74.0804V77.07H76.2804V75.6H74.0704V74.54H77.5504V78.11H75.3604ZM80.4804 73.64H81.7304V82.85H80.4804V78.18H79.6504V82.42H78.4204V73.81H79.6504V77.12H80.4804V73.64ZM91.0796 77.98L90.5196 79.09C88.9196 78.77 87.7396 77.88 87.1496 76.71C86.5596 77.88 85.3896 78.78 83.7896 79.09L83.2296 77.98C85.2996 77.63 86.4496 76.17 86.4496 74.85V74.19H87.8596V74.85C87.8596 76.2 88.9996 77.63 91.0796 77.98ZM83.0296 80.67H91.3696V81.74H83.0296V80.67ZM92.2788 83.73V82.93H93.4688V74.75H92.2788V73.97H94.5688V83.73H92.2788Z" fill="#333333"/>
<path d="M19.8151 92.062H20.2591V96.058H19.8151V92.062ZM16.8151 96.964H20.4331V97.336H16.8151V96.964ZM16.8151 95.68H17.2531V97.156H16.8151V95.68ZM17.3371 93.082H17.6971V93.316C17.6971 94.282 17.0671 95.074 16.1851 95.386L15.9691 95.038C16.7551 94.774 17.3371 94.084 17.3371 93.316V93.082ZM17.4091 93.082H17.7751V93.316C17.7751 94.042 18.3691 94.69 19.1551 94.936L18.9451 95.29C18.0511 94.996 17.4091 94.246 17.4091 93.316V93.082ZM16.0831 92.794H19.0171V93.154H16.0831V92.794ZM17.3371 92.08H17.7751V92.98H17.3371V92.08ZM21.9866 92.41H25.3586V92.776H21.9866V92.41ZM21.3626 94.732H26.2466V95.104H21.3626V94.732ZM23.5706 94.978H24.0146V97.462H23.5706V94.978ZM25.1546 92.41H25.5866V92.878C25.5866 93.436 25.5866 94.066 25.3886 94.972L24.9446 94.906C25.1546 94.042 25.1546 93.424 25.1546 92.878V92.41ZM26.8822 94.336H31.7662V94.702H26.8822V94.336ZM27.5422 93.514H31.1842V93.874H27.5422V93.514ZM27.5422 92.248H31.1242V92.608H27.9802V93.796H27.5422V92.248ZM27.4762 95.2H31.1302V96.442H27.9262V97.162H27.4942V96.106H30.6922V95.554H27.4762V95.2ZM27.4942 97.036H31.2982V97.39H27.4942V97.036ZM32.6477 92.656H35.1137V93.022H32.6477V92.656ZM33.5177 94.198H33.9557V96.028H33.5177V94.198ZM34.9277 92.656H35.3657V92.92C35.3657 93.34 35.3657 94.06 35.2037 95.08L34.7657 95.038C34.9277 94.042 34.9277 93.34 34.9277 92.92V92.656ZM36.0797 92.056H36.5237V97.456H36.0797V92.056ZM36.4037 94.33H37.4117V94.708H36.4037V94.33ZM32.4017 96.262L32.3477 95.884C33.3257 95.878 34.6397 95.866 35.7377 95.728L35.7617 96.058C34.6337 96.232 33.3617 96.256 32.4017 96.262ZM42.9952 92.056H43.4392V95.308H42.9952V92.056ZM43.3192 93.508H44.2492V93.88H43.3192V93.508ZM40.0672 95.626H43.4392V97.384H40.0672V95.626ZM43.0012 95.986H40.4992V97.018H43.0012V95.986ZM39.2752 92.638H42.4672V93.004H39.2752V92.638ZM40.8712 93.292C41.6392 93.292 42.1552 93.67 42.1552 94.252C42.1552 94.84 41.6392 95.212 40.8712 95.212C40.0972 95.212 39.5812 94.84 39.5812 94.252C39.5812 93.67 40.0972 93.292 40.8712 93.292ZM40.8712 93.634C40.3492 93.634 40.0012 93.88 40.0012 94.252C40.0012 94.63 40.3492 94.87 40.8712 94.87C41.3812 94.87 41.7292 94.63 41.7292 94.252C41.7292 93.88 41.3812 93.634 40.8712 93.634ZM40.6492 92.008H41.0932V92.824H40.6492V92.008ZM45.7247 92.71H46.1027C46.1027 93.826 45.9467 95.11 45.1547 96.16L44.8007 95.944C45.5627 94.996 45.7247 93.832 45.7247 92.74V92.71ZM44.9027 92.71H45.9407V93.076H44.9027V92.71ZM46.9127 92.71H47.2907C47.2907 93.796 47.2307 95.344 46.3547 96.52L46.0007 96.31C46.8467 95.236 46.9127 93.778 46.9127 92.74V92.71ZM46.2827 92.71H47.1407V93.076H46.2827V92.71ZM48.9467 92.056H49.3727V97.456H48.9467V92.056ZM47.0447 94.192H48.0527V94.558H47.0447V94.192ZM47.9567 92.2H48.3767V97.174H47.9567V92.2ZM51.6322 96.382H56.5342V96.754H51.6322V96.382ZM53.8522 94.948H54.2902V96.49H53.8522V94.948ZM52.2142 92.512H55.9222V95.038H52.2142V92.512ZM55.4902 92.872H52.6462V94.678H55.4902V92.872ZM59.5877 93.274H61.2557V93.646H59.5877V93.274ZM59.5877 94.99H61.2557V95.362H59.5877V94.99ZM58.5857 92.476C59.3717 92.476 59.9237 93.208 59.9237 94.354C59.9237 95.494 59.3717 96.232 58.5857 96.232C57.8057 96.232 57.2537 95.494 57.2537 94.354C57.2537 93.208 57.8057 92.476 58.5857 92.476ZM58.5857 92.872C58.0457 92.872 57.6737 93.466 57.6737 94.354C57.6737 95.242 58.0457 95.836 58.5857 95.836C59.1257 95.836 59.5037 95.242 59.5037 94.354C59.5037 93.466 59.1257 92.872 58.5857 92.872ZM61.1417 92.05H61.5857V97.462H61.1417V92.05ZM64.5172 92.614H68.0032V92.98H64.5172V92.614ZM64.0072 96.31H68.8912V96.682H64.0072V96.31ZM65.2372 94.51H65.6752V96.454H65.2372V94.51ZM67.8592 92.614H68.2912V93.214C68.2912 93.916 68.2912 94.606 68.1052 95.602L67.6672 95.548C67.8592 94.6 67.8592 93.898 67.8592 93.214V92.614ZM66.5692 94.51H67.0072V96.454H66.5692V94.51ZM69.7727 92.656H72.2387V93.022H69.7727V92.656ZM70.6427 94.198H71.0807V96.028H70.6427V94.198ZM72.0527 92.656H72.4907V92.92C72.4907 93.34 72.4907 94.06 72.3287 95.08L71.8907 95.038C72.0527 94.042 72.0527 93.34 72.0527 92.92V92.656ZM73.2047 92.056H73.6487V97.456H73.2047V92.056ZM73.5287 94.33H74.5367V94.708H73.5287V94.33ZM69.5267 96.262L69.4727 95.884C70.4507 95.878 71.7647 95.866 72.8627 95.728L72.8867 96.058C71.7587 96.232 70.4867 96.256 69.5267 96.262ZM75.2922 92.656H77.7582V93.022H75.2922V92.656ZM76.1622 94.198H76.6002V96.028H76.1622V94.198ZM77.5722 92.656H78.0102V92.92C78.0102 93.34 78.0102 94.06 77.8482 95.08L77.4102 95.038C77.5722 94.042 77.5722 93.34 77.5722 92.92V92.656ZM78.7242 92.056H79.1682V97.456H78.7242V92.056ZM79.0482 94.33H80.0562V94.708H79.0482V94.33ZM75.0462 96.262L74.9922 95.884C75.9702 95.878 77.2842 95.866 78.3822 95.728L78.4062 96.058C77.2782 96.232 76.0062 96.256 75.0462 96.262ZM83.4458 93.472H84.6938V93.844H83.4458V93.472ZM84.5498 92.056H84.9938V95.278H84.5498V92.056ZM83.2298 95.452C84.3398 95.452 85.0178 95.818 85.0178 96.454C85.0178 97.084 84.3398 97.45 83.2298 97.45C82.1198 97.45 81.4358 97.084 81.4358 96.454C81.4358 95.818 82.1198 95.452 83.2298 95.452ZM83.2298 95.8C82.3958 95.8 81.8738 96.046 81.8738 96.454C81.8738 96.856 82.3958 97.102 83.2298 97.102C84.0638 97.102 84.5798 96.856 84.5798 96.454C84.5798 96.046 84.0638 95.8 83.2298 95.8ZM81.9638 92.602H82.3298V93.058C82.3298 94.042 81.6998 94.882 80.8238 95.218L80.5958 94.864C81.3818 94.57 81.9638 93.844 81.9638 93.058V92.602ZM82.0478 92.602H82.4138V93.052C82.4138 93.76 82.9658 94.438 83.7398 94.708L83.5118 95.062C82.6478 94.744 82.0478 93.952 82.0478 93.052V92.602ZM80.7398 92.464H83.6198V92.83H80.7398V92.464ZM88.2813 94.174H89.3253V94.546H88.2813V94.174ZM90.2373 92.056H90.6693V97.456H90.2373V92.056ZM89.1753 92.176H89.5953V97.18H89.1753V92.176ZM87.3033 92.518C87.9993 92.518 88.4493 93.238 88.4493 94.384C88.4493 95.53 87.9993 96.25 87.3033 96.25C86.6073 96.25 86.1573 95.53 86.1573 94.384C86.1573 93.238 86.6073 92.518 87.3033 92.518ZM87.3033 92.932C86.8533 92.932 86.5653 93.502 86.5653 94.384C86.5653 95.266 86.8533 95.842 87.3033 95.842C87.7533 95.842 88.0413 95.266 88.0413 94.384C88.0413 93.502 87.7533 92.932 87.3033 92.932ZM96.9188 92.056H97.3628V94.858H96.9188V92.056ZM93.8648 95.134H97.3628V96.4H94.3208V97.24H93.8828V96.07H96.9188V95.488H93.8648V95.134ZM93.8828 97.036H97.5728V97.396H93.8828V97.036ZM93.1868 92.428H96.0788V92.782H93.1868V92.428ZM93.0848 94.66L93.0308 94.288C94.0028 94.282 95.2988 94.258 96.3488 94.132L96.3728 94.456C95.2988 94.618 94.0388 94.66 93.0848 94.66ZM93.7328 92.59H94.1648V94.444H93.7328V92.59ZM95.0948 92.59H95.5328V94.444H95.0948V92.59ZM99.6843 94.84H100.122V96.478H99.6843V94.84ZM101.682 94.84H102.126V96.478H101.682V94.84ZM98.4603 96.382H103.362V96.754H98.4603V96.382ZM100.896 92.41C102.042 92.41 102.852 92.95 102.852 93.79C102.852 94.624 102.042 95.164 100.896 95.164C99.7623 95.164 98.9463 94.624 98.9463 93.79C98.9463 92.95 99.7623 92.41 100.896 92.41ZM100.896 92.764C100.014 92.764 99.3723 93.172 99.3723 93.79C99.3723 94.402 100.014 94.81 100.896 94.81C101.784 94.81 102.426 94.402 102.426 93.79C102.426 93.172 101.784 92.764 100.896 92.764ZM107.718 92.062H108.162V96.112H107.718V92.062ZM108.018 93.856H108.972V94.228H108.018V93.856ZM103.998 92.734H107.19V93.094H103.998V92.734ZM105.594 93.412C106.356 93.412 106.878 93.802 106.878 94.414C106.878 95.014 106.356 95.41 105.594 95.41C104.826 95.41 104.304 95.014 104.304 94.414C104.304 93.802 104.826 93.412 105.594 93.412ZM105.594 93.76C105.078 93.76 104.724 94.018 104.724 94.414C104.724 94.798 105.078 95.056 105.594 95.056C106.104 95.056 106.452 94.798 106.452 94.414C106.452 94.018 106.104 93.76 105.594 93.76ZM105.372 92.062H105.816V92.92H105.372V92.062ZM104.82 96.964H108.414V97.336H104.82V96.964ZM104.82 95.788H105.264V97.12H104.82V95.788ZM110.805 92.698H113.565V93.058H110.805V92.698ZM112.191 93.358C112.869 93.358 113.337 93.73 113.337 94.3C113.337 94.876 112.869 95.254 112.191 95.254C111.513 95.254 111.045 94.876 111.045 94.3C111.045 93.73 111.513 93.358 112.191 93.358ZM112.191 93.694C111.747 93.694 111.441 93.94 111.441 94.3C111.441 94.666 111.747 94.912 112.191 94.912C112.635 94.912 112.941 94.666 112.941 94.3C112.941 93.94 112.635 93.694 112.191 93.694ZM111.975 92.08H112.407V92.968H111.975V92.08ZM114.951 92.062H115.377V95.416H114.951V92.062ZM114.033 93.586H115.083V93.952H114.033V93.586ZM113.805 92.152H114.225V95.374H113.805V92.152ZM111.771 95.746H115.377V97.456H114.939V96.112H111.771V95.746ZM120.327 92.062H120.771V95.128H120.327V92.062ZM117.303 95.452H120.771V97.384H117.303V95.452ZM120.339 95.812H117.735V97.018H120.339V95.812ZM117.789 92.272H118.155V92.794C118.155 93.802 117.519 94.648 116.631 94.99L116.409 94.636C117.207 94.342 117.789 93.604 117.789 92.794V92.272ZM117.867 92.272H118.233V92.794C118.233 93.574 118.827 94.264 119.613 94.534L119.391 94.882C118.509 94.57 117.867 93.772 117.867 92.794V92.272ZM123.456 92.656H125.922V93.022H123.456V92.656ZM124.326 94.198H124.764V96.028H124.326V94.198ZM125.736 92.656H126.174V92.92C126.174 93.34 126.174 94.06 126.012 95.08L125.574 95.038C125.736 94.042 125.736 93.34 125.736 92.92V92.656ZM126.888 92.056H127.332V97.456H126.888V92.056ZM127.212 94.33H128.22V94.708H127.212V94.33ZM123.21 96.262L123.156 95.884C124.134 95.878 125.448 95.866 126.546 95.728L126.57 96.058C125.442 96.232 124.17 96.256 123.21 96.262ZM129.36 92.284H132.984V94.102H129.36V92.284ZM132.546 92.638H129.798V93.742H132.546V92.638ZM128.73 94.81H133.608V95.176H128.73V94.81ZM130.95 94.006H131.394V94.96H130.95V94.006ZM129.27 95.758H133.002V97.456H132.558V96.124H129.27V95.758ZM136.685 92.152C137.873 92.152 138.581 92.482 138.581 93.088C138.581 93.694 137.873 94.03 136.685 94.03C135.503 94.03 134.795 93.694 134.795 93.088C134.795 92.482 135.503 92.152 136.685 92.152ZM136.685 92.488C135.791 92.488 135.257 92.71 135.257 93.088C135.257 93.466 135.791 93.688 136.685 93.688C137.585 93.688 138.119 93.466 138.119 93.088C138.119 92.71 137.585 92.488 136.685 92.488ZM134.249 94.408H139.127V94.768H134.249V94.408ZM134.843 95.26H138.497V96.448H135.293V97.132H134.861V96.118H138.059V95.602H134.843V95.26ZM134.861 97.042H138.665V97.396H134.861V97.042ZM2.03465 101.518H2.40065V101.95C2.40065 102.898 1.75865 103.678 0.870648 103.99L0.648648 103.636C1.44065 103.378 2.03465 102.706 2.03465 101.95V101.518ZM2.11865 101.518H2.48465V101.95C2.48465 102.664 3.08465 103.3 3.87065 103.546L3.64865 103.894C2.77265 103.606 2.11865 102.862 2.11865 101.95V101.518ZM0.774648 101.422H3.73265V101.782H0.774648V101.422ZM4.54265 101.056H4.98665V103.978H4.54265V101.056ZM1.53065 104.248H1.96865V104.92H4.54865V104.248H4.98665V106.384H1.53065V104.248ZM1.96865 105.28V106.018H4.54865V105.28H1.96865ZM8.31018 103.75H8.74818V104.698H8.31018V103.75ZM6.09018 103.594H10.9682V103.96H6.09018V103.594ZM8.52618 104.554C9.68418 104.554 10.3742 104.896 10.3742 105.502C10.3742 106.102 9.68418 106.444 8.52618 106.444C7.37418 106.444 6.68418 106.102 6.68418 105.502C6.68418 104.896 7.37418 104.554 8.52618 104.554ZM8.52618 104.908C7.66218 104.908 7.12818 105.124 7.12818 105.502C7.12818 105.88 7.66218 106.096 8.52618 106.096C9.39618 106.096 9.92418 105.88 9.92418 105.502C9.92418 105.124 9.39618 104.908 8.52618 104.908ZM8.25018 101.488H8.64618V101.656C8.64618 102.532 7.60818 103.108 6.54018 103.246L6.37818 102.892C7.30218 102.79 8.25018 102.304 8.25018 101.656V101.488ZM8.42418 101.488H8.81418V101.656C8.81418 102.298 9.76218 102.79 10.6862 102.892L10.5242 103.246C9.45618 103.108 8.42418 102.532 8.42418 101.656V101.488ZM6.54018 101.308H10.5302V101.668H6.54018V101.308ZM13.0077 101.608H13.3737V102.064C13.3737 103.042 12.7437 103.864 11.8677 104.2L11.6337 103.846C12.4197 103.558 13.0077 102.838 13.0077 102.064V101.608ZM13.0917 101.608H13.4577V102.058C13.4577 102.766 14.0097 103.444 14.7837 103.714L14.5557 104.068C13.6917 103.75 13.0917 102.958 13.0917 102.058V101.608ZM14.4897 102.484H15.7257V102.856H14.4897V102.484ZM11.7837 101.44H14.6637V101.806H11.7837V101.44ZM12.4497 104.59H16.0377V106.456H15.5937V104.956H12.4497V104.59ZM15.5937 101.056H16.0377V104.29H15.5937V101.056ZM19.5652 101.41C20.6872 101.41 21.5212 101.998 21.5212 102.886C21.5212 103.78 20.6872 104.368 19.5652 104.368C18.4492 104.368 17.6152 103.78 17.6152 102.886C17.6152 101.998 18.4492 101.41 19.5652 101.41ZM19.5652 101.776C18.6952 101.776 18.0412 102.226 18.0412 102.886C18.0412 103.552 18.6952 104.002 19.5652 104.002C20.4472 104.002 21.0952 103.552 21.0952 102.886C21.0952 102.226 20.4472 101.776 19.5652 101.776ZM17.1292 105.358H22.0312V105.73H17.1292V105.358ZM22.6488 105.406H27.5508V105.778H22.6488V105.406ZM24.8688 104.224H25.3068V105.562H24.8688V104.224ZM23.2548 101.464H26.9328V103.072H23.7048V104.182H23.2668V102.712H26.4948V101.83H23.2548V101.464ZM23.2668 103.996H27.0588V104.356H23.2668V103.996ZM29.8042 101.476H32.2102V101.848H29.8042V101.476ZM30.6442 102.676H31.0822V104.026H30.6442V102.676ZM32.0362 101.476H32.4682V101.758C32.4682 102.1 32.4682 102.64 32.3242 103.36L31.8862 103.312C32.0362 102.592 32.0362 102.1 32.0362 101.758V101.476ZM33.2422 101.056H33.6862V105.124H33.2422V101.056ZM33.4762 102.832H34.4842V103.204H33.4762V102.832ZM30.3082 105.964H33.8662V106.336H30.3082V105.964ZM30.3082 104.752H30.7522V106.078H30.3082V104.752ZM29.5282 104.242L29.4742 103.87C30.4402 103.87 31.7662 103.852 32.8702 103.696L32.9002 104.026C31.7782 104.218 30.4822 104.242 29.5282 104.242ZM39.0018 101.05H39.4398V106.462H39.0018V101.05ZM35.3418 104.776H35.7858C36.6798 104.776 37.4898 104.74 38.4678 104.584L38.5158 104.95C37.5198 105.112 36.7038 105.148 35.7858 105.148H35.3418V104.776ZM35.3298 101.566H37.8138V103.468H35.7858V104.92H35.3418V103.102H37.3698V101.932H35.3298V101.566ZM45.6172 101.056H46.0612V104.218H45.6172V101.056ZM45.9412 102.364H46.8712V102.742H45.9412V102.364ZM42.1132 101.35H42.5512V102.202H44.1652V101.35H44.5972V103.864H42.1132V101.35ZM42.5512 102.562V103.504H44.1652V102.562H42.5512ZM42.7072 104.524H46.1092V104.884H43.1512V106.276H42.7072V104.524ZM42.7072 106.018H46.2112V106.384H42.7072V106.018ZM48.0228 104.296H48.4668V104.95H51.1968V104.296H51.6348V106.384H48.0228V104.296ZM48.4668 105.298V106.024H51.1968V105.298H48.4668ZM47.3988 103.534H52.2768V103.9H47.3988V103.534ZM49.6128 101.116H49.9968V101.368C49.9968 102.304 48.9048 102.964 47.8488 103.126L47.6808 102.778C48.6108 102.646 49.6128 102.076 49.6128 101.368V101.116ZM49.6848 101.116H50.0628V101.368C50.0628 102.058 51.0828 102.652 51.9948 102.778L51.8268 103.126C50.7828 102.964 49.6848 102.292 49.6848 101.368V101.116ZM56.8843 101.056H57.3223V106.456H56.8843V101.056ZM53.2723 101.584H53.7103V104.932H53.2723V101.584ZM53.2723 104.668H53.7103C54.5383 104.668 55.3843 104.602 56.3023 104.41L56.3563 104.794C55.4143 104.986 54.5683 105.052 53.7103 105.052H53.2723V104.668ZM62.1278 101.05H62.5778V106.462H62.1278V101.05ZM62.4698 103.21H63.4778V103.582H62.4698V103.21ZM58.6718 104.728H59.0918C60.1058 104.728 60.8018 104.692 61.6058 104.542L61.6598 104.92C60.8258 105.076 60.1238 105.106 59.0918 105.106H58.6718V104.728ZM58.6718 101.584H61.1798V101.95H59.1158V104.896H58.6718V101.584ZM64.4554 106.084C64.2574 106.084 64.0894 105.922 64.0894 105.694C64.0894 105.454 64.2574 105.298 64.4554 105.298C64.6594 105.298 64.8274 105.454 64.8274 105.694C64.8274 105.922 64.6594 106.084 64.4554 106.084ZM68.4307 102.562H69.8107V102.928H68.4307V102.562ZM69.5527 101.062H69.9967V105.022H69.5527V101.062ZM66.5707 105.964H70.1527V106.336H66.5707V105.964ZM66.5707 104.668H67.0147V106.144H66.5707V104.668ZM66.9667 101.722H67.3327V102.178C67.3327 103.156 66.7027 103.984 65.8267 104.32L65.5927 103.96C66.3787 103.678 66.9667 102.958 66.9667 102.178V101.722ZM67.0507 101.722H67.4167V102.172C67.4167 102.88 67.9687 103.564 68.7427 103.84L68.5147 104.188C67.6507 103.87 67.0507 103.078 67.0507 102.172V101.722ZM65.7427 101.512H68.6227V101.878H65.7427V101.512ZM71.0822 103.834H75.9842V104.2H71.0822V103.834ZM73.3442 104.062H73.7822V105.322H73.3442V104.062ZM71.7182 101.314H75.3422V103.192H71.7182V101.314ZM74.9042 101.668H72.1562V102.832H74.9042V101.668ZM71.7122 105.964H75.4382V106.336H71.7122V105.964ZM71.7122 104.788H72.1562V106.096H71.7122V104.788ZM80.7157 102.346H82.0957V102.724H80.7157V102.346ZM79.3237 101.38H79.6837V102.058C79.6837 103.096 79.0657 103.96 78.1897 104.32L77.9557 103.96C78.7477 103.66 79.3237 102.898 79.3237 102.058V101.38ZM79.4017 101.38H79.7617V102.082C79.7617 102.844 80.3197 103.558 81.0877 103.846L80.8477 104.188C80.0077 103.852 79.4017 103.036 79.4017 102.082V101.38ZM81.9277 101.062H82.3717V105.106H81.9277V101.062ZM78.9217 105.964H82.5037V106.336H78.9217V105.964ZM78.9217 104.65H79.3657V106.126H78.9217V104.65ZM84.6212 101.392H84.9812V102.136C84.9812 102.916 84.4952 103.756 83.7212 104.104L83.4752 103.756C84.1772 103.444 84.6212 102.742 84.6212 102.136V101.392ZM84.6932 101.392H85.0472V102.136C85.0472 102.736 85.4792 103.348 86.1632 103.612L85.9232 103.954C85.1552 103.648 84.6932 102.91 84.6932 102.136V101.392ZM87.5792 101.062H88.0052V104.398H87.5792V101.062ZM86.6792 102.526H87.7292V102.892H86.6792V102.526ZM86.4212 101.164H86.8412V104.224H86.4212V101.164ZM86.2412 104.524C87.3512 104.524 88.0352 104.878 88.0352 105.484C88.0352 106.096 87.3512 106.444 86.2412 106.444C85.1312 106.444 84.4472 106.096 84.4472 105.484C84.4472 104.878 85.1312 104.524 86.2412 104.524ZM86.2412 104.872C85.4072 104.872 84.8852 105.1 84.8852 105.484C84.8852 105.868 85.4072 106.102 86.2412 106.102C87.0752 106.102 87.5912 105.868 87.5912 105.484C87.5912 105.1 87.0752 104.872 86.2412 104.872ZM92.9548 101.056H93.3988V104.116H92.9548V101.056ZM89.3248 101.368H89.7688V103.558H89.3248V101.368ZM89.3248 103.312H89.7568C90.6568 103.312 91.4668 103.252 92.3368 103.066L92.4028 103.432C91.4968 103.624 90.6808 103.684 89.7568 103.684H89.3248V103.312ZM89.9248 104.386H93.3988V106.378H89.9248V104.386ZM92.9608 104.746H90.3628V106.018H92.9608V104.746ZM96.2603 101.452C97.1003 101.452 97.6943 101.968 97.6943 102.712C97.6943 103.462 97.1003 103.978 96.2603 103.978C95.4143 103.978 94.8143 103.462 94.8143 102.712C94.8143 101.968 95.4143 101.452 96.2603 101.452ZM96.2603 101.842C95.6723 101.842 95.2463 102.196 95.2463 102.712C95.2463 103.228 95.6723 103.594 96.2603 103.594C96.8363 103.594 97.2623 103.228 97.2623 102.712C97.2623 102.196 96.8363 101.842 96.2603 101.842ZM98.4383 101.05H98.8823V106.462H98.4383V101.05ZM94.5983 105.262L94.5323 104.884C95.5223 104.884 96.8963 104.884 98.0783 104.698L98.1143 105.028C96.8963 105.256 95.5703 105.262 94.5983 105.262ZM101.376 101.644H104.568V102.004H101.376V101.644ZM102.972 102.304C103.74 102.304 104.256 102.682 104.256 103.276C104.256 103.87 103.74 104.242 102.972 104.242C102.198 104.242 101.682 103.87 101.682 103.276C101.682 102.682 102.198 102.304 102.972 102.304ZM102.972 102.652C102.45 102.652 102.102 102.898 102.102 103.276C102.102 103.648 102.45 103.894 102.972 103.894C103.482 103.894 103.83 103.648 103.83 103.276C103.83 102.898 103.482 102.652 102.972 102.652ZM105.096 101.056H105.54V104.428H105.096V101.056ZM105.42 102.562H106.35V102.934H105.42V102.562ZM102.048 104.734H105.54V106.456H105.096V105.1H102.048V104.734ZM102.75 101.026H103.194V101.842H102.75V101.026ZM107.501 104.296H107.945V104.95H110.675V104.296H111.113V106.384H107.501V104.296ZM107.945 105.298V106.024H110.675V105.298H107.945ZM106.877 103.534H111.755V103.9H106.877V103.534ZM109.091 101.116H109.475V101.368C109.475 102.304 108.383 102.964 107.327 103.126L107.159 102.778C108.089 102.646 109.091 102.076 109.091 101.368V101.116ZM109.163 101.116H109.541V101.368C109.541 102.058 110.561 102.652 111.473 102.778L111.305 103.126C110.261 102.964 109.163 102.292 109.163 101.368V101.116ZM114.033 101.476H116.439V101.848H114.033V101.476ZM114.873 102.676H115.311V104.026H114.873V102.676ZM116.265 101.476H116.697V101.758C116.697 102.1 116.697 102.64 116.553 103.36L116.115 103.312C116.265 102.592 116.265 102.1 116.265 101.758V101.476ZM117.471 101.056H117.915V105.124H117.471V101.056ZM117.705 102.832H118.713V103.204H117.705V102.832ZM114.537 105.964H118.095V106.336H114.537V105.964ZM114.537 104.752H114.981V106.078H114.537V104.752ZM113.757 104.242L113.703 103.87C114.669 103.87 115.995 103.852 117.099 103.696L117.129 104.026C116.007 104.218 114.711 104.242 113.757 104.242ZM123.23 101.05H123.668V106.462H123.23V101.05ZM119.57 104.776H120.014C120.908 104.776 121.718 104.74 122.696 104.584L122.744 104.95C121.748 105.112 120.932 105.148 120.014 105.148H119.57V104.776ZM119.558 101.566H122.042V103.468H120.014V104.92H119.57V103.102H121.598V101.932H119.558V101.566ZM124.772 105.406H129.674V105.778H124.772V105.406ZM126.992 104.224H127.43V105.562H126.992V104.224ZM125.378 101.464H129.056V103.072H125.828V104.182H125.39V102.712H128.618V101.83H125.378V101.464ZM125.39 103.996H129.182V104.356H125.39V103.996ZM132.983 101.812H133.343V102.736C133.343 103.846 132.617 104.992 131.807 105.412L131.543 105.058C132.299 104.686 132.983 103.66 132.983 102.736V101.812ZM133.061 101.812H133.415V102.736C133.415 103.606 134.063 104.56 134.825 104.926L134.567 105.28C133.739 104.866 133.061 103.792 133.061 102.736V101.812ZM131.735 101.614H134.639V101.986H131.735V101.614ZM135.317 101.056H135.767V106.456H135.317V101.056ZM135.659 103.258H136.667V103.636H135.659V103.258ZM141.125 101.056H141.563V106.456H141.125V101.056ZM139.541 101.638H139.979C139.979 103.186 139.247 104.56 137.465 105.43L137.225 105.076C138.791 104.32 139.541 103.144 139.541 101.71V101.638ZM137.465 101.638H139.727V102.004H137.465V101.638ZM144.862 101.578H145.246V101.818C145.246 102.784 144.172 103.486 143.14 103.666L142.966 103.312C143.872 103.174 144.862 102.556 144.862 101.818V101.578ZM144.97 101.578H145.354V101.818C145.354 102.556 146.344 103.174 147.25 103.312L147.082 103.666C146.038 103.486 144.97 102.784 144.97 101.818V101.578ZM144.88 104.38H145.318V106.45H144.88V104.38ZM142.666 104.146H147.55V104.518H142.666V104.146ZM143.128 101.398H147.076V101.764H143.128V101.398ZM148.816 103.6H152.512V103.966H148.816V103.6ZM148.186 105.394H153.088V105.766H148.186V105.394ZM150.406 103.756H150.844V105.55H150.406V103.756ZM148.816 101.494H152.452V101.866H149.26V103.762H148.816V101.494ZM41.8972 110.644H45.0892V111.004H41.8972V110.644ZM43.4932 111.304C44.2612 111.304 44.7772 111.682 44.7772 112.276C44.7772 112.87 44.2612 113.242 43.4932 113.242C42.7192 113.242 42.2032 112.87 42.2032 112.276C42.2032 111.682 42.7192 111.304 43.4932 111.304ZM43.4932 111.652C42.9712 111.652 42.6232 111.898 42.6232 112.276C42.6232 112.648 42.9712 112.894 43.4932 112.894C44.0032 112.894 44.3512 112.648 44.3512 112.276C44.3512 111.898 44.0032 111.652 43.4932 111.652ZM45.6172 110.056H46.0612V113.428H45.6172V110.056ZM45.9412 111.562H46.8712V111.934H45.9412V111.562ZM42.5692 113.734H46.0612V115.456H45.6172V114.1H42.5692V113.734ZM43.2712 110.026H43.7152V110.842H43.2712V110.026ZM48.0228 113.296H48.4668V113.95H51.1968V113.296H51.6348V115.384H48.0228V113.296ZM48.4668 114.298V115.024H51.1968V114.298H48.4668ZM47.3988 112.534H52.2768V112.9H47.3988V112.534ZM49.6128 110.116H49.9968V110.368C49.9968 111.304 48.9048 111.964 47.8488 112.126L47.6808 111.778C48.6108 111.646 49.6128 111.076 49.6128 110.368V110.116ZM49.6848 110.116H50.0628V110.368C50.0628 111.058 51.0828 111.652 51.9948 111.778L51.8268 112.126C50.7828 111.964 49.6848 111.292 49.6848 110.368V110.116ZM55.3543 110.152C56.5423 110.152 57.2503 110.482 57.2503 111.088C57.2503 111.694 56.5423 112.03 55.3543 112.03C54.1723 112.03 53.4643 111.694 53.4643 111.088C53.4643 110.482 54.1723 110.152 55.3543 110.152ZM55.3543 110.488C54.4603 110.488 53.9263 110.71 53.9263 111.088C53.9263 111.466 54.4603 111.688 55.3543 111.688C56.2543 111.688 56.7883 111.466 56.7883 111.088C56.7883 110.71 56.2543 110.488 55.3543 110.488ZM52.9183 112.408H57.7963V112.768H52.9183V112.408ZM53.5123 113.26H57.1663V114.448H53.9623V115.132H53.5303V114.118H56.7283V113.602H53.5123V113.26ZM53.5303 115.042H57.3343V115.396H53.5303V115.042ZM61.1538 110.362H61.5258V110.932C61.5258 111.97 60.9078 112.804 60.0138 113.152L59.7798 112.786C60.5898 112.498 61.1538 111.778 61.1538 110.932V110.362ZM61.2318 110.362H61.5918V110.914C61.5918 111.694 62.1558 112.372 62.9298 112.642L62.6898 112.99C61.8378 112.666 61.2318 111.886 61.2318 110.914V110.362ZM63.7578 110.056H64.2018V113.26H63.7578V110.056ZM62.4378 113.416C63.5478 113.416 64.2258 113.794 64.2258 114.436C64.2258 115.078 63.5478 115.444 62.4378 115.444C61.3278 115.444 60.6438 115.078 60.6438 114.436C60.6438 113.794 61.3278 113.416 62.4378 113.416ZM62.4378 113.776C61.6038 113.776 61.0818 114.022 61.0818 114.436C61.0818 114.844 61.6038 115.09 62.4378 115.09C63.2718 115.09 63.7878 114.844 63.7878 114.436C63.7878 114.022 63.2718 113.776 62.4378 113.776ZM62.5518 111.226H63.8658V111.598H62.5518V111.226ZM66.6493 110.632H67.0153V111.082C67.0153 112.072 66.3973 112.882 65.5093 113.206L65.2813 112.852C66.0793 112.57 66.6493 111.874 66.6493 111.082V110.632ZM66.7273 110.632H67.0933V111.082C67.0933 111.796 67.6333 112.432 68.4133 112.696L68.1973 113.044C67.3213 112.744 66.7273 111.988 66.7273 111.082V110.632ZM65.4193 110.458H68.3053V110.83H65.4193V110.458ZM69.0313 110.056H69.4753V113.32H69.0313V110.056ZM69.3553 111.448H70.2853V111.82H69.3553V111.448ZM67.7593 113.476C68.8573 113.476 69.5293 113.836 69.5293 114.454C69.5293 115.084 68.8573 115.444 67.7593 115.444C66.6673 115.444 65.9953 115.084 65.9953 114.454C65.9953 113.836 66.6673 113.476 67.7593 113.476ZM67.7593 113.83C66.9433 113.83 66.4333 114.064 66.4333 114.454C66.4333 114.856 66.9433 115.09 67.7593 115.09C68.5813 115.09 69.0913 114.856 69.0913 114.454C69.0913 114.064 68.5813 113.83 67.7593 113.83ZM72.2588 110.53H72.6248V111.532C72.6248 112.744 71.9228 113.884 71.0648 114.322L70.7888 113.956C71.5688 113.584 72.2588 112.552 72.2588 111.532V110.53ZM72.3308 110.53H72.6968V111.532C72.6968 112.516 73.3808 113.512 74.1548 113.872L73.8848 114.226C73.0448 113.8 72.3308 112.708 72.3308 111.532V110.53ZM74.7788 110.05H75.2228V115.462H74.7788V110.05ZM80.3044 110.056H80.7484V112.882H80.3044V110.056ZM77.2744 113.164H80.7484V114.406H77.7184V115.174H77.2864V114.07H80.3104V113.518H77.2744V113.164ZM77.2864 115.042H80.9344V115.396H77.2864V115.042ZM78.7024 110.296H79.1704C79.1704 111.634 78.3124 112.582 76.6624 113.014L76.5004 112.66C77.9944 112.276 78.7024 111.49 78.7024 110.494V110.296ZM76.7284 110.296H78.9124V110.656H76.7284V110.296ZM78.6304 111.22V111.532L76.5364 111.694L76.4584 111.322L78.6304 111.22ZM85.4018 110.248H85.7918V110.566C85.7918 111.592 84.6938 112.312 83.6318 112.492L83.4518 112.138C84.3878 111.994 85.4018 111.352 85.4018 110.566V110.248ZM85.4798 110.248H85.8638V110.566C85.8638 111.34 86.8898 111.994 87.8138 112.138L87.6338 112.492C86.5778 112.312 85.4798 111.574 85.4798 110.566V110.248ZM85.4018 113.386H85.8398V115.456H85.4018V113.386ZM83.1878 113.116H88.0718V113.488H83.1878V113.116ZM91.4173 113.386H91.7653V113.698C91.7653 114.388 91.3033 115.09 90.5413 115.384L90.3133 115.054C90.9913 114.802 91.4173 114.214 91.4173 113.698V113.386ZM91.5073 113.386H91.8433V113.698C91.8433 114.244 92.1733 114.832 92.8213 115.09L92.6293 115.432C91.8673 115.132 91.5073 114.4 91.5073 113.698V113.386ZM93.4153 113.386H93.7513V113.698C93.7513 114.316 93.3853 115.108 92.6293 115.432L92.4433 115.09C93.0793 114.796 93.4153 114.166 93.4153 113.698V113.386ZM93.4993 113.386H93.8473V113.698C93.8473 114.256 94.2673 114.82 94.9513 115.054L94.7233 115.384C93.9493 115.102 93.4993 114.424 93.4993 113.698V113.386ZM94.0153 110.062H94.4593V113.152H94.0153V110.062ZM91.5733 110.374C92.3833 110.374 92.9713 110.884 92.9713 111.634C92.9713 112.378 92.3833 112.882 91.5733 112.882C90.7573 112.882 90.1693 112.378 90.1693 111.634C90.1693 110.884 90.7573 110.374 91.5733 110.374ZM91.5733 110.752C91.0153 110.752 90.6073 111.118 90.6073 111.634C90.6073 112.15 91.0153 112.516 91.5733 112.516C92.1313 112.516 92.5393 112.15 92.5393 111.634C92.5393 111.118 92.1313 110.752 91.5733 110.752ZM96.1868 113.296H96.6308V113.95H99.3608V113.296H99.7988V115.384H96.1868V113.296ZM96.6308 114.298V115.024H99.3608V114.298H96.6308ZM95.5628 112.534H100.441V112.9H95.5628V112.534ZM97.7768 110.116H98.1608V110.368C98.1608 111.304 97.0688 111.964 96.0128 112.126L95.8448 111.778C96.7748 111.646 97.7768 111.076 97.7768 110.368V110.116ZM97.8488 110.116H98.2268V110.368C98.2268 111.058 99.2468 111.652 100.159 111.778L99.9908 112.126C98.9468 111.964 97.8488 111.292 97.8488 110.368V110.116ZM105.048 110.056H105.486V115.456H105.048V110.056ZM101.436 110.584H101.874V113.932H101.436V110.584ZM101.436 113.668H101.874C102.702 113.668 103.548 113.602 104.466 113.41L104.52 113.794C103.578 113.986 102.732 114.052 101.874 114.052H101.436V113.668ZM110.292 110.05H110.742V115.462H110.292V110.05ZM110.634 112.21H111.642V112.582H110.634V112.21ZM106.836 113.728H107.256C108.27 113.728 108.966 113.692 109.77 113.542L109.824 113.92C108.99 114.076 108.288 114.106 107.256 114.106H106.836V113.728ZM106.836 110.584H109.344V110.95H107.28V113.896H106.836V110.584ZM112.619 115.084C112.421 115.084 112.253 114.922 112.253 114.694C112.253 114.454 112.421 114.298 112.619 114.298C112.823 114.298 112.991 114.454 112.991 114.694C112.991 114.922 112.823 115.084 112.619 115.084Z" fill="#666666"/>
<rect x="15" width="124" height="66" fill="#F3F3F3"/>
</svg>
