<svg width="250" height="150" viewBox="0 0 368 129" fill="none" xmlns="http://www.w3.org/2000/svg">
<path d="M203.494 33.1472V15.5792H207.616V17.0012H205.456V31.7252H207.616V33.1472H203.494ZM211.052 15.5432H221.618V17.4152H211.052V15.5432ZM220.178 15.5432H222.536V17.0192C222.536 18.4772 222.536 20.0432 222.104 22.0052L219.746 21.7892C220.178 19.8632 220.178 18.4592 220.178 17.0192V15.5432ZM220.898 18.3512V19.9892L210.854 20.3852L210.584 18.5672L220.898 18.3512ZM209.234 21.3932H224.246V23.2652H209.234V21.3932ZM210.854 24.2372H222.626V28.6472H213.248V30.4472H210.872V26.9552H220.25V26.0372H210.854V24.2372ZM210.872 29.6372H223.184V31.4552H210.872V29.6372ZM226.207 25.9832H227.377C229.357 25.9832 231.103 25.9472 233.155 25.6232L233.335 27.5492C231.211 27.9092 229.411 27.9632 227.377 27.9632H226.207V25.9832ZM226.189 16.5872H232.507V23.0312H228.529V26.7032H226.207V21.1412H230.185V18.4952H226.189V16.5872ZM237.799 14.9672H240.067V31.6352H237.799V14.9672ZM235.567 21.2672H238.339V23.1752H235.567V21.2672ZM234.073 15.2552H236.287V30.8432H234.073V15.2552ZM248.508 15.9212H250.596V17.1272C250.596 20.7452 248.022 23.9492 243.702 24.7952L242.676 22.8152C246.438 22.1672 248.508 19.5212 248.508 17.1272V15.9212ZM248.994 15.9212H251.064V17.1272C251.064 19.5752 253.116 22.1672 256.896 22.8152L255.87 24.7952C251.55 23.9492 248.994 20.7992 248.994 17.1272V15.9212ZM242.334 27.6572H257.418V29.6012H242.334V27.6572ZM259 33.1472V31.7252H261.16V17.0012H259V15.5792H263.122V33.1472H259Z" fill="#231F20"/>
<rect width="188.58" height="129" fill="#F0F0F0"/>
<path d="M208.982 56.478H210.018V65.802H208.982V56.478ZM201.982 67.916H210.424V68.784H201.982V67.916ZM201.982 64.92H203.004V68.364H201.982V64.92ZM203.2 58.858H204.04V59.404C204.04 61.658 202.57 63.506 200.512 64.234L200.008 63.422C201.842 62.806 203.2 61.196 203.2 59.404V58.858ZM203.368 58.858H204.222V59.404C204.222 61.098 205.608 62.61 207.442 63.184L206.952 64.01C204.866 63.324 203.368 61.574 203.368 59.404V58.858ZM200.274 58.186H207.12V59.026H200.274V58.186ZM203.2 56.52H204.222V58.62H203.2V56.52ZM214.049 57.29H221.917V58.144H214.049V57.29ZM212.593 62.708H223.989V63.576H212.593V62.708ZM217.745 63.282H218.781V69.078H217.745V63.282ZM221.441 57.29H222.449V58.382C222.449 59.684 222.449 61.154 221.987 63.268L220.951 63.114C221.441 61.098 221.441 59.656 221.441 58.382V57.29ZM225.472 61.784H236.868V62.638H225.472V61.784ZM227.012 59.866H235.51V60.706H227.012V59.866ZM227.012 56.912H235.37V57.752H228.034V60.524H227.012V56.912ZM226.858 63.8H235.384V66.698H227.908V68.378H226.9V65.914H234.362V64.626H226.858V63.8ZM226.9 68.084H235.776V68.91H226.9V68.084ZM238.925 57.864H244.679V58.718H238.925V57.864ZM240.955 61.462H241.977V65.732H240.955V61.462ZM244.245 57.864H245.267V58.48C245.267 59.46 245.267 61.14 244.889 63.52L243.867 63.422C244.245 61.098 244.245 59.46 244.245 58.48V57.864ZM246.933 56.464H247.969V69.064H246.933V56.464ZM247.689 61.77H250.041V62.652H247.689V61.77ZM238.351 66.278L238.225 65.396C240.507 65.382 243.573 65.354 246.135 65.032L246.191 65.802C243.559 66.208 240.591 66.264 238.351 66.278ZM263.069 56.464H264.105V64.052H263.069V56.464ZM263.825 59.852H265.995V60.72H263.825V59.852ZM256.237 64.794H264.105V68.896H256.237V64.794ZM263.083 65.634H257.245V68.042H263.083V65.634ZM254.389 57.822H261.837V58.676H254.389V57.822ZM258.113 59.348C259.905 59.348 261.109 60.23 261.109 61.588C261.109 62.96 259.905 63.828 258.113 63.828C256.307 63.828 255.103 62.96 255.103 61.588C255.103 60.23 256.307 59.348 258.113 59.348ZM258.113 60.146C256.895 60.146 256.083 60.72 256.083 61.588C256.083 62.47 256.895 63.03 258.113 63.03C259.303 63.03 260.115 62.47 260.115 61.588C260.115 60.72 259.303 60.146 258.113 60.146ZM257.595 56.352H258.631V58.256H257.595V56.352ZM269.438 57.99H270.32C270.32 60.594 269.956 63.59 268.108 66.04L267.282 65.536C269.06 63.324 269.438 60.608 269.438 58.06V57.99ZM267.52 57.99H269.942V58.844H267.52V57.99ZM272.21 57.99H273.092C273.092 60.524 272.952 64.136 270.908 66.88L270.082 66.39C272.056 63.884 272.21 60.482 272.21 58.06V57.99ZM270.74 57.99H272.742V58.844H270.74V57.99ZM276.956 56.464H277.95V69.064H276.956V56.464ZM272.518 61.448H274.87V62.302H272.518V61.448ZM274.646 56.8H275.626V68.406H274.646V56.8ZM283.222 66.558H294.66V67.426H283.222V66.558ZM288.402 63.212H289.424V66.81H288.402V63.212ZM284.58 57.528H293.232V63.422H284.58V57.528ZM292.224 58.368H285.588V62.582H292.224V58.368ZM301.785 59.306H305.677V60.174H301.785V59.306ZM301.785 63.31H305.677V64.178H301.785V63.31ZM299.447 57.444C301.281 57.444 302.569 59.152 302.569 61.826C302.569 64.486 301.281 66.208 299.447 66.208C297.627 66.208 296.339 64.486 296.339 61.826C296.339 59.152 297.627 57.444 299.447 57.444ZM299.447 58.368C298.187 58.368 297.319 59.754 297.319 61.826C297.319 63.898 298.187 65.284 299.447 65.284C300.707 65.284 301.589 63.898 301.589 61.826C301.589 59.754 300.707 58.368 299.447 58.368ZM305.411 56.45H306.447V69.078H305.411V56.45ZM313.287 57.766H321.421V58.62H313.287V57.766ZM312.097 66.39H323.493V67.258H312.097V66.39ZM314.967 62.19H315.989V66.726H314.967V62.19ZM321.085 57.766H322.093V59.166C322.093 60.804 322.093 62.414 321.659 64.738L320.637 64.612C321.085 62.4 321.085 60.762 321.085 59.166V57.766ZM318.075 62.19H319.097V66.726H318.075V62.19ZM325.55 57.864H331.304V58.718H325.55V57.864ZM327.58 61.462H328.602V65.732H327.58V61.462ZM330.87 57.864H331.892V58.48C331.892 59.46 331.892 61.14 331.514 63.52L330.492 63.422C330.87 61.098 330.87 59.46 330.87 58.48V57.864ZM333.558 56.464H334.594V69.064H333.558V56.464ZM334.314 61.77H336.666V62.652H334.314V61.77ZM324.976 66.278L324.85 65.396C327.132 65.382 330.198 65.354 332.76 65.032L332.816 65.802C330.184 66.208 327.216 66.264 324.976 66.278ZM338.429 57.864H344.183V58.718H338.429V57.864ZM340.459 61.462H341.481V65.732H340.459V61.462ZM343.749 57.864H344.771V58.48C344.771 59.46 344.771 61.14 344.393 63.52L343.371 63.422C343.749 61.098 343.749 59.46 343.749 58.48V57.864ZM346.437 56.464H347.473V69.064H346.437V56.464ZM347.193 61.77H349.545V62.652H347.193V61.77ZM337.855 66.278L337.729 65.396C340.011 65.382 343.077 65.354 345.639 65.032L345.695 65.802C343.063 66.208 340.095 66.264 337.855 66.278ZM357.454 59.768H360.366V60.636H357.454V59.768ZM360.03 56.464H361.066V63.982H360.03V56.464ZM356.95 64.388C359.54 64.388 361.122 65.242 361.122 66.726C361.122 68.196 359.54 69.05 356.95 69.05C354.36 69.05 352.764 68.196 352.764 66.726C352.764 65.242 354.36 64.388 356.95 64.388ZM356.95 65.2C355.004 65.2 353.786 65.774 353.786 66.726C353.786 67.664 355.004 68.238 356.95 68.238C358.896 68.238 360.1 67.664 360.1 66.726C360.1 65.774 358.896 65.2 356.95 65.2ZM353.996 57.738H354.85V58.802C354.85 61.098 353.38 63.058 351.336 63.842L350.804 63.016C352.638 62.33 353.996 60.636 353.996 58.802V57.738ZM354.192 57.738H355.046V58.788C355.046 60.44 356.334 62.022 358.14 62.652L357.608 63.478C355.592 62.736 354.192 60.888 354.192 58.788V57.738ZM351.14 57.416H357.86V58.27H351.14V57.416ZM204.838 86.406H207.274V87.274H204.838V86.406ZM209.402 81.464H210.41V94.064H209.402V81.464ZM206.924 81.744H207.904V93.42H206.924V81.744ZM202.556 82.542C204.18 82.542 205.23 84.222 205.23 86.896C205.23 89.57 204.18 91.25 202.556 91.25C200.932 91.25 199.882 89.57 199.882 86.896C199.882 84.222 200.932 82.542 202.556 82.542ZM202.556 83.508C201.506 83.508 200.834 84.838 200.834 86.896C200.834 88.954 201.506 90.298 202.556 90.298C203.606 90.298 204.278 88.954 204.278 86.896C204.278 84.838 203.606 83.508 202.556 83.508ZM224.992 81.464H226.028V88.002H224.992V81.464ZM217.866 88.646H226.028V91.6H218.93V93.56H217.908V90.83H224.992V89.472H217.866V88.646ZM217.908 93.084H226.518V93.924H217.908V93.084ZM216.284 82.332H223.032V83.158H216.284V82.332ZM216.046 87.54L215.92 86.672C218.188 86.658 221.212 86.602 223.662 86.308L223.718 87.064C221.212 87.442 218.272 87.54 216.046 87.54ZM217.558 82.71H218.566V87.036H217.558V82.71ZM220.736 82.71H221.758V87.036H220.736V82.71ZM231.445 87.96H232.467V91.782H231.445V87.96ZM236.107 87.96H237.143V91.782H236.107V87.96ZM228.589 91.558H240.027V92.426H228.589V91.558ZM234.273 82.29C236.947 82.29 238.837 83.55 238.837 85.51C238.837 87.456 236.947 88.716 234.273 88.716C231.627 88.716 229.723 87.456 229.723 85.51C229.723 83.55 231.627 82.29 234.273 82.29ZM234.273 83.116C232.215 83.116 230.717 84.068 230.717 85.51C230.717 86.938 232.215 87.89 234.273 87.89C236.345 87.89 237.843 86.938 237.843 85.51C237.843 84.068 236.345 83.116 234.273 83.116ZM250.19 81.478H251.226V90.928H250.19V81.478ZM250.89 85.664H253.116V86.532H250.89V85.664ZM241.51 83.046H248.958V83.886H241.51V83.046ZM245.234 84.628C247.012 84.628 248.23 85.538 248.23 86.966C248.23 88.366 247.012 89.29 245.234 89.29C243.442 89.29 242.224 88.366 242.224 86.966C242.224 85.538 243.442 84.628 245.234 84.628ZM245.234 85.44C244.03 85.44 243.204 86.042 243.204 86.966C243.204 87.862 244.03 88.464 245.234 88.464C246.424 88.464 247.236 87.862 247.236 86.966C247.236 86.042 246.424 85.44 245.234 85.44ZM244.716 81.478H245.752V83.48H244.716V81.478ZM243.428 92.916H251.814V93.784H243.428V92.916ZM243.428 90.172H244.464V93.28H243.428V90.172ZM257.394 82.962H263.834V83.802H257.394V82.962ZM260.628 84.502C262.21 84.502 263.302 85.37 263.302 86.7C263.302 88.044 262.21 88.926 260.628 88.926C259.046 88.926 257.954 88.044 257.954 86.7C257.954 85.37 259.046 84.502 260.628 84.502ZM260.628 85.286C259.592 85.286 258.878 85.86 258.878 86.7C258.878 87.554 259.592 88.128 260.628 88.128C261.664 88.128 262.378 87.554 262.378 86.7C262.378 85.86 261.664 85.286 260.628 85.286ZM260.124 81.52H261.132V83.592H260.124V81.52ZM267.068 81.478H268.062V89.304H267.068V81.478ZM264.926 85.034H267.376V85.888H264.926V85.034ZM264.394 81.688H265.374V89.206H264.394V81.688ZM259.648 90.074H268.062V94.064H267.04V90.928H259.648V90.074ZM279.611 81.478H280.647V88.632H279.611V81.478ZM272.555 89.388H280.647V93.896H272.555V89.388ZM279.639 90.228H273.563V93.042H279.639V90.228ZM273.689 81.968H274.543V83.186C274.543 85.538 273.059 87.512 270.987 88.31L270.469 87.484C272.331 86.798 273.689 85.076 273.689 83.186V81.968ZM273.871 81.968H274.725V83.186C274.725 85.006 276.111 86.616 277.945 87.246L277.427 88.058C275.369 87.33 273.871 85.468 273.871 83.186V81.968ZM286.913 82.864H292.667V83.718H286.913V82.864ZM288.943 86.462H289.965V90.732H288.943V86.462ZM292.233 82.864H293.255V83.48C293.255 84.46 293.255 86.14 292.877 88.52L291.855 88.422C292.233 86.098 292.233 84.46 292.233 83.48V82.864ZM294.921 81.464H295.957V94.064H294.921V81.464ZM295.677 86.77H298.029V87.652H295.677V86.77ZM286.339 91.278L286.213 90.396C288.495 90.382 291.561 90.354 294.123 90.032L294.179 90.802C291.547 91.208 288.579 91.264 286.339 91.278ZM300.688 81.996H309.144V86.238H300.688V81.996ZM308.122 82.822H301.71V85.398H308.122V82.822ZM299.218 87.89H310.6V88.744H299.218V87.89ZM304.398 86.014H305.434V88.24H304.398V86.014ZM300.478 90.102H309.186V94.064H308.15V90.956H300.478V90.102ZM317.781 81.688C320.553 81.688 322.205 82.458 322.205 83.872C322.205 85.286 320.553 86.07 317.781 86.07C315.023 86.07 313.371 85.286 313.371 83.872C313.371 82.458 315.023 81.688 317.781 81.688ZM317.781 82.472C315.695 82.472 314.449 82.99 314.449 83.872C314.449 84.754 315.695 85.272 317.781 85.272C319.881 85.272 321.127 84.754 321.127 83.872C321.127 82.99 319.881 82.472 317.781 82.472ZM312.097 86.952H323.479V87.792H312.097V86.952ZM313.483 88.94H322.009V91.712H314.533V93.308H313.525V90.942H320.987V89.738H313.483V88.94ZM313.525 93.098H322.401V93.924H313.525V93.098ZM331.509 82.542H332.363V83.55C332.363 85.762 330.865 87.582 328.793 88.31L328.275 87.484C330.123 86.882 331.509 85.314 331.509 83.55V82.542ZM331.705 82.542H332.559V83.55C332.559 85.216 333.959 86.7 335.793 87.274L335.275 88.086C333.231 87.414 331.705 85.678 331.705 83.55V82.542ZM328.569 82.318H335.471V83.158H328.569V82.318ZM337.361 81.464H338.397V88.282H337.361V81.464ZM330.333 88.912H331.355V90.48H337.375V88.912H338.397V93.896H330.333V88.912ZM331.355 91.32V93.042H337.375V91.32H331.355ZM346.152 87.75H347.174V89.962H346.152V87.75ZM340.972 87.386H352.354V88.24H340.972V87.386ZM346.656 89.626C349.358 89.626 350.968 90.424 350.968 91.838C350.968 93.238 349.358 94.036 346.656 94.036C343.968 94.036 342.358 93.238 342.358 91.838C342.358 90.424 343.968 89.626 346.656 89.626ZM346.656 90.452C344.64 90.452 343.394 90.956 343.394 91.838C343.394 92.72 344.64 93.224 346.656 93.224C348.686 93.224 349.918 92.72 349.918 91.838C349.918 90.956 348.686 90.452 346.656 90.452ZM346.012 82.472H346.936V82.864C346.936 84.908 344.514 86.252 342.022 86.574L341.644 85.748C343.8 85.51 346.012 84.376 346.012 82.864V82.472ZM346.418 82.472H347.328V82.864C347.328 84.362 349.54 85.51 351.696 85.748L351.318 86.574C348.826 86.252 346.418 84.908 346.418 82.864V82.472ZM342.022 82.052H351.332V82.892H342.022V82.052ZM357.113 82.752H357.967V83.816C357.967 86.098 356.497 88.016 354.453 88.8L353.907 87.974C355.741 87.302 357.113 85.622 357.113 83.816V82.752ZM357.309 82.752H358.163V83.802C358.163 85.454 359.451 87.036 361.257 87.666L360.725 88.492C358.709 87.75 357.309 85.902 357.309 83.802V82.752ZM360.571 84.796H363.455V85.664H360.571V84.796ZM354.257 82.36H360.977V83.214H354.257V82.36ZM355.811 89.71H364.183V94.064H363.147V90.564H355.811V89.71ZM363.147 81.464H364.183V89.01H363.147V81.464ZM205.398 107.29C208.016 107.29 209.962 108.662 209.962 110.734C209.962 112.82 208.016 114.192 205.398 114.192C202.794 114.192 200.848 112.82 200.848 110.734C200.848 108.662 202.794 107.29 205.398 107.29ZM205.398 108.144C203.368 108.144 201.842 109.194 201.842 110.734C201.842 112.288 203.368 113.338 205.398 113.338C207.456 113.338 208.968 112.288 208.968 110.734C208.968 109.194 207.456 108.144 205.398 108.144ZM199.714 116.502H211.152V117.37H199.714V116.502ZM212.593 116.614H224.031V117.482H212.593V116.614ZM217.773 113.856H218.795V116.978H217.773V113.856ZM214.007 107.416H222.589V111.168H215.057V113.758H214.035V110.328H221.567V108.27H214.007V107.416ZM214.035 113.324H222.883V114.164H214.035V113.324ZM229.289 107.444H234.903V108.312H229.289V107.444ZM231.249 110.244H232.271V113.394H231.249V110.244ZM234.497 107.444H235.505V108.102C235.505 108.9 235.505 110.16 235.169 111.84L234.147 111.728C234.497 110.048 234.497 108.9 234.497 108.102V107.444ZM237.311 106.464H238.347V115.956H237.311V106.464ZM237.857 110.608H240.209V111.476H237.857V110.608ZM230.465 117.916H238.767V118.784H230.465V117.916ZM230.465 115.088H231.501V118.182H230.465V115.088ZM228.645 113.898L228.519 113.03C230.773 113.03 233.867 112.988 236.443 112.624L236.513 113.394C233.895 113.842 230.871 113.898 228.645 113.898ZM250.75 106.45H251.772V119.078H250.75V106.45ZM242.21 115.144H243.246C245.332 115.144 247.222 115.06 249.504 114.696L249.616 115.55C247.292 115.928 245.388 116.012 243.246 116.012H242.21V115.144ZM242.182 107.654H247.978V112.092H243.246V115.48H242.21V111.238H246.942V108.508H242.182V107.654ZM266.186 106.464H267.222V113.842H266.186V106.464ZM266.942 109.516H269.112V110.398H266.942V109.516ZM258.01 107.15H259.032V109.138H262.798V107.15H263.806V113.016H258.01V107.15ZM259.032 109.978V112.176H262.798V109.978H259.032ZM259.396 114.556H267.334V115.396H260.432V118.644H259.396V114.556ZM259.396 118.042H267.572V118.896H259.396V118.042ZM271.799 114.024H272.835V115.55H279.205V114.024H280.227V118.896H271.799V114.024ZM272.835 116.362V118.056H279.205V116.362H272.835ZM270.343 112.246H281.725V113.1H270.343V112.246ZM275.509 106.604H276.405V107.192C276.405 109.376 273.857 110.916 271.393 111.294L271.001 110.482C273.171 110.174 275.509 108.844 275.509 107.192V106.604ZM275.677 106.604H276.559V107.192C276.559 108.802 278.939 110.188 281.067 110.482L280.675 111.294C278.239 110.916 275.677 109.348 275.677 107.192V106.604ZM292.476 106.464H293.498V119.064H292.476V106.464ZM284.048 107.696H285.07V115.508H284.048V107.696ZM284.048 114.892H285.07C287.002 114.892 288.976 114.738 291.118 114.29L291.244 115.186C289.046 115.634 287.072 115.788 285.07 115.788H284.048V114.892ZM304.711 106.45H305.761V119.078H304.711V106.45ZM305.509 111.49H307.861V112.358H305.509V111.49ZM296.647 115.032H297.627C299.993 115.032 301.617 114.948 303.493 114.598L303.619 115.48C301.673 115.844 300.035 115.914 297.627 115.914H296.647V115.032ZM296.647 107.696H302.499V108.55H297.683V115.424H296.647V107.696ZM310.142 118.196C309.68 118.196 309.288 117.818 309.288 117.286C309.288 116.726 309.68 116.362 310.142 116.362C310.618 116.362 311.01 116.726 311.01 117.286C311.01 117.818 310.618 118.196 310.142 118.196Z" fill="#626262"/>
</svg>
