<svg width="157" height="120" viewBox="0 0 157 120" fill="none" xmlns="http://www.w3.org/2000/svg">
<path d="M56.406 73.01V74.72C57.776 74.71 58.886 74.66 60.146 74.47L60.266 75.52C58.826 75.74 57.536 75.78 55.886 75.78H55.086V69.41H59.746V70.48H56.406V71.98H59.366V73.01H56.406ZM60.936 68.65H62.266V77.87H60.936V68.65ZM71.4452 68.65V74.2H70.1152V68.65H71.4452ZM69.5452 72.89L68.9452 73.92C67.8952 73.64 67.1652 73.06 66.7352 72.3C66.3252 73.15 65.5852 73.81 64.4952 74.12L63.8752 73.09C65.3252 72.68 65.9952 71.67 66.0452 70.65H64.1852V69.61H66.0452V68.66H67.3652V69.61H69.2152V70.65H67.3652C67.4252 71.58 68.1052 72.52 69.5452 72.89ZM68.3352 76.85C69.5252 76.85 70.1652 76.62 70.1652 76.11C70.1652 75.61 69.5252 75.37 68.3352 75.37C67.1352 75.37 66.4952 75.61 66.4952 76.11C66.4952 76.62 67.1352 76.85 68.3352 76.85ZM68.3352 74.36C70.2752 74.36 71.4752 75.01 71.4752 76.11C71.4752 77.23 70.2752 77.86 68.3352 77.86C66.3852 77.86 65.1852 77.23 65.1852 76.11C65.1852 75.01 66.3852 74.36 68.3352 74.36ZM82.9001 68.66V73.88H81.5801V68.66H82.9001ZM78.9001 72.07V70.24H77.0201V72.07H78.9001ZM80.1901 69.2V73.1H75.7201V69.2H80.1901ZM83.0501 75.35H80.5101C80.6501 75.96 81.5701 76.7 83.3901 76.85L82.9701 77.83C81.4401 77.7 80.3701 77.15 79.8101 76.45C79.2501 77.16 78.1701 77.7 76.6201 77.83L76.2101 76.85C78.0501 76.69 78.9701 75.99 79.1101 75.35H76.5601V74.37H79.1401V73.62H80.4801V74.37H83.0501V75.35ZM92.1449 69.46V70.5H86.7249V69.46H88.7649V68.6H90.0949V69.46H92.1449ZM88.4349 72.48C88.4349 72.95 88.8349 73.18 89.4349 73.18C90.0249 73.18 90.4349 72.95 90.4349 72.48C90.4349 72.02 90.0249 71.79 89.4349 71.79C88.8349 71.79 88.4349 72.02 88.4349 72.48ZM91.6949 72.48C91.6949 73.49 90.7649 74.18 89.4349 74.18C88.1149 74.18 87.1749 73.49 87.1749 72.48C87.1749 71.48 88.1149 70.79 89.4349 70.79C90.7649 70.79 91.6949 71.48 91.6949 72.48ZM87.8349 75.86V74.8H93.9749V77.87H92.6549V75.86H87.8349ZM95.1949 71.02V72.11H93.9749V74.42H92.6549V68.66H93.9749V71.02H95.1949ZM103.834 71.23L103.364 72.25C101.794 72.06 100.674 71.41 100.084 70.53C99.5041 71.41 98.3641 72.05 96.7941 72.25L96.3341 71.23C98.4041 70.99 99.4041 69.97 99.4041 69.03V68.75H100.764V69.03C100.764 69.96 101.764 71 103.834 71.23ZM101.894 76.73V75.93H98.2041V76.73H101.894ZM101.894 74.94V74.17H103.194V77.75H96.8941V74.17H98.2041V74.94H101.894ZM95.9241 72.67H104.244V73.71H95.9241V72.67Z" fill="#333333"/>
<path d="M28.1805 90.256H28.7645V91.528H28.1805V90.256ZM25.2205 89.944H31.7245V90.432H25.2205V89.944ZM25.9405 91.312H30.9165V93.608H30.3245V91.8H25.9405V91.312ZM26.0925 86.568H26.6765V87.416H30.2845V86.568H30.8765V89.248H26.0925V86.568ZM26.6765 87.888V88.768H30.2845V87.888H26.6765ZM38.1159 86.408H38.6919V93.608H38.1159V86.408ZM36.9239 89.328H38.3399V89.816H36.9239V89.328ZM36.5479 86.568H37.1079V93.232H36.5479V86.568ZM32.6519 87.328H35.9879V87.816H32.6519V87.328ZM32.5799 91.816L32.4999 91.304C33.4679 91.304 35.0359 91.28 36.1399 91.128L36.1799 91.568C35.0439 91.776 33.5319 91.816 32.5799 91.816ZM33.2999 87.64H33.8439V91.44H33.2999V87.64ZM34.8039 87.64H35.3479V91.44H34.8039V87.64ZM40.7793 89.88H45.7073V90.368H40.7793V89.88ZM39.9393 92.12H46.4753V92.616H39.9393V92.12ZM40.7793 87.08H45.6273V87.576H41.3713V90.104H40.7793V87.08ZM54.3679 86.408H54.9599V93.616H54.3679V86.408ZM49.5519 91.312H50.1279C51.5359 91.312 52.4719 91.272 53.5599 91.064L53.6239 91.568C52.5039 91.776 51.5599 91.816 50.1279 91.816H49.5519V91.312ZM49.5519 87.096H52.9359V87.6H50.1439V91.496H49.5519V87.096ZM58.3753 87.416H58.8633V88.648C58.8633 90.152 57.8953 91.656 56.7913 92.216L56.4473 91.744C57.4553 91.256 58.3753 89.896 58.3753 88.648V87.416ZM58.4873 87.416H58.9753V88.648C58.9753 89.88 59.8873 91.12 60.9193 91.568L60.5833 92.04C59.4553 91.512 58.4873 90.136 58.4873 88.648V87.416ZM56.6713 87.152H60.6953V87.648H56.6713V87.152ZM61.7273 86.408H62.3193V93.608H61.7273V86.408ZM64.1666 89.52H64.6866C66.0866 89.52 66.8546 89.496 67.7986 89.336L67.8546 89.816C66.8866 89.976 66.1026 90 64.6866 90H64.1666V89.52ZM64.1666 86.864H67.4066V87.336H64.7586V89.808H64.1666V86.864ZM64.5826 88.16H67.2146V88.624H64.5826V88.16ZM67.7266 88.08H69.2626V88.568H67.7266V88.08ZM69.1106 86.408H69.7026V90.304H69.1106V86.408ZM65.0866 90.64H69.7026V92.28H65.6866V93.36H65.1026V91.832H69.1186V91.112H65.0866V90.64ZM65.1026 93.056H69.9826V93.528H65.1026V93.056ZM73.7153 86.76H78.3713V87.248H73.7153V86.76ZM78.0433 86.76H78.6273V87.36C78.6273 88.016 78.6273 88.76 78.4353 89.752L77.8433 89.704C78.0433 88.728 78.0433 88.008 78.0433 87.36V86.76ZM78.2113 88.072V88.52L73.6353 88.736L73.5473 88.224L78.2113 88.072ZM72.9473 90.248H79.4433V90.736H72.9473V90.248ZM75.6273 89.176H76.2193V90.56H75.6273V89.176ZM73.7793 93.008H78.7953V93.496H73.7793V93.008ZM73.7793 91.376H74.3713V93.2H73.7793V91.376ZM83.4106 88.464H84.6586V88.952H83.4106V88.464ZM85.7866 86.408H86.3546V91.816H85.7866V86.408ZM84.4026 86.56H84.9706V91.624H84.4026V86.56ZM81.7066 92.952H86.5786V93.448H81.7066V92.952ZM81.7066 91.216H82.3066V93.232H81.7066V91.216ZM80.6346 90.096H81.0826C82.2266 90.096 82.8986 90.064 83.6986 89.904L83.7546 90.384C82.9306 90.552 82.2506 90.584 81.0826 90.584H80.6346V90.096ZM80.6346 87.008H83.3546V87.496H81.2106V90.28H80.6346V87.008ZM81.0266 88.528H83.0666V89H81.0266V88.528ZM87.658 92.176H94.194V92.672H87.658V92.176ZM90.618 87.936H91.146V88.096C91.146 89.632 89.786 90.624 88.314 90.936L88.074 90.448C89.394 90.2 90.618 89.312 90.618 88.096V87.936ZM90.698 87.936H91.21V88.096C91.21 89.312 92.442 90.2 93.754 90.448L93.522 90.936C92.05 90.624 90.698 89.632 90.698 88.096V87.936ZM88.274 87.584H93.554V88.072H88.274V87.584ZM90.626 86.584H91.21V87.752H90.626V86.584ZM95.0094 89.776H101.545V90.232H95.0094V89.776ZM95.8014 90.848H100.721V92.36H96.4014V93.24H95.8174V91.936H100.137V91.28H95.8014V90.848ZM95.8174 93.072H100.961V93.512H95.8174V93.072ZM95.8494 86.632H100.697V88.096H96.4494V88.912H95.8654V87.68H100.113V87.064H95.8494V86.632ZM95.8654 88.76H100.825V89.2H95.8654V88.76ZM109.126 86.408H109.718V90.656H109.126V86.408ZM109.454 88.272H110.798V88.776H109.454V88.272ZM105.086 90.992H109.718V92.416H105.686V93.216H105.102V92.016H109.134V91.424H105.086V90.992ZM105.102 93.096H109.998V93.528H105.102V93.096ZM106.094 89.376H106.678V90.272H106.094V89.376ZM104.198 90.48L104.126 90.032C105.414 90.032 107.182 90.024 108.678 89.816L108.718 90.2C107.182 90.464 105.462 90.48 104.198 90.48ZM104.31 86.976H108.454V87.4H104.31V86.976ZM106.382 87.648C107.39 87.648 108.046 88 108.046 88.592C108.046 89.192 107.39 89.544 106.382 89.544C105.366 89.544 104.71 89.192 104.71 88.592C104.71 88 105.366 87.648 106.382 87.648ZM106.382 88.048C105.702 88.048 105.27 88.256 105.27 88.592C105.27 88.928 105.702 89.152 106.382 89.152C107.054 89.152 107.486 88.928 107.486 88.592C107.486 88.256 107.054 88.048 106.382 88.048ZM106.094 86.336H106.678V87.192H106.094V86.336ZM113.149 88.848H113.733V90.216H113.149V88.848ZM115.813 88.848H116.397V90.216H115.813V88.848ZM111.517 89.992H118.021V90.472H111.517V89.992ZM114.765 91.056C116.309 91.056 117.229 91.504 117.229 92.32C117.229 93.136 116.309 93.6 114.765 93.6C113.229 93.6 112.309 93.136 112.309 92.32C112.309 91.504 113.229 91.056 114.765 91.056ZM114.765 91.512C113.613 91.512 112.901 91.816 112.901 92.32C112.901 92.832 113.613 93.136 114.765 93.136C115.925 93.136 116.629 92.832 116.629 92.32C116.629 91.816 115.925 91.512 114.765 91.512ZM114.765 86.544C116.325 86.544 117.293 87.032 117.293 87.872C117.293 88.712 116.325 89.2 114.765 89.2C113.213 89.2 112.245 88.712 112.245 87.872C112.245 87.032 113.213 86.544 114.765 86.544ZM114.765 87.008C113.597 87.008 112.853 87.328 112.853 87.872C112.853 88.416 113.597 88.736 114.765 88.736C115.941 88.736 116.685 88.416 116.685 87.872C116.685 87.328 115.941 87.008 114.765 87.008ZM123.805 86.408H124.397V93.608H123.805V86.408ZM124.253 89.392H125.597V89.888H124.253V89.392ZM118.837 87.568H123.093V88.056H118.837V87.568ZM121.005 88.688C122.013 88.688 122.741 89.368 122.741 90.336C122.741 91.304 122.013 91.976 121.005 91.976C119.997 91.976 119.261 91.304 119.261 90.336C119.261 89.368 119.997 88.688 121.005 88.688ZM121.005 89.184C120.317 89.184 119.821 89.664 119.821 90.336C119.821 91 120.317 91.48 121.005 91.48C121.677 91.48 122.181 91 122.181 90.336C122.181 89.664 121.677 89.184 121.005 89.184ZM120.693 86.488H121.285V87.8H120.693V86.488ZM129.484 88.032H131.708V88.528H129.484V88.032ZM129.484 90.32H131.708V90.816H129.484V90.32ZM128.148 86.968C129.196 86.968 129.932 87.944 129.932 89.472C129.932 90.992 129.196 91.976 128.148 91.976C127.108 91.976 126.372 90.992 126.372 89.472C126.372 87.944 127.108 86.968 128.148 86.968ZM128.148 87.496C127.428 87.496 126.932 88.288 126.932 89.472C126.932 90.656 127.428 91.448 128.148 91.448C128.868 91.448 129.372 90.656 129.372 89.472C129.372 88.288 128.868 87.496 128.148 87.496ZM131.556 86.4H132.148V93.616H131.556V86.4ZM19.7836 99.192H24.0396V99.672H19.7836V99.192ZM21.9116 100.072C22.9356 100.072 23.6236 100.576 23.6236 101.368C23.6236 102.16 22.9356 102.656 21.9116 102.656C20.8796 102.656 20.1916 102.16 20.1916 101.368C20.1916 100.576 20.8796 100.072 21.9116 100.072ZM21.9116 100.536C21.2156 100.536 20.7516 100.864 20.7516 101.368C20.7516 101.864 21.2156 102.192 21.9116 102.192C22.5916 102.192 23.0556 101.864 23.0556 101.368C23.0556 100.864 22.5916 100.536 21.9116 100.536ZM24.7436 98.408H25.3356V102.904H24.7436V98.408ZM25.1756 100.416H26.4156V100.912H25.1756V100.416ZM20.6796 103.312H25.3356V105.608H24.7436V103.8H20.6796V103.312ZM21.6156 98.368H22.2076V99.456H21.6156V98.368ZM28.6629 98.856H29.1429V99.848C29.1429 100.888 28.4949 102.008 27.4629 102.472L27.1349 102.008C28.0709 101.592 28.6629 100.656 28.6629 99.848V98.856ZM28.7589 98.856H29.2309V99.848C29.2309 100.648 29.8069 101.464 30.7189 101.816L30.3989 102.272C29.3749 101.864 28.7589 100.88 28.7589 99.848V98.856ZM32.6069 98.416H33.1749V102.864H32.6069V98.416ZM31.4069 100.368H32.8069V100.856H31.4069V100.368ZM31.0629 98.552H31.6229V102.632H31.0629V98.552ZM30.8229 103.032C32.3029 103.032 33.2149 103.504 33.2149 104.312C33.2149 105.128 32.3029 105.592 30.8229 105.592C29.3429 105.592 28.4309 105.128 28.4309 104.312C28.4309 103.504 29.3429 103.032 30.8229 103.032ZM30.8229 103.496C29.7109 103.496 29.0149 103.8 29.0149 104.312C29.0149 104.824 29.7109 105.136 30.8229 105.136C31.9349 105.136 32.6229 104.824 32.6229 104.312C32.6229 103.8 31.9349 103.496 30.8229 103.496ZM34.4783 101.448H40.9903V101.936H34.4783V101.448ZM35.3583 100.352H40.2143V100.832H35.3583V100.352ZM35.3583 98.664H40.1343V99.144H35.9423V100.728H35.3583V98.664ZM35.2703 102.6H40.1423V104.256H35.8703V105.216H35.2943V103.808H39.5583V103.072H35.2703V102.6ZM35.2943 105.048H40.3663V105.52H35.2943V105.048ZM44.1817 98.936C45.3017 98.936 46.0937 99.624 46.0937 100.616C46.0937 101.616 45.3017 102.304 44.1817 102.304C43.0537 102.304 42.2537 101.616 42.2537 100.616C42.2537 99.624 43.0537 98.936 44.1817 98.936ZM44.1817 99.456C43.3977 99.456 42.8297 99.928 42.8297 100.616C42.8297 101.304 43.3977 101.792 44.1817 101.792C44.9497 101.792 45.5177 101.304 45.5177 100.616C45.5177 99.928 44.9497 99.456 44.1817 99.456ZM47.0857 98.4H47.6777V105.616H47.0857V98.4ZM41.9657 104.016L41.8777 103.512C43.1977 103.512 45.0297 103.512 46.6057 103.264L46.6537 103.704C45.0297 104.008 43.2617 104.016 41.9657 104.016ZM52.9143 99.416H53.4023V100.648C53.4023 102.152 52.4343 103.656 51.3303 104.216L50.9863 103.744C51.9943 103.256 52.9143 101.896 52.9143 100.648V99.416ZM53.0263 99.416H53.5143V100.648C53.5143 101.88 54.4263 103.12 55.4583 103.568L55.1223 104.04C53.9943 103.512 53.0263 102.136 53.0263 100.648V99.416ZM51.2103 99.152H55.2343V99.648H51.2103V99.152ZM56.2663 98.408H56.8583V105.608H56.2663V98.408ZM61.7937 99.696H63.8417V100.192H61.7937V99.696ZM61.7937 101.24H63.8497V101.736H61.7937V101.24ZM58.6817 99.04H61.9377V102.384H58.6817V99.04ZM61.3617 99.52H59.2577V101.904H61.3617V99.52ZM63.6497 98.416H64.2417V103.672H63.6497V98.416ZM59.6417 104.952H64.4177V105.448H59.6417V104.952ZM59.6417 103.208H60.2337V105.168H59.6417V103.208ZM67.5023 99.192H71.7583V99.672H67.5023V99.192ZM69.6303 100.072C70.6543 100.072 71.3423 100.576 71.3423 101.368C71.3423 102.16 70.6543 102.656 69.6303 102.656C68.5983 102.656 67.9103 102.16 67.9103 101.368C67.9103 100.576 68.5983 100.072 69.6303 100.072ZM69.6303 100.536C68.9343 100.536 68.4703 100.864 68.4703 101.368C68.4703 101.864 68.9343 102.192 69.6303 102.192C70.3103 102.192 70.7743 101.864 70.7743 101.368C70.7743 100.864 70.3103 100.536 69.6303 100.536ZM72.4623 98.408H73.0543V102.904H72.4623V98.408ZM72.8943 100.416H74.1343V100.912H72.8943V100.416ZM68.3983 103.312H73.0543V105.608H72.4623V103.8H68.3983V103.312ZM69.3343 98.368H69.9263V99.456H69.3343V98.368ZM75.6697 102.728H76.2617V103.6H79.9017V102.728H80.4857V105.512H75.6697V102.728ZM76.2617 104.064V105.032H79.9017V104.064H76.2617ZM74.8377 101.712H81.3417V102.2H74.8377V101.712ZM77.7897 98.488H78.3017V98.824C78.3017 100.072 76.8457 100.952 75.4377 101.168L75.2137 100.704C76.4537 100.528 77.7897 99.768 77.7897 98.824V98.488ZM77.8857 98.488H78.3897V98.824C78.3897 99.744 79.7497 100.536 80.9657 100.704L80.7417 101.168C79.3497 100.952 77.8857 100.056 77.8857 98.824V98.488ZM85.4451 98.536C87.0291 98.536 87.9731 98.976 87.9731 99.784C87.9731 100.592 87.0291 101.04 85.4451 101.04C83.8691 101.04 82.9251 100.592 82.9251 99.784C82.9251 98.976 83.8691 98.536 85.4451 98.536ZM85.4451 98.984C84.2531 98.984 83.5411 99.28 83.5411 99.784C83.5411 100.288 84.2531 100.584 85.4451 100.584C86.6451 100.584 87.3571 100.288 87.3571 99.784C87.3571 99.28 86.6451 98.984 85.4451 98.984ZM82.1971 101.544H88.7011V102.024H82.1971V101.544ZM82.9891 102.68H87.8611V104.264H83.5891V105.176H83.0131V103.824H87.2771V103.136H82.9891V102.68ZM83.0131 105.056H88.0851V105.528H83.0131V105.056ZM91.7057 103.328H92.2497C93.5937 103.328 94.4657 103.288 95.4817 103.096L95.5537 103.584C94.4977 103.784 93.6257 103.832 92.2497 103.832H91.7057V103.328ZM91.7057 99.096H94.9777V99.592H92.2897V103.512H91.7057V99.096ZM96.6577 98.408H97.2497V105.616H96.6577V98.408ZM94.5457 101.04H96.9057V101.536H94.5457V101.04ZM101.657 102.208H102.241V103.48H101.657V102.208ZM98.6971 101.928H105.201V102.416H98.6971V101.928ZM99.4171 103.304H104.393V105.608H103.801V103.784H99.4171V103.304ZM101.945 98.576C103.497 98.576 104.473 99.096 104.473 99.96C104.473 100.824 103.497 101.336 101.945 101.336C100.401 101.336 99.4251 100.824 99.4251 99.96C99.4251 99.096 100.401 98.576 101.945 98.576ZM101.945 99.056C100.777 99.056 100.033 99.392 100.033 99.96C100.033 100.528 100.777 100.864 101.945 100.864C103.121 100.864 103.865 100.528 103.865 99.96C103.865 99.392 103.121 99.056 101.945 99.056ZM113.134 98.416H113.726V102.504H113.134V98.416ZM109.102 102.936H113.726V105.512H109.102V102.936ZM113.15 103.416H109.678V105.024H113.15V103.416ZM109.75 98.696H110.238V99.392C110.238 100.736 109.39 101.864 108.206 102.32L107.91 101.848C108.974 101.456 109.75 100.472 109.75 99.392V98.696ZM109.854 98.696H110.342V99.392C110.342 100.432 111.134 101.352 112.182 101.712L111.886 102.176C110.71 101.76 109.854 100.696 109.854 99.392V98.696ZM116.037 101.8H120.965V102.288H116.037V101.8ZM115.197 104.192H121.733V104.688H115.197V104.192ZM118.157 102.008H118.741V104.4H118.157V102.008ZM116.037 98.992H120.885V99.488H116.629V102.016H116.037V98.992ZM127.522 98.904H128.154C128.154 100.712 126.802 101.952 124.706 102.488L124.466 102.008C126.378 101.544 127.522 100.512 127.522 99.176V98.904ZM124.826 98.904H127.842V99.392H124.826V98.904ZM129.626 98.408H130.226V102.36H129.626V98.408ZM125.554 102.776H130.346V103.256H125.554V102.776ZM125.49 105.016H130.426V105.496H125.49V105.016ZM126.562 103.008H127.146V105.24H126.562V103.008ZM128.746 103.008H129.338V105.24H128.746V103.008ZM132.393 99.152H137.041V99.64H132.393V99.152ZM131.697 104.08H138.209V104.576H131.697V104.08ZM134.273 101.488H134.857V104.328H134.273V101.488ZM136.817 99.152H137.401V99.864C137.401 100.752 137.401 101.736 137.145 103.176L136.545 103.104C136.817 101.736 136.817 100.728 136.817 99.864V99.152ZM9.84628 113.752H10.4303V115.12H9.84628V113.752ZM8.79028 114.904H9.37428V115.712H12.8943V114.904H13.4863V117.512H8.79028V114.904ZM9.37428 116.176V117.024H12.8943V116.176H9.37428ZM12.8863 110.408H13.4863V114.536H12.8863V110.408ZM7.74228 114.072L7.65428 113.584C9.01428 113.584 10.8143 113.576 12.3903 113.368L12.4383 113.8C10.8143 114.064 9.06228 114.072 7.74228 114.072ZM9.75828 110.576H10.2383V110.952C10.2383 111.984 9.42228 112.8 8.25428 113.104L7.98228 112.648C9.01428 112.392 9.75828 111.736 9.75828 110.952V110.576ZM9.88628 110.576H10.3663V110.952C10.3663 111.704 11.1183 112.32 12.1343 112.544L11.8783 112.992C10.7183 112.72 9.88628 111.96 9.88628 110.952V110.576ZM20.5417 110.408H21.1177V117.608H20.5417V110.408ZM17.3657 113.384H19.2297V113.864H17.3657V113.384ZM19.0457 110.6H19.6057V117.232H19.0457V110.6ZM17.5177 111.328H18.0857C18.0857 113.184 17.3017 114.896 15.3737 116.048L15.0217 115.616C16.7257 114.6 17.5177 113.112 17.5177 111.432V111.328ZM15.3177 111.328H17.7417V111.816H15.3177V111.328ZM29.4343 110.4H30.0263V117.616H29.4343V110.4ZM26.2423 110.968C27.2983 110.968 28.0583 111.944 28.0583 113.472C28.0583 114.992 27.2983 115.976 26.2423 115.976C25.1783 115.976 24.4183 114.992 24.4183 113.472C24.4183 111.944 25.1783 110.968 26.2423 110.968ZM26.2423 111.496C25.5063 111.496 24.9943 112.288 24.9943 113.472C24.9943 114.656 25.5063 115.448 26.2423 115.448C26.9783 115.448 27.4823 114.656 27.4823 113.472C27.4823 112.288 26.9783 111.496 26.2423 111.496ZM31.4897 111.664H35.0897V112.152H31.4897V111.664ZM33.2897 112.664C34.1857 112.664 34.8337 113.336 34.8337 114.288C34.8337 115.256 34.1857 115.92 33.2897 115.92C32.4017 115.92 31.7537 115.256 31.7537 114.288C31.7537 113.336 32.4017 112.664 33.2897 112.664ZM33.2897 113.168C32.7057 113.168 32.2817 113.64 32.2817 114.288C32.2817 114.944 32.7057 115.416 33.2897 115.416C33.8817 115.416 34.3057 114.944 34.3057 114.288C34.3057 113.64 33.8817 113.168 33.2897 113.168ZM37.0177 110.408H37.5857V117.608H37.0177V110.408ZM35.8177 113.456H37.2097V113.952H35.8177V113.456ZM35.4657 110.576H36.0257V117.248H35.4657V110.576ZM33.0017 110.616H33.5857V111.96H33.0017V110.616ZM43.793 110.408H44.385V117.608H43.793V110.408ZM44.241 113.392H45.585V113.888H44.241V113.392ZM38.825 111.568H43.081V112.056H38.825V111.568ZM40.993 112.688C42.001 112.688 42.729 113.368 42.729 114.336C42.729 115.304 42.001 115.976 40.993 115.976C39.985 115.976 39.249 115.304 39.249 114.336C39.249 113.368 39.985 112.688 40.993 112.688ZM40.993 113.184C40.305 113.184 39.809 113.664 39.809 114.336C39.809 115 40.305 115.48 40.993 115.48C41.665 115.48 42.169 115 42.169 114.336C42.169 113.664 41.665 113.184 40.993 113.184ZM40.681 110.488H41.273V111.8H40.681V110.488ZM49.4724 112.032H51.6964V112.528H49.4724V112.032ZM49.4724 114.32H51.6964V114.816H49.4724V114.32ZM48.1364 110.968C49.1844 110.968 49.9204 111.944 49.9204 113.472C49.9204 114.992 49.1844 115.976 48.1364 115.976C47.0964 115.976 46.3604 114.992 46.3604 113.472C46.3604 111.944 47.0964 110.968 48.1364 110.968ZM48.1364 111.496C47.4164 111.496 46.9204 112.288 46.9204 113.472C46.9204 114.656 47.4164 115.448 48.1364 115.448C48.8564 115.448 49.3604 114.656 49.3604 113.472C49.3604 112.288 48.8564 111.496 48.1364 111.496ZM51.5444 110.4H52.1364V117.616H51.5444V110.4ZM60.669 110.408H61.253V117.608H60.669V110.408ZM58.557 111.184H59.141C59.141 113.248 58.165 115.08 55.789 116.24L55.469 115.768C57.557 114.76 58.557 113.192 58.557 111.28V111.184ZM55.789 111.184H58.805V111.672H55.789V111.184ZM63.5964 110.696H64.1804V111.632H67.7884V110.696H68.3804V113.568H63.5964V110.696ZM64.1804 112.112V113.088H67.7884V112.112H64.1804ZM62.7244 114.36H69.2284V114.848H62.7244V114.36ZM65.6844 113.272H66.2764V114.584H65.6844V113.272ZM63.5724 116.952H68.5164V117.448H63.5724V116.952ZM63.5724 115.456H64.1644V117.12H63.5724V115.456ZM77.385 110.408H77.961V117.608H77.385V110.408ZM76.177 113.336H77.593V113.824H76.177V113.336ZM74.369 111.344H74.937C74.937 113.16 74.289 114.896 72.233 116.056L71.881 115.624C73.721 114.608 74.369 113.104 74.369 111.448V111.344ZM72.145 111.344H74.569V111.832H72.145V111.344ZM75.785 110.6H76.353V117.248H75.785V110.6ZM79.6644 110.768H80.2484V113.968H79.6644V110.768ZM79.6644 113.808H80.1844C81.3764 113.808 82.2564 113.752 83.2644 113.552L83.3444 114.04C82.2964 114.248 81.4004 114.296 80.1844 114.296H79.6644V113.808ZM84.5364 110.408H85.1284V114.648H84.5364V110.408ZM82.4644 111.232H84.7044V111.712H82.4644V111.232ZM82.4644 112.512H84.7044V112.984H82.4644V112.512ZM80.5364 114.976H85.1284V117.512H80.5364V114.976ZM84.5524 115.456H81.1124V117.024H84.5524V115.456ZM89.8318 110.536C91.4158 110.536 92.3598 110.976 92.3598 111.784C92.3598 112.592 91.4158 113.04 89.8318 113.04C88.2558 113.04 87.3118 112.592 87.3118 111.784C87.3118 110.976 88.2558 110.536 89.8318 110.536ZM89.8318 110.984C88.6398 110.984 87.9278 111.28 87.9278 111.784C87.9278 112.288 88.6398 112.584 89.8318 112.584C91.0318 112.584 91.7438 112.288 91.7438 111.784C91.7438 111.28 91.0318 110.984 89.8318 110.984ZM86.5838 113.544H93.0878V114.024H86.5838V113.544ZM87.3758 114.68H92.2478V116.264H87.9758V117.176H87.3998V115.824H91.6638V115.136H87.3758V114.68ZM87.3998 117.056H92.4718V117.528H87.3998V117.056ZM96.0684 114.136H96.6044C98.0684 114.136 98.8684 114.104 99.8284 113.928L99.8924 114.408C98.9084 114.592 98.0844 114.616 96.6044 114.616H96.0684V114.136ZM96.0684 110.984H99.3404V111.472H96.6524V114.296H96.0684V110.984ZM96.4604 112.528H99.2124V113.008H96.4604V112.528ZM100.708 110.4H101.3V115.744H100.708V110.4ZM101.108 112.664H102.38V113.16H101.108V112.664ZM96.8444 116.952H101.636V117.448H96.8444V116.952ZM96.8444 115.264H97.4364V117.2H96.8444V115.264ZM103.428 114.136H103.964C105.428 114.136 106.228 114.104 107.188 113.928L107.252 114.408C106.268 114.592 105.444 114.616 103.964 114.616H103.428V114.136ZM103.428 110.984H106.7V111.472H104.012V114.296H103.428V110.984ZM103.82 112.528H106.572V113.008H103.82V112.528ZM108.068 110.4H108.66V115.744H108.068V110.4ZM108.468 112.664H109.74V113.16H108.468V112.664ZM104.204 116.952H108.996V117.448H104.204V116.952ZM104.204 115.264H104.796V117.2H104.204V115.264ZM115.371 110.408H115.963V117.608H115.371V110.408ZM115.819 113.392H117.163V113.888H115.819V113.392ZM110.403 111.568H114.659V112.056H110.403V111.568ZM112.571 112.688C113.579 112.688 114.307 113.368 114.307 114.336C114.307 115.304 113.579 115.976 112.571 115.976C111.563 115.976 110.827 115.304 110.827 114.336C110.827 113.368 111.563 112.688 112.571 112.688ZM112.571 113.184C111.883 113.184 111.387 113.664 111.387 114.336C111.387 115 111.883 115.48 112.571 115.48C113.243 115.48 113.747 115 113.747 114.336C113.747 113.664 113.243 113.184 112.571 113.184ZM112.259 110.488H112.851V111.8H112.259V110.488ZM123.339 110.408H123.915V117.608H123.339V110.408ZM120.163 113.384H122.027V113.864H120.163V113.384ZM121.843 110.6H122.403V117.232H121.843V110.6ZM120.315 111.328H120.883C120.883 113.184 120.099 114.896 118.171 116.048L117.819 115.616C119.523 114.6 120.315 113.112 120.315 111.432V111.328ZM118.115 111.328H120.539V111.816H118.115V111.328ZM131.927 110.408H132.519V114.584H131.927V110.408ZM132.255 112.264H133.599V112.76H132.255V112.264ZM128.015 114.912H128.599V115.712H131.935V114.912H132.519V117.512H128.015V114.912ZM128.599 116.176V117.032H131.935V116.176H128.599ZM126.967 111.168H131.223V111.648H126.967V111.168ZM129.095 112.008C130.119 112.008 130.807 112.496 130.807 113.264C130.807 114.032 130.119 114.528 129.095 114.528C128.063 114.528 127.375 114.032 127.375 113.264C127.375 112.496 128.063 112.008 129.095 112.008ZM129.095 112.456C128.399 112.456 127.935 112.784 127.935 113.264C127.935 113.752 128.399 114.072 129.095 114.072C129.775 114.072 130.239 113.752 130.239 113.264C130.239 112.784 129.775 112.456 129.095 112.456ZM128.799 110.336H129.391V111.424H128.799V110.336ZM139.591 110.408H140.175V117.608H139.591V110.408ZM134.775 111.112H135.359V115.576H134.775V111.112ZM134.775 115.224H135.359C136.463 115.224 137.591 115.136 138.815 114.88L138.887 115.392C137.631 115.648 136.503 115.736 135.359 115.736H134.775V115.224ZM146.582 110.4H147.182V117.616H146.582V110.4ZM147.038 113.28H148.382V113.776H147.038V113.28ZM141.974 115.304H142.534C143.886 115.304 144.814 115.256 145.886 115.056L145.958 115.56C144.846 115.768 143.91 115.808 142.534 115.808H141.974V115.304ZM141.974 111.112H145.318V111.6H142.566V115.528H141.974V111.112ZM149.685 117.112C149.421 117.112 149.197 116.896 149.197 116.592C149.197 116.272 149.421 116.064 149.685 116.064C149.957 116.064 150.181 116.272 150.181 116.592C150.181 116.896 149.957 117.112 149.685 117.112Z" fill="#666666"/>
<rect width="157" height="58" fill="#F3F3F3"/>
</svg>
