<svg width="144" height="134" viewBox="0 0 144 134" fill="none" xmlns="http://www.w3.org/2000/svg">
<path d="M49.406 87.01V88.72C50.776 88.71 51.886 88.66 53.146 88.47L53.266 89.52C51.826 89.74 50.536 89.78 48.886 89.78H48.086V83.41H52.746V84.48H49.406V85.98H52.366V87.01H49.406ZM53.936 82.65H55.266V91.87H53.936V82.65ZM64.4452 82.65V88.2H63.1152V82.65H64.4452ZM62.5452 86.89L61.9452 87.92C60.8952 87.64 60.1652 87.06 59.7352 86.3C59.3252 87.15 58.5852 87.81 57.4952 88.12L56.8752 87.09C58.3252 86.68 58.9952 85.67 59.0452 84.65H57.1852V83.61H59.0452V82.66H60.3652V83.61H62.2152V84.65H60.3652C60.4252 85.58 61.1052 86.52 62.5452 86.89ZM61.3352 90.85C62.5252 90.85 63.1652 90.62 63.1652 90.11C63.1652 89.61 62.5252 89.37 61.3352 89.37C60.1352 89.37 59.4952 89.61 59.4952 90.11C59.4952 90.62 60.1352 90.85 61.3352 90.85ZM61.3352 88.36C63.2752 88.36 64.4752 89.01 64.4752 90.11C64.4752 91.23 63.2752 91.86 61.3352 91.86C59.3852 91.86 58.1852 91.23 58.1852 90.11C58.1852 89.01 59.3852 88.36 61.3352 88.36ZM75.9001 82.66V87.88H74.5801V82.66H75.9001ZM71.9001 86.07V84.24H70.0201V86.07H71.9001ZM73.1901 83.2V87.1H68.7201V83.2H73.1901ZM76.0501 89.35H73.5101C73.6501 89.96 74.5701 90.7 76.3901 90.85L75.9701 91.83C74.4401 91.7 73.3701 91.15 72.8101 90.45C72.2501 91.16 71.1701 91.7 69.6201 91.83L69.2101 90.85C71.0501 90.69 71.9701 89.99 72.1101 89.35H69.5601V88.37H72.1401V87.62H73.4801V88.37H76.0501V89.35ZM85.1449 83.46V84.5H79.7249V83.46H81.7649V82.6H83.0949V83.46H85.1449ZM81.4349 86.48C81.4349 86.95 81.8349 87.18 82.4349 87.18C83.0249 87.18 83.4349 86.95 83.4349 86.48C83.4349 86.02 83.0249 85.79 82.4349 85.79C81.8349 85.79 81.4349 86.02 81.4349 86.48ZM84.6949 86.48C84.6949 87.49 83.7649 88.18 82.4349 88.18C81.1149 88.18 80.1749 87.49 80.1749 86.48C80.1749 85.48 81.1149 84.79 82.4349 84.79C83.7649 84.79 84.6949 85.48 84.6949 86.48ZM80.8349 89.86V88.8H86.9749V91.87H85.6549V89.86H80.8349ZM88.1949 85.02V86.11H86.9749V88.42H85.6549V82.66H86.9749V85.02H88.1949ZM96.8341 85.23L96.3641 86.25C94.7941 86.06 93.6741 85.41 93.0841 84.53C92.5041 85.41 91.3641 86.05 89.7941 86.25L89.3341 85.23C91.4041 84.99 92.4041 83.97 92.4041 83.03V82.75H93.7641V83.03C93.7641 83.96 94.7641 85 96.8341 85.23ZM94.8941 90.73V89.93H91.2041V90.73H94.8941ZM94.8941 88.94V88.17H96.1941V91.75H89.8941V88.17H91.2041V88.94H94.8941ZM88.9241 86.67H97.2441V87.71H88.9241V86.67Z" fill="#333333"/>
<path d="M21.1805 104.256H21.7645V105.528H21.1805V104.256ZM18.2205 103.944H24.7245V104.432H18.2205V103.944ZM18.9405 105.312H23.9165V107.608H23.3245V105.8H18.9405V105.312ZM19.0925 100.568H19.6765V101.416H23.2845V100.568H23.8765V103.248H19.0925V100.568ZM19.6765 101.888V102.768H23.2845V101.888H19.6765ZM31.1159 100.408H31.6919V107.608H31.1159V100.408ZM29.9239 103.328H31.3399V103.816H29.9239V103.328ZM29.5479 100.568H30.1079V107.232H29.5479V100.568ZM25.6519 101.328H28.9879V101.816H25.6519V101.328ZM25.5799 105.816L25.4999 105.304C26.4679 105.304 28.0359 105.28 29.1399 105.128L29.1799 105.568C28.0439 105.776 26.5319 105.816 25.5799 105.816ZM26.2999 101.64H26.8439V105.44H26.2999V101.64ZM27.8039 101.64H28.3479V105.44H27.8039V101.64ZM33.7793 103.88H38.7073V104.368H33.7793V103.88ZM32.9393 106.12H39.4753V106.616H32.9393V106.12ZM33.7793 101.08H38.6273V101.576H34.3713V104.104H33.7793V101.08ZM47.3679 100.408H47.9599V107.616H47.3679V100.408ZM42.5519 105.312H43.1279C44.5359 105.312 45.4719 105.272 46.5599 105.064L46.6239 105.568C45.5039 105.776 44.5599 105.816 43.1279 105.816H42.5519V105.312ZM42.5519 101.096H45.9359V101.6H43.1439V105.496H42.5519V101.096ZM51.3753 101.416H51.8633V102.648C51.8633 104.152 50.8953 105.656 49.7913 106.216L49.4473 105.744C50.4553 105.256 51.3753 103.896 51.3753 102.648V101.416ZM51.4873 101.416H51.9753V102.648C51.9753 103.88 52.8873 105.12 53.9193 105.568L53.5833 106.04C52.4553 105.512 51.4873 104.136 51.4873 102.648V101.416ZM49.6713 101.152H53.6953V101.648H49.6713V101.152ZM54.7273 100.408H55.3193V107.608H54.7273V100.408ZM57.1666 103.52H57.6866C59.0866 103.52 59.8546 103.496 60.7986 103.336L60.8546 103.816C59.8866 103.976 59.1026 104 57.6866 104H57.1666V103.52ZM57.1666 100.864H60.4066V101.336H57.7586V103.808H57.1666V100.864ZM57.5826 102.16H60.2146V102.624H57.5826V102.16ZM60.7266 102.08H62.2626V102.568H60.7266V102.08ZM62.1106 100.408H62.7026V104.304H62.1106V100.408ZM58.0866 104.64H62.7026V106.28H58.6866V107.36H58.1026V105.832H62.1186V105.112H58.0866V104.64ZM58.1026 107.056H62.9826V107.528H58.1026V107.056ZM66.7153 100.76H71.3713V101.248H66.7153V100.76ZM71.0433 100.76H71.6273V101.36C71.6273 102.016 71.6273 102.76 71.4353 103.752L70.8433 103.704C71.0433 102.728 71.0433 102.008 71.0433 101.36V100.76ZM71.2113 102.072V102.52L66.6353 102.736L66.5473 102.224L71.2113 102.072ZM65.9473 104.248H72.4433V104.736H65.9473V104.248ZM68.6273 103.176H69.2193V104.56H68.6273V103.176ZM66.7793 107.008H71.7953V107.496H66.7793V107.008ZM66.7793 105.376H67.3713V107.2H66.7793V105.376ZM76.4106 102.464H77.6586V102.952H76.4106V102.464ZM78.7866 100.408H79.3546V105.816H78.7866V100.408ZM77.4026 100.56H77.9706V105.624H77.4026V100.56ZM74.7066 106.952H79.5786V107.448H74.7066V106.952ZM74.7066 105.216H75.3066V107.232H74.7066V105.216ZM73.6346 104.096H74.0826C75.2266 104.096 75.8986 104.064 76.6986 103.904L76.7546 104.384C75.9306 104.552 75.2506 104.584 74.0826 104.584H73.6346V104.096ZM73.6346 101.008H76.3546V101.496H74.2106V104.28H73.6346V101.008ZM74.0266 102.528H76.0666V103H74.0266V102.528ZM80.658 106.176H87.194V106.672H80.658V106.176ZM83.618 101.936H84.146V102.096C84.146 103.632 82.786 104.624 81.314 104.936L81.074 104.448C82.394 104.2 83.618 103.312 83.618 102.096V101.936ZM83.698 101.936H84.21V102.096C84.21 103.312 85.442 104.2 86.754 104.448L86.522 104.936C85.05 104.624 83.698 103.632 83.698 102.096V101.936ZM81.274 101.584H86.554V102.072H81.274V101.584ZM83.626 100.584H84.21V101.752H83.626V100.584ZM88.0094 103.776H94.5454V104.232H88.0094V103.776ZM88.8014 104.848H93.7214V106.36H89.4014V107.24H88.8174V105.936H93.1374V105.28H88.8014V104.848ZM88.8174 107.072H93.9614V107.512H88.8174V107.072ZM88.8494 100.632H93.6974V102.096H89.4494V102.912H88.8654V101.68H93.1134V101.064H88.8494V100.632ZM88.8654 102.76H93.8254V103.2H88.8654V102.76ZM102.126 100.408H102.718V104.656H102.126V100.408ZM102.454 102.272H103.798V102.776H102.454V102.272ZM98.086 104.992H102.718V106.416H98.686V107.216H98.102V106.016H102.134V105.424H98.086V104.992ZM98.102 107.096H102.998V107.528H98.102V107.096ZM99.094 103.376H99.678V104.272H99.094V103.376ZM97.198 104.48L97.126 104.032C98.414 104.032 100.182 104.024 101.678 103.816L101.718 104.2C100.182 104.464 98.462 104.48 97.198 104.48ZM97.31 100.976H101.454V101.4H97.31V100.976ZM99.382 101.648C100.39 101.648 101.046 102 101.046 102.592C101.046 103.192 100.39 103.544 99.382 103.544C98.366 103.544 97.71 103.192 97.71 102.592C97.71 102 98.366 101.648 99.382 101.648ZM99.382 102.048C98.702 102.048 98.27 102.256 98.27 102.592C98.27 102.928 98.702 103.152 99.382 103.152C100.054 103.152 100.486 102.928 100.486 102.592C100.486 102.256 100.054 102.048 99.382 102.048ZM99.094 100.336H99.678V101.192H99.094V100.336ZM106.149 102.848H106.733V104.216H106.149V102.848ZM108.813 102.848H109.397V104.216H108.813V102.848ZM104.517 103.992H111.021V104.472H104.517V103.992ZM107.765 105.056C109.309 105.056 110.229 105.504 110.229 106.32C110.229 107.136 109.309 107.6 107.765 107.6C106.229 107.6 105.309 107.136 105.309 106.32C105.309 105.504 106.229 105.056 107.765 105.056ZM107.765 105.512C106.613 105.512 105.901 105.816 105.901 106.32C105.901 106.832 106.613 107.136 107.765 107.136C108.925 107.136 109.629 106.832 109.629 106.32C109.629 105.816 108.925 105.512 107.765 105.512ZM107.765 100.544C109.325 100.544 110.293 101.032 110.293 101.872C110.293 102.712 109.325 103.2 107.765 103.2C106.213 103.2 105.245 102.712 105.245 101.872C105.245 101.032 106.213 100.544 107.765 100.544ZM107.765 101.008C106.597 101.008 105.853 101.328 105.853 101.872C105.853 102.416 106.597 102.736 107.765 102.736C108.941 102.736 109.685 102.416 109.685 101.872C109.685 101.328 108.941 101.008 107.765 101.008ZM116.805 100.408H117.397V107.608H116.805V100.408ZM117.253 103.392H118.597V103.888H117.253V103.392ZM111.837 101.568H116.093V102.056H111.837V101.568ZM114.005 102.688C115.013 102.688 115.741 103.368 115.741 104.336C115.741 105.304 115.013 105.976 114.005 105.976C112.997 105.976 112.261 105.304 112.261 104.336C112.261 103.368 112.997 102.688 114.005 102.688ZM114.005 103.184C113.317 103.184 112.821 103.664 112.821 104.336C112.821 105 113.317 105.48 114.005 105.48C114.677 105.48 115.181 105 115.181 104.336C115.181 103.664 114.677 103.184 114.005 103.184ZM113.693 100.488H114.285V101.8H113.693V100.488ZM122.484 102.032H124.708V102.528H122.484V102.032ZM122.484 104.32H124.708V104.816H122.484V104.32ZM121.148 100.968C122.196 100.968 122.932 101.944 122.932 103.472C122.932 104.992 122.196 105.976 121.148 105.976C120.108 105.976 119.372 104.992 119.372 103.472C119.372 101.944 120.108 100.968 121.148 100.968ZM121.148 101.496C120.428 101.496 119.932 102.288 119.932 103.472C119.932 104.656 120.428 105.448 121.148 105.448C121.868 105.448 122.372 104.656 122.372 103.472C122.372 102.288 121.868 101.496 121.148 101.496ZM124.556 100.4H125.148V107.616H124.556V100.4ZM12.7836 113.192H17.0396V113.672H12.7836V113.192ZM14.9116 114.072C15.9356 114.072 16.6236 114.576 16.6236 115.368C16.6236 116.16 15.9356 116.656 14.9116 116.656C13.8796 116.656 13.1916 116.16 13.1916 115.368C13.1916 114.576 13.8796 114.072 14.9116 114.072ZM14.9116 114.536C14.2156 114.536 13.7516 114.864 13.7516 115.368C13.7516 115.864 14.2156 116.192 14.9116 116.192C15.5916 116.192 16.0556 115.864 16.0556 115.368C16.0556 114.864 15.5916 114.536 14.9116 114.536ZM17.7436 112.408H18.3356V116.904H17.7436V112.408ZM18.1756 114.416H19.4156V114.912H18.1756V114.416ZM13.6796 117.312H18.3356V119.608H17.7436V117.8H13.6796V117.312ZM14.6156 112.368H15.2076V113.456H14.6156V112.368ZM21.6629 112.856H22.1429V113.848C22.1429 114.888 21.4949 116.008 20.4629 116.472L20.1349 116.008C21.0709 115.592 21.6629 114.656 21.6629 113.848V112.856ZM21.7589 112.856H22.2309V113.848C22.2309 114.648 22.8069 115.464 23.7189 115.816L23.3989 116.272C22.3749 115.864 21.7589 114.88 21.7589 113.848V112.856ZM25.6069 112.416H26.1749V116.864H25.6069V112.416ZM24.4069 114.368H25.8069V114.856H24.4069V114.368ZM24.0629 112.552H24.6229V116.632H24.0629V112.552ZM23.8229 117.032C25.3029 117.032 26.2149 117.504 26.2149 118.312C26.2149 119.128 25.3029 119.592 23.8229 119.592C22.3429 119.592 21.4309 119.128 21.4309 118.312C21.4309 117.504 22.3429 117.032 23.8229 117.032ZM23.8229 117.496C22.7109 117.496 22.0149 117.8 22.0149 118.312C22.0149 118.824 22.7109 119.136 23.8229 119.136C24.9349 119.136 25.6229 118.824 25.6229 118.312C25.6229 117.8 24.9349 117.496 23.8229 117.496ZM27.4783 115.448H33.9903V115.936H27.4783V115.448ZM28.3583 114.352H33.2143V114.832H28.3583V114.352ZM28.3583 112.664H33.1343V113.144H28.9423V114.728H28.3583V112.664ZM28.2703 116.6H33.1423V118.256H28.8703V119.216H28.2943V117.808H32.5583V117.072H28.2703V116.6ZM28.2943 119.048H33.3663V119.52H28.2943V119.048ZM37.1817 112.936C38.3017 112.936 39.0937 113.624 39.0937 114.616C39.0937 115.616 38.3017 116.304 37.1817 116.304C36.0537 116.304 35.2537 115.616 35.2537 114.616C35.2537 113.624 36.0537 112.936 37.1817 112.936ZM37.1817 113.456C36.3977 113.456 35.8297 113.928 35.8297 114.616C35.8297 115.304 36.3977 115.792 37.1817 115.792C37.9497 115.792 38.5177 115.304 38.5177 114.616C38.5177 113.928 37.9497 113.456 37.1817 113.456ZM40.0857 112.4H40.6777V119.616H40.0857V112.4ZM34.9657 118.016L34.8777 117.512C36.1977 117.512 38.0297 117.512 39.6057 117.264L39.6537 117.704C38.0297 118.008 36.2617 118.016 34.9657 118.016ZM45.9143 113.416H46.4023V114.648C46.4023 116.152 45.4343 117.656 44.3303 118.216L43.9863 117.744C44.9943 117.256 45.9143 115.896 45.9143 114.648V113.416ZM46.0263 113.416H46.5143V114.648C46.5143 115.88 47.4263 117.12 48.4583 117.568L48.1223 118.04C46.9943 117.512 46.0263 116.136 46.0263 114.648V113.416ZM44.2103 113.152H48.2343V113.648H44.2103V113.152ZM49.2663 112.408H49.8583V119.608H49.2663V112.408ZM54.7937 113.696H56.8417V114.192H54.7937V113.696ZM54.7937 115.24H56.8497V115.736H54.7937V115.24ZM51.6817 113.04H54.9377V116.384H51.6817V113.04ZM54.3617 113.52H52.2577V115.904H54.3617V113.52ZM56.6497 112.416H57.2417V117.672H56.6497V112.416ZM52.6417 118.952H57.4177V119.448H52.6417V118.952ZM52.6417 117.208H53.2337V119.168H52.6417V117.208ZM60.5023 113.192H64.7583V113.672H60.5023V113.192ZM62.6303 114.072C63.6543 114.072 64.3423 114.576 64.3423 115.368C64.3423 116.16 63.6543 116.656 62.6303 116.656C61.5983 116.656 60.9103 116.16 60.9103 115.368C60.9103 114.576 61.5983 114.072 62.6303 114.072ZM62.6303 114.536C61.9343 114.536 61.4703 114.864 61.4703 115.368C61.4703 115.864 61.9343 116.192 62.6303 116.192C63.3103 116.192 63.7743 115.864 63.7743 115.368C63.7743 114.864 63.3103 114.536 62.6303 114.536ZM65.4623 112.408H66.0543V116.904H65.4623V112.408ZM65.8943 114.416H67.1343V114.912H65.8943V114.416ZM61.3983 117.312H66.0543V119.608H65.4623V117.8H61.3983V117.312ZM62.3343 112.368H62.9263V113.456H62.3343V112.368ZM68.6697 116.728H69.2617V117.6H72.9017V116.728H73.4857V119.512H68.6697V116.728ZM69.2617 118.064V119.032H72.9017V118.064H69.2617ZM67.8377 115.712H74.3417V116.2H67.8377V115.712ZM70.7897 112.488H71.3017V112.824C71.3017 114.072 69.8457 114.952 68.4377 115.168L68.2137 114.704C69.4537 114.528 70.7897 113.768 70.7897 112.824V112.488ZM70.8857 112.488H71.3897V112.824C71.3897 113.744 72.7497 114.536 73.9657 114.704L73.7417 115.168C72.3497 114.952 70.8857 114.056 70.8857 112.824V112.488ZM78.4451 112.536C80.0291 112.536 80.9731 112.976 80.9731 113.784C80.9731 114.592 80.0291 115.04 78.4451 115.04C76.8691 115.04 75.9251 114.592 75.9251 113.784C75.9251 112.976 76.8691 112.536 78.4451 112.536ZM78.4451 112.984C77.2531 112.984 76.5411 113.28 76.5411 113.784C76.5411 114.288 77.2531 114.584 78.4451 114.584C79.6451 114.584 80.3571 114.288 80.3571 113.784C80.3571 113.28 79.6451 112.984 78.4451 112.984ZM75.1971 115.544H81.7011V116.024H75.1971V115.544ZM75.9891 116.68H80.8611V118.264H76.5891V119.176H76.0131V117.824H80.2771V117.136H75.9891V116.68ZM76.0131 119.056H81.0851V119.528H76.0131V119.056ZM84.7057 117.328H85.2497C86.5937 117.328 87.4657 117.288 88.4817 117.096L88.5537 117.584C87.4977 117.784 86.6257 117.832 85.2497 117.832H84.7057V117.328ZM84.7057 113.096H87.9777V113.592H85.2897V117.512H84.7057V113.096ZM89.6577 112.408H90.2497V119.616H89.6577V112.408ZM87.5457 115.04H89.9057V115.536H87.5457V115.04ZM94.6571 116.208H95.2411V117.48H94.6571V116.208ZM91.6971 115.928H98.2011V116.416H91.6971V115.928ZM92.4171 117.304H97.3931V119.608H96.8011V117.784H92.4171V117.304ZM94.9451 112.576C96.4971 112.576 97.4731 113.096 97.4731 113.96C97.4731 114.824 96.4971 115.336 94.9451 115.336C93.4011 115.336 92.4251 114.824 92.4251 113.96C92.4251 113.096 93.4011 112.576 94.9451 112.576ZM94.9451 113.056C93.7771 113.056 93.0331 113.392 93.0331 113.96C93.0331 114.528 93.7771 114.864 94.9451 114.864C96.1211 114.864 96.8651 114.528 96.8651 113.96C96.8651 113.392 96.1211 113.056 94.9451 113.056ZM106.134 112.416H106.726V116.504H106.134V112.416ZM102.102 116.936H106.726V119.512H102.102V116.936ZM106.15 117.416H102.678V119.024H106.15V117.416ZM102.75 112.696H103.238V113.392C103.238 114.736 102.39 115.864 101.206 116.32L100.91 115.848C101.974 115.456 102.75 114.472 102.75 113.392V112.696ZM102.854 112.696H103.342V113.392C103.342 114.432 104.134 115.352 105.182 115.712L104.886 116.176C103.71 115.76 102.854 114.696 102.854 113.392V112.696ZM109.037 115.8H113.965V116.288H109.037V115.8ZM108.197 118.192H114.733V118.688H108.197V118.192ZM111.157 116.008H111.741V118.4H111.157V116.008ZM109.037 112.992H113.885V113.488H109.629V116.016H109.037V112.992ZM120.522 112.904H121.154C121.154 114.712 119.802 115.952 117.706 116.488L117.466 116.008C119.378 115.544 120.522 114.512 120.522 113.176V112.904ZM117.826 112.904H120.842V113.392H117.826V112.904ZM122.626 112.408H123.226V116.36H122.626V112.408ZM118.554 116.776H123.346V117.256H118.554V116.776ZM118.49 119.016H123.426V119.496H118.49V119.016ZM119.562 117.008H120.146V119.24H119.562V117.008ZM121.746 117.008H122.338V119.24H121.746V117.008ZM125.393 113.152H130.041V113.64H125.393V113.152ZM124.697 118.08H131.209V118.576H124.697V118.08ZM127.273 115.488H127.857V118.328H127.273V115.488ZM129.817 113.152H130.401V113.864C130.401 114.752 130.401 115.736 130.145 117.176L129.545 117.104C129.817 115.736 129.817 114.728 129.817 113.864V113.152ZM2.84628 127.752H3.43028V129.12H2.84628V127.752ZM1.79028 128.904H2.37428V129.712H5.89428V128.904H6.48628V131.512H1.79028V128.904ZM2.37428 130.176V131.024H5.89428V130.176H2.37428ZM5.88628 124.408H6.48628V128.536H5.88628V124.408ZM0.742281 128.072L0.654281 127.584C2.01428 127.584 3.81428 127.576 5.39028 127.368L5.43828 127.8C3.81428 128.064 2.06228 128.072 0.742281 128.072ZM2.75828 124.576H3.23828V124.952C3.23828 125.984 2.42228 126.8 1.25428 127.104L0.982281 126.648C2.01428 126.392 2.75828 125.736 2.75828 124.952V124.576ZM2.88628 124.576H3.36628V124.952C3.36628 125.704 4.11828 126.32 5.13428 126.544L4.87828 126.992C3.71828 126.72 2.88628 125.96 2.88628 124.952V124.576ZM13.5417 124.408H14.1177V131.608H13.5417V124.408ZM10.3657 127.384H12.2297V127.864H10.3657V127.384ZM12.0457 124.6H12.6057V131.232H12.0457V124.6ZM10.5177 125.328H11.0857C11.0857 127.184 10.3017 128.896 8.37366 130.048L8.02166 129.616C9.72566 128.6 10.5177 127.112 10.5177 125.432V125.328ZM8.31766 125.328H10.7417V125.816H8.31766V125.328ZM22.4343 124.4H23.0263V131.616H22.4343V124.4ZM19.2423 124.968C20.2983 124.968 21.0583 125.944 21.0583 127.472C21.0583 128.992 20.2983 129.976 19.2423 129.976C18.1783 129.976 17.4183 128.992 17.4183 127.472C17.4183 125.944 18.1783 124.968 19.2423 124.968ZM19.2423 125.496C18.5063 125.496 17.9943 126.288 17.9943 127.472C17.9943 128.656 18.5063 129.448 19.2423 129.448C19.9783 129.448 20.4823 128.656 20.4823 127.472C20.4823 126.288 19.9783 125.496 19.2423 125.496ZM24.4897 125.664H28.0897V126.152H24.4897V125.664ZM26.2897 126.664C27.1857 126.664 27.8337 127.336 27.8337 128.288C27.8337 129.256 27.1857 129.92 26.2897 129.92C25.4017 129.92 24.7537 129.256 24.7537 128.288C24.7537 127.336 25.4017 126.664 26.2897 126.664ZM26.2897 127.168C25.7057 127.168 25.2817 127.64 25.2817 128.288C25.2817 128.944 25.7057 129.416 26.2897 129.416C26.8817 129.416 27.3057 128.944 27.3057 128.288C27.3057 127.64 26.8817 127.168 26.2897 127.168ZM30.0177 124.408H30.5857V131.608H30.0177V124.408ZM28.8177 127.456H30.2097V127.952H28.8177V127.456ZM28.4657 124.576H29.0257V131.248H28.4657V124.576ZM26.0017 124.616H26.5857V125.96H26.0017V124.616ZM36.793 124.408H37.385V131.608H36.793V124.408ZM37.241 127.392H38.585V127.888H37.241V127.392ZM31.825 125.568H36.081V126.056H31.825V125.568ZM33.993 126.688C35.001 126.688 35.729 127.368 35.729 128.336C35.729 129.304 35.001 129.976 33.993 129.976C32.985 129.976 32.249 129.304 32.249 128.336C32.249 127.368 32.985 126.688 33.993 126.688ZM33.993 127.184C33.305 127.184 32.809 127.664 32.809 128.336C32.809 129 33.305 129.48 33.993 129.48C34.665 129.48 35.169 129 35.169 128.336C35.169 127.664 34.665 127.184 33.993 127.184ZM33.681 124.488H34.273V125.8H33.681V124.488ZM42.4724 126.032H44.6964V126.528H42.4724V126.032ZM42.4724 128.32H44.6964V128.816H42.4724V128.32ZM41.1364 124.968C42.1844 124.968 42.9204 125.944 42.9204 127.472C42.9204 128.992 42.1844 129.976 41.1364 129.976C40.0964 129.976 39.3604 128.992 39.3604 127.472C39.3604 125.944 40.0964 124.968 41.1364 124.968ZM41.1364 125.496C40.4164 125.496 39.9204 126.288 39.9204 127.472C39.9204 128.656 40.4164 129.448 41.1364 129.448C41.8564 129.448 42.3604 128.656 42.3604 127.472C42.3604 126.288 41.8564 125.496 41.1364 125.496ZM44.5444 124.4H45.1364V131.616H44.5444V124.4ZM53.669 124.408H54.253V131.608H53.669V124.408ZM51.557 125.184H52.141C52.141 127.248 51.165 129.08 48.789 130.24L48.469 129.768C50.557 128.76 51.557 127.192 51.557 125.28V125.184ZM48.789 125.184H51.805V125.672H48.789V125.184ZM56.5964 124.696H57.1804V125.632H60.7884V124.696H61.3804V127.568H56.5964V124.696ZM57.1804 126.112V127.088H60.7884V126.112H57.1804ZM55.7244 128.36H62.2284V128.848H55.7244V128.36ZM58.6844 127.272H59.2764V128.584H58.6844V127.272ZM56.5724 130.952H61.5164V131.448H56.5724V130.952ZM56.5724 129.456H57.1644V131.12H56.5724V129.456ZM70.385 124.408H70.961V131.608H70.385V124.408ZM69.177 127.336H70.593V127.824H69.177V127.336ZM67.369 125.344H67.937C67.937 127.16 67.289 128.896 65.233 130.056L64.881 129.624C66.721 128.608 67.369 127.104 67.369 125.448V125.344ZM65.145 125.344H67.569V125.832H65.145V125.344ZM68.785 124.6H69.353V131.248H68.785V124.6ZM72.6644 124.768H73.2484V127.968H72.6644V124.768ZM72.6644 127.808H73.1844C74.3764 127.808 75.2564 127.752 76.2644 127.552L76.3444 128.04C75.2964 128.248 74.4004 128.296 73.1844 128.296H72.6644V127.808ZM77.5364 124.408H78.1284V128.648H77.5364V124.408ZM75.4644 125.232H77.7044V125.712H75.4644V125.232ZM75.4644 126.512H77.7044V126.984H75.4644V126.512ZM73.5364 128.976H78.1284V131.512H73.5364V128.976ZM77.5524 129.456H74.1124V131.024H77.5524V129.456ZM82.8318 124.536C84.4158 124.536 85.3598 124.976 85.3598 125.784C85.3598 126.592 84.4158 127.04 82.8318 127.04C81.2558 127.04 80.3118 126.592 80.3118 125.784C80.3118 124.976 81.2558 124.536 82.8318 124.536ZM82.8318 124.984C81.6398 124.984 80.9278 125.28 80.9278 125.784C80.9278 126.288 81.6398 126.584 82.8318 126.584C84.0318 126.584 84.7438 126.288 84.7438 125.784C84.7438 125.28 84.0318 124.984 82.8318 124.984ZM79.5838 127.544H86.0878V128.024H79.5838V127.544ZM80.3758 128.68H85.2478V130.264H80.9758V131.176H80.3998V129.824H84.6638V129.136H80.3758V128.68ZM80.3998 131.056H85.4718V131.528H80.3998V131.056ZM89.0684 128.136H89.6044C91.0684 128.136 91.8684 128.104 92.8284 127.928L92.8924 128.408C91.9084 128.592 91.0844 128.616 89.6044 128.616H89.0684V128.136ZM89.0684 124.984H92.3404V125.472H89.6524V128.296H89.0684V124.984ZM89.4604 126.528H92.2124V127.008H89.4604V126.528ZM93.7084 124.4H94.3004V129.744H93.7084V124.4ZM94.1084 126.664H95.3804V127.16H94.1084V126.664ZM89.8444 130.952H94.6364V131.448H89.8444V130.952ZM89.8444 129.264H90.4364V131.2H89.8444V129.264ZM96.4278 128.136H96.9638C98.4278 128.136 99.2278 128.104 100.188 127.928L100.252 128.408C99.2678 128.592 98.4438 128.616 96.9638 128.616H96.4278V128.136ZM96.4278 124.984H99.6998V125.472H97.0118V128.296H96.4278V124.984ZM96.8198 126.528H99.5718V127.008H96.8198V126.528ZM101.068 124.4H101.66V129.744H101.068V124.4ZM101.468 126.664H102.74V127.16H101.468V126.664ZM97.2038 130.952H101.996V131.448H97.2038V130.952ZM97.2038 129.264H97.7958V131.2H97.2038V129.264ZM108.371 124.408H108.963V131.608H108.371V124.408ZM108.819 127.392H110.163V127.888H108.819V127.392ZM103.403 125.568H107.659V126.056H103.403V125.568ZM105.571 126.688C106.579 126.688 107.307 127.368 107.307 128.336C107.307 129.304 106.579 129.976 105.571 129.976C104.563 129.976 103.827 129.304 103.827 128.336C103.827 127.368 104.563 126.688 105.571 126.688ZM105.571 127.184C104.883 127.184 104.387 127.664 104.387 128.336C104.387 129 104.883 129.48 105.571 129.48C106.243 129.48 106.747 129 106.747 128.336C106.747 127.664 106.243 127.184 105.571 127.184ZM105.259 124.488H105.851V125.8H105.259V124.488ZM116.339 124.408H116.915V131.608H116.339V124.408ZM113.163 127.384H115.027V127.864H113.163V127.384ZM114.843 124.6H115.403V131.232H114.843V124.6ZM113.315 125.328H113.883C113.883 127.184 113.099 128.896 111.171 130.048L110.819 129.616C112.523 128.6 113.315 127.112 113.315 125.432V125.328ZM111.115 125.328H113.539V125.816H111.115V125.328ZM124.927 124.408H125.519V128.584H124.927V124.408ZM125.255 126.264H126.599V126.76H125.255V126.264ZM121.015 128.912H121.599V129.712H124.935V128.912H125.519V131.512H121.015V128.912ZM121.599 130.176V131.032H124.935V130.176H121.599ZM119.967 125.168H124.223V125.648H119.967V125.168ZM122.095 126.008C123.119 126.008 123.807 126.496 123.807 127.264C123.807 128.032 123.119 128.528 122.095 128.528C121.063 128.528 120.375 128.032 120.375 127.264C120.375 126.496 121.063 126.008 122.095 126.008ZM122.095 126.456C121.399 126.456 120.935 126.784 120.935 127.264C120.935 127.752 121.399 128.072 122.095 128.072C122.775 128.072 123.239 127.752 123.239 127.264C123.239 126.784 122.775 126.456 122.095 126.456ZM121.799 124.336H122.391V125.424H121.799V124.336ZM132.591 124.408H133.175V131.608H132.591V124.408ZM127.775 125.112H128.359V129.576H127.775V125.112ZM127.775 129.224H128.359C129.463 129.224 130.591 129.136 131.815 128.88L131.887 129.392C130.631 129.648 129.503 129.736 128.359 129.736H127.775V129.224ZM139.582 124.4H140.182V131.616H139.582V124.4ZM140.038 127.28H141.382V127.776H140.038V127.28ZM134.974 129.304H135.534C136.886 129.304 137.814 129.256 138.886 129.056L138.958 129.56C137.846 129.768 136.91 129.808 135.534 129.808H134.974V129.304ZM134.974 125.112H138.318V125.6H135.566V129.528H134.974V125.112ZM142.685 131.112C142.421 131.112 142.197 130.896 142.197 130.592C142.197 130.272 142.421 130.064 142.685 130.064C142.957 130.064 143.181 130.272 143.181 130.592C143.181 130.896 142.957 131.112 142.685 131.112Z" fill="#666666"/>
<rect x="30" width="82" height="75" fill="#F3F3F3"/>
</svg>
