<svg width="630" height="332" viewBox="0 0 630 332" fill="none" xmlns="http://www.w3.org/2000/svg">
<g filter="url(#filter0_d_1_4857)">
<rect x="8" y="4" width="614" height="316" rx="10" fill="white"/>
</g>
<path d="M8 267H622V310C622 315.523 617.523 320 612 320H18C12.4772 320 8 315.523 8 310V267Z" fill="#333333"/>
<path d="M315 267H622V310C622 315.523 617.523 320 612 320H315V267Z" fill="#EE7D00"/>
<path d="M43.5566 64.7969H41.1543V47.0234H43.5566V64.7969ZM39.9629 63.957H37.5996V55.7148H35.8809V53.4883H37.5996V47.375H39.9629V63.957ZM36.291 51.0469H35.1582V58.4395C35.7832 58.3809 36.2585 58.3255 36.584 58.2734L36.7598 60.0703C35.5163 60.3372 34.1458 60.5163 32.6484 60.6074C31.1576 60.6921 29.6374 60.7344 28.0879 60.7344L27.8145 58.6836H29.2988V51.0469H28.1465V49.0352H36.291V51.0469ZM31.5059 58.6445C31.584 58.6445 31.6621 58.6413 31.7402 58.6348C31.8184 58.6283 31.8965 58.625 31.9746 58.625C32.1699 58.625 32.4759 58.612 32.8926 58.5859V51.0469H31.5059V58.6445ZM59.7777 64.8359H57.2582V47.0234H59.7777V64.8359ZM50.1293 48.2734C51.0212 48.2734 51.8188 48.5339 52.5219 49.0547C53.2315 49.5755 53.7882 50.3145 54.1918 51.2715C54.5954 52.2285 54.7973 53.3385 54.7973 54.6016C54.7973 55.8776 54.5954 56.9974 54.1918 57.9609C53.7882 58.918 53.2315 59.6569 52.5219 60.1777C51.8188 60.6921 51.0212 60.9492 50.1293 60.9492C49.2178 60.9492 48.404 60.6921 47.6879 60.1777C46.9717 59.6569 46.4118 58.918 46.0082 57.9609C45.6111 56.9974 45.4158 55.8776 45.4223 54.6016C45.4158 53.3385 45.6111 52.2285 46.0082 51.2715C46.4118 50.3145 46.9717 49.5755 47.6879 49.0547C48.404 48.5339 49.2178 48.2734 50.1293 48.2734ZM50.1293 50.5195C49.6671 50.5195 49.2602 50.679 48.9086 50.998C48.5635 51.3105 48.2966 51.7728 48.1078 52.3848C47.919 52.9967 47.8246 53.7357 47.8246 54.6016C47.8246 55.474 47.919 56.2161 48.1078 56.8281C48.2966 57.4401 48.5635 57.9023 48.9086 58.2148C49.2602 58.5273 49.6671 58.6836 50.1293 58.6836C50.585 58.6836 50.9822 58.5273 51.3207 58.2148C51.6592 57.8958 51.9229 57.4303 52.1117 56.8184C52.3005 56.2064 52.3949 55.4674 52.3949 54.6016C52.3949 53.7422 52.3005 53.0065 52.1117 52.3945C51.9229 51.776 51.656 51.3105 51.3109 50.998C50.9724 50.679 50.5785 50.5195 50.1293 50.5195ZM68.6746 51.8672C68.6746 52.8503 68.8406 53.8171 69.1727 54.7676C69.5112 55.7116 70.0158 56.5612 70.6863 57.3164C71.3569 58.0716 72.1707 58.651 73.1277 59.0547L71.7801 61.0078C70.7579 60.5781 69.8823 59.9466 69.1531 59.1133C68.424 58.2799 67.851 57.3066 67.4344 56.1934C67.0242 57.4043 66.448 58.4688 65.7059 59.3867C64.9637 60.2982 64.0848 60.9883 63.0691 61.457L61.6434 59.4844C62.5939 59.0612 63.4044 58.446 64.075 57.6387C64.7521 56.8314 65.2599 55.9264 65.5984 54.9238C65.9435 53.9147 66.116 52.8958 66.116 51.8672V50.7734H62.3465V48.7422H72.3855V50.7734H68.6746V51.8672ZM76.6629 64.7969H74.1434V47.0234H76.6629V64.7969ZM99.0855 57.8438H82.8746V55.832H89.7105V54.3281H84.9449V47.4531H87.4059V49.0742H94.5348V47.4531H97.0152V54.3281H92.2105V55.832H99.0855V57.8438ZM97.1129 64.7969H94.6324V61.0273H84.6715V59.0547H97.1129V64.7969ZM94.5348 52.375V50.9102H87.4059V52.375H94.5348ZM115.131 64.7969H112.768V47.0234H115.131V64.7969ZM111.498 63.9766H109.154V55.1289H106.811V53.1172H109.154V47.3164H111.498V63.9766ZM105.385 51.7891C105.385 53.4036 105.665 54.8717 106.225 56.1934C106.791 57.5085 107.683 58.5143 108.9 59.2109L107.436 61.0469C106.667 60.5911 106.013 59.9857 105.473 59.2305C104.939 58.4753 104.519 57.6029 104.213 56.6133C103.894 57.694 103.458 58.6478 102.904 59.4746C102.351 60.3014 101.68 60.9557 100.893 61.4375L99.3887 59.6016C100.222 59.0938 100.906 58.4264 101.439 57.5996C101.98 56.7663 102.37 55.8548 102.611 54.8652C102.859 53.8757 102.982 52.8503 102.982 51.7891V50.832H100.072V48.8398H108.08V50.832H105.385V51.7891Z" fill="#333333"/>
<path d="M153.044 287.949H155.446V289.98H153.044V293.965H150.544V284.023H153.044V287.949ZM147.555 287.109H142.126V291.211C143.76 291.211 145.085 291.175 146.1 291.104C147.123 291.025 148.122 290.885 149.098 290.684L149.352 292.676C148.265 292.904 147.129 293.06 145.944 293.145C144.766 293.223 143.161 293.262 141.13 293.262H139.626V285.117H147.555V287.109ZM153.161 296.816H143.942V299.609H153.493V301.602H141.423V294.824H153.161V296.816ZM170.769 301.797H168.249V284.023H170.769V301.797ZM165.437 285.879C165.437 287.78 165.18 289.508 164.665 291.064C164.157 292.62 163.298 294.049 162.087 295.352C160.876 296.647 159.245 297.78 157.195 298.75L155.886 296.758C157.403 296.042 158.653 295.244 159.636 294.365C160.626 293.486 161.381 292.513 161.902 291.445C162.429 290.371 162.761 289.167 162.898 287.832H156.843V285.879H165.437Z" fill="white"/>
<path d="M467.161 288.121H469.427V290.172H467.161V295.113H464.661V283.043H467.161V288.121ZM452.747 292.828C454.602 292.828 456.041 292.815 457.063 292.789V291.793C456.087 291.656 455.318 291.363 454.759 290.914C454.205 290.458 453.932 289.892 453.938 289.215C453.932 288.674 454.108 288.206 454.466 287.809C454.824 287.405 455.332 287.096 455.989 286.881C456.653 286.666 457.421 286.559 458.294 286.559C459.16 286.559 459.918 286.666 460.569 286.881C461.227 287.096 461.735 287.405 462.093 287.809C462.457 288.206 462.643 288.674 462.649 289.215C462.643 289.892 462.363 290.455 461.809 290.904C461.263 291.354 460.507 291.646 459.544 291.783V292.701C461.087 292.63 462.519 292.509 463.841 292.34L464.016 294.059C462.356 294.352 460.638 294.544 458.86 294.635C457.083 294.719 455.13 294.762 453.001 294.762L452.747 292.828ZM467.161 300.797H464.661V297.75H455.013V295.836H467.161V300.797ZM463.391 286.148H453.216V284.332H457.063V282.887H459.544V284.332H463.391V286.148ZM458.294 288.219C457.643 288.219 457.148 288.3 456.809 288.463C456.477 288.626 456.315 288.876 456.321 289.215C456.315 289.534 456.481 289.785 456.819 289.967C457.164 290.143 457.656 290.23 458.294 290.23C458.919 290.23 459.401 290.143 459.739 289.967C460.078 289.791 460.253 289.54 460.266 289.215C460.247 288.551 459.589 288.219 458.294 288.219ZM484.71 295.816H482.21V283.043H484.71V295.816ZM485.179 300.484H472.796V294.527H475.316V298.492H485.179V300.484ZM474.964 284.176C475.869 284.176 476.689 284.368 477.425 284.752C478.167 285.136 478.753 285.67 479.183 286.354C479.613 287.031 479.827 287.796 479.827 288.648C479.827 289.514 479.613 290.292 479.183 290.982C478.76 291.666 478.177 292.2 477.435 292.584C476.693 292.968 475.869 293.16 474.964 293.16C474.059 293.16 473.236 292.968 472.493 292.584C471.751 292.2 471.165 291.666 470.736 290.982C470.312 290.292 470.101 289.514 470.101 288.648C470.101 287.796 470.316 287.031 470.745 286.354C471.175 285.67 471.758 285.136 472.493 284.752C473.236 284.368 474.059 284.176 474.964 284.176ZM474.964 286.344C474.502 286.337 474.085 286.428 473.714 286.617C473.343 286.799 473.053 287.066 472.845 287.418C472.637 287.77 472.536 288.18 472.542 288.648C472.536 289.13 472.637 289.55 472.845 289.908C473.053 290.26 473.34 290.53 473.704 290.719C474.075 290.901 474.495 290.992 474.964 290.992C475.42 290.992 475.827 290.901 476.185 290.719C476.549 290.53 476.836 290.26 477.044 289.908C477.259 289.55 477.366 289.13 477.366 288.648C477.366 288.18 477.259 287.77 477.044 287.418C476.836 287.066 476.549 286.799 476.185 286.617C475.82 286.428 475.413 286.337 474.964 286.344Z" fill="white"/>
<path d="M29.3525 227H28.1767V217.102H29.3525V220.738H29.4482C29.8219 219.9 30.551 219.48 31.6357 219.48C32.4195 219.48 33.037 219.717 33.4882 220.191C33.9394 220.661 34.165 221.358 34.165 222.283V227H32.9892V222.365C32.9892 221.786 32.8365 221.338 32.5312 221.019C32.2304 220.695 31.8134 220.533 31.2802 220.533C30.9065 220.533 30.5738 220.613 30.2822 220.772C29.995 220.927 29.7672 221.158 29.5986 221.463C29.4345 221.764 29.3525 222.124 29.3525 222.543V227ZM39.0119 220.561H37.4533V224.867C37.4533 225.305 37.5399 225.599 37.7131 225.749C37.8863 225.899 38.1232 225.975 38.424 225.975C38.6519 225.975 38.8843 225.965 39.1213 225.947V227.041C38.8843 227.077 38.6109 227.096 38.301 227.096C37.9546 227.096 37.6265 227.025 37.3166 226.884C37.0067 226.738 36.7538 226.519 36.5578 226.228C36.3619 225.936 36.2639 225.583 36.2639 225.168V220.561H35.1428V219.576H36.2639V217.799H37.4533V219.576H39.0119V220.561ZM43.4897 220.561H41.9311V224.867C41.9311 225.305 42.0177 225.599 42.1909 225.749C42.3641 225.899 42.6011 225.975 42.9018 225.975C43.1297 225.975 43.3621 225.965 43.5991 225.947V227.041C43.3621 227.077 43.0887 227.096 42.7788 227.096C42.4324 227.096 42.1043 227.025 41.7944 226.884C41.4845 226.738 41.2316 226.519 41.0356 226.228C40.8397 225.936 40.7417 225.583 40.7417 225.168V220.561H39.6206V219.576H40.7417V217.799H41.9311V219.576H43.4897V220.561ZM44.7273 219.576H45.8621V220.752H45.9988C46.1446 220.515 46.2859 220.317 46.4226 220.157C46.5593 219.993 46.7713 219.84 47.0584 219.699C47.3455 219.553 47.7078 219.48 48.1453 219.48C48.7651 219.48 49.3119 219.638 49.7859 219.952C50.2644 220.262 50.6358 220.706 50.9002 221.285C51.169 221.864 51.3035 222.538 51.3035 223.309C51.3035 224.079 51.169 224.756 50.9002 225.339C50.6358 225.918 50.2644 226.364 49.7859 226.679C49.3119 226.993 48.7696 227.15 48.1589 227.15C47.726 227.15 47.3637 227.08 47.072 226.938C46.7849 226.793 46.5685 226.635 46.4226 226.467C46.2768 226.294 46.1355 226.093 45.9988 225.865H45.9031V229.789H44.7273V219.576ZM45.8757 223.281C45.8757 223.842 45.9578 224.334 46.1218 224.758C46.2859 225.182 46.5274 225.512 46.8464 225.749C47.1655 225.981 47.5483 226.098 47.9949 226.098C48.4506 226.098 48.838 225.977 49.157 225.735C49.4806 225.489 49.7221 225.154 49.8816 224.73C50.0457 224.302 50.1277 223.819 50.1277 223.281C50.1277 222.757 50.0457 222.288 49.8816 221.873C49.7221 221.458 49.4828 221.132 49.1638 220.896C48.8448 220.654 48.4552 220.533 47.9949 220.533C47.5392 220.533 47.1518 220.647 46.8328 220.875C46.5183 221.103 46.2791 221.424 46.115 221.839C45.9555 222.249 45.8757 222.73 45.8757 223.281ZM56.6836 221.504C56.597 221.18 56.4284 220.93 56.1778 220.752C55.9317 220.57 55.599 220.479 55.1797 220.479C54.8789 220.479 54.6078 220.529 54.3663 220.629C54.1293 220.725 53.9424 220.859 53.8057 221.032C53.6735 221.201 53.6075 221.39 53.6075 221.6C53.6075 221.846 53.71 222.055 53.9151 222.229C54.1247 222.402 54.446 222.538 54.8789 222.639L55.9864 222.912C56.6517 223.072 57.1485 223.318 57.4766 223.65C57.8047 223.979 57.9688 224.402 57.9688 224.922C57.9688 225.355 57.8526 225.74 57.6202 226.077C57.3923 226.41 57.0596 226.672 56.6221 226.863C56.1846 227.055 55.6628 227.15 55.0567 227.15C54.2227 227.15 53.5619 226.973 53.0743 226.617C52.5866 226.257 52.295 225.738 52.1993 225.059H53.4297C53.4981 225.419 53.6644 225.688 53.9288 225.865C54.1931 226.038 54.5599 226.125 55.0293 226.125C55.558 226.125 55.9773 226.022 56.2871 225.817C56.597 225.612 56.752 225.337 56.752 224.99C56.752 224.726 56.654 224.507 56.458 224.334C56.2621 224.156 55.9545 224.02 55.5352 223.924L54.4141 223.664C53.767 223.514 53.2748 223.268 52.9375 222.926C52.6003 222.584 52.4317 222.165 52.4317 221.668C52.4317 221.249 52.5456 220.873 52.7735 220.54C53.0059 220.207 53.3295 219.948 53.7442 219.761C54.1635 219.574 54.642 219.48 55.1797 219.48C55.681 219.48 56.1231 219.565 56.5059 219.733C56.8887 219.902 57.1918 220.139 57.4151 220.444C57.6429 220.75 57.7819 221.103 57.8321 221.504H56.6836ZM60.054 227.082C59.8945 227.082 59.7464 227.043 59.6097 226.966C59.4775 226.884 59.3704 226.774 59.2884 226.638C59.2109 226.501 59.1745 226.353 59.179 226.193C59.1745 226.038 59.2109 225.895 59.2884 225.763C59.3704 225.626 59.4775 225.519 59.6097 225.441C59.7464 225.359 59.8945 225.318 60.054 225.318C60.209 225.318 60.3525 225.359 60.4847 225.441C60.6214 225.519 60.7285 225.626 60.806 225.763C60.888 225.895 60.929 226.038 60.929 226.193C60.929 226.353 60.888 226.501 60.806 226.638C60.7285 226.774 60.6214 226.884 60.4847 226.966C60.3525 227.043 60.209 227.082 60.054 227.082ZM60.054 221.586C59.8945 221.586 59.7464 221.547 59.6097 221.47C59.4775 221.388 59.3704 221.278 59.2884 221.142C59.2109 221.005 59.1745 220.857 59.179 220.697C59.1745 220.542 59.2109 220.399 59.2884 220.267C59.3704 220.13 59.4775 220.023 59.6097 219.945C59.7464 219.863 59.8945 219.822 60.054 219.822C60.209 219.822 60.3525 219.863 60.4847 219.945C60.6214 220.023 60.7285 220.13 60.806 220.267C60.888 220.399 60.929 220.542 60.929 220.697C60.929 220.857 60.888 221.005 60.806 221.142C60.7285 221.278 60.6214 221.388 60.4847 221.47C60.3525 221.547 60.209 221.586 60.054 221.586ZM62.8229 228.49H61.7564L64.942 216.637H66.0221L62.8229 228.49ZM67.2186 228.49H66.1522L69.3378 216.637H70.4179L67.2186 228.49ZM72.0382 229.789C71.8013 229.789 71.5825 229.78 71.382 229.762V228.709C71.5461 228.727 71.7375 228.736 71.9562 228.736C72.1522 228.736 72.3162 228.716 72.4484 228.675C72.5806 228.634 72.7127 228.531 72.8449 228.367C72.977 228.208 73.1046 227.957 73.2277 227.615L73.4464 227.055L70.6984 219.576H71.9836L74.007 225.469H74.089L76.1125 219.576H77.3976L74.2531 228.066C74.0343 228.645 73.7427 229.076 73.3781 229.358C73.0135 229.646 72.5669 229.789 72.0382 229.789ZM78.4164 219.576H79.5512V220.738H79.6469C79.8064 220.337 80.0571 220.027 80.3989 219.809C80.7452 219.59 81.1599 219.48 81.643 219.48C82.117 219.48 82.5203 219.59 82.853 219.809C83.1857 220.023 83.4431 220.333 83.6254 220.738H83.7075C83.9034 220.346 84.1928 220.039 84.5756 219.815C84.9584 219.592 85.4119 219.48 85.936 219.48C86.3871 219.48 86.7814 219.574 87.1186 219.761C87.4604 219.948 87.727 220.232 87.9184 220.615C88.1098 220.993 88.2055 221.467 88.2055 222.037V227H87.0297V222.051C87.0297 221.536 86.8885 221.155 86.6059 220.909C86.3233 220.659 85.9633 220.533 85.5258 220.533C85.1886 220.533 84.8969 220.604 84.6508 220.745C84.4047 220.886 84.2179 221.08 84.0903 221.326C83.9627 221.572 83.8989 221.855 83.8989 222.174V227H82.7094V221.928C82.7094 221.654 82.6479 221.413 82.5248 221.203C82.4018 220.989 82.2286 220.825 82.0053 220.711C81.7866 220.592 81.5382 220.533 81.2602 220.533C80.964 220.533 80.6883 220.613 80.433 220.772C80.1778 220.927 79.9728 221.144 79.8178 221.422C79.6674 221.7 79.5922 222.014 79.5922 222.365V227H78.4164V219.576ZM93.9411 221.504C93.8545 221.18 93.6859 220.93 93.4353 220.752C93.1892 220.57 92.8565 220.479 92.4372 220.479C92.1364 220.479 91.8653 220.529 91.6238 220.629C91.3868 220.725 91.1999 220.859 91.0632 221.032C90.931 221.201 90.865 221.39 90.865 221.6C90.865 221.846 90.9675 222.055 91.1726 222.229C91.3822 222.402 91.7035 222.538 92.1364 222.639L93.2439 222.912C93.9092 223.072 94.406 223.318 94.7341 223.65C95.0622 223.979 95.2263 224.402 95.2263 224.922C95.2263 225.355 95.1101 225.74 94.8777 226.077C94.6498 226.41 94.3171 226.672 93.8796 226.863C93.4421 227.055 92.9203 227.15 92.3142 227.15C91.4802 227.15 90.8194 226.973 90.3318 226.617C89.8441 226.257 89.5525 225.738 89.4568 225.059H90.6872C90.7556 225.419 90.9219 225.688 91.1863 225.865C91.4506 226.038 91.8174 226.125 92.2868 226.125C92.8155 226.125 93.2348 226.022 93.5447 225.817C93.8545 225.612 94.0095 225.337 94.0095 224.99C94.0095 224.726 93.9115 224.507 93.7155 224.334C93.5196 224.156 93.212 224.02 92.7927 223.924L91.6716 223.664C91.0245 223.514 90.5323 223.268 90.195 222.926C89.8578 222.584 89.6892 222.165 89.6892 221.668C89.6892 221.249 89.8031 220.873 90.031 220.54C90.2634 220.207 90.587 219.948 91.0017 219.761C91.421 219.574 91.8995 219.48 92.4372 219.48C92.9385 219.48 93.3806 219.565 93.7634 219.733C94.1462 219.902 94.4493 220.139 94.6726 220.444C94.9004 220.75 95.0394 221.103 95.0896 221.504H93.9411ZM99.5127 227.15C98.8245 227.15 98.223 226.989 97.708 226.665C97.1976 226.337 96.8057 225.883 96.5322 225.305C96.2588 224.726 96.1221 224.065 96.1221 223.322C96.1221 222.575 96.2611 221.912 96.5391 221.333C96.8216 220.75 97.2158 220.296 97.7217 219.973C98.2321 219.645 98.82 219.48 99.4854 219.48C100.009 219.48 100.483 219.578 100.907 219.774C101.331 219.966 101.675 220.239 101.939 220.595C102.208 220.946 102.375 221.354 102.438 221.818H101.263C101.208 221.581 101.103 221.365 100.948 221.169C100.793 220.973 100.593 220.816 100.347 220.697C100.105 220.579 99.8271 220.52 99.5127 220.52C99.0752 220.52 98.6878 220.633 98.3506 220.861C98.0179 221.089 97.7581 221.413 97.5713 221.832C97.389 222.247 97.2979 222.73 97.2979 223.281C97.2979 223.851 97.3867 224.348 97.5645 224.771C97.7467 225.195 98.0042 225.523 98.3369 225.756C98.6742 225.984 99.0661 226.098 99.5127 226.098C99.9548 226.098 100.331 225.986 100.641 225.763C100.955 225.535 101.162 225.218 101.263 224.812H102.438C102.375 225.259 102.215 225.66 101.96 226.016C101.705 226.367 101.368 226.645 100.948 226.85C100.529 227.05 100.05 227.15 99.5127 227.15ZM106.643 227.15C105.973 227.15 105.38 226.993 104.866 226.679C104.355 226.36 103.959 225.911 103.676 225.332C103.394 224.753 103.252 224.083 103.252 223.322C103.252 222.561 103.394 221.891 103.676 221.312C103.959 220.729 104.355 220.278 104.866 219.959C105.38 219.64 105.973 219.48 106.643 219.48C107.308 219.48 107.894 219.64 108.4 219.959C108.91 220.278 109.304 220.729 109.582 221.312C109.865 221.891 110.006 222.561 110.006 223.322C110.006 224.083 109.865 224.753 109.582 225.332C109.304 225.911 108.91 226.36 108.4 226.679C107.894 226.993 107.308 227.15 106.643 227.15ZM106.643 226.111C107.121 226.111 107.525 225.986 107.853 225.735C108.181 225.48 108.425 225.143 108.584 224.724C108.748 224.3 108.83 223.833 108.83 223.322C108.83 222.812 108.748 222.345 108.584 221.921C108.425 221.497 108.181 221.158 107.853 220.902C107.525 220.647 107.121 220.52 106.643 220.52C106.155 220.52 105.745 220.647 105.412 220.902C105.084 221.158 104.838 221.497 104.674 221.921C104.51 222.345 104.428 222.812 104.428 223.322C104.428 223.833 104.51 224.3 104.674 224.724C104.838 225.143 105.084 225.48 105.412 225.735C105.745 225.986 106.155 226.111 106.643 226.111ZM112.105 227.082C111.946 227.082 111.797 227.043 111.661 226.966C111.529 226.884 111.421 226.774 111.339 226.638C111.262 226.501 111.225 226.353 111.23 226.193C111.225 226.038 111.262 225.895 111.339 225.763C111.421 225.626 111.529 225.519 111.661 225.441C111.797 225.359 111.946 225.318 112.105 225.318C112.26 225.318 112.404 225.359 112.536 225.441C112.672 225.519 112.78 225.626 112.857 225.763C112.939 225.895 112.98 226.038 112.98 226.193C112.98 226.353 112.939 226.501 112.857 226.638C112.78 226.774 112.672 226.884 112.536 226.966C112.404 227.043 112.26 227.082 112.105 227.082ZM114.546 217.102H115.722V222.857H115.858L119.071 219.576H120.52L117.389 222.755L120.753 227H119.263L116.508 223.5L115.722 224.231V227H114.546V217.102ZM121.498 219.576H122.633V220.711H122.715C122.852 220.333 123.095 220.03 123.446 219.802C123.797 219.569 124.192 219.453 124.629 219.453C124.857 219.453 125.062 219.462 125.244 219.48V220.67C125.194 220.652 125.096 220.633 124.95 220.615C124.809 220.597 124.67 220.588 124.533 220.588C124.182 220.588 123.866 220.663 123.583 220.813C123.301 220.964 123.077 221.171 122.913 221.436C122.754 221.7 122.674 221.996 122.674 222.324V227H121.498V219.576ZM125.976 228.49H124.91L128.095 216.637H129.175L125.976 228.49ZM130.044 219.576H131.178V220.752H131.315C131.461 220.515 131.602 220.317 131.739 220.157C131.876 219.993 132.088 219.84 132.375 219.699C132.662 219.553 133.024 219.48 133.462 219.48C134.081 219.48 134.628 219.638 135.102 219.952C135.581 220.262 135.952 220.706 136.216 221.285C136.485 221.864 136.62 222.538 136.62 223.309C136.62 224.079 136.485 224.756 136.216 225.339C135.952 225.918 135.581 226.364 135.102 226.679C134.628 226.993 134.086 227.15 133.475 227.15C133.042 227.15 132.68 227.08 132.388 226.938C132.101 226.793 131.885 226.635 131.739 226.467C131.593 226.294 131.452 226.093 131.315 225.865H131.219V229.789H130.044V219.576ZM131.192 223.281C131.192 223.842 131.274 224.334 131.438 224.758C131.602 225.182 131.844 225.512 132.163 225.749C132.482 225.981 132.865 226.098 133.311 226.098C133.767 226.098 134.154 225.977 134.473 225.735C134.797 225.489 135.038 225.154 135.198 224.73C135.362 224.302 135.444 223.819 135.444 223.281C135.444 222.757 135.362 222.288 135.198 221.873C135.038 221.458 134.799 221.132 134.48 220.896C134.161 220.654 133.771 220.533 133.311 220.533C132.855 220.533 132.468 220.647 132.149 220.875C131.835 221.103 131.595 221.424 131.431 221.839C131.272 222.249 131.192 222.73 131.192 223.281ZM137.516 224.895C137.516 224.124 137.778 223.582 138.302 223.268C138.83 222.953 139.498 222.766 140.305 222.707C140.615 222.684 140.961 222.664 141.344 222.646C141.731 222.623 142.055 222.607 142.314 222.598V221.996C142.314 221.518 142.171 221.151 141.884 220.896C141.601 220.636 141.184 220.506 140.633 220.506C140.182 220.506 139.812 220.599 139.525 220.786C139.238 220.968 139.051 221.208 138.965 221.504H137.734C137.784 221.107 137.939 220.757 138.199 220.451C138.459 220.146 138.803 219.909 139.231 219.74C139.664 219.567 140.15 219.48 140.687 219.48C141.398 219.48 142.041 219.663 142.615 220.027C143.189 220.387 143.477 221.08 143.477 222.105V227H142.314V225.988H142.26C142.169 226.18 142.027 226.367 141.836 226.549C141.649 226.727 141.403 226.877 141.098 227C140.797 227.118 140.446 227.178 140.045 227.178C139.571 227.178 139.143 227.087 138.76 226.904C138.377 226.722 138.074 226.46 137.851 226.118C137.627 225.772 137.516 225.364 137.516 224.895ZM138.691 224.949C138.691 225.327 138.833 225.619 139.115 225.824C139.402 226.025 139.781 226.125 140.25 226.125C140.674 226.125 141.041 226.041 141.351 225.872C141.665 225.703 141.904 225.48 142.068 225.202C142.232 224.924 142.314 224.626 142.314 224.307V223.562C142.205 223.566 141.904 223.587 141.412 223.623L140.441 223.691C139.885 223.728 139.455 223.849 139.149 224.054C138.844 224.259 138.691 224.557 138.691 224.949ZM148.091 229.939C147.494 229.939 146.965 229.855 146.505 229.687C146.049 229.518 145.687 229.272 145.418 228.948C145.149 228.625 144.992 228.235 144.947 227.779H146.177C146.259 228.153 146.464 228.436 146.792 228.627C147.125 228.818 147.558 228.914 148.091 228.914C148.747 228.914 149.253 228.768 149.609 228.477C149.964 228.185 150.142 227.738 150.142 227.137V225.633H150.046C149.914 225.856 149.775 226.052 149.629 226.221C149.483 226.389 149.265 226.544 148.973 226.686C148.686 226.822 148.323 226.891 147.886 226.891C147.28 226.891 146.738 226.743 146.259 226.446C145.781 226.15 145.405 225.724 145.131 225.168C144.862 224.607 144.728 223.947 144.728 223.186C144.728 222.438 144.862 221.784 145.131 221.224C145.4 220.663 145.774 220.232 146.252 219.932C146.731 219.631 147.28 219.48 147.9 219.48C148.333 219.48 148.693 219.551 148.98 219.692C149.271 219.834 149.479 219.979 149.602 220.13C149.729 220.276 149.887 220.483 150.073 220.752H150.169V219.576H151.318V227.205C151.318 227.82 151.176 228.331 150.894 228.736C150.616 229.146 150.235 229.45 149.752 229.646C149.269 229.841 148.715 229.939 148.091 229.939ZM148.05 225.838C148.725 225.838 149.246 225.61 149.615 225.154C149.985 224.694 150.169 224.051 150.169 223.227C150.169 222.693 150.087 222.224 149.923 221.818C149.759 221.413 149.517 221.098 149.198 220.875C148.884 220.647 148.501 220.533 148.05 220.533C147.59 220.533 147.2 220.652 146.881 220.889C146.562 221.126 146.321 221.449 146.156 221.859C145.997 222.265 145.917 222.721 145.917 223.227C145.917 223.746 145.997 224.202 146.156 224.594C146.321 224.986 146.562 225.291 146.881 225.51C147.2 225.729 147.59 225.838 148.05 225.838ZM156.028 227.15C155.321 227.15 154.706 226.993 154.182 226.679C153.658 226.364 153.255 225.92 152.972 225.346C152.694 224.771 152.555 224.106 152.555 223.35C152.555 222.593 152.694 221.923 152.972 221.34C153.255 220.752 153.649 220.296 154.155 219.973C154.665 219.645 155.253 219.48 155.918 219.48C156.479 219.48 157.001 219.606 157.484 219.856C157.967 220.103 158.359 220.504 158.66 221.06C158.965 221.611 159.118 222.32 159.118 223.186V223.678H153.731C153.749 224.193 153.856 224.632 154.052 224.997C154.248 225.362 154.515 225.64 154.852 225.831C155.194 226.018 155.586 226.111 156.028 226.111C156.447 226.111 156.8 226.034 157.087 225.879C157.379 225.719 157.6 225.514 157.751 225.264H159.008C158.89 225.637 158.692 225.968 158.414 226.255C158.14 226.537 157.798 226.758 157.388 226.918C156.983 227.073 156.529 227.15 156.028 227.15ZM157.928 222.68C157.928 222.265 157.844 221.896 157.675 221.572C157.511 221.244 157.277 220.987 156.971 220.8C156.666 220.613 156.315 220.52 155.918 220.52C155.504 220.52 155.135 220.618 154.811 220.813C154.492 221.009 154.239 221.274 154.052 221.606C153.87 221.935 153.765 222.292 153.738 222.68H157.928ZM164.498 221.504C164.411 221.18 164.243 220.93 163.992 220.752C163.746 220.57 163.413 220.479 162.994 220.479C162.693 220.479 162.422 220.529 162.18 220.629C161.943 220.725 161.757 220.859 161.62 221.032C161.488 221.201 161.422 221.39 161.422 221.6C161.422 221.846 161.524 222.055 161.729 222.229C161.939 222.402 162.26 222.538 162.693 222.639L163.801 222.912C164.466 223.072 164.963 223.318 165.291 223.65C165.619 223.979 165.783 224.402 165.783 224.922C165.783 225.355 165.667 225.74 165.434 226.077C165.207 226.41 164.874 226.672 164.436 226.863C163.999 227.055 163.477 227.15 162.871 227.15C162.037 227.15 161.376 226.973 160.888 226.617C160.401 226.257 160.109 225.738 160.013 225.059H161.244C161.312 225.419 161.479 225.688 161.743 225.865C162.007 226.038 162.374 226.125 162.844 226.125C163.372 226.125 163.791 226.022 164.101 225.817C164.411 225.612 164.566 225.337 164.566 224.99C164.566 224.726 164.468 224.507 164.272 224.334C164.076 224.156 163.769 224.02 163.349 223.924L162.228 223.664C161.581 223.514 161.089 223.268 160.752 222.926C160.415 222.584 160.246 222.165 160.246 221.668C160.246 221.249 160.36 220.873 160.588 220.54C160.82 220.207 161.144 219.948 161.558 219.761C161.978 219.574 162.456 219.48 162.994 219.48C163.495 219.48 163.937 219.565 164.32 219.733C164.703 219.902 165.006 220.139 165.229 220.444C165.457 220.75 165.596 221.103 165.646 221.504H164.498ZM167.362 228.49H166.296L169.482 216.637H170.562L167.362 228.49Z" fill="#333333"/>
<rect x="27" y="87" width="576" height="48" rx="10" fill="#F3F3F3"/>
<path d="M47.9512 116.607H46.9121V104.453H47.9512V116.607ZM45.5723 115.965H44.5469V110.045H42.8516V109.074H44.5469V104.754H45.5723V115.965ZM43.207 106.9H42.1816V112.526C42.6875 112.49 43.1204 112.447 43.4805 112.396L43.5488 113.189C42.0768 113.463 40.0579 113.6 37.4922 113.6L37.3555 112.684C37.8978 112.684 38.3262 112.681 38.6406 112.677V106.9H37.6152V106.012H43.207V106.9ZM39.625 112.656C40.1582 112.643 40.6777 112.622 41.1836 112.595V106.9H39.625V112.656ZM59.3333 116.635H58.2532V104.453H59.3333V116.635ZM52.8665 105.396C53.468 105.401 54.0035 105.579 54.4729 105.93C54.9423 106.276 55.3092 106.768 55.5735 107.406C55.8378 108.044 55.97 108.787 55.97 109.635C55.97 110.482 55.8378 111.225 55.5735 111.863C55.3092 112.501 54.9423 112.993 54.4729 113.34C54.0035 113.686 53.468 113.859 52.8665 113.859C52.2649 113.859 51.7272 113.686 51.2532 113.34C50.7838 112.993 50.4169 112.501 50.1526 111.863C49.8929 111.225 49.763 110.482 49.763 109.635C49.763 108.787 49.8929 108.044 50.1526 107.406C50.4169 106.768 50.7838 106.276 51.2532 105.93C51.7226 105.579 52.2604 105.401 52.8665 105.396ZM52.8665 106.354C52.4609 106.358 52.1009 106.497 51.7864 106.771C51.4765 107.039 51.235 107.422 51.0618 107.919C50.8886 108.411 50.802 108.983 50.802 109.635C50.802 110.286 50.8886 110.861 51.0618 111.357C51.235 111.85 51.4788 112.23 51.7932 112.499C52.1077 112.768 52.4654 112.902 52.8665 112.902C53.2675 112.902 53.6253 112.768 53.9397 112.499C54.2542 112.23 54.498 111.85 54.6712 111.357C54.8443 110.861 54.9309 110.286 54.9309 109.635C54.9309 108.983 54.8443 108.411 54.6712 107.919C54.498 107.422 54.2542 107.039 53.9397 106.771C53.6298 106.497 53.2721 106.358 52.8665 106.354ZM65.4791 108.186C65.4791 108.855 65.6272 109.523 65.9234 110.188C66.2196 110.849 66.6184 111.439 67.1197 111.959C67.6255 112.474 68.177 112.861 68.774 113.121L68.1724 113.969C67.4569 113.641 66.8121 113.146 66.2379 112.485C65.6636 111.82 65.2352 111.07 64.9527 110.236C64.6701 111.13 64.2418 111.938 63.6675 112.663C63.0979 113.383 62.4667 113.919 61.774 114.27L61.1314 113.422C61.7056 113.144 62.2411 112.725 62.7379 112.164C63.2392 111.604 63.6402 110.972 63.941 110.271C64.2418 109.564 64.3944 108.869 64.399 108.186V106.6H61.5279V105.711H68.3775V106.6H65.4791V108.186ZM71.1529 116.607H70.0728V104.453H71.1529V116.607ZM83.0272 111.658H81.9471V109.744H79.1034V110.783H73.5252V105.383H79.1034V106.436H81.9471V104.453H83.0272V111.658ZM74.5916 109.908H78.0506V106.258H74.5916V109.908ZM78.994 112.014C79.8371 112.014 80.564 112.105 81.1746 112.287C81.7853 112.465 82.2524 112.727 82.576 113.073C82.9041 113.415 83.0682 113.827 83.0682 114.311C83.0682 114.789 82.9041 115.197 82.576 115.534C82.2524 115.876 81.7853 116.136 81.1746 116.313C80.564 116.491 79.8371 116.58 78.994 116.58C78.1509 116.58 77.424 116.491 76.8133 116.313C76.2026 116.136 75.7332 115.876 75.4051 115.534C75.0815 115.197 74.9198 114.789 74.9198 114.311C74.9198 113.827 75.0815 113.415 75.4051 113.073C75.7332 112.727 76.2026 112.465 76.8133 112.287C77.424 112.105 78.1509 112.014 78.994 112.014ZM78.994 112.848C78.3742 112.852 77.8364 112.914 77.3807 113.032C76.9295 113.146 76.5832 113.312 76.3416 113.531C76.1001 113.75 75.9816 114.01 75.9862 114.311C75.9816 114.598 76.1001 114.848 76.3416 115.062C76.5877 115.277 76.9364 115.441 77.3875 115.555C77.8433 115.673 78.3787 115.732 78.994 115.732C79.6092 115.732 80.1424 115.673 80.5936 115.555C81.0448 115.441 81.3911 115.279 81.6327 115.069C81.8787 114.855 82.0018 114.602 82.0018 114.311C82.0018 114.01 81.881 113.75 81.6395 113.531C81.398 113.312 81.0516 113.146 80.6004 113.032C80.1493 112.914 79.6138 112.852 78.994 112.848ZM81.9471 108.842V107.324H79.1034V108.842H81.9471Z" fill="#B3B3B3"/>
<rect x="27" y="148" width="576" height="48" rx="10" fill="#F3F3F3"/>
<path d="M47.9512 177.607H46.9121V165.453H47.9512V177.607ZM45.5723 176.965H44.5469V171.045H42.8516V170.074H44.5469V165.754H45.5723V176.965ZM43.207 167.9H42.1816V173.526C42.6875 173.49 43.1204 173.447 43.4805 173.396L43.5488 174.189C42.0768 174.463 40.0579 174.6 37.4922 174.6L37.3555 173.684C37.8978 173.684 38.3262 173.681 38.6406 173.677V167.9H37.6152V167.012H43.207V167.9ZM39.625 173.656C40.1582 173.643 40.6777 173.622 41.1836 173.595V167.9H39.625V173.656ZM59.3333 177.635H58.2532V165.453H59.3333V177.635ZM52.8665 166.396C53.468 166.401 54.0035 166.579 54.4729 166.93C54.9423 167.276 55.3092 167.768 55.5735 168.406C55.8378 169.044 55.97 169.787 55.97 170.635C55.97 171.482 55.8378 172.225 55.5735 172.863C55.3092 173.501 54.9423 173.993 54.4729 174.34C54.0035 174.686 53.468 174.859 52.8665 174.859C52.2649 174.859 51.7272 174.686 51.2532 174.34C50.7838 173.993 50.4169 173.501 50.1526 172.863C49.8929 172.225 49.763 171.482 49.763 170.635C49.763 169.787 49.8929 169.044 50.1526 168.406C50.4169 167.768 50.7838 167.276 51.2532 166.93C51.7226 166.579 52.2604 166.401 52.8665 166.396ZM52.8665 167.354C52.4609 167.358 52.1009 167.497 51.7864 167.771C51.4765 168.039 51.235 168.422 51.0618 168.919C50.8886 169.411 50.802 169.983 50.802 170.635C50.802 171.286 50.8886 171.861 51.0618 172.357C51.235 172.85 51.4788 173.23 51.7932 173.499C52.1077 173.768 52.4654 173.902 52.8665 173.902C53.2675 173.902 53.6253 173.768 53.9397 173.499C54.2542 173.23 54.498 172.85 54.6712 172.357C54.8443 171.861 54.9309 171.286 54.9309 170.635C54.9309 169.983 54.8443 169.411 54.6712 168.919C54.498 168.422 54.2542 168.039 53.9397 167.771C53.6298 167.497 53.2721 167.358 52.8665 167.354ZM65.4791 169.186C65.4791 169.855 65.6272 170.523 65.9234 171.188C66.2196 171.849 66.6184 172.439 67.1197 172.959C67.6255 173.474 68.177 173.861 68.774 174.121L68.1724 174.969C67.4569 174.641 66.8121 174.146 66.2379 173.485C65.6636 172.82 65.2352 172.07 64.9527 171.236C64.6701 172.13 64.2418 172.938 63.6675 173.663C63.0979 174.383 62.4667 174.919 61.774 175.27L61.1314 174.422C61.7056 174.144 62.2411 173.725 62.7379 173.164C63.2392 172.604 63.6402 171.972 63.941 171.271C64.2418 170.564 64.3944 169.869 64.399 169.186V167.6H61.5279V166.711H68.3775V167.6H65.4791V169.186ZM71.1529 177.607H70.0728V165.453H71.1529V177.607ZM82.3234 167.176C82.3188 167.695 82.5216 168.192 82.9318 168.666C83.3419 169.135 83.8774 169.532 84.5382 169.855C85.199 170.179 85.8872 170.393 86.6027 170.498L86.2062 171.346C85.5636 171.236 84.9438 171.054 84.3468 170.799C83.7544 170.544 83.228 170.225 82.7677 169.842C82.3074 169.454 81.9588 169.024 81.7218 168.55C81.4848 169.024 81.1362 169.452 80.6759 169.835C80.2156 170.218 79.6892 170.539 79.0968 170.799C78.5089 171.054 77.8982 171.236 77.2648 171.346L76.8409 170.498C77.5519 170.393 78.2377 170.179 78.8986 169.855C79.5594 169.532 80.0948 169.135 80.505 168.666C80.9152 168.192 81.1202 167.695 81.1202 167.176V167.094H77.2238V166.219H86.2062V167.094H82.3234V167.176ZM87.2589 173.273H82.2277V177.607H81.1749V173.273H76.1847V172.385H87.2589V173.273ZM99.1332 176.021H88.0043V175.133H92.9809V172.152H94.0336V175.133H99.1332V176.021ZM94.0609 167.217C94.0609 167.864 94.2842 168.486 94.7309 169.083C95.182 169.68 95.7562 170.186 96.4535 170.601C97.1553 171.011 97.8663 171.277 98.5863 171.4L98.1078 172.289C97.4789 172.161 96.8614 171.94 96.2553 171.626C95.6492 171.312 95.1023 170.92 94.6146 170.45C94.1316 169.981 93.7624 169.464 93.5072 168.898C93.252 169.464 92.8829 169.981 92.3998 170.45C91.9167 170.92 91.3721 171.312 90.766 171.626C90.1645 171.94 89.5492 172.161 88.9203 172.289L88.4418 171.4C89.1618 171.277 89.8682 171.011 90.5609 170.601C91.2582 170.186 91.8279 169.682 92.2699 169.09C92.7165 168.493 92.9398 167.868 92.9398 167.217V166.287H94.0609V167.217Z" fill="#B3B3B3"/>
<defs>
<filter id="filter0_d_1_4857" x="0" y="0" width="630" height="332" filterUnits="userSpaceOnUse" color-interpolation-filters="sRGB">
<feFlood flood-opacity="0" result="BackgroundImageFix"/>
<feColorMatrix in="SourceAlpha" type="matrix" values="0 0 0 0 0 0 0 0 0 0 0 0 0 0 0 0 0 0 127 0" result="hardAlpha"/>
<feOffset dy="4"/>
<feGaussianBlur stdDeviation="4"/>
<feComposite in2="hardAlpha" operator="out"/>
<feColorMatrix type="matrix" values="0 0 0 0 0 0 0 0 0 0 0 0 0 0 0 0 0 0 0.25 0"/>
<feBlend mode="normal" in2="BackgroundImageFix" result="effect1_dropShadow_1_4857"/>
<feBlend mode="normal" in="SourceGraphic" in2="effect1_dropShadow_1_4857" result="shape"/>
</filter>
</defs>
</svg>
