<svg width="630" height="332" viewBox="0 0 630 332" fill="none" xmlns="http://www.w3.org/2000/svg">
<g filter="url(#filter0_d_1_4954)">
<g filter="url(#filter1_d_1_4954)">
<rect x="8" y="4" width="614" height="316" rx="10" fill="white"/>
</g>
<path d="M8 267H315V320H18C12.4772 320 8 315.523 8 310V267Z" fill="#333333"/>
<path d="M315 267H622V310C622 315.523 617.523 320 612 320H315V267Z" fill="#EE7D00"/>
<path d="M43.0742 64.7969H40.6719V47.0234H43.0742V64.7969ZM39.4805 63.957H37.1172V55.7148H35.3984V53.4883H37.1172V47.375H39.4805V63.957ZM35.8086 51.0469H34.6758V58.4395C35.3008 58.3809 35.776 58.3255 36.1016 58.2734L36.2773 60.0703C35.0339 60.3372 33.6634 60.5163 32.166 60.6074C30.6751 60.6921 29.1549 60.7344 27.6055 60.7344L27.332 58.6836H28.8164V51.0469H27.6641V49.0352H35.8086V51.0469ZM31.0234 58.6445C31.1016 58.6445 31.1797 58.6413 31.2578 58.6348C31.3359 58.6283 31.4141 58.625 31.4922 58.625C31.6875 58.625 31.9935 58.612 32.4102 58.5859V51.0469H31.0234V58.6445ZM59.2953 64.8359H56.7758V47.0234H59.2953V64.8359ZM49.6469 48.2734C50.5388 48.2734 51.3363 48.5339 52.0395 49.0547C52.7491 49.5755 53.3057 50.3145 53.7094 51.2715C54.113 52.2285 54.3148 53.3385 54.3148 54.6016C54.3148 55.8776 54.113 56.9974 53.7094 57.9609C53.3057 58.918 52.7491 59.6569 52.0395 60.1777C51.3363 60.6921 50.5388 60.9492 49.6469 60.9492C48.7354 60.9492 47.9216 60.6921 47.2055 60.1777C46.4893 59.6569 45.9294 58.918 45.5258 57.9609C45.1286 56.9974 44.9333 55.8776 44.9398 54.6016C44.9333 53.3385 45.1286 52.2285 45.5258 51.2715C45.9294 50.3145 46.4893 49.5755 47.2055 49.0547C47.9216 48.5339 48.7354 48.2734 49.6469 48.2734ZM49.6469 50.5195C49.1846 50.5195 48.7777 50.679 48.4262 50.998C48.0811 51.3105 47.8142 51.7728 47.6254 52.3848C47.4366 52.9967 47.3422 53.7357 47.3422 54.6016C47.3422 55.474 47.4366 56.2161 47.6254 56.8281C47.8142 57.4401 48.0811 57.9023 48.4262 58.2148C48.7777 58.5273 49.1846 58.6836 49.6469 58.6836C50.1026 58.6836 50.4997 58.5273 50.8383 58.2148C51.1768 57.8958 51.4405 57.4303 51.6293 56.8184C51.8181 56.2064 51.9125 55.4674 51.9125 54.6016C51.9125 53.7422 51.8181 53.0065 51.6293 52.3945C51.4405 51.776 51.1736 51.3105 50.8285 50.998C50.49 50.679 50.0961 50.5195 49.6469 50.5195ZM68.1922 51.8672C68.1922 52.8503 68.3582 53.8171 68.6902 54.7676C69.0288 55.7116 69.5333 56.5612 70.2039 57.3164C70.8745 58.0716 71.6883 58.651 72.6453 59.0547L71.2977 61.0078C70.2755 60.5781 69.3999 59.9466 68.6707 59.1133C67.9415 58.2799 67.3686 57.3066 66.952 56.1934C66.5418 57.4043 65.9656 58.4688 65.2234 59.3867C64.4813 60.2982 63.6023 60.9883 62.5867 61.457L61.1609 59.4844C62.1115 59.0612 62.922 58.446 63.5926 57.6387C64.2697 56.8314 64.7775 55.9264 65.116 54.9238C65.4611 53.9147 65.6336 52.8958 65.6336 51.8672V50.7734H61.8641V48.7422H71.9031V50.7734H68.1922V51.8672ZM76.1805 64.7969H73.6609V47.0234H76.1805V64.7969ZM88.8766 49.8164C88.8766 50.5521 89.023 51.2552 89.316 51.9258C89.609 52.5898 90.0582 53.1855 90.6637 53.7129C91.2757 54.2337 92.0341 54.6341 92.9391 54.9141L91.6109 56.8477C90.6865 56.5417 89.8922 56.099 89.2281 55.5195C88.5641 54.9401 88.0367 54.2533 87.6461 53.459C87.249 54.377 86.6988 55.1712 85.9957 55.8418C85.2991 56.5059 84.456 57.0039 83.4664 57.3359L82.1188 55.3828C83.0758 55.0638 83.8701 54.6081 84.5016 54.0156C85.1331 53.4232 85.6018 52.7493 85.9078 51.9941C86.2138 51.2324 86.3701 50.4284 86.3766 49.582V47.9609H88.8766V49.8164ZM96.4938 51.1836H98.8961V53.2539H96.4938V57.5703H93.9938V47.0234H96.4938V51.1836ZM90.6734 57.9219C91.8974 57.9219 92.9586 58.0586 93.857 58.332C94.7555 58.6055 95.4488 58.9993 95.9371 59.5137C96.4254 60.028 96.6695 60.6432 96.6695 61.3594C96.6695 62.082 96.4254 62.7005 95.9371 63.2148C95.4553 63.7292 94.762 64.1198 93.857 64.3867C92.9586 64.6602 91.8974 64.7969 90.6734 64.7969C89.4234 64.7969 88.3395 64.6602 87.4215 64.3867C86.51 64.1198 85.8069 63.7292 85.3121 63.2148C84.8238 62.7005 84.5797 62.082 84.5797 61.3594C84.5797 60.6432 84.8238 60.028 85.3121 59.5137C85.8069 58.9993 86.5133 58.6055 87.4313 58.332C88.3492 58.0586 89.4299 57.9219 90.6734 57.9219ZM90.6734 59.875C89.4951 59.875 88.5999 60.002 87.9879 60.2559C87.3759 60.5033 87.0732 60.8711 87.0797 61.3594C87.0602 62.349 88.2581 62.8438 90.6734 62.8438C93.0302 62.8438 94.2086 62.349 94.2086 61.3594C94.2086 60.8711 93.9059 60.5033 93.3004 60.2559C92.7014 60.002 91.8258 59.875 90.6734 59.875ZM104.98 51.4961C104.98 53.0846 105.234 54.5332 105.742 55.8418C106.25 57.1504 107.07 58.1693 108.203 58.8984L106.855 60.832C105.423 59.9661 104.398 58.5436 103.779 56.5645C103.447 57.6061 103.008 58.5273 102.461 59.3281C101.914 60.1224 101.25 60.7539 100.469 61.2227L98.9453 59.3867C100.189 58.612 101.1 57.5345 101.68 56.1543C102.266 54.7676 102.559 53.2539 102.559 51.6133V48.5469H104.98V51.4961ZM114.688 64.7969H112.305V47.0234H114.688V64.7969ZM110.957 63.9766H108.633V55.0508H106.328V53.0195H108.633V47.2773H110.957V63.9766Z" fill="#333333"/>
<path d="M153.044 287.949H155.446V289.98H153.044V293.965H150.544V284.023H153.044V287.949ZM147.555 287.109H142.126V291.211C143.76 291.211 145.085 291.175 146.1 291.104C147.123 291.025 148.122 290.885 149.098 290.684L149.352 292.676C148.265 292.904 147.129 293.06 145.944 293.145C144.766 293.223 143.161 293.262 141.13 293.262H139.626V285.117H147.555V287.109ZM153.161 296.816H143.942V299.609H153.493V301.602H141.423V294.824H153.161V296.816ZM170.769 301.797H168.249V284.023H170.769V301.797ZM165.437 285.879C165.437 287.78 165.18 289.508 164.665 291.064C164.157 292.62 163.298 294.049 162.087 295.352C160.876 296.647 159.245 297.78 157.195 298.75L155.886 296.758C157.403 296.042 158.653 295.244 159.636 294.365C160.626 293.486 161.381 292.513 161.902 291.445C162.429 290.371 162.761 289.167 162.898 287.832H156.843V285.879H165.437Z" fill="white"/>
<path d="M467.161 288.121H469.427V290.172H467.161V295.113H464.661V283.043H467.161V288.121ZM452.747 292.828C454.602 292.828 456.041 292.815 457.063 292.789V291.793C456.087 291.656 455.318 291.363 454.759 290.914C454.205 290.458 453.932 289.892 453.938 289.215C453.932 288.674 454.108 288.206 454.466 287.809C454.824 287.405 455.332 287.096 455.989 286.881C456.653 286.666 457.421 286.559 458.294 286.559C459.16 286.559 459.918 286.666 460.569 286.881C461.227 287.096 461.735 287.405 462.093 287.809C462.457 288.206 462.643 288.674 462.649 289.215C462.643 289.892 462.363 290.455 461.809 290.904C461.263 291.354 460.507 291.646 459.544 291.783V292.701C461.087 292.63 462.519 292.509 463.841 292.34L464.016 294.059C462.356 294.352 460.638 294.544 458.86 294.635C457.083 294.719 455.13 294.762 453.001 294.762L452.747 292.828ZM467.161 300.797H464.661V297.75H455.013V295.836H467.161V300.797ZM463.391 286.148H453.216V284.332H457.063V282.887H459.544V284.332H463.391V286.148ZM458.294 288.219C457.643 288.219 457.148 288.3 456.809 288.463C456.477 288.626 456.315 288.876 456.321 289.215C456.315 289.534 456.481 289.785 456.819 289.967C457.164 290.143 457.656 290.23 458.294 290.23C458.919 290.23 459.401 290.143 459.739 289.967C460.078 289.791 460.253 289.54 460.266 289.215C460.247 288.551 459.589 288.219 458.294 288.219ZM484.71 295.816H482.21V283.043H484.71V295.816ZM485.179 300.484H472.796V294.527H475.316V298.492H485.179V300.484ZM474.964 284.176C475.869 284.176 476.689 284.368 477.425 284.752C478.167 285.136 478.753 285.67 479.183 286.354C479.613 287.031 479.827 287.796 479.827 288.648C479.827 289.514 479.613 290.292 479.183 290.982C478.76 291.666 478.177 292.2 477.435 292.584C476.693 292.968 475.869 293.16 474.964 293.16C474.059 293.16 473.236 292.968 472.493 292.584C471.751 292.2 471.165 291.666 470.736 290.982C470.312 290.292 470.101 289.514 470.101 288.648C470.101 287.796 470.316 287.031 470.745 286.354C471.175 285.67 471.758 285.136 472.493 284.752C473.236 284.368 474.059 284.176 474.964 284.176ZM474.964 286.344C474.502 286.337 474.085 286.428 473.714 286.617C473.343 286.799 473.053 287.066 472.845 287.418C472.637 287.77 472.536 288.18 472.542 288.648C472.536 289.13 472.637 289.55 472.845 289.908C473.053 290.26 473.34 290.53 473.704 290.719C474.075 290.901 474.495 290.992 474.964 290.992C475.42 290.992 475.827 290.901 476.185 290.719C476.549 290.53 476.836 290.26 477.044 289.908C477.259 289.55 477.366 289.13 477.366 288.648C477.366 288.18 477.259 287.77 477.044 287.418C476.836 287.066 476.549 286.799 476.185 286.617C475.82 286.428 475.413 286.337 474.964 286.344Z" fill="white"/>
<path d="M31.1191 231H29.9434V221.102H31.1191V224.738H31.2148C31.5885 223.9 32.3177 223.48 33.4023 223.48C34.1862 223.48 34.8037 223.717 35.2549 224.191C35.7061 224.661 35.9316 225.358 35.9316 226.283V231H34.7559V226.365C34.7559 225.786 34.6032 225.338 34.2979 225.019C33.9971 224.695 33.5801 224.533 33.0469 224.533C32.6732 224.533 32.3405 224.613 32.0488 224.772C31.7617 224.927 31.5339 225.158 31.3652 225.463C31.2012 225.764 31.1191 226.124 31.1191 226.543V231ZM40.7786 224.561H39.22V228.867C39.22 229.305 39.3066 229.599 39.4798 229.749C39.6529 229.899 39.8899 229.975 40.1907 229.975C40.4186 229.975 40.651 229.965 40.888 229.947V231.041C40.651 231.077 40.3776 231.096 40.0677 231.096C39.7213 231.096 39.3932 231.025 39.0833 230.884C38.7734 230.738 38.5205 230.519 38.3245 230.228C38.1285 229.936 38.0305 229.583 38.0305 229.168V224.561H36.9095V223.576H38.0305V221.799H39.22V223.576H40.7786V224.561ZM45.2564 224.561H43.6978V228.867C43.6978 229.305 43.7844 229.599 43.9576 229.749C44.1308 229.899 44.3677 229.975 44.6685 229.975C44.8964 229.975 45.1288 229.965 45.3658 229.947V231.041C45.1288 231.077 44.8554 231.096 44.5455 231.096C44.1991 231.096 43.871 231.025 43.5611 230.884C43.2512 230.738 42.9983 230.519 42.8023 230.228C42.6063 229.936 42.5084 229.583 42.5084 229.168V224.561H41.3873V223.576H42.5084V221.799H43.6978V223.576H45.2564V224.561ZM46.494 223.576H47.6287V224.752H47.7655C47.9113 224.515 48.0526 224.317 48.1893 224.157C48.326 223.993 48.5379 223.84 48.825 223.699C49.1121 223.553 49.4745 223.48 49.912 223.48C50.5317 223.48 51.0786 223.638 51.5526 223.952C52.0311 224.262 52.4025 224.706 52.6668 225.285C52.9357 225.864 53.0702 226.538 53.0702 227.309C53.0702 228.079 52.9357 228.756 52.6668 229.339C52.4025 229.918 52.0311 230.364 51.5526 230.679C51.0786 230.993 50.5363 231.15 49.9256 231.15C49.4927 231.15 49.1304 231.08 48.8387 230.938C48.5516 230.793 48.3351 230.635 48.1893 230.467C48.0435 230.294 47.9022 230.093 47.7655 229.865H47.6698V233.789H46.494V223.576ZM47.6424 227.281C47.6424 227.842 47.7245 228.334 47.8885 228.758C48.0526 229.182 48.2941 229.512 48.6131 229.749C48.9321 229.981 49.3149 230.098 49.7616 230.098C50.2173 230.098 50.6047 229.977 50.9237 229.735C51.2472 229.489 51.4888 229.154 51.6483 228.73C51.8123 228.302 51.8944 227.819 51.8944 227.281C51.8944 226.757 51.8123 226.288 51.6483 225.873C51.4888 225.458 51.2495 225.132 50.9305 224.896C50.6115 224.654 50.2218 224.533 49.7616 224.533C49.3058 224.533 48.9185 224.647 48.5995 224.875C48.285 225.103 48.0457 225.424 47.8817 225.839C47.7222 226.249 47.6424 226.73 47.6424 227.281ZM58.4503 225.504C58.3637 225.18 58.1951 224.93 57.9445 224.752C57.6984 224.57 57.3657 224.479 56.9464 224.479C56.6456 224.479 56.3745 224.529 56.1329 224.629C55.8959 224.725 55.7091 224.859 55.5724 225.032C55.4402 225.201 55.3741 225.39 55.3741 225.6C55.3741 225.846 55.4767 226.055 55.6818 226.229C55.8914 226.402 56.2127 226.538 56.6456 226.639L57.753 226.912C58.4184 227.072 58.9152 227.318 59.2433 227.65C59.5714 227.979 59.7355 228.402 59.7355 228.922C59.7355 229.355 59.6193 229.74 59.3868 230.077C59.159 230.41 58.8263 230.672 58.3888 230.863C57.9513 231.055 57.4295 231.15 56.8234 231.15C55.9894 231.15 55.3286 230.973 54.8409 230.617C54.3533 230.257 54.0616 229.738 53.9659 229.059H55.1964C55.2648 229.419 55.4311 229.688 55.6954 229.865C55.9598 230.038 56.3266 230.125 56.796 230.125C57.3247 230.125 57.7439 230.022 58.0538 229.817C58.3637 229.612 58.5187 229.337 58.5187 228.99C58.5187 228.726 58.4207 228.507 58.2247 228.334C58.0288 228.156 57.7211 228.02 57.3019 227.924L56.1808 227.664C55.5336 227.514 55.0415 227.268 54.7042 226.926C54.367 226.584 54.1984 226.165 54.1984 225.668C54.1984 225.249 54.3123 224.873 54.5402 224.54C54.7726 224.207 55.0961 223.948 55.5109 223.761C55.9301 223.574 56.4086 223.48 56.9464 223.48C57.4477 223.48 57.8898 223.565 58.2726 223.733C58.6554 223.902 58.9584 224.139 59.1818 224.444C59.4096 224.75 59.5486 225.103 59.5987 225.504H58.4503ZM61.8207 231.082C61.6612 231.082 61.5131 231.043 61.3764 230.966C61.2442 230.884 61.1371 230.774 61.0551 230.638C60.9776 230.501 60.9411 230.353 60.9457 230.193C60.9411 230.038 60.9776 229.895 61.0551 229.763C61.1371 229.626 61.2442 229.519 61.3764 229.441C61.5131 229.359 61.6612 229.318 61.8207 229.318C61.9757 229.318 62.1192 229.359 62.2514 229.441C62.3881 229.519 62.4952 229.626 62.5727 229.763C62.6547 229.895 62.6957 230.038 62.6957 230.193C62.6957 230.353 62.6547 230.501 62.5727 230.638C62.4952 230.774 62.3881 230.884 62.2514 230.966C62.1192 231.043 61.9757 231.082 61.8207 231.082ZM61.8207 225.586C61.6612 225.586 61.5131 225.547 61.3764 225.47C61.2442 225.388 61.1371 225.278 61.0551 225.142C60.9776 225.005 60.9411 224.857 60.9457 224.697C60.9411 224.542 60.9776 224.399 61.0551 224.267C61.1371 224.13 61.2442 224.023 61.3764 223.945C61.5131 223.863 61.6612 223.822 61.8207 223.822C61.9757 223.822 62.1192 223.863 62.2514 223.945C62.3881 224.023 62.4952 224.13 62.5727 224.267C62.6547 224.399 62.6957 224.542 62.6957 224.697C62.6957 224.857 62.6547 225.005 62.5727 225.142C62.4952 225.278 62.3881 225.388 62.2514 225.47C62.1192 225.547 61.9757 225.586 61.8207 225.586ZM64.5895 232.49H63.5231L66.7087 220.637H67.7887L64.5895 232.49ZM68.9853 232.49H67.9189L71.1045 220.637H72.1845L68.9853 232.49ZM72.4651 223.576H73.7092L75.2952 229.236H75.3635L76.9358 223.576H78.1936L79.7385 229.209H79.8205L81.4065 223.576H82.637L80.3811 231H79.219L77.6057 225.34H77.4963L75.8967 231H74.7209L72.4651 223.576ZM83.0679 223.576H84.312L85.898 229.236H85.9663L87.5386 223.576H88.7964L90.3413 229.209H90.4234L92.0093 223.576H93.2398L90.9839 231H89.8218L88.2085 225.34H88.0991L86.4995 231H85.3237L83.0679 223.576ZM93.6707 223.576H94.9148L96.5008 229.236H96.5691L98.1414 223.576H99.3992L100.944 229.209H101.026L102.612 223.576H103.843L101.587 231H100.425L98.8113 225.34H98.702L97.1023 231H95.9266L93.6707 223.576ZM104.684 231.082C104.524 231.082 104.376 231.043 104.239 230.966C104.107 230.884 104 230.774 103.918 230.638C103.841 230.501 103.804 230.353 103.809 230.193C103.804 230.038 103.841 229.895 103.918 229.763C104 229.626 104.107 229.519 104.239 229.441C104.376 229.359 104.524 229.318 104.684 229.318C104.839 229.318 104.982 229.359 105.114 229.441C105.251 229.519 105.358 229.626 105.436 229.763C105.518 229.895 105.559 230.038 105.559 230.193C105.559 230.353 105.518 230.501 105.436 230.638C105.358 230.774 105.251 230.884 105.114 230.966C104.982 231.043 104.839 231.082 104.684 231.082ZM106.536 223.576H107.781L109.367 229.236H109.435L111.007 223.576H112.265L113.81 229.209H113.892L115.478 223.576H116.708L114.452 231H113.29L111.677 225.34H111.568L109.968 231H108.792L106.536 223.576ZM118.903 223.576V231.533C118.903 232.244 118.721 232.798 118.356 233.194C117.992 233.591 117.454 233.789 116.743 233.789H116.497V232.695H116.729C117.066 232.695 117.317 232.595 117.481 232.395C117.645 232.199 117.727 231.911 117.727 231.533V223.576H118.903ZM118.301 222.346C118.074 222.346 117.88 222.271 117.72 222.12C117.561 221.97 117.481 221.785 117.481 221.566C117.481 221.348 117.561 221.163 117.72 221.013C117.88 220.862 118.074 220.787 118.301 220.787C118.529 220.787 118.725 220.862 118.889 221.013C119.053 221.163 119.135 221.348 119.135 221.566C119.135 221.785 119.053 221.97 118.889 222.12C118.725 222.271 118.529 222.346 118.301 222.346ZM123.736 224.561H122.178V228.867C122.178 229.305 122.264 229.599 122.437 229.749C122.611 229.899 122.848 229.975 123.148 229.975C123.376 229.975 123.609 229.965 123.846 229.947V231.041C123.609 231.077 123.335 231.096 123.025 231.096C122.679 231.096 122.351 231.025 122.041 230.884C121.731 230.738 121.478 230.519 121.282 230.228C121.086 229.936 120.988 229.583 120.988 229.168V224.561H119.867V223.576H120.988V221.799H122.178V223.576H123.736V224.561ZM126.314 231H125.138V221.102H126.314V224.738H126.409C126.783 223.9 127.512 223.48 128.597 223.48C129.381 223.48 129.998 223.717 130.449 224.191C130.901 224.661 131.126 225.358 131.126 226.283V231H129.95V226.365C129.95 225.786 129.798 225.338 129.492 225.019C129.192 224.695 128.775 224.533 128.241 224.533C127.868 224.533 127.535 224.613 127.243 224.772C126.956 224.927 126.728 225.158 126.56 225.463C126.396 225.764 126.314 226.124 126.314 226.543V231ZM132.733 223.576H133.909V231H132.733V223.576ZM133.321 222.346C133.093 222.346 132.899 222.271 132.74 222.12C132.58 221.97 132.5 221.785 132.5 221.566C132.5 221.348 132.58 221.163 132.74 221.013C132.899 220.862 133.093 220.787 133.321 220.787C133.549 220.787 133.745 220.862 133.909 221.013C134.073 221.163 134.155 221.348 134.155 221.566C134.155 221.785 134.073 221.97 133.909 222.12C133.745 222.271 133.549 222.346 133.321 222.346ZM136.677 231H135.502V223.576H136.636V224.738H136.732C136.919 224.342 137.19 224.034 137.546 223.815C137.906 223.592 138.359 223.48 138.906 223.48C139.416 223.48 139.858 223.585 140.232 223.795C140.606 224 140.895 224.312 141.1 224.731C141.305 225.151 141.408 225.668 141.408 226.283V231H140.232V226.365C140.232 225.791 140.084 225.342 139.788 225.019C139.492 224.695 139.079 224.533 138.551 224.533C138.186 224.533 137.862 224.613 137.58 224.772C137.297 224.927 137.076 225.158 136.917 225.463C136.757 225.764 136.677 226.124 136.677 226.543V231ZM143.015 221.102H144.19V226.857H144.327L147.54 223.576H148.989L145.858 226.755L149.222 231H147.731L144.977 227.5L144.19 228.231V231H143.015V221.102ZM150.118 221.102H151.293V224.752H151.389C151.407 224.72 151.494 224.583 151.649 224.342C151.804 224.1 152.048 223.897 152.38 223.733C152.713 223.565 153.098 223.48 153.535 223.48C154.155 223.48 154.704 223.638 155.183 223.952C155.661 224.262 156.035 224.706 156.304 225.285C156.573 225.864 156.707 226.538 156.707 227.309C156.707 228.079 156.573 228.756 156.304 229.339C156.035 229.918 155.661 230.364 155.183 230.679C154.709 230.993 154.164 231.15 153.549 231.15C153.116 231.15 152.756 231.08 152.469 230.938C152.182 230.793 151.968 230.638 151.826 230.474C151.69 230.31 151.544 230.107 151.389 229.865H151.252V231H150.118V221.102ZM151.266 227.281C151.266 227.842 151.348 228.334 151.512 228.758C151.676 229.182 151.915 229.512 152.23 229.749C152.549 229.981 152.929 230.098 153.371 230.098C153.827 230.098 154.217 229.977 154.54 229.735C154.864 229.489 155.108 229.154 155.272 228.73C155.436 228.302 155.518 227.819 155.518 227.281C155.518 226.757 155.436 226.288 155.272 225.873C155.112 225.458 154.871 225.132 154.547 224.896C154.228 224.654 153.836 224.533 153.371 224.533C152.925 224.533 152.542 224.647 152.223 224.875C151.909 225.103 151.669 225.424 151.505 225.839C151.346 226.249 151.266 226.73 151.266 227.281ZM157.959 223.576H159.134V231H157.959V223.576ZM158.546 222.346C158.319 222.346 158.125 222.271 157.965 222.12C157.806 221.97 157.726 221.785 157.726 221.566C157.726 221.348 157.806 221.163 157.965 221.013C158.125 220.862 158.319 220.787 158.546 220.787C158.774 220.787 158.97 220.862 159.134 221.013C159.298 221.163 159.38 221.348 159.38 221.566C159.38 221.785 159.298 221.97 159.134 222.12C158.97 222.271 158.774 222.346 158.546 222.346ZM163.735 233.939C163.138 233.939 162.61 233.855 162.149 233.687C161.694 233.518 161.331 233.272 161.062 232.948C160.793 232.625 160.636 232.235 160.591 231.779H161.821C161.903 232.153 162.108 232.436 162.436 232.627C162.769 232.818 163.202 232.914 163.735 232.914C164.391 232.914 164.897 232.768 165.253 232.477C165.608 232.185 165.786 231.738 165.786 231.137V229.633H165.69C165.558 229.856 165.419 230.052 165.273 230.221C165.127 230.389 164.909 230.544 164.617 230.686C164.33 230.822 163.968 230.891 163.53 230.891C162.924 230.891 162.382 230.743 161.903 230.446C161.425 230.15 161.049 229.724 160.775 229.168C160.506 228.607 160.372 227.947 160.372 227.186C160.372 226.438 160.506 225.784 160.775 225.224C161.044 224.663 161.418 224.232 161.896 223.932C162.375 223.631 162.924 223.48 163.544 223.48C163.977 223.48 164.337 223.551 164.624 223.692C164.916 223.834 165.123 223.979 165.246 224.13C165.374 224.276 165.531 224.483 165.718 224.752H165.813V223.576H166.962V231.205C166.962 231.82 166.821 232.331 166.538 232.736C166.26 233.146 165.879 233.45 165.396 233.646C164.913 233.841 164.36 233.939 163.735 233.939ZM163.694 229.838C164.369 229.838 164.891 229.61 165.26 229.154C165.629 228.694 165.813 228.051 165.813 227.227C165.813 226.693 165.731 226.224 165.567 225.818C165.403 225.413 165.162 225.098 164.843 224.875C164.528 224.647 164.145 224.533 163.694 224.533C163.234 224.533 162.844 224.652 162.525 224.889C162.206 225.126 161.965 225.449 161.801 225.859C161.641 226.265 161.561 226.721 161.561 227.227C161.561 227.746 161.641 228.202 161.801 228.594C161.965 228.986 162.206 229.291 162.525 229.51C162.844 229.729 163.234 229.838 163.694 229.838ZM169.389 231.082C169.229 231.082 169.081 231.043 168.944 230.966C168.812 230.884 168.705 230.774 168.623 230.638C168.546 230.501 168.509 230.353 168.514 230.193C168.509 230.038 168.546 229.895 168.623 229.763C168.705 229.626 168.812 229.519 168.944 229.441C169.081 229.359 169.229 229.318 169.389 229.318C169.544 229.318 169.687 229.359 169.819 229.441C169.956 229.519 170.063 229.626 170.141 229.763C170.223 229.895 170.264 230.038 170.264 230.193C170.264 230.353 170.223 230.501 170.141 230.638C170.063 230.774 169.956 230.884 169.819 230.966C169.687 231.043 169.544 231.082 169.389 231.082ZM174.865 231.15C174.177 231.15 173.575 230.989 173.06 230.665C172.55 230.337 172.158 229.883 171.884 229.305C171.611 228.726 171.474 228.065 171.474 227.322C171.474 226.575 171.613 225.912 171.891 225.333C172.174 224.75 172.568 224.296 173.074 223.973C173.584 223.645 174.172 223.48 174.837 223.48C175.361 223.48 175.835 223.578 176.259 223.774C176.683 223.966 177.027 224.239 177.291 224.595C177.56 224.946 177.727 225.354 177.79 225.818H176.615C176.56 225.581 176.455 225.365 176.3 225.169C176.145 224.973 175.945 224.816 175.699 224.697C175.457 224.579 175.179 224.52 174.865 224.52C174.427 224.52 174.04 224.633 173.703 224.861C173.37 225.089 173.11 225.413 172.923 225.832C172.741 226.247 172.65 226.73 172.65 227.281C172.65 227.851 172.739 228.348 172.916 228.771C173.099 229.195 173.356 229.523 173.689 229.756C174.026 229.984 174.418 230.098 174.865 230.098C175.307 230.098 175.683 229.986 175.993 229.763C176.307 229.535 176.514 229.218 176.615 228.812H177.79C177.727 229.259 177.567 229.66 177.312 230.016C177.057 230.367 176.72 230.645 176.3 230.85C175.881 231.05 175.402 231.15 174.865 231.15ZM181.995 231.15C181.325 231.15 180.732 230.993 180.217 230.679C179.707 230.36 179.311 229.911 179.028 229.332C178.745 228.753 178.604 228.083 178.604 227.322C178.604 226.561 178.745 225.891 179.028 225.312C179.311 224.729 179.707 224.278 180.217 223.959C180.732 223.64 181.325 223.48 181.995 223.48C182.66 223.48 183.246 223.64 183.752 223.959C184.262 224.278 184.656 224.729 184.934 225.312C185.217 225.891 185.358 226.561 185.358 227.322C185.358 228.083 185.217 228.753 184.934 229.332C184.656 229.911 184.262 230.36 183.752 230.679C183.246 230.993 182.66 231.15 181.995 231.15ZM181.995 230.111C182.473 230.111 182.877 229.986 183.205 229.735C183.533 229.48 183.777 229.143 183.936 228.724C184.1 228.3 184.182 227.833 184.182 227.322C184.182 226.812 184.1 226.345 183.936 225.921C183.777 225.497 183.533 225.158 183.205 224.902C182.877 224.647 182.473 224.52 181.995 224.52C181.507 224.52 181.097 224.647 180.764 224.902C180.436 225.158 180.19 225.497 180.026 225.921C179.862 226.345 179.78 226.812 179.78 227.322C179.78 227.833 179.862 228.3 180.026 228.724C180.19 229.143 180.436 229.48 180.764 229.735C181.097 229.986 181.507 230.111 181.995 230.111ZM186.623 223.576H187.758V224.738H187.854C188.013 224.337 188.264 224.027 188.605 223.809C188.952 223.59 189.367 223.48 189.85 223.48C190.324 223.48 190.727 223.59 191.06 223.809C191.392 224.023 191.65 224.333 191.832 224.738H191.914C192.11 224.346 192.399 224.039 192.782 223.815C193.165 223.592 193.618 223.48 194.143 223.48C194.594 223.48 194.988 223.574 195.325 223.761C195.667 223.948 195.934 224.232 196.125 224.615C196.316 224.993 196.412 225.467 196.412 226.037V231H195.236V226.051C195.236 225.536 195.095 225.155 194.812 224.909C194.53 224.659 194.17 224.533 193.732 224.533C193.395 224.533 193.104 224.604 192.857 224.745C192.611 224.886 192.424 225.08 192.297 225.326C192.169 225.572 192.105 225.855 192.105 226.174V231H190.916V225.928C190.916 225.654 190.854 225.413 190.731 225.203C190.608 224.989 190.435 224.825 190.212 224.711C189.993 224.592 189.745 224.533 189.467 224.533C189.171 224.533 188.895 224.613 188.64 224.772C188.384 224.927 188.179 225.144 188.024 225.422C187.874 225.7 187.799 226.014 187.799 226.365V231H186.623V223.576ZM198.347 232.49H197.281L200.466 220.637H201.546L198.347 232.49ZM202.415 223.576H203.549V224.752H203.686C203.832 224.515 203.973 224.317 204.11 224.157C204.247 223.993 204.459 223.84 204.746 223.699C205.033 223.553 205.395 223.48 205.833 223.48C206.452 223.48 206.999 223.638 207.473 223.952C207.952 224.262 208.323 224.706 208.587 225.285C208.856 225.864 208.991 226.538 208.991 227.309C208.991 228.079 208.856 228.756 208.587 229.339C208.323 229.918 207.952 230.364 207.473 230.679C206.999 230.993 206.457 231.15 205.846 231.15C205.413 231.15 205.051 231.08 204.759 230.938C204.472 230.793 204.256 230.635 204.11 230.467C203.964 230.294 203.823 230.093 203.686 229.865H203.59V233.789H202.415V223.576ZM203.563 227.281C203.563 227.842 203.645 228.334 203.809 228.758C203.973 229.182 204.215 229.512 204.534 229.749C204.853 229.981 205.236 230.098 205.682 230.098C206.138 230.098 206.525 229.977 206.844 229.735C207.168 229.489 207.409 229.154 207.569 228.73C207.733 228.302 207.815 227.819 207.815 227.281C207.815 226.757 207.733 226.288 207.569 225.873C207.409 225.458 207.17 225.132 206.851 224.896C206.532 224.654 206.142 224.533 205.682 224.533C205.226 224.533 204.839 224.647 204.52 224.875C204.206 225.103 203.966 225.424 203.802 225.839C203.643 226.249 203.563 226.73 203.563 227.281ZM209.887 228.895C209.887 228.124 210.149 227.582 210.673 227.268C211.201 226.953 211.869 226.766 212.676 226.707C212.986 226.684 213.332 226.664 213.715 226.646C214.102 226.623 214.426 226.607 214.685 226.598V225.996C214.685 225.518 214.542 225.151 214.255 224.896C213.972 224.636 213.555 224.506 213.004 224.506C212.553 224.506 212.183 224.599 211.896 224.786C211.609 224.968 211.422 225.208 211.336 225.504H210.105C210.155 225.107 210.31 224.757 210.57 224.451C210.83 224.146 211.174 223.909 211.602 223.74C212.035 223.567 212.521 223.48 213.058 223.48C213.769 223.48 214.412 223.663 214.986 224.027C215.56 224.387 215.848 225.08 215.848 226.105V231H214.685V229.988H214.631C214.54 230.18 214.398 230.367 214.207 230.549C214.02 230.727 213.774 230.877 213.469 231C213.168 231.118 212.817 231.178 212.416 231.178C211.942 231.178 211.514 231.087 211.131 230.904C210.748 230.722 210.445 230.46 210.222 230.118C209.998 229.772 209.887 229.364 209.887 228.895ZM211.062 228.949C211.062 229.327 211.204 229.619 211.486 229.824C211.773 230.025 212.152 230.125 212.621 230.125C213.045 230.125 213.412 230.041 213.722 229.872C214.036 229.703 214.275 229.48 214.439 229.202C214.603 228.924 214.685 228.626 214.685 228.307V227.562C214.576 227.566 214.275 227.587 213.783 227.623L212.812 227.691C212.256 227.728 211.826 227.849 211.52 228.054C211.215 228.259 211.062 228.557 211.062 228.949ZM220.462 233.939C219.865 233.939 219.336 233.855 218.876 233.687C218.42 233.518 218.058 233.272 217.789 232.948C217.52 232.625 217.363 232.235 217.318 231.779H218.548C218.63 232.153 218.835 232.436 219.163 232.627C219.496 232.818 219.929 232.914 220.462 232.914C221.118 232.914 221.624 232.768 221.98 232.477C222.335 232.185 222.513 231.738 222.513 231.137V229.633H222.417C222.285 229.856 222.146 230.052 222 230.221C221.854 230.389 221.636 230.544 221.344 230.686C221.057 230.822 220.694 230.891 220.257 230.891C219.651 230.891 219.109 230.743 218.63 230.446C218.151 230.15 217.776 229.724 217.502 229.168C217.233 228.607 217.099 227.947 217.099 227.186C217.099 226.438 217.233 225.784 217.502 225.224C217.771 224.663 218.145 224.232 218.623 223.932C219.102 223.631 219.651 223.48 220.271 223.48C220.704 223.48 221.064 223.551 221.351 223.692C221.642 223.834 221.85 223.979 221.973 224.13C222.1 224.276 222.258 224.483 222.444 224.752H222.54V223.576H223.689V231.205C223.689 231.82 223.547 232.331 223.265 232.736C222.987 233.146 222.606 233.45 222.123 233.646C221.64 233.841 221.086 233.939 220.462 233.939ZM220.421 229.838C221.095 229.838 221.617 229.61 221.986 229.154C222.356 228.694 222.54 228.051 222.54 227.227C222.54 226.693 222.458 226.224 222.294 225.818C222.13 225.413 221.888 225.098 221.569 224.875C221.255 224.647 220.872 224.533 220.421 224.533C219.961 224.533 219.571 224.652 219.252 224.889C218.933 225.126 218.692 225.449 218.527 225.859C218.368 226.265 218.288 226.721 218.288 227.227C218.288 227.746 218.368 228.202 218.527 228.594C218.692 228.986 218.933 229.291 219.252 229.51C219.571 229.729 219.961 229.838 220.421 229.838ZM228.399 231.15C227.692 231.15 227.077 230.993 226.553 230.679C226.029 230.364 225.626 229.92 225.343 229.346C225.065 228.771 224.926 228.106 224.926 227.35C224.926 226.593 225.065 225.923 225.343 225.34C225.626 224.752 226.02 224.296 226.526 223.973C227.036 223.645 227.624 223.48 228.289 223.48C228.85 223.48 229.372 223.606 229.855 223.856C230.338 224.103 230.73 224.504 231.031 225.06C231.336 225.611 231.489 226.32 231.489 227.186V227.678H226.102C226.12 228.193 226.227 228.632 226.423 228.997C226.619 229.362 226.886 229.64 227.223 229.831C227.565 230.018 227.957 230.111 228.399 230.111C228.818 230.111 229.171 230.034 229.458 229.879C229.75 229.719 229.971 229.514 230.121 229.264H231.379C231.261 229.637 231.063 229.968 230.785 230.255C230.511 230.537 230.169 230.758 229.759 230.918C229.354 231.073 228.9 231.15 228.399 231.15ZM230.299 226.68C230.299 226.265 230.215 225.896 230.046 225.572C229.882 225.244 229.648 224.987 229.342 224.8C229.037 224.613 228.686 224.52 228.289 224.52C227.875 224.52 227.506 224.618 227.182 224.813C226.863 225.009 226.61 225.274 226.423 225.606C226.241 225.935 226.136 226.292 226.109 226.68H230.299Z" fill="#333333"/>
<rect x="27" y="87" width="576" height="48" rx="10" fill="#F3F3F3"/>
<path d="M47.8691 116.607H46.8164V110.318H45.0664V115.979H44.0547V104.727H45.0664V109.402H46.8164V104.453H47.8691V116.607ZM39.1738 112.506C39.8529 112.497 40.5137 112.465 41.1562 112.41C41.7988 112.351 42.4642 112.251 43.1523 112.109L43.2891 113.066C42.4824 113.208 41.7214 113.31 41.0059 113.374C40.2904 113.433 39.5749 113.463 38.8594 113.463H38.1074V105.943H39.1738V112.506ZM59.7161 116.607H58.6907V104.453H59.7161V116.607ZM57.1595 115.992H56.1341V110.318H53.5569C52.7822 111.804 51.5813 113.025 49.9544 113.982L49.3255 113.203C50.6243 112.438 51.6178 111.521 52.3059 110.455C52.9986 109.384 53.3951 108.199 53.4954 106.9H49.845V106.012H54.5618C54.5527 107.251 54.3499 108.395 53.9534 109.443H56.1341V104.781H57.1595V115.992ZM70.5037 110.482H64.8846V105.287H70.5037V110.482ZM65.9373 109.607H69.4647V106.162H65.9373V109.607ZM73.867 107.379H75.6991V108.281H73.867V111.398H72.8006V104.453H73.867V107.379ZM74.0858 112.984H70.6336C70.6746 113.404 70.8797 113.805 71.2489 114.188C71.618 114.57 72.0942 114.898 72.6776 115.172C73.2655 115.441 73.8898 115.628 74.5506 115.732L74.1541 116.566C73.2472 116.416 72.4246 116.129 71.6864 115.705C70.9481 115.281 70.408 114.771 70.0662 114.174C69.729 114.775 69.1935 115.286 68.4598 115.705C67.7306 116.124 66.9126 116.407 66.0057 116.553L65.5955 115.732C66.27 115.628 66.8967 115.441 67.4754 115.172C68.0588 114.903 68.5327 114.579 68.8973 114.201C69.2664 113.818 69.4715 113.413 69.5125 112.984H66.0741V112.109H74.0858V112.984ZM86.0148 109.006H77.6886V104.904H78.755V108.145H86.0148V109.006ZM87.2999 111.535H76.171V110.66H87.2999V111.535ZM86.0831 116.307H77.6202V112.779H78.6866V115.418H86.0831V116.307ZM102.312 111.289H97.2946V112.725H100.945V116.607H99.8649V113.6H92.4684V112.725H96.2419V111.289H91.238V110.414H102.312V111.289ZM93.7809 106.148H99.7966V104.74H100.863V109.279H92.7145V104.74H93.7809V106.148ZM99.7966 108.418V106.969H93.7809V108.418H99.7966ZM112.724 105.971C112.724 106.622 112.705 107.206 112.669 107.721C112.637 108.236 112.557 108.81 112.43 109.443H114.132V110.318H103.071V109.443H111.35C111.464 108.896 111.543 108.372 111.589 107.871L104.315 108.186L104.179 107.324L111.644 107.099C111.653 106.834 111.657 106.458 111.657 105.971V105.93H104.466V105.055H112.724V105.971ZM112.819 114.297H105.464V115.582H113.243V116.443H104.397V113.477H111.753V112.328H104.37V111.494H112.819V114.297ZM124.953 111.139H123.873V107.885H121.563V106.996H123.873V104.467H124.953V111.139ZM118.063 113.203H123.887V111.713H124.953V116.443H116.996V111.713H118.063V113.203ZM123.887 115.568V114.064H118.063V115.568H123.887ZM120.783 108.254H116.463V109.936C117.543 109.931 118.484 109.904 119.286 109.854C120.093 109.803 120.929 109.708 121.795 109.566L121.891 110.469C120.979 110.605 120.102 110.699 119.259 110.749C118.416 110.799 117.434 110.824 116.313 110.824H115.397V107.42H119.744V105.848H115.369V104.973H120.783V108.254ZM134.073 106.996C134.073 107.475 134.198 107.935 134.449 108.377C134.704 108.819 135.06 109.209 135.515 109.546C135.976 109.883 136.502 110.141 137.095 110.318L136.589 111.139C135.891 110.929 135.278 110.61 134.75 110.182C134.226 109.749 133.829 109.241 133.56 108.657C133.301 109.295 132.9 109.851 132.357 110.325C131.819 110.795 131.188 111.148 130.464 111.385L129.93 110.537C130.532 110.355 131.065 110.088 131.53 109.737C131.999 109.382 132.364 108.967 132.624 108.493C132.888 108.019 133.02 107.52 133.02 106.996V106.764H130.272V105.875H133.02V104.398H134.1V105.875H136.821V106.764H134.073V106.996ZM139.432 107.461H141.264V108.363H139.432V111.521H138.366V104.453H139.432V107.461ZM139.651 113.053H136.206C136.265 113.463 136.479 113.855 136.848 114.229C137.222 114.598 137.696 114.914 138.27 115.179C138.849 115.443 139.464 115.628 140.116 115.732L139.72 116.566C138.808 116.416 137.983 116.129 137.245 115.705C136.507 115.281 135.967 114.771 135.625 114.174C135.288 114.766 134.754 115.27 134.025 115.685C133.296 116.104 132.478 116.393 131.571 116.553L131.161 115.732C131.817 115.628 132.432 115.445 133.007 115.186C133.585 114.921 134.059 114.604 134.429 114.235C134.798 113.866 135.012 113.472 135.071 113.053H131.639V112.178H139.651V113.053ZM151.799 116.607H150.719V104.453H151.799V116.607ZM148.203 105.779C148.194 107.616 147.729 109.266 146.809 110.729C145.888 112.187 144.448 113.385 142.488 114.324L141.9 113.449C143.523 112.679 144.765 111.722 145.626 110.578C146.492 109.434 146.986 108.126 147.109 106.654H142.461V105.779H148.203Z" fill="#030303"/>
<rect x="27" y="148" width="576" height="48" rx="10" fill="#F3F3F3"/>
<path d="M37.9434 169.076H39.0781V170.252H39.2148C39.3607 170.015 39.502 169.817 39.6387 169.657C39.7754 169.493 39.9873 169.34 40.2744 169.199C40.5615 169.053 40.9238 168.98 41.3613 168.98C41.9811 168.98 42.528 169.138 43.002 169.452C43.4805 169.762 43.8519 170.206 44.1162 170.785C44.3851 171.364 44.5195 172.038 44.5195 172.809C44.5195 173.579 44.3851 174.256 44.1162 174.839C43.8519 175.418 43.4805 175.864 43.002 176.179C42.528 176.493 41.9857 176.65 41.375 176.65C40.9421 176.65 40.5798 176.58 40.2881 176.438C40.001 176.293 39.7845 176.135 39.6387 175.967C39.4928 175.794 39.3516 175.593 39.2148 175.365H39.1191V179.289H37.9434V169.076ZM39.0918 172.781C39.0918 173.342 39.1738 173.834 39.3379 174.258C39.502 174.682 39.7435 175.012 40.0625 175.249C40.3815 175.481 40.7643 175.598 41.2109 175.598C41.6667 175.598 42.054 175.477 42.373 175.235C42.6966 174.989 42.9382 174.654 43.0977 174.23C43.2617 173.802 43.3438 173.319 43.3438 172.781C43.3438 172.257 43.2617 171.788 43.0977 171.373C42.9382 170.958 42.6989 170.632 42.3799 170.396C42.0609 170.154 41.6712 170.033 41.2109 170.033C40.7552 170.033 40.3678 170.147 40.0488 170.375C39.7344 170.603 39.4951 170.924 39.3311 171.339C39.1715 171.749 39.0918 172.23 39.0918 172.781ZM45.4153 174.395C45.4153 173.624 45.6774 173.082 46.2014 172.768C46.7301 172.453 47.3977 172.266 48.2044 172.207C48.5143 172.184 48.8606 172.164 49.2434 172.146C49.6308 172.123 49.9544 172.107 50.2141 172.098V171.496C50.2141 171.018 50.0706 170.651 49.7835 170.396C49.5009 170.136 49.0839 170.006 48.5325 170.006C48.0813 170.006 47.7122 170.099 47.4251 170.286C47.138 170.468 46.9511 170.708 46.8645 171.004H45.6341C45.6842 170.607 45.8391 170.257 46.0989 169.951C46.3587 169.646 46.7027 169.409 47.1311 169.24C47.5641 169.067 48.0494 168.98 48.5872 168.98C49.2981 168.98 49.9407 169.163 50.5149 169.527C51.0891 169.887 51.3762 170.58 51.3762 171.605V176.5H50.2141V175.488H50.1595C50.0683 175.68 49.927 175.867 49.7356 176.049C49.5488 176.227 49.3027 176.377 48.9973 176.5C48.6966 176.618 48.3457 176.678 47.9446 176.678C47.4707 176.678 47.0423 176.587 46.6595 176.404C46.2766 176.222 45.9736 175.96 45.7503 175.618C45.527 175.272 45.4153 174.864 45.4153 174.395ZM46.5911 174.449C46.5911 174.827 46.7324 175.119 47.0149 175.324C47.302 175.525 47.6803 175.625 48.1497 175.625C48.5735 175.625 48.9404 175.541 49.2503 175.372C49.5647 175.203 49.804 174.98 49.968 174.702C50.1321 174.424 50.2141 174.126 50.2141 173.807V173.062C50.1048 173.066 49.804 173.087 49.3118 173.123L48.3411 173.191C47.7851 173.228 47.3544 173.349 47.0491 173.554C46.7438 173.759 46.5911 174.057 46.5911 174.449ZM55.9908 179.439C55.3938 179.439 54.8651 179.355 54.4048 179.187C53.9491 179.018 53.5868 178.772 53.3179 178.448C53.049 178.125 52.8918 177.735 52.8462 177.279H54.0767C54.1587 177.653 54.3638 177.936 54.692 178.127C55.0246 178.318 55.4576 178.414 55.9908 178.414C56.647 178.414 57.1529 178.268 57.5084 177.977C57.8638 177.685 58.0416 177.238 58.0416 176.637V175.133H57.9459C57.8137 175.356 57.6747 175.552 57.5289 175.721C57.383 175.889 57.1643 176.044 56.8726 176.186C56.5855 176.322 56.2232 176.391 55.7857 176.391C55.1796 176.391 54.6373 176.243 54.1587 175.946C53.6802 175.65 53.3043 175.224 53.0308 174.668C52.7619 174.107 52.6275 173.447 52.6275 172.686C52.6275 171.938 52.7619 171.284 53.0308 170.724C53.2997 170.163 53.6734 169.732 54.1519 169.432C54.6304 169.131 55.1796 168.98 55.7994 168.98C56.2323 168.98 56.5923 169.051 56.8795 169.192C57.1711 169.334 57.3785 169.479 57.5015 169.63C57.6291 169.776 57.7864 169.983 57.9732 170.252H58.0689V169.076H59.2173V176.705C59.2173 177.32 59.0761 177.831 58.7935 178.236C58.5155 178.646 58.135 178.95 57.6519 179.146C57.1688 179.341 56.6151 179.439 55.9908 179.439ZM55.9498 175.338C56.6242 175.338 57.1461 175.11 57.5152 174.654C57.8843 174.194 58.0689 173.551 58.0689 172.727C58.0689 172.193 57.9869 171.724 57.8228 171.318C57.6587 170.913 57.4172 170.598 57.0982 170.375C56.7837 170.147 56.4009 170.033 55.9498 170.033C55.4895 170.033 55.0998 170.152 54.7808 170.389C54.4618 170.626 54.2203 170.949 54.0562 171.359C53.8967 171.765 53.817 172.221 53.817 172.727C53.817 173.246 53.8967 173.702 54.0562 174.094C54.2203 174.486 54.4618 174.791 54.7808 175.01C55.0998 175.229 55.4895 175.338 55.9498 175.338ZM63.9276 176.65C63.2212 176.65 62.606 176.493 62.0819 176.179C61.5578 175.864 61.1545 175.42 60.8719 174.846C60.5939 174.271 60.4549 173.606 60.4549 172.85C60.4549 172.093 60.5939 171.423 60.8719 170.84C61.1545 170.252 61.5487 169.796 62.0545 169.473C62.5649 169.145 63.1528 168.98 63.8182 168.98C64.3787 168.98 64.9006 169.106 65.3836 169.356C65.8667 169.603 66.2586 170.004 66.5594 170.56C66.8648 171.111 67.0174 171.82 67.0174 172.686V173.178H61.6307C61.6489 173.693 61.756 174.132 61.952 174.497C62.148 174.862 62.4146 175.14 62.7518 175.331C63.0936 175.518 63.4855 175.611 63.9276 175.611C64.3468 175.611 64.7 175.534 64.9871 175.379C65.2788 175.219 65.4998 175.014 65.6502 174.764H66.908C66.7896 175.137 66.5913 175.468 66.3133 175.755C66.0399 176.037 65.6981 176.258 65.2879 176.418C64.8823 176.573 64.4289 176.65 63.9276 176.65ZM65.828 172.18C65.828 171.765 65.7437 171.396 65.575 171.072C65.411 170.744 65.1763 170.487 64.8709 170.3C64.5656 170.113 64.2147 170.02 63.8182 170.02C63.4035 170.02 63.0343 170.118 62.7108 170.313C62.3918 170.509 62.1388 170.774 61.952 171.106C61.7697 171.435 61.6649 171.792 61.6375 172.18H65.828ZM68.5968 177.99H67.5304L70.7159 166.137H71.796L68.5968 177.99ZM72.8148 166.602H73.9906V170.252H74.0863C74.1046 170.22 74.1911 170.083 74.3461 169.842C74.501 169.6 74.7449 169.397 75.0775 169.233C75.4102 169.065 75.7953 168.98 76.2328 168.98C76.8526 168.98 77.4018 169.138 77.8803 169.452C78.3588 169.762 78.7325 170.206 79.0014 170.785C79.2702 171.364 79.4047 172.038 79.4047 172.809C79.4047 173.579 79.2702 174.256 79.0014 174.839C78.7325 175.418 78.3588 175.864 77.8803 176.179C77.4063 176.493 76.8617 176.65 76.2465 176.65C75.8135 176.65 75.4535 176.58 75.1664 176.438C74.8793 176.293 74.6651 176.138 74.5238 175.974C74.3871 175.81 74.2413 175.607 74.0863 175.365H73.9496V176.5H72.8148V166.602ZM73.9633 172.781C73.9633 173.342 74.0453 173.834 74.2094 174.258C74.3734 174.682 74.6127 175.012 74.9271 175.249C75.2462 175.481 75.6267 175.598 76.0687 175.598C76.5245 175.598 76.9141 175.477 77.2377 175.235C77.5613 174.989 77.8051 174.654 77.9691 174.23C78.1332 173.802 78.2152 173.319 78.2152 172.781C78.2152 172.257 78.1332 171.788 77.9691 171.373C77.8096 170.958 77.5681 170.632 77.2445 170.396C76.9255 170.154 76.5336 170.033 76.0687 170.033C75.6221 170.033 75.2393 170.147 74.9203 170.375C74.6059 170.603 74.3666 170.924 74.2025 171.339C74.043 171.749 73.9633 172.23 73.9633 172.781ZM83.6911 176.65C83.0212 176.65 82.4287 176.493 81.9137 176.179C81.4033 175.86 81.0068 175.411 80.7243 174.832C80.4417 174.253 80.3005 173.583 80.3005 172.822C80.3005 172.061 80.4417 171.391 80.7243 170.812C81.0068 170.229 81.4033 169.778 81.9137 169.459C82.4287 169.14 83.0212 168.98 83.6911 168.98C84.3565 168.98 84.9421 169.14 85.4479 169.459C85.9583 169.778 86.3526 170.229 86.6305 170.812C86.9131 171.391 87.0544 172.061 87.0544 172.822C87.0544 173.583 86.9131 174.253 86.6305 174.832C86.3526 175.411 85.9583 175.86 85.4479 176.179C84.9421 176.493 84.3565 176.65 83.6911 176.65ZM83.6911 175.611C84.1696 175.611 84.5729 175.486 84.9011 175.235C85.2292 174.98 85.473 174.643 85.6325 174.224C85.7966 173.8 85.8786 173.333 85.8786 172.822C85.8786 172.312 85.7966 171.845 85.6325 171.421C85.473 170.997 85.2292 170.658 84.9011 170.402C84.5729 170.147 84.1696 170.02 83.6911 170.02C83.2035 170.02 82.7933 170.147 82.4606 170.402C82.1325 170.658 81.8864 170.997 81.7223 171.421C81.5583 171.845 81.4762 172.312 81.4762 172.822C81.4762 173.333 81.5583 173.8 81.7223 174.224C81.8864 174.643 82.1325 174.98 82.4606 175.235C82.7933 175.486 83.2035 175.611 83.6911 175.611ZM91.3545 176.65C90.6845 176.65 90.0921 176.493 89.5771 176.179C89.0667 175.86 88.6702 175.411 88.3877 174.832C88.1051 174.253 87.9638 173.583 87.9638 172.822C87.9638 172.061 88.1051 171.391 88.3877 170.812C88.6702 170.229 89.0667 169.778 89.5771 169.459C90.0921 169.14 90.6845 168.98 91.3545 168.98C92.0198 168.98 92.6054 169.14 93.1113 169.459C93.6217 169.778 94.0159 170.229 94.2939 170.812C94.5765 171.391 94.7177 172.061 94.7177 172.822C94.7177 173.583 94.5765 174.253 94.2939 174.832C94.0159 175.411 93.6217 175.86 93.1113 176.179C92.6054 176.493 92.0198 176.65 91.3545 176.65ZM91.3545 175.611C91.833 175.611 92.2363 175.486 92.5644 175.235C92.8925 174.98 93.1364 174.643 93.2959 174.224C93.4599 173.8 93.542 173.333 93.542 172.822C93.542 172.312 93.4599 171.845 93.2959 171.421C93.1364 170.997 92.8925 170.658 92.5644 170.402C92.2363 170.147 91.833 170.02 91.3545 170.02C90.8668 170.02 90.4567 170.147 90.124 170.402C89.7959 170.658 89.5498 170.997 89.3857 171.421C89.2216 171.845 89.1396 172.312 89.1396 172.822C89.1396 173.333 89.2216 173.8 89.3857 174.224C89.5498 174.643 89.7959 174.98 90.124 175.235C90.4567 175.486 90.8668 175.611 91.3545 175.611ZM95.9827 166.602H97.1584V172.357H97.2952L100.508 169.076H101.957L98.8264 172.255L102.19 176.5H100.699L97.9446 173L97.1584 173.731V176.5H95.9827V166.602ZM105.656 176.65C104.968 176.65 104.366 176.489 103.851 176.165C103.341 175.837 102.949 175.383 102.675 174.805C102.402 174.226 102.265 173.565 102.265 172.822C102.265 172.075 102.404 171.412 102.682 170.833C102.965 170.25 103.359 169.796 103.865 169.473C104.375 169.145 104.963 168.98 105.628 168.98C106.153 168.98 106.626 169.078 107.05 169.274C107.474 169.466 107.818 169.739 108.083 170.095C108.351 170.446 108.518 170.854 108.582 171.318H107.406C107.351 171.081 107.246 170.865 107.091 170.669C106.936 170.473 106.736 170.316 106.49 170.197C106.248 170.079 105.97 170.02 105.656 170.02C105.218 170.02 104.831 170.133 104.494 170.361C104.161 170.589 103.901 170.913 103.714 171.332C103.532 171.747 103.441 172.23 103.441 172.781C103.441 173.351 103.53 173.848 103.708 174.271C103.89 174.695 104.147 175.023 104.48 175.256C104.817 175.484 105.209 175.598 105.656 175.598C106.098 175.598 106.474 175.486 106.784 175.263C107.098 175.035 107.306 174.718 107.406 174.312H108.582C108.518 174.759 108.358 175.16 108.103 175.516C107.848 175.867 107.511 176.145 107.091 176.35C106.672 176.55 106.194 176.65 105.656 176.65ZM110.927 176.5H109.751V166.602H110.927V176.5ZM117.209 169.076H118.371V176.5H117.209V175.242H117.127C116.936 175.648 116.653 175.976 116.279 176.227C115.91 176.473 115.459 176.596 114.926 176.596C114.447 176.596 114.028 176.493 113.668 176.288C113.308 176.078 113.025 175.764 112.82 175.345C112.62 174.925 112.52 174.408 112.52 173.793V169.076H113.695V173.711C113.695 174.062 113.764 174.369 113.9 174.634C114.037 174.898 114.226 175.103 114.468 175.249C114.714 175.39 114.994 175.461 115.309 175.461C115.605 175.461 115.899 175.386 116.191 175.235C116.487 175.085 116.731 174.859 116.922 174.559C117.113 174.253 117.209 173.884 117.209 173.451V169.076ZM120.128 166.602H121.304V170.252H121.4C121.418 170.22 121.505 170.083 121.66 169.842C121.814 169.6 122.058 169.397 122.391 169.233C122.724 169.065 123.109 168.98 123.546 168.98C124.166 168.98 124.715 169.138 125.194 169.452C125.672 169.762 126.046 170.206 126.315 170.785C126.584 171.364 126.718 172.038 126.718 172.809C126.718 173.579 126.584 174.256 126.315 174.839C126.046 175.418 125.672 175.864 125.194 176.179C124.72 176.493 124.175 176.65 123.56 176.65C123.127 176.65 122.767 176.58 122.48 176.438C122.193 176.293 121.979 176.138 121.837 175.974C121.701 175.81 121.555 175.607 121.4 175.365H121.263V176.5H120.128V166.602ZM121.277 172.781C121.277 173.342 121.359 173.834 121.523 174.258C121.687 174.682 121.926 175.012 122.241 175.249C122.56 175.481 122.94 175.598 123.382 175.598C123.838 175.598 124.228 175.477 124.551 175.235C124.875 174.989 125.119 174.654 125.283 174.23C125.447 173.802 125.529 173.319 125.529 172.781C125.529 172.257 125.447 171.788 125.283 171.373C125.123 170.958 124.882 170.632 124.558 170.396C124.239 170.154 123.847 170.033 123.382 170.033C122.936 170.033 122.553 170.147 122.234 170.375C121.919 170.603 121.68 170.924 121.516 171.339C121.356 171.749 121.277 172.23 121.277 172.781ZM128.298 177.99H127.231L130.417 166.137H131.497L128.298 177.99ZM132.365 169.076H133.5V170.211H133.582C133.719 169.833 133.962 169.53 134.313 169.302C134.664 169.069 135.059 168.953 135.496 168.953C135.724 168.953 135.929 168.962 136.111 168.98V170.17C136.061 170.152 135.963 170.133 135.817 170.115C135.676 170.097 135.537 170.088 135.4 170.088C135.049 170.088 134.733 170.163 134.45 170.313C134.168 170.464 133.944 170.671 133.78 170.936C133.621 171.2 133.541 171.496 133.541 171.824V176.5H132.365V169.076ZM139.851 176.65C139.144 176.65 138.529 176.493 138.005 176.179C137.481 175.864 137.078 175.42 136.795 174.846C136.517 174.271 136.378 173.606 136.378 172.85C136.378 172.093 136.517 171.423 136.795 170.84C137.078 170.252 137.472 169.796 137.978 169.473C138.488 169.145 139.076 168.98 139.741 168.98C140.302 168.98 140.824 169.106 141.307 169.356C141.79 169.603 142.182 170.004 142.483 170.56C142.788 171.111 142.941 171.82 142.941 172.686V173.178H137.554C137.572 173.693 137.679 174.132 137.875 174.497C138.071 174.862 138.338 175.14 138.675 175.331C139.017 175.518 139.409 175.611 139.851 175.611C140.27 175.611 140.623 175.534 140.91 175.379C141.202 175.219 141.423 175.014 141.573 174.764H142.831C142.713 175.137 142.515 175.468 142.237 175.755C141.963 176.037 141.621 176.258 141.211 176.418C140.806 176.573 140.352 176.65 139.851 176.65ZM141.751 172.18C141.751 171.765 141.667 171.396 141.498 171.072C141.334 170.744 141.099 170.487 140.794 170.3C140.489 170.113 140.138 170.02 139.741 170.02C139.327 170.02 138.958 170.118 138.634 170.313C138.315 170.509 138.062 170.774 137.875 171.106C137.693 171.435 137.588 171.792 137.561 172.18H141.751ZM143.836 174.395C143.836 173.624 144.098 173.082 144.623 172.768C145.151 172.453 145.819 172.266 146.625 172.207C146.935 172.184 147.282 172.164 147.665 172.146C148.052 172.123 148.375 172.107 148.635 172.098V171.496C148.635 171.018 148.492 170.651 148.205 170.396C147.922 170.136 147.505 170.006 146.954 170.006C146.502 170.006 146.133 170.099 145.846 170.286C145.559 170.468 145.372 170.708 145.286 171.004H144.055C144.105 170.607 144.26 170.257 144.52 169.951C144.78 169.646 145.124 169.409 145.552 169.24C145.985 169.067 146.471 168.98 147.008 168.98C147.719 168.98 148.362 169.163 148.936 169.527C149.51 169.887 149.797 170.58 149.797 171.605V176.5H148.635V175.488H148.581C148.489 175.68 148.348 175.867 148.157 176.049C147.97 176.227 147.724 176.377 147.418 176.5C147.118 176.618 146.767 176.678 146.366 176.678C145.892 176.678 145.463 176.587 145.081 176.404C144.698 176.222 144.395 175.96 144.171 175.618C143.948 175.272 143.836 174.864 143.836 174.395ZM145.012 174.449C145.012 174.827 145.153 175.119 145.436 175.324C145.723 175.525 146.101 175.625 146.571 175.625C146.995 175.625 147.361 175.541 147.671 175.372C147.986 175.203 148.225 174.98 148.389 174.702C148.553 174.424 148.635 174.126 148.635 173.807V173.062C148.526 173.066 148.225 173.087 147.733 173.123L146.762 173.191C146.206 173.228 145.776 173.349 145.47 173.554C145.165 173.759 145.012 174.057 145.012 174.449ZM154.207 176.65C153.592 176.65 153.045 176.493 152.566 176.179C152.092 175.864 151.721 175.418 151.452 174.839C151.183 174.256 151.049 173.579 151.049 172.809C151.049 172.038 151.183 171.364 151.452 170.785C151.721 170.206 152.094 169.762 152.573 169.452C153.052 169.138 153.601 168.98 154.22 168.98C154.658 168.98 155.02 169.053 155.307 169.199C155.594 169.34 155.806 169.493 155.943 169.657C156.08 169.817 156.221 170.015 156.367 170.252H156.449V166.602H157.638V176.5H156.49V175.365H156.367C156.212 175.607 156.064 175.81 155.923 175.974C155.786 176.138 155.574 176.293 155.287 176.438C155 176.58 154.64 176.65 154.207 176.65ZM154.371 175.598C154.813 175.598 155.193 175.481 155.512 175.249C155.831 175.012 156.073 174.682 156.237 174.258C156.406 173.829 156.49 173.337 156.49 172.781C156.49 172.23 156.408 171.749 156.244 171.339C156.084 170.924 155.845 170.603 155.526 170.375C155.207 170.147 154.822 170.033 154.371 170.033C153.911 170.033 153.521 170.154 153.202 170.396C152.883 170.632 152.641 170.958 152.477 171.373C152.318 171.788 152.238 172.257 152.238 172.781C152.238 173.319 152.318 173.802 152.477 174.23C152.641 174.654 152.883 174.989 153.202 175.235C153.525 175.477 153.915 175.598 154.371 175.598ZM159.396 169.076H160.571V176.5H159.396V169.076ZM159.983 167.846C159.756 167.846 159.562 167.771 159.402 167.62C159.243 167.47 159.163 167.285 159.163 167.066C159.163 166.848 159.243 166.663 159.402 166.513C159.562 166.362 159.756 166.287 159.983 166.287C160.211 166.287 160.407 166.362 160.571 166.513C160.735 166.663 160.817 166.848 160.817 167.066C160.817 167.285 160.735 167.47 160.571 167.62C160.407 167.771 160.211 167.846 159.983 167.846ZM163.34 176.5H162.164V169.076H163.299V170.238H163.395C163.582 169.842 163.853 169.534 164.208 169.315C164.568 169.092 165.022 168.98 165.569 168.98C166.079 168.98 166.521 169.085 166.895 169.295C167.269 169.5 167.558 169.812 167.763 170.231C167.968 170.651 168.071 171.168 168.071 171.783V176.5H166.895V171.865C166.895 171.291 166.747 170.842 166.451 170.519C166.154 170.195 165.742 170.033 165.213 170.033C164.849 170.033 164.525 170.113 164.243 170.272C163.96 170.427 163.739 170.658 163.579 170.963C163.42 171.264 163.34 171.624 163.34 172.043V176.5ZM172.685 179.439C172.088 179.439 171.559 179.355 171.099 179.187C170.643 179.018 170.281 178.772 170.012 178.448C169.743 178.125 169.586 177.735 169.541 177.279H170.771C170.853 177.653 171.058 177.936 171.386 178.127C171.719 178.318 172.152 178.414 172.685 178.414C173.341 178.414 173.847 178.268 174.203 177.977C174.558 177.685 174.736 177.238 174.736 176.637V175.133H174.64C174.508 175.356 174.369 175.552 174.223 175.721C174.077 175.889 173.859 176.044 173.567 176.186C173.28 176.322 172.918 176.391 172.48 176.391C171.874 176.391 171.332 176.243 170.853 175.946C170.375 175.65 169.999 175.224 169.725 174.668C169.456 174.107 169.322 173.447 169.322 172.686C169.322 171.938 169.456 171.284 169.725 170.724C169.994 170.163 170.368 169.732 170.846 169.432C171.325 169.131 171.874 168.98 172.494 168.98C172.927 168.98 173.287 169.051 173.574 169.192C173.865 169.334 174.073 169.479 174.196 169.63C174.323 169.776 174.481 169.983 174.668 170.252H174.763V169.076H175.912V176.705C175.912 177.32 175.77 177.831 175.488 178.236C175.21 178.646 174.829 178.95 174.346 179.146C173.863 179.341 173.309 179.439 172.685 179.439ZM172.644 175.338C173.319 175.338 173.84 175.11 174.21 174.654C174.579 174.194 174.763 173.551 174.763 172.727C174.763 172.193 174.681 171.724 174.517 171.318C174.353 170.913 174.112 170.598 173.793 170.375C173.478 170.147 173.095 170.033 172.644 170.033C172.184 170.033 171.794 170.152 171.475 170.389C171.156 170.626 170.915 170.949 170.751 171.359C170.591 171.765 170.511 172.221 170.511 172.727C170.511 173.246 170.591 173.702 170.751 174.094C170.915 174.486 171.156 174.791 171.475 175.01C171.794 175.229 172.184 175.338 172.644 175.338ZM177.833 177.99H176.766L179.952 166.137H181.032L177.833 177.99Z" fill="#999999"/>
</g>
<defs>
<filter id="filter0_d_1_4954" x="4" y="4" width="622" height="324" filterUnits="userSpaceOnUse" color-interpolation-filters="sRGB">
<feFlood flood-opacity="0" result="BackgroundImageFix"/>
<feColorMatrix in="SourceAlpha" type="matrix" values="0 0 0 0 0 0 0 0 0 0 0 0 0 0 0 0 0 0 127 0" result="hardAlpha"/>
<feOffset dy="4"/>
<feGaussianBlur stdDeviation="2"/>
<feComposite in2="hardAlpha" operator="out"/>
<feColorMatrix type="matrix" values="0 0 0 0 0 0 0 0 0 0 0 0 0 0 0 0 0 0 0.25 0"/>
<feBlend mode="normal" in2="BackgroundImageFix" result="effect1_dropShadow_1_4954"/>
<feBlend mode="normal" in="SourceGraphic" in2="effect1_dropShadow_1_4954" result="shape"/>
</filter>
<filter id="filter1_d_1_4954" x="0" y="0" width="630" height="332" filterUnits="userSpaceOnUse" color-interpolation-filters="sRGB">
<feFlood flood-opacity="0" result="BackgroundImageFix"/>
<feColorMatrix in="SourceAlpha" type="matrix" values="0 0 0 0 0 0 0 0 0 0 0 0 0 0 0 0 0 0 127 0" result="hardAlpha"/>
<feOffset dy="4"/>
<feGaussianBlur stdDeviation="4"/>
<feComposite in2="hardAlpha" operator="out"/>
<feColorMatrix type="matrix" values="0 0 0 0 0 0 0 0 0 0 0 0 0 0 0 0 0 0 0.25 0"/>
<feBlend mode="normal" in2="BackgroundImageFix" result="effect1_dropShadow_1_4954"/>
<feBlend mode="normal" in="SourceGraphic" in2="effect1_dropShadow_1_4954" result="shape"/>
</filter>
</defs>
</svg>
