<svg width="630" height="403" viewBox="0 0 630 403" fill="none" xmlns="http://www.w3.org/2000/svg">
<g filter="url(#filter0_d_1_2579)">
<rect x="8" y="4" width="614" height="387" rx="10" fill="white"/>
</g>
<path d="M8 338H622V381C622 386.523 617.523 391 612 391H18C12.4772 391 8 386.523 8 381V338Z" fill="#1A1A1A"/>
<path d="M315 338H622V381C622 386.523 617.523 391 612 391H315V338Z" fill="#EE7D00"/>
<path d="M53.6396 58.1016H51.2646V47.8408H53.6396V58.1016ZM48.2031 53.9453H42.7109V55.4668C44.2077 55.4544 45.491 55.4173 46.561 55.3555C47.631 55.2874 48.7103 55.1699 49.7988 55.0029L50.0957 56.8955C48.8711 57.0934 47.6527 57.2264 46.4404 57.2944C45.2282 57.3625 43.7067 57.3965 41.876 57.3965H40.3916V52.1826H45.8467V50.7354H40.373V48.8242H48.2031V53.9453ZM47.9062 58.3799C49.1123 58.3799 50.1514 58.5036 51.0234 58.751C51.8955 58.9922 52.5666 59.3509 53.0366 59.8271C53.5067 60.2972 53.7448 60.8662 53.751 61.5342C53.7448 62.196 53.5067 62.765 53.0366 63.2412C52.5666 63.7174 51.8924 64.0793 51.0142 64.3267C50.1421 64.5802 49.1061 64.707 47.9062 64.707C46.7126 64.707 45.6797 64.5802 44.8076 64.3267C43.9355 64.0793 43.2645 63.7174 42.7944 63.2412C42.3306 62.765 42.0986 62.196 42.0986 61.5342C42.0986 60.8662 42.3306 60.2972 42.7944 59.8271C43.2645 59.3509 43.9325 58.9922 44.7983 58.751C45.6704 58.5036 46.7064 58.3799 47.9062 58.3799ZM47.9062 60.2168C45.6055 60.2168 44.4551 60.6559 44.4551 61.5342C44.4551 61.9795 44.7458 62.3135 45.3271 62.5361C45.9085 62.7588 46.7682 62.8701 47.9062 62.8701C49.0443 62.8701 49.904 62.7588 50.4854 62.5361C51.0729 62.3135 51.3698 61.9795 51.376 61.5342C51.3574 60.6559 50.2008 60.2168 47.9062 60.2168ZM68.7451 51.2734C68.7451 52.3558 68.7327 53.2743 68.708 54.0288C68.6833 54.7772 68.6121 55.6307 68.4946 56.5894C68.3833 57.548 68.207 58.5964 67.9658 59.7344L65.6094 59.5117C65.9001 58.2933 66.1134 57.0316 66.2495 55.7266L56.4619 56.209L56.165 54.3164L66.3701 53.9453C66.3887 53.6113 66.401 53.2186 66.4072 52.7671C66.4134 52.3156 66.4196 51.9661 66.4258 51.7188V51.2734V51.1992H56.6846V49.3066H68.7451V51.2734ZM70.3223 62.6846H54.9219V60.7549H70.3223V62.6846ZM87.9531 56.4131H85.5967V52.2197H82.4238V50.3457H85.5967V47.8223H87.9531V56.4131ZM87.9531 61.627H79.084V62.666H88.4355V64.5215H76.7461V59.9014H85.6152V58.9365H76.7275V57.1182H87.9531V61.627ZM80.0488 49.6035C80.0426 50.2962 80.1756 50.958 80.4478 51.5889C80.7261 52.2135 81.1559 52.7702 81.7373 53.2588C82.3187 53.7412 83.0423 54.1123 83.9082 54.3721L82.665 56.1904C81.7806 55.9059 81.0199 55.4946 80.3828 54.9565C79.7458 54.4123 79.2386 53.766 78.8613 53.0176C78.484 53.8525 77.9552 54.5731 77.2749 55.1792C76.6007 55.7853 75.7812 56.2399 74.8164 56.543L73.5918 54.6689C74.4948 54.403 75.2493 54.0164 75.8555 53.5093C76.4616 52.9959 76.91 52.4053 77.2007 51.7373C77.4976 51.0693 77.6491 50.3581 77.6553 49.6035V48.3789H80.0488V49.6035ZM103.374 57.8418H101.018V53.8525H98.3828V51.9414H101.018V47.8223H103.374V57.8418ZM97.6035 58.2129C98.8034 58.2191 99.8363 58.3521 100.702 58.6118C101.574 58.8654 102.245 59.2365 102.715 59.7251C103.185 60.2137 103.424 60.7982 103.43 61.4785C103.424 62.1527 103.185 62.734 102.715 63.2227C102.245 63.7113 101.574 64.0824 100.702 64.3359C99.8301 64.5957 98.7972 64.7256 97.6035 64.7256C96.4098 64.7256 95.377 64.5957 94.5049 64.3359C93.6328 64.0824 92.9618 63.7113 92.4917 63.2227C92.0278 62.734 91.7959 62.1527 91.7959 61.4785C91.7959 60.7982 92.0278 60.2137 92.4917 59.7251C92.9618 59.2365 93.6297 58.8654 94.4956 58.6118C95.3677 58.3521 96.4036 58.2191 97.6035 58.2129ZM97.6035 60.0312C95.3027 60.0312 94.1523 60.5137 94.1523 61.4785C94.1523 61.9609 94.443 62.3228 95.0244 62.564C95.612 62.8052 96.4717 62.9258 97.6035 62.9258C98.7354 62.9258 99.5951 62.8052 100.183 62.564C100.776 62.3166 101.073 61.9548 101.073 61.4785C101.073 60.5137 99.9167 60.0312 97.6035 60.0312ZM98.8838 50.7354H95.5254C95.5439 51.4157 95.6955 52.0713 95.98 52.7021C96.2707 53.3268 96.7005 53.8896 97.2695 54.3906C97.8447 54.8916 98.556 55.2812 99.4033 55.5596L98.2344 57.415C97.3314 57.1243 96.5521 56.6914 95.8965 56.1162C95.2471 55.5348 94.7337 54.8514 94.3564 54.0659C93.9668 54.9565 93.4287 55.7297 92.7422 56.3853C92.0557 57.0347 91.2269 57.5264 90.2559 57.8604L89.0312 55.9863C89.9219 55.6895 90.6672 55.2689 91.2671 54.7246C91.8732 54.1742 92.3247 53.5557 92.6216 52.8691C92.9246 52.1826 93.0885 51.4714 93.1133 50.7354H89.7178V48.8428H98.8838V50.7354Z" fill="#333333"/>
<path d="M152.977 359.552H155.259V361.481H152.977V365.267H150.602V355.822H152.977V359.552ZM147.763 358.754H142.604V362.65C144.157 362.65 145.416 362.616 146.38 362.548C147.351 362.474 148.301 362.341 149.229 362.149L149.47 364.042C148.437 364.258 147.358 364.407 146.232 364.487C145.112 364.562 143.588 364.599 141.658 364.599H140.229V356.861H147.763V358.754ZM153.088 367.976H144.33V370.629H153.403V372.521H141.937V366.083H153.088V367.976ZM169.195 372.707H166.802V355.822H169.195V372.707ZM164.13 357.585C164.13 359.391 163.886 361.033 163.397 362.511C162.915 363.989 162.098 365.347 160.948 366.584C159.797 367.815 158.248 368.891 156.3 369.812L155.057 367.92C156.498 367.24 157.685 366.482 158.619 365.647C159.559 364.812 160.277 363.887 160.771 362.873C161.272 361.853 161.588 360.708 161.718 359.44H155.966V357.585H164.13Z" fill="white"/>
<path d="M467.088 359.665H469.24V361.613H467.088V366.308H464.713V354.841H467.088V359.665ZM453.395 364.137C455.157 364.137 456.524 364.124 457.495 364.1V363.153C456.567 363.023 455.838 362.745 455.306 362.318C454.78 361.885 454.52 361.347 454.526 360.704C454.52 360.191 454.687 359.745 455.027 359.368C455.368 358.985 455.85 358.691 456.475 358.487C457.105 358.283 457.835 358.181 458.664 358.181C459.487 358.181 460.207 358.283 460.826 358.487C461.45 358.691 461.933 358.985 462.273 359.368C462.619 359.745 462.796 360.191 462.802 360.704C462.796 361.347 462.53 361.882 462.004 362.309C461.484 362.736 460.767 363.014 459.852 363.144V364.016C461.317 363.948 462.678 363.834 463.934 363.673L464.101 365.306C462.523 365.584 460.891 365.766 459.202 365.853C457.514 365.933 455.658 365.974 453.636 365.974L453.395 364.137ZM467.088 371.707H464.713V368.812H455.547V366.994H467.088V371.707ZM463.507 357.791H453.84V356.065H457.495V354.692H459.852V356.065H463.507V357.791ZM458.664 359.758C458.046 359.758 457.576 359.835 457.254 359.99C456.938 360.144 456.784 360.382 456.79 360.704C456.784 361.007 456.942 361.245 457.263 361.418C457.591 361.585 458.058 361.669 458.664 361.669C459.258 361.669 459.715 361.585 460.037 361.418C460.359 361.251 460.526 361.013 460.538 360.704C460.52 360.073 459.895 359.758 458.664 359.758ZM483.14 366.976H480.765V354.841H483.14V366.976ZM483.585 371.41H471.821V365.751H474.215V369.518H483.585V371.41ZM473.881 355.917C474.741 355.917 475.52 356.099 476.219 356.464C476.924 356.829 477.48 357.336 477.889 357.986C478.297 358.629 478.501 359.356 478.501 360.166C478.501 360.989 478.297 361.728 477.889 362.383C477.487 363.033 476.933 363.54 476.228 363.905C475.523 364.27 474.741 364.452 473.881 364.452C473.021 364.452 472.239 364.27 471.534 363.905C470.829 363.54 470.272 363.033 469.864 362.383C469.462 361.728 469.261 360.989 469.261 360.166C469.261 359.356 469.465 358.629 469.873 357.986C470.281 357.336 470.835 356.829 471.534 356.464C472.239 356.099 473.021 355.917 473.881 355.917ZM473.881 357.977C473.442 357.97 473.046 358.057 472.693 358.236C472.341 358.41 472.066 358.663 471.868 358.997C471.67 359.331 471.574 359.721 471.58 360.166C471.574 360.624 471.67 361.023 471.868 361.363C472.066 361.697 472.338 361.953 472.684 362.133C473.037 362.306 473.436 362.393 473.881 362.393C474.314 362.393 474.7 362.306 475.041 362.133C475.387 361.953 475.659 361.697 475.857 361.363C476.061 361.023 476.163 360.624 476.163 360.166C476.163 359.721 476.061 359.331 475.857 358.997C475.659 358.663 475.387 358.41 475.041 358.236C474.694 358.057 474.308 357.97 473.881 357.977Z" fill="white"/>
<rect x="39" y="169" width="558" height="48" rx="10" fill="#F3F3F3"/>
<path d="M59.528 187.468V194.944H58.464V187.468H59.528ZM50.092 189.12V188.224H55.664V191.556H51.184V193.292C53.354 193.292 54.964 193.236 56.924 192.9L57.064 193.796C55.02 194.132 53.354 194.188 51.128 194.188H50.12V190.716H54.6V189.12H50.092ZM51.38 197.38C51.394 195.994 52.934 195.196 55.496 195.196C58.044 195.196 59.612 195.994 59.612 197.38C59.612 198.78 58.044 199.578 55.496 199.592C52.934 199.578 51.394 198.78 51.38 197.38ZM52.444 197.38C52.458 198.234 53.606 198.724 55.496 198.724C57.386 198.724 58.534 198.234 58.52 197.38C58.534 196.554 57.386 196.05 55.496 196.064C53.606 196.05 52.458 196.554 52.444 197.38ZM71.0116 188.7V190.212C71.0116 191.99 71.0116 193.642 70.5076 196.12L69.4156 196.008C69.6956 194.846 69.8216 193.838 69.8916 192.886L62.4716 193.292L62.3316 192.396L69.9476 192.074C69.9616 191.444 69.9756 190.828 69.9756 190.212V189.596H62.6396V188.7H71.0116ZM61.3236 197.912V196.988H72.3836V197.912H61.3236ZM82.6352 187.412V190.38H84.4832V191.248H82.6352V194.132H81.5712V187.412H82.6352ZM73.1712 189.428V188.56H76.2512V187.328H77.3152V188.56H80.3952V189.428H73.1712ZM73.8712 191.976C73.8432 190.73 75.0052 189.974 76.7832 189.96C78.5472 189.974 79.6952 190.73 79.6952 191.976C79.6952 193.208 78.5472 193.95 76.7832 193.964C75.0052 193.95 73.8432 193.208 73.8712 191.976ZM74.8792 195.588V194.776H82.6352V197.464H75.9712V198.64H83.0832V199.48H74.9072V196.68H81.5712V195.588H74.8792ZM74.8792 191.976C74.8792 192.704 75.6212 193.152 76.7832 193.152C77.9312 193.152 78.6872 192.704 78.6872 191.976C78.6872 191.234 77.9312 190.772 76.7832 190.772C75.6212 190.772 74.8792 191.234 74.8792 191.976ZM98.6268 187.468V199.62H97.5908V187.468H98.6268ZM88.0428 195.7L89.3308 195.686V189.904H88.2948V189.008H93.8948V189.904H92.8588V195.532C93.3068 195.49 93.7408 195.448 94.1468 195.392L94.2308 196.176C92.3128 196.54 89.7508 196.61 88.1828 196.596L88.0428 195.7ZM90.3108 195.658C90.8288 195.644 91.3608 195.616 91.8788 195.588V189.904H90.3108V195.658ZM93.5308 193.04V192.088H95.2108V187.748H96.2468V198.976H95.2108V193.04H93.5308ZM109.998 187.468V199.62H108.934V187.468H109.998ZM100.45 192.62C100.45 190.044 101.738 188.406 103.558 188.392C105.35 188.406 106.652 190.044 106.666 192.62C106.652 195.224 105.35 196.862 103.558 196.876C101.738 196.862 100.45 195.224 100.45 192.62ZM101.486 192.62C101.486 194.608 102.326 195.91 103.558 195.896C104.762 195.91 105.602 194.608 105.602 192.62C105.602 190.66 104.762 189.358 103.558 189.344C102.326 189.358 101.486 190.66 101.486 192.62ZM116.162 191.192C116.162 193.25 117.66 195.35 119.438 196.12L118.85 196.96C117.422 196.33 116.204 194.93 115.63 193.25C115.07 195.028 113.838 196.568 112.438 197.268L111.822 196.428C113.558 195.588 115.07 193.292 115.07 191.192V189.596H112.214V188.7H119.046V189.596H116.162V191.192ZM120.754 199.62V187.468H121.818V199.62H120.754ZM134.73 193.096V193.936H123.614V193.096H134.73ZM124.958 195.728V194.916H133.358V197.492H126.05V198.668H133.75V199.452H124.986V196.764H132.294V195.728H124.958ZM125.014 188.588V187.832H133.302V190.352H126.134V191.416H133.526V192.2H125.07V189.596H132.238V188.588H125.014ZM142.825 189.736C142.825 191.444 144.057 193.04 145.821 193.684L145.233 194.524C143.903 193.992 142.839 192.942 142.307 191.612C141.803 193.082 140.697 194.244 139.269 194.804L138.681 193.936C140.501 193.278 141.761 191.584 141.761 189.708V188.196H142.825V189.736ZM140.893 199.34V195.532H141.957V198.444H149.013V199.34H140.893ZM144.953 191.22V190.324H147.669V187.468H148.733V196.568H147.669V191.22H144.953ZM155.737 188.336V189.232H152.069V190.772H155.625V191.612H152.069V193.292C153.847 193.292 154.953 193.222 156.241 192.956L156.353 193.852C154.925 194.132 153.777 194.188 151.789 194.188H151.033V188.336H155.737ZM152.629 196.344V195.476H160.805V199.62H159.741V196.344H152.629ZM157.081 194.748V187.692H158.089V190.632H159.797V187.468H160.805V194.832H159.797V191.528H158.089V194.748H157.081ZM171.728 187.468V192.48H173.744V193.376H171.728V199.62H170.664V187.468H171.728ZM162.236 190.296V189.4H165.372V187.608H166.436V189.4H169.46V190.296H162.236ZM162.936 194.104C162.922 192.452 164.182 191.304 165.904 191.304C167.64 191.304 168.886 192.452 168.9 194.104C168.886 195.742 167.64 196.89 165.904 196.876C164.182 196.89 162.922 195.742 162.936 194.104ZM163.972 194.104C163.958 195.21 164.784 195.98 165.904 195.98C167.038 195.98 167.864 195.21 167.864 194.104C167.864 192.998 167.038 192.2 165.904 192.2C164.784 192.2 163.958 192.998 163.972 194.104ZM177.724 190.912C177.738 192.844 178.676 194.93 180.3 195.896L179.684 196.708C178.508 196.008 177.668 194.72 177.234 193.25C176.786 194.86 175.89 196.246 174.672 196.988L174 196.176C175.68 195.196 176.702 193.04 176.688 190.968V188.588H177.724V190.912ZM178.956 192.732V191.808H181V187.72H182.036V199.004H181V192.732H178.956ZM183.52 199.62V187.468H184.556V199.62H183.52ZM197.076 197.156V198.052H185.96V197.156H188.704V193.866C187.668 193.334 187.038 192.452 187.052 191.36C187.038 189.47 188.886 188.238 191.476 188.224C194.08 188.238 195.928 189.47 195.928 191.36C195.928 192.438 195.312 193.306 194.304 193.838V197.156H197.076ZM188.088 191.36C188.074 192.704 189.488 193.614 191.476 193.628C193.464 193.614 194.892 192.704 194.892 191.36C194.892 189.988 193.464 189.092 191.476 189.092C189.488 189.092 188.074 189.988 188.088 191.36ZM189.768 197.156H193.24V194.258C192.708 194.398 192.12 194.468 191.476 194.468C190.86 194.468 190.286 194.398 189.768 194.272V197.156ZM199.067 198.584C198.577 198.584 198.171 198.178 198.171 197.688C198.171 197.212 198.577 196.82 199.067 196.82C199.543 196.82 199.935 197.212 199.935 197.688C199.935 198.178 199.543 198.584 199.067 198.584Z" fill="#B3B3B3"/>
<rect x="39" y="251" width="558" height="48" rx="10" fill="#F3F3F3"/>
<path d="M51.128 276.048V280.5H49.924V270.588H51.128V274.256H51.212C51.562 273.472 52.234 272.982 53.396 272.968C54.922 272.982 55.93 273.878 55.944 275.768V280.5H54.74V275.88C54.754 274.704 54.11 274.032 53.06 274.032C51.94 274.032 51.114 274.76 51.128 276.048ZM60.7813 273.08V274.06H59.2133V278.372C59.1993 279.324 59.6753 279.478 60.1653 279.464C60.3893 279.478 60.6973 279.45 60.8653 279.436V280.528C60.6973 280.57 60.4033 280.598 60.0533 280.584C59.0593 280.598 58.0233 279.982 58.0093 278.68V274.06H56.8893V273.08H58.0093V271.288H59.2133V273.08H60.7813ZM65.2591 273.08V274.06H63.6911V278.372C63.6771 279.324 64.1531 279.478 64.6431 279.464C64.8671 279.478 65.1751 279.45 65.3431 279.436V280.528C65.1751 280.57 64.8811 280.598 64.5311 280.584C63.5371 280.598 62.5011 279.982 62.4871 278.68V274.06H61.3671V273.08H62.4871V271.288H63.6911V273.08H65.2591ZM66.461 283.272V273.08H67.609V274.256H67.749C68.001 273.864 68.463 272.982 69.905 272.968C71.767 272.982 73.055 274.452 73.069 276.804C73.055 279.17 71.767 280.654 69.905 280.668C68.491 280.654 68.001 279.772 67.749 279.352H67.665V283.272H66.461ZM67.637 276.776C67.637 278.456 68.379 279.604 69.737 279.604C71.151 279.604 71.879 278.358 71.893 276.776C71.879 275.236 71.179 274.032 69.737 274.032C68.365 274.032 67.637 275.138 67.637 276.776ZM75.17 280.584C74.68 280.584 74.274 280.178 74.274 279.688C74.274 279.212 74.68 278.82 75.17 278.82C75.646 278.82 76.038 279.212 76.038 279.688C76.038 280.178 75.646 280.584 75.17 280.584ZM74.274 274.2C74.274 273.724 74.68 273.332 75.17 273.332C75.646 273.332 76.038 273.724 76.038 274.2C76.038 274.69 75.646 275.096 75.17 275.096C74.68 275.096 74.274 274.69 74.274 274.2ZM81.1327 270.14L77.9407 281.984H76.8487L80.0407 270.14H81.1327ZM85.5285 270.14L82.3365 281.984H81.2445L84.4365 270.14H85.5285ZM97.0643 279.184V280.108H85.9483V279.184H90.9323V276.916H87.3203V273.164H94.6003V271.26H87.2923V270.364H95.6643V274.032H88.3843V276.02H95.9443V276.916H91.9963V279.184H97.0643ZM105.3 272.716C105.286 274.942 106.798 277.168 108.576 277.98L107.932 278.848C106.546 278.162 105.342 276.72 104.768 274.97C104.208 276.818 103.004 278.358 101.576 279.072L100.904 278.176C102.724 277.35 104.222 275.026 104.236 272.716V270.504H105.3V272.716ZM109.92 281.62V269.468H110.984V281.62H109.92ZM116.924 271.708C116.91 273.332 118.1 274.802 119.892 275.432L119.36 276.244C117.974 275.768 116.924 274.774 116.392 273.528C115.874 274.9 114.754 275.978 113.34 276.496L112.752 275.656C114.572 275.012 115.846 273.458 115.86 271.708V271.176H113.088V270.308H119.64V271.176H116.924V271.708ZM114.348 278.316V277.42H122.3V281.62H121.236V278.316H114.348ZM121.236 276.776V269.468H122.3V272.66H124.12V273.584H122.3V276.776H121.236ZM131.851 274.704V275.6H129.191V277.98C130.381 277.938 131.585 277.854 132.719 277.728L132.803 278.54C130.101 278.918 127.161 278.974 124.823 278.96L124.683 278.064C125.733 278.064 126.909 278.05 128.127 278.022V275.6H125.607V270.616H131.823V271.484H126.671V274.704H131.851ZM133.503 281.62V269.468H134.595V281.62H133.503ZM146.247 273.136V274.004H137.931V269.916H138.995V273.136H146.247ZM136.419 276.524V275.656H147.535V276.524H136.419ZM137.875 281.312V277.784H138.939V280.416H146.331V281.312H137.875ZM161.51 269.468V276.944H160.446V269.468H161.51ZM152.074 271.12V270.224H157.646V273.556H153.166V275.292C155.336 275.292 156.946 275.236 158.906 274.9L159.046 275.796C157.002 276.132 155.336 276.188 153.11 276.188H152.102V272.716H156.582V271.12H152.074ZM153.362 279.38C153.376 277.994 154.916 277.196 157.478 277.196C160.026 277.196 161.594 277.994 161.594 279.38C161.594 280.78 160.026 281.578 157.478 281.592C154.916 281.578 153.376 280.78 153.362 279.38ZM154.426 279.38C154.44 280.234 155.588 280.724 157.478 280.724C159.368 280.724 160.516 280.234 160.502 279.38C160.516 278.554 159.368 278.05 157.478 278.064C155.588 278.05 154.44 278.554 154.426 279.38ZM172.994 270.7V272.212C172.994 273.99 172.994 275.642 172.49 278.12L171.398 278.008C171.678 276.846 171.804 275.838 171.874 274.886L164.454 275.292L164.314 274.396L171.93 274.074C171.944 273.444 171.958 272.828 171.958 272.212V271.596H164.622V270.7H172.994ZM163.306 279.912V278.988H174.366V279.912H163.306ZM184.478 271.176C184.464 272.8 186.634 274.186 188.762 274.508L188.342 275.348C186.452 275.026 184.618 274.018 183.876 272.562C183.12 274.018 181.286 275.026 179.41 275.348L178.99 274.508C181.104 274.186 183.26 272.8 183.274 271.176V271.092H179.382V270.224H188.342V271.092H184.478V271.176ZM178.346 277.28V276.384H189.406V277.28H184.366V281.592H183.33V277.28H178.346ZM201.281 279.128V280.024H190.165V279.128H195.121V276.16H196.185V279.128H201.281ZM190.585 275.404C192.713 275.04 195.079 273.262 195.093 271.232V270.28H196.213V271.232C196.213 273.248 198.621 275.04 200.749 275.404L200.245 276.3C198.411 275.908 196.451 274.662 195.667 272.926C194.855 274.662 192.923 275.908 191.061 276.3L190.585 275.404ZM215.229 269.468V275.964H214.165V269.468H215.229ZM205.485 272.856C205.471 271.176 206.815 270.042 208.677 270.056C210.511 270.042 211.841 271.176 211.841 272.856C211.841 274.494 210.511 275.642 208.677 275.628C206.815 275.642 205.471 274.494 205.485 272.856ZM206.521 272.856C206.521 273.948 207.417 274.732 208.677 274.732C209.909 274.732 210.805 273.948 210.805 272.856C210.805 271.736 209.909 270.952 208.677 270.952C207.417 270.952 206.521 271.736 206.521 272.856ZM207.361 281.452V276.58H208.425V278.064H214.165V276.58H215.229V281.452H207.361ZM208.425 280.556H214.165V278.932H208.425V280.556ZM222.764 270.196V273.612H218.592V275.488C220.888 275.502 222.064 275.446 223.492 275.18L223.604 276.076C222.092 276.328 220.846 276.37 218.396 276.384H217.528V272.772H221.7V271.064H217.5V270.196H222.764ZM218.9 278.456V277.588H227.076V281.62H226.012V278.456H218.9ZM223.576 274.676V273.78H226.012V272.156H223.576V271.288H226.012V269.468H227.076V276.944H226.012V274.676H223.576Z" fill="#B3B3B3"/>
<path d="M73.6094 105.926V113.432H72.3105V105.926H73.6094ZM69.6992 106.678V110.15H65.3652V111.682C67.5049 111.661 69.084 111.6 70.9434 111.312L71.1074 112.365C69.1113 112.693 67.4297 112.748 65.1191 112.748H64.0938V109.152H68.4141V107.744H64.0664V106.678H69.6992ZM69.5215 113.664C72.1055 113.664 73.6914 114.471 73.6914 115.906C73.6914 117.314 72.1055 118.148 69.5215 118.135C66.9238 118.148 65.3516 117.314 65.3516 115.906C65.3516 114.471 66.9238 113.664 69.5215 113.664ZM69.5215 114.689C67.7031 114.689 66.6367 115.127 66.6367 115.906C66.6367 116.686 67.7031 117.109 69.5215 117.109C71.3398 117.109 72.3926 116.686 72.3926 115.906C72.3926 115.127 71.3398 114.689 69.5215 114.689ZM85.1282 107.102V108.592C85.1282 110.383 85.1282 112.064 84.595 114.607L83.3098 114.484C83.5696 113.363 83.7063 112.379 83.7747 111.463L76.4192 111.859L76.2552 110.793L83.843 110.506C83.8636 109.85 83.8636 109.221 83.8704 108.592V108.168H76.597V107.102H85.1282ZM86.4407 115.455V116.521H75.2708V115.455H86.4407ZM92.8397 113.09V114.512H94.7537V113.09H95.9569V118.012H91.6229V113.09H92.8397ZM92.8397 117H94.7537V115.496H92.8397V117ZM99.5116 114.006C99.5116 115.291 100.222 116.59 101.74 117.123L101.07 118.107C99.9627 117.684 99.245 116.884 98.869 115.906C98.4588 116.863 97.7342 117.67 96.6815 118.107L96.0252 117.123C97.5018 116.521 98.2264 115.223 98.2264 114.006V113.008H99.5116V114.006ZM93.619 106.432C95.2323 106.432 96.4764 107.348 96.7498 108.715H99.1424V105.912H100.441V112.406H99.1424V109.781H96.7635C96.4969 111.189 95.2459 112.105 93.619 112.105C91.7459 112.105 90.4061 110.957 90.4061 109.262C90.4061 107.594 91.7459 106.432 93.619 106.432ZM93.619 107.512C92.4569 107.512 91.6502 108.223 91.6502 109.262C91.6502 110.314 92.4569 111.039 93.619 111.053C94.7537 111.039 95.5604 110.314 95.5604 109.262C95.5604 108.223 94.7537 107.512 93.619 107.512ZM107.626 106.172C110.319 106.172 112.001 107.047 112.001 108.523C112.001 109.973 110.319 110.834 107.626 110.834C104.946 110.834 103.251 109.973 103.251 108.523C103.251 107.047 104.946 106.172 107.626 106.172ZM107.626 107.197C105.739 107.197 104.577 107.676 104.591 108.523C104.577 109.344 105.739 109.809 107.626 109.822C109.499 109.809 110.661 109.344 110.661 108.523C110.661 107.676 109.499 107.197 107.626 107.197ZM111.851 113.924V118.012H103.388V113.924H111.851ZM104.673 114.963V116.959H110.593V114.963H104.673ZM113.218 111.777V112.83H102.048V111.777H113.218Z" fill="#333333"/>
<path d="M73.9375 163.162H72.6934V156.887H71.1211V162.533H69.9043V151.158H71.1211V155.82H72.6934V150.912H73.9375V163.162ZM65.3242 158.903C66.6413 158.89 67.8945 158.764 69.084 158.527L69.2207 159.662C68.4323 159.803 67.6803 159.904 66.9648 159.963C66.2539 160.018 65.5384 160.045 64.8184 160.045H64.0254V152.361H65.3242V158.903ZM86.468 159.143H81.4641V163.162H80.1927V159.143H75.2571V158.117H86.468V159.143ZM77.9368 153.004H83.761V151.404H85.0598V156.723H76.6516V151.404H77.9368V153.004ZM83.761 155.684V154.043H77.9368V155.684H83.761ZM100.824 163.162H99.5799V150.912H100.824V163.162ZM98.4041 162.533H97.1737V156.668H95.6424V155.506H97.1737V151.186H98.4041V162.533ZM95.9705 153.482H95.0272V158.958C95.369 158.931 95.7655 158.887 96.2166 158.828L96.3123 159.771C94.8312 160.063 92.8078 160.209 90.242 160.209L90.0916 159.115C90.6021 159.115 91.0031 159.113 91.2948 159.108V153.482H90.3514V152.416H95.9705V153.482ZM92.4705 159.088C93.0812 159.07 93.5324 159.051 93.8241 159.033V153.482H92.4705V159.088ZM112.193 163.189H110.894V150.912H112.193V163.189ZM105.644 151.828C106.25 151.828 106.792 152.006 107.271 152.361C107.749 152.712 108.123 153.214 108.392 153.865C108.665 154.512 108.802 155.264 108.802 156.121C108.802 156.982 108.665 157.739 108.392 158.391C108.123 159.042 107.749 159.546 107.271 159.901C106.792 160.252 106.25 160.428 105.644 160.428C105.028 160.428 104.482 160.252 104.003 159.901C103.525 159.546 103.149 159.045 102.875 158.397C102.606 157.746 102.472 156.987 102.472 156.121C102.472 155.26 102.606 154.506 102.875 153.858C103.149 153.207 103.525 152.705 104.003 152.354C104.482 152.004 105.028 151.828 105.644 151.828ZM105.644 152.99C105.265 152.99 104.93 153.118 104.639 153.373C104.352 153.628 104.128 153.993 103.969 154.467C103.809 154.936 103.73 155.488 103.73 156.121C103.73 156.759 103.809 157.315 103.969 157.789C104.128 158.263 104.352 158.628 104.639 158.883C104.93 159.138 105.265 159.266 105.644 159.266C106.017 159.266 106.348 159.138 106.635 158.883C106.922 158.628 107.145 158.263 107.305 157.789C107.464 157.315 107.544 156.759 107.544 156.121C107.544 155.488 107.464 154.936 107.305 154.467C107.145 153.993 106.922 153.628 106.635 153.373C106.348 153.118 106.017 152.99 105.644 152.99ZM118.379 154.521C118.379 155.201 118.516 155.873 118.789 156.538C119.067 157.203 119.45 157.798 119.938 158.322C120.43 158.842 120.986 159.234 121.606 159.498L120.895 160.51C120.179 160.195 119.546 159.721 118.995 159.088C118.443 158.45 118.024 157.718 117.737 156.894C117.45 157.773 117.028 158.562 116.472 159.259C115.921 159.956 115.294 160.478 114.592 160.824L113.84 159.799C114.442 159.516 114.989 159.095 115.481 158.534C115.973 157.969 116.358 157.333 116.636 156.627C116.919 155.916 117.062 155.214 117.067 154.521V153.223H114.264V152.143H121.168V153.223H118.379V154.521ZM124.012 163.162H122.713V150.912H124.012V163.162ZM138.983 158.432H137.685V150.926H138.983V158.432ZM135.073 155.15H130.739V156.682C131.92 156.673 132.927 156.643 133.761 156.593C134.595 156.538 135.447 156.445 136.317 156.312L136.481 157.365C135.547 157.52 134.633 157.623 133.74 157.673C132.852 157.723 131.769 157.748 130.493 157.748H129.468V154.152H133.788V152.744H129.44V151.678H135.073V155.15ZM134.895 158.664C135.757 158.664 136.5 158.753 137.124 158.931C137.748 159.104 138.227 159.359 138.56 159.696C138.897 160.029 139.065 160.432 139.065 160.906C139.065 161.371 138.897 161.772 138.56 162.109C138.227 162.447 137.746 162.702 137.117 162.875C136.493 163.053 135.752 163.139 134.895 163.135C134.034 163.139 133.289 163.053 132.66 162.875C132.036 162.702 131.557 162.447 131.225 162.109C130.892 161.772 130.726 161.371 130.726 160.906C130.726 160.432 130.892 160.029 131.225 159.696C131.557 159.359 132.036 159.104 132.66 158.931C133.284 158.753 134.03 158.664 134.895 158.664ZM134.895 159.689C133.984 159.689 133.275 159.797 132.769 160.011C132.264 160.22 132.011 160.519 132.011 160.906C132.011 161.294 132.261 161.592 132.763 161.802C133.269 162.007 133.979 162.109 134.895 162.109C135.811 162.109 136.518 162.007 137.015 161.802C137.516 161.592 137.767 161.294 137.767 160.906C137.767 160.519 137.516 160.22 137.015 160.011C136.513 159.797 135.807 159.689 134.895 159.689ZM150.502 153.592C150.502 154.38 150.493 155.043 150.475 155.581C150.457 156.119 150.409 156.727 150.331 157.406C150.254 158.081 150.133 158.814 149.969 159.607L148.684 159.484C148.921 158.468 149.076 157.463 149.149 156.47L141.793 156.859L141.629 155.793L149.21 155.506C149.219 155.301 149.226 155.046 149.231 154.74C149.235 154.435 149.24 154.18 149.244 153.975V153.592V153.168H141.971V152.102H150.502V153.592ZM151.815 161.521H140.645V160.455H151.815V161.521Z" fill="#333333"/>
<path d="M71.873 234.102V240.609C71.873 241.298 71.709 241.91 71.3809 242.448C71.0573 242.986 70.597 243.408 70 243.713C69.4076 244.014 68.724 244.164 67.9492 244.164C67.1654 244.164 66.4749 244.014 65.8779 243.713C65.2809 243.412 64.8206 242.993 64.4971 242.455C64.1735 241.913 64.0117 241.298 64.0117 240.609V234.102H65.5156V240.486C65.5156 240.933 65.6136 241.332 65.8096 241.683C66.0101 242.029 66.2926 242.302 66.6572 242.503C67.0264 242.699 67.457 242.797 67.9492 242.797C68.4368 242.797 68.863 242.699 69.2275 242.503C69.5921 242.302 69.8724 242.029 70.0684 241.683C70.2689 241.332 70.3691 240.933 70.3691 240.486V234.102H71.873ZM73.6165 234.102H77.1438C77.8912 234.102 78.5201 234.231 79.0305 234.491C79.5455 234.751 79.9306 235.116 80.1858 235.585C80.4456 236.05 80.5755 236.59 80.5755 237.205C80.5755 237.88 80.4228 238.458 80.1175 238.941C79.8121 239.424 79.3632 239.778 78.7708 240.001L80.9583 244H79.2493L77.2395 240.268H77.1438H75.1204V244H73.6165V234.102ZM76.9934 238.969C77.7044 238.969 78.2262 238.821 78.5589 238.524C78.8915 238.224 79.0579 237.784 79.0579 237.205C79.0579 236.622 78.8893 236.173 78.552 235.858C78.2193 235.544 77.6998 235.387 76.9934 235.387H75.1204V238.969H76.9934ZM81.9634 234.102H83.4673V242.701H87.938V244H81.9634V234.102ZM101.939 239.488H100.64V232.912H101.939V239.488ZM95.1984 241.457H100.653V240.076H101.939V245.012H93.9269V240.076H95.1984V241.457ZM100.653 243.945V242.482H95.1984V243.945H100.653ZM95.2941 233.473C95.9139 233.473 96.4698 233.593 96.962 233.835C97.4588 234.076 97.8461 234.414 98.1241 234.847C98.4067 235.275 98.548 235.765 98.548 236.316C98.548 236.868 98.4067 237.36 98.1241 237.793C97.8461 238.221 97.4588 238.556 96.962 238.798C96.4698 239.035 95.9139 239.151 95.2941 239.146C94.6743 239.151 94.116 239.035 93.6193 238.798C93.1225 238.556 92.7329 238.221 92.4503 237.793C92.1678 237.36 92.0265 236.868 92.0265 236.316C92.0265 235.765 92.1678 235.275 92.4503 234.847C92.7329 234.414 93.1225 234.076 93.6193 233.835C94.116 233.593 94.6743 233.473 95.2941 233.473ZM95.2941 234.566C94.9112 234.562 94.5672 234.635 94.2618 234.785C93.9611 234.931 93.7241 235.138 93.5509 235.407C93.3823 235.672 93.298 235.975 93.298 236.316C93.298 236.663 93.3823 236.97 93.5509 237.239C93.7241 237.504 93.9611 237.711 94.2618 237.861C94.5672 238.007 94.9112 238.08 95.2941 238.08C95.6723 238.08 96.0118 238.007 96.3126 237.861C96.6134 237.711 96.8481 237.504 97.0167 237.239C97.1899 236.97 97.2765 236.663 97.2765 236.316C97.2765 235.975 97.1899 235.672 97.0167 235.407C96.8481 235.138 96.6134 234.931 96.3126 234.785C96.0118 234.635 95.6723 234.562 95.2941 234.566ZM109.438 237.219H105.391V238.914H105.746C106.749 238.914 107.563 238.894 108.187 238.853C108.816 238.812 109.442 238.732 110.067 238.613L110.19 239.666C109.479 239.789 108.761 239.871 108.037 239.912C107.312 239.949 106.298 239.967 104.995 239.967H104.106V236.234H108.139V234.689H104.092V233.65H109.438V237.219ZM113.813 240.459H112.514V238.299H110.217V237.26H112.514V235.742H110.217V234.703H112.514V232.926H113.813V240.459ZM113.813 245.176H112.514V242.127H105.5V241.074H113.813V245.176Z" fill="#333333"/>
<path fill-rule="evenodd" clip-rule="evenodd" d="M571.198 193.653C571.558 193.235 571.512 192.603 571.093 192.243C570.675 191.882 570.044 191.929 569.683 192.347L564.57 198.276L559.776 192.37C559.428 191.941 558.799 191.876 558.37 192.224C557.941 192.572 557.875 193.201 558.224 193.63L563.758 200.449C563.78 200.477 563.804 200.505 563.829 200.531C563.911 200.615 564.005 200.683 564.106 200.732C564.241 200.798 564.386 200.832 564.532 200.834C564.677 200.836 564.824 200.807 564.96 200.745C565.063 200.698 565.159 200.634 565.243 200.552C565.27 200.526 565.294 200.5 565.317 200.472L571.198 193.653Z" fill="#999999"/>
<rect x="42.5" y="104.5" width="15" height="15" rx="7.5" fill="white" stroke="#EE7D00"/>
<rect x="42.5" y="149.5" width="15" height="15" rx="7.5" fill="white" stroke="#EE7D00"/>
<rect x="45" y="152" width="10" height="10" rx="5" fill="#EE7D00"/>
<rect x="42.5" y="231.5" width="15" height="15" rx="7.5" fill="white" stroke="#EE7D00"/>
<rect x="45" y="234" width="10" height="10" rx="5" fill="#EE7D00"/>
<defs>
<filter id="filter0_d_1_2579" x="0" y="0" width="630" height="403" filterUnits="userSpaceOnUse" color-interpolation-filters="sRGB">
<feFlood flood-opacity="0" result="BackgroundImageFix"/>
<feColorMatrix in="SourceAlpha" type="matrix" values="0 0 0 0 0 0 0 0 0 0 0 0 0 0 0 0 0 0 127 0" result="hardAlpha"/>
<feOffset dy="4"/>
<feGaussianBlur stdDeviation="4"/>
<feComposite in2="hardAlpha" operator="out"/>
<feColorMatrix type="matrix" values="0 0 0 0 0 0 0 0 0 0 0 0 0 0 0 0 0 0 0.25 0"/>
<feBlend mode="normal" in2="BackgroundImageFix" result="effect1_dropShadow_1_2579"/>
<feBlend mode="normal" in="SourceGraphic" in2="effect1_dropShadow_1_2579" result="shape"/>
</filter>
</defs>
</svg>
