<svg width="406" height="115" viewBox="0 0 406 115" fill="none" xmlns="http://www.w3.org/2000/svg">
<path d="M23.9091 18V6.144H26.2771V16.016H31.0931V18H23.9091ZM36.4768 18.224C34.2368 18.224 32.1728 16.496 32.1728 13.52C32.1728 10.544 34.2368 8.816 36.4768 8.816C38.7168 8.816 40.7808 10.544 40.7808 13.52C40.7808 16.496 38.7168 18.224 36.4768 18.224ZM36.4768 16.304C37.6928 16.304 38.3808 15.216 38.3808 13.52C38.3808 11.84 37.6928 10.736 36.4768 10.736C35.2608 10.736 34.5728 11.84 34.5728 13.52C34.5728 15.216 35.2608 16.304 36.4768 16.304ZM42.7484 18V9.04H44.6684L44.8444 10.624H44.8924C45.5484 9.456 46.5084 8.816 47.4364 8.816C47.9324 8.816 48.2204 8.896 48.4924 9.008L48.0924 11.04C47.7724 10.944 47.5164 10.896 47.1484 10.896C46.4444 10.896 45.5964 11.36 45.1004 12.656V18H42.7484ZM53.4336 18.224C50.9216 18.224 48.9696 16.48 48.9696 13.52C48.9696 10.624 51.0176 8.816 53.1456 8.816C55.6096 8.816 56.8896 10.624 56.8896 13.088C56.8896 13.536 56.8416 13.968 56.7776 14.176H51.2576C51.4496 15.648 52.4096 16.416 53.7376 16.416C54.4736 16.416 55.1136 16.192 55.7536 15.792L56.5536 17.232C55.6736 17.84 54.5376 18.224 53.4336 18.224ZM51.2256 12.608H54.8736C54.8736 11.408 54.3296 10.64 53.1776 10.64C52.2336 10.64 51.4016 11.312 51.2256 12.608ZM58.8265 18V9.04H60.7465L60.9225 10.24H60.9705C61.7225 9.456 62.5545 8.816 63.7225 8.816C65.0025 8.816 65.7545 9.392 66.1865 10.384C67.0025 9.52 67.8665 8.816 69.0345 8.816C70.9385 8.816 71.8185 10.16 71.8185 12.416V18H69.4665V12.704C69.4665 11.312 69.0665 10.832 68.2185 10.832C67.7065 10.832 67.1305 11.168 66.4905 11.84V18H64.1545V12.704C64.1545 11.312 63.7385 10.832 62.8905 10.832C62.3785 10.832 61.8025 11.168 61.1785 11.84V18H58.8265ZM78.0654 18V6.144H80.4334V18H78.0654ZM83.1546 21.44V9.04H85.0746L85.2506 9.968H85.2986C86.0506 9.328 86.9786 8.816 87.9386 8.816C90.1466 8.816 91.4586 10.624 91.4586 13.376C91.4586 16.448 89.6186 18.224 87.6506 18.224C86.8666 18.224 86.1146 17.872 85.4266 17.248L85.5066 18.72V21.44H83.1546ZM87.1226 16.288C88.2106 16.288 89.0426 15.36 89.0426 13.408C89.0426 11.696 88.4986 10.752 87.2666 10.752C86.6586 10.752 86.1146 11.056 85.5066 11.68V15.616C86.0666 16.112 86.6426 16.288 87.1226 16.288ZM95.9334 18.224C94.7334 18.224 93.4214 17.696 92.5254 16.96L93.5974 15.488C94.3974 16.112 95.1654 16.464 95.9974 16.464C96.8934 16.464 97.2934 16.08 97.2934 15.52C97.2934 14.848 96.3654 14.544 95.4214 14.176C94.2854 13.744 93.0214 13.056 93.0214 11.552C93.0214 9.952 94.3174 8.816 96.3654 8.816C97.6614 8.816 98.6694 9.36 99.4054 9.92L98.3494 11.344C97.7094 10.88 97.0854 10.576 96.4294 10.576C95.6134 10.576 95.2294 10.928 95.2294 11.44C95.2294 12.096 96.0614 12.336 97.0054 12.688C98.1894 13.136 99.5014 13.728 99.5014 15.392C99.5014 16.96 98.2694 18.224 95.9334 18.224ZM103.967 18.224C102.031 18.224 101.199 16.88 101.199 14.64V9.04H103.551V14.336C103.551 15.712 103.935 16.208 104.799 16.208C105.535 16.208 106.015 15.888 106.623 15.088V9.04H108.975V18H107.055L106.879 16.72H106.815C106.047 17.632 105.183 18.224 103.967 18.224ZM111.483 18V9.04H113.403L113.579 10.24H113.627C114.379 9.456 115.211 8.816 116.379 8.816C117.659 8.816 118.411 9.392 118.843 10.384C119.659 9.52 120.523 8.816 121.691 8.816C123.595 8.816 124.475 10.16 124.475 12.416V18H122.123V12.704C122.123 11.312 121.723 10.832 120.875 10.832C120.363 10.832 119.787 11.168 119.147 11.84V18H116.811V12.704C116.811 11.312 116.395 10.832 115.547 10.832C115.035 10.832 114.459 11.168 113.835 11.84V18H111.483ZM130.53 18V5.232H132.882V8.448L132.77 10.128C133.49 9.456 134.37 8.816 135.586 8.816C137.522 8.816 138.354 10.16 138.354 12.416V18H136.002V12.704C136.002 11.312 135.618 10.832 134.738 10.832C134.002 10.832 133.538 11.184 132.882 11.84V18H130.53ZM142.972 18.224C141.372 18.224 140.316 17.088 140.316 15.568C140.316 13.648 141.868 12.64 145.484 12.256C145.436 11.376 145.052 10.704 143.948 10.704C143.116 10.704 142.316 11.072 141.484 11.552L140.636 10C141.692 9.344 142.972 8.816 144.38 8.816C146.652 8.816 147.82 10.176 147.82 12.768V18H145.9L145.74 17.04H145.676C144.892 17.712 143.996 18.224 142.972 18.224ZM143.74 16.384C144.412 16.384 144.908 16.064 145.484 15.504V13.696C143.292 13.968 142.556 14.576 142.556 15.376C142.556 16.08 143.052 16.384 143.74 16.384ZM152.777 18.224C151.577 18.224 150.265 17.696 149.369 16.96L150.441 15.488C151.241 16.112 152.009 16.464 152.841 16.464C153.737 16.464 154.137 16.08 154.137 15.52C154.137 14.848 153.209 14.544 152.265 14.176C151.129 13.744 149.865 13.056 149.865 11.552C149.865 9.952 151.161 8.816 153.209 8.816C154.505 8.816 155.513 9.36 156.249 9.92L155.193 11.344C154.553 10.88 153.929 10.576 153.273 10.576C152.457 10.576 152.073 10.928 152.073 11.44C152.073 12.096 152.905 12.336 153.849 12.688C155.033 13.136 156.345 13.728 156.345 15.392C156.345 16.96 155.113 18.224 152.777 18.224ZM166.26 18.224C165.46 18.224 164.596 17.808 163.876 17.056H163.812L163.604 18H161.764V5.232H164.116V8.448L164.052 9.888C164.756 9.248 165.652 8.816 166.532 8.816C168.74 8.816 170.068 10.624 170.068 13.36C170.068 16.448 168.228 18.224 166.26 18.224ZM165.732 16.288C166.82 16.288 167.652 15.36 167.652 13.408C167.652 11.696 167.108 10.752 165.876 10.752C165.268 10.752 164.724 11.056 164.116 11.68V15.616C164.676 16.112 165.252 16.288 165.732 16.288ZM175.965 18.224C173.453 18.224 171.501 16.48 171.501 13.52C171.501 10.624 173.549 8.816 175.677 8.816C178.141 8.816 179.421 10.624 179.421 13.088C179.421 13.536 179.373 13.968 179.309 14.176H173.789C173.981 15.648 174.941 16.416 176.269 16.416C177.005 16.416 177.645 16.192 178.285 15.792L179.085 17.232C178.205 17.84 177.069 18.224 175.965 18.224ZM173.757 12.608H177.405C177.405 11.408 176.861 10.64 175.709 10.64C174.765 10.64 173.933 11.312 173.757 12.608ZM185.262 18.224C182.75 18.224 180.798 16.48 180.798 13.52C180.798 10.624 182.846 8.816 184.974 8.816C187.438 8.816 188.718 10.624 188.718 13.088C188.718 13.536 188.67 13.968 188.606 14.176H183.086C183.278 15.648 184.238 16.416 185.566 16.416C186.302 16.416 186.942 16.192 187.582 15.792L188.382 17.232C187.502 17.84 186.366 18.224 185.262 18.224ZM183.054 12.608H186.702C186.702 11.408 186.158 10.64 185.006 10.64C184.062 10.64 183.23 11.312 183.054 12.608ZM190.655 18V9.04H192.575L192.751 10.224H192.799C193.583 9.456 194.495 8.816 195.711 8.816C197.647 8.816 198.479 10.16 198.479 12.416V18H196.127V12.704C196.127 11.312 195.743 10.832 194.863 10.832C194.127 10.832 193.663 11.184 193.007 11.84V18H190.655ZM207.81 18.224C205.682 18.224 204.866 16.864 204.866 14.864V10.896H203.602V9.152L204.994 9.04L205.266 6.624H207.218V9.04H209.426V10.896H207.218V14.864C207.218 15.888 207.634 16.368 208.434 16.368C208.722 16.368 209.074 16.272 209.314 16.176L209.698 17.888C209.218 18.048 208.594 18.224 207.81 18.224ZM211.248 18V5.232H213.6V8.448L213.488 10.128C214.208 9.456 215.088 8.816 216.304 8.816C218.24 8.816 219.072 10.16 219.072 12.416V18H216.72V12.704C216.72 11.312 216.336 10.832 215.456 10.832C214.72 10.832 214.256 11.184 213.6 11.84V18H211.248ZM225.387 18.224C222.875 18.224 220.923 16.48 220.923 13.52C220.923 10.624 222.971 8.816 225.099 8.816C227.563 8.816 228.843 10.624 228.843 13.088C228.843 13.536 228.795 13.968 228.731 14.176H223.211C223.403 15.648 224.363 16.416 225.691 16.416C226.427 16.416 227.067 16.192 227.707 15.792L228.507 17.232C227.627 17.84 226.491 18.224 225.387 18.224ZM223.179 12.608H226.827C226.827 11.408 226.283 10.64 225.131 10.64C224.187 10.64 223.355 11.312 223.179 12.608ZM234.405 18V9.04H236.757V18H234.405ZM235.589 7.6C234.773 7.6 234.213 7.088 234.213 6.304C234.213 5.536 234.773 5.024 235.589 5.024C236.389 5.024 236.949 5.536 236.949 6.304C236.949 7.088 236.389 7.6 235.589 7.6ZM239.264 18V9.04H241.184L241.36 10.224H241.408C242.192 9.456 243.104 8.816 244.32 8.816C246.256 8.816 247.088 10.16 247.088 12.416V18H244.736V12.704C244.736 11.312 244.352 10.832 243.472 10.832C242.736 10.832 242.272 11.184 241.616 11.84V18H239.264ZM252.666 18.224C250.442 18.224 249.002 16.464 249.002 13.52C249.002 10.608 250.826 8.816 252.762 8.816C253.77 8.816 254.394 9.2 255.034 9.792L254.954 8.384V5.232H257.29V18H255.386L255.21 17.072H255.146C254.49 17.712 253.594 18.224 252.666 18.224ZM253.274 16.288C253.898 16.288 254.426 16.032 254.954 15.36V11.424C254.41 10.928 253.834 10.752 253.274 10.752C252.266 10.752 251.418 11.712 251.418 13.504C251.418 15.36 252.09 16.288 253.274 16.288ZM262.483 18.224C260.547 18.224 259.715 16.88 259.715 14.64V9.04H262.067V14.336C262.067 15.712 262.451 16.208 263.315 16.208C264.051 16.208 264.531 15.888 265.139 15.088V9.04H267.491V18H265.571L265.395 16.72H265.331C264.563 17.632 263.699 18.224 262.483 18.224ZM272.558 18.224C271.358 18.224 270.046 17.696 269.15 16.96L270.222 15.488C271.022 16.112 271.79 16.464 272.622 16.464C273.518 16.464 273.918 16.08 273.918 15.52C273.918 14.848 272.99 14.544 272.046 14.176C270.91 13.744 269.646 13.056 269.646 11.552C269.646 9.952 270.942 8.816 272.99 8.816C274.286 8.816 275.294 9.36 276.03 9.92L274.974 11.344C274.334 10.88 273.71 10.576 273.054 10.576C272.238 10.576 271.854 10.928 271.854 11.44C271.854 12.096 272.686 12.336 273.63 12.688C274.814 13.136 276.126 13.728 276.126 15.392C276.126 16.96 274.894 18.224 272.558 18.224ZM280.825 18.224C278.697 18.224 277.881 16.864 277.881 14.864V10.896H276.617V9.152L278.009 9.04L278.281 6.624H280.233V9.04H282.441V10.896H280.233V14.864C280.233 15.888 280.649 16.368 281.449 16.368C281.737 16.368 282.089 16.272 282.329 16.176L282.713 17.888C282.233 18.048 281.609 18.224 280.825 18.224ZM284.264 18V9.04H286.184L286.36 10.624H286.408C287.064 9.456 288.024 8.816 288.952 8.816C289.448 8.816 289.736 8.896 290.008 9.008L289.608 11.04C289.288 10.944 289.032 10.896 288.664 10.896C287.96 10.896 287.112 11.36 286.616 12.656V18H284.264ZM292.236 21.6C291.708 21.6 291.356 21.536 291.004 21.424L291.436 19.616C291.596 19.664 291.852 19.728 292.06 19.728C292.972 19.728 293.484 19.152 293.74 18.368L293.9 17.84L290.412 9.04H292.78L294.204 13.2C294.476 14 294.7 14.864 294.956 15.728H295.036C295.244 14.896 295.468 14.032 295.676 13.2L296.908 9.04H299.164L295.98 18.272C295.196 20.384 294.236 21.6 292.236 21.6ZM301.311 11.184L300.847 7.744L300.767 5.52H303.167L303.087 7.744L302.623 11.184H301.311ZM308.027 18.224C306.827 18.224 305.515 17.696 304.619 16.96L305.691 15.488C306.491 16.112 307.259 16.464 308.091 16.464C308.987 16.464 309.387 16.08 309.387 15.52C309.387 14.848 308.459 14.544 307.515 14.176C306.379 13.744 305.115 13.056 305.115 11.552C305.115 9.952 306.411 8.816 308.459 8.816C309.755 8.816 310.763 9.36 311.499 9.92L310.443 11.344C309.803 10.88 309.179 10.576 308.523 10.576C307.707 10.576 307.323 10.928 307.323 11.44C307.323 12.096 308.155 12.336 309.099 12.688C310.283 13.136 311.595 13.728 311.595 15.392C311.595 16.96 310.363 18.224 308.027 18.224ZM319.574 18.224C318.374 18.224 317.062 17.696 316.166 16.96L317.238 15.488C318.038 16.112 318.806 16.464 319.638 16.464C320.534 16.464 320.934 16.08 320.934 15.52C320.934 14.848 320.006 14.544 319.062 14.176C317.926 13.744 316.662 13.056 316.662 11.552C316.662 9.952 317.958 8.816 320.006 8.816C321.302 8.816 322.31 9.36 323.046 9.92L321.99 11.344C321.35 10.88 320.726 10.576 320.07 10.576C319.254 10.576 318.87 10.928 318.87 11.44C318.87 12.096 319.702 12.336 320.646 12.688C321.83 13.136 323.142 13.728 323.142 15.392C323.142 16.96 321.91 18.224 319.574 18.224ZM327.841 18.224C325.713 18.224 324.897 16.864 324.897 14.864V10.896H323.633V9.152L325.025 9.04L325.297 6.624H327.249V9.04H329.457V10.896H327.249V14.864C327.249 15.888 327.665 16.368 328.465 16.368C328.753 16.368 329.105 16.272 329.345 16.176L329.729 17.888C329.249 18.048 328.625 18.224 327.841 18.224ZM333.113 18.224C331.513 18.224 330.457 17.088 330.457 15.568C330.457 13.648 332.009 12.64 335.625 12.256C335.577 11.376 335.193 10.704 334.089 10.704C333.257 10.704 332.457 11.072 331.625 11.552L330.777 10C331.833 9.344 333.113 8.816 334.521 8.816C336.793 8.816 337.961 10.176 337.961 12.768V18H336.041L335.881 17.04H335.817C335.033 17.712 334.137 18.224 333.113 18.224ZM333.881 16.384C334.553 16.384 335.049 16.064 335.625 15.504V13.696C333.433 13.968 332.697 14.576 332.697 15.376C332.697 16.08 333.193 16.384 333.881 16.384ZM340.358 18V9.04H342.278L342.454 10.224H342.502C343.286 9.456 344.198 8.816 345.414 8.816C347.35 8.816 348.182 10.16 348.182 12.416V18H345.83V12.704C345.83 11.312 345.446 10.832 344.566 10.832C343.83 10.832 343.366 11.184 342.71 11.84V18H340.358ZM353.76 18.224C351.536 18.224 350.096 16.464 350.096 13.52C350.096 10.608 351.92 8.816 353.856 8.816C354.864 8.816 355.488 9.2 356.128 9.792L356.048 8.384V5.232H358.384V18H356.48L356.304 17.072H356.24C355.584 17.712 354.688 18.224 353.76 18.224ZM354.368 16.288C354.992 16.288 355.52 16.032 356.048 15.36V11.424C355.504 10.928 354.928 10.752 354.368 10.752C353.36 10.752 352.512 11.712 352.512 13.504C352.512 15.36 353.184 16.288 354.368 16.288ZM363.113 18.224C361.513 18.224 360.457 17.088 360.457 15.568C360.457 13.648 362.009 12.64 365.625 12.256C365.577 11.376 365.193 10.704 364.089 10.704C363.257 10.704 362.457 11.072 361.625 11.552L360.777 10C361.833 9.344 363.113 8.816 364.521 8.816C366.793 8.816 367.961 10.176 367.961 12.768V18H366.041L365.881 17.04H365.817C365.033 17.712 364.137 18.224 363.113 18.224ZM363.881 16.384C364.553 16.384 365.049 16.064 365.625 15.504V13.696C363.433 13.968 362.697 14.576 362.697 15.376C362.697 16.08 363.193 16.384 363.881 16.384ZM370.358 18V9.04H372.278L372.454 10.624H372.502C373.158 9.456 374.118 8.816 375.046 8.816C375.542 8.816 375.83 8.896 376.102 9.008L375.702 11.04C375.382 10.944 375.126 10.896 374.758 10.896C374.054 10.896 373.206 11.36 372.71 12.656V18H370.358ZM380.291 18.224C378.067 18.224 376.627 16.464 376.627 13.52C376.627 10.608 378.451 8.816 380.387 8.816C381.395 8.816 382.019 9.2 382.659 9.792L382.579 8.384V5.232H384.915V18H383.011L382.835 17.072H382.771C382.115 17.712 381.219 18.224 380.291 18.224ZM380.899 16.288C381.523 16.288 382.051 16.032 382.579 15.36V11.424C382.035 10.928 381.459 10.752 380.899 10.752C379.891 10.752 379.043 11.712 379.043 13.504C379.043 15.36 379.715 16.288 380.899 16.288Z" fill="#333333"/>
<path d="M2.15553 44L0.343531 37.484H1.45953L2.43153 41.252C2.56353 41.876 2.69553 42.464 2.81553 43.076H2.87553C3.01953 42.464 3.15153 41.864 3.31953 41.252L4.32753 37.484H5.39553L6.41553 41.252C6.57153 41.876 6.71553 42.464 6.87153 43.076H6.91953C7.06353 42.464 7.18353 41.876 7.32753 41.252L8.28753 37.484H9.31953L7.56753 44H6.24753L5.29953 40.484C5.13153 39.872 5.01153 39.272 4.85553 38.612H4.79553C4.65153 39.272 4.51953 39.884 4.35153 40.508L3.43953 44H2.15553ZM10.7446 44V34.448H11.8366V37.064L11.8006 38.408C12.4006 37.808 13.0726 37.316 13.9606 37.316C15.3286 37.316 15.9526 38.204 15.9526 39.872V44H14.8606V40.016C14.8606 38.792 14.4886 38.276 13.6246 38.276C12.9526 38.276 12.4966 38.612 11.8366 39.272V44H10.7446ZM20.6617 44.156C18.9337 44.156 17.5417 42.896 17.5417 40.748C17.5417 38.636 18.9697 37.316 20.4817 37.316C22.1377 37.316 23.0737 38.516 23.0737 40.376C23.0737 40.616 23.0497 40.844 23.0257 41H18.6337C18.7057 42.392 19.5577 43.28 20.7937 43.28C21.4297 43.28 21.9457 43.088 22.4257 42.764L22.8217 43.484C22.2457 43.856 21.5497 44.156 20.6617 44.156ZM18.6217 40.208H22.1137C22.1137 38.9 21.5137 38.192 20.4937 38.192C19.5697 38.192 18.7537 38.936 18.6217 40.208ZM24.6782 44V37.484H25.5782L25.6742 38.42H25.7102C26.3342 37.808 27.0062 37.316 27.8942 37.316C29.2622 37.316 29.8862 38.204 29.8862 39.872V44H28.7942V40.016C28.7942 38.792 28.4222 38.276 27.5582 38.276C26.8862 38.276 26.4302 38.612 25.7702 39.272V44H24.6782ZM36.1978 44.156C35.1058 44.156 34.2898 43.484 34.2898 42.308C34.2898 40.892 35.5258 40.184 38.2978 39.872C38.2978 39.032 38.0218 38.228 36.9538 38.228C36.1978 38.228 35.5138 38.576 34.9978 38.924L34.5658 38.168C35.1658 37.784 36.0898 37.316 37.1338 37.316C38.7178 37.316 39.3898 38.384 39.3898 39.992V44H38.4898L38.3938 43.22H38.3578C37.7338 43.736 37.0018 44.156 36.1978 44.156ZM36.5098 43.28C37.1458 43.28 37.6618 42.98 38.2978 42.416V40.592C36.1018 40.856 35.3577 41.396 35.3577 42.236C35.3577 42.98 35.8618 43.28 36.5098 43.28ZM41.4712 44V37.484H42.3712L42.4672 38.42H42.5032C43.1272 37.808 43.7992 37.316 44.6872 37.316C46.0552 37.316 46.6792 38.204 46.6792 39.872V44H45.5872V40.016C45.5872 38.792 45.2152 38.276 44.3512 38.276C43.6792 38.276 43.2232 38.612 42.5632 39.272V44H41.4712ZM53.3867 44.156C52.0187 44.156 51.4067 43.268 51.4067 41.612V37.484H52.4987V41.48C52.4987 42.692 52.8587 43.208 53.7227 43.208C54.3947 43.208 54.8627 42.884 55.4867 42.104V37.484H56.5787V44H55.6667L55.5827 42.98H55.5467C54.9347 43.688 54.2867 44.156 53.3867 44.156ZM58.7798 44V37.484H59.6798L59.7758 38.42H59.8118C60.4358 37.808 61.1078 37.316 61.9958 37.316C63.3638 37.316 63.9878 38.204 63.9878 39.872V44H62.8958V40.016C62.8958 38.792 62.5238 38.276 61.6598 38.276C60.9878 38.276 60.5318 38.612 59.8718 39.272V44H58.7798ZM66.1157 44V34.448H67.1957V40.928H67.2317L70.0037 37.484H71.2277L69.0557 40.112L71.5157 44H70.3277L68.4197 40.856L67.1957 42.284V44H66.1157ZM72.7368 44V37.484H73.6368L73.7328 38.42H73.7688C74.3928 37.808 75.0648 37.316 75.9528 37.316C77.3208 37.316 77.9448 38.204 77.9448 39.872V44H76.8528V40.016C76.8528 38.792 76.4808 38.276 75.6168 38.276C74.9448 38.276 74.4888 38.612 73.8288 39.272V44H72.7368ZM82.6048 44.156C81.0088 44.156 79.5808 42.908 79.5808 40.748C79.5808 38.576 81.0088 37.316 82.6048 37.316C84.2008 37.316 85.6288 38.576 85.6288 40.748C85.6288 42.908 84.2008 44.156 82.6048 44.156ZM82.6048 43.244C83.7328 43.244 84.5008 42.248 84.5008 40.748C84.5008 39.248 83.7328 38.228 82.6048 38.228C81.4768 38.228 80.7208 39.248 80.7208 40.748C80.7208 42.248 81.4768 43.244 82.6048 43.244ZM88.3352 44L86.5232 37.484H87.6392L88.6112 41.252C88.7432 41.876 88.8752 42.464 88.9952 43.076H89.0552C89.1992 42.464 89.3312 41.864 89.4992 41.252L90.5072 37.484H91.5752L92.5952 41.252C92.7512 41.876 92.8952 42.464 93.0512 43.076H93.0992C93.2432 42.464 93.3632 41.876 93.5072 41.252L94.4672 37.484H95.4992L93.7472 44H92.4272L91.4792 40.484C91.3112 39.872 91.1912 39.272 91.0352 38.612H90.9752C90.8312 39.272 90.6992 39.884 90.5312 40.508L89.6192 44H88.3352ZM96.9243 44V37.484H97.8243L97.9203 38.42H97.9563C98.5803 37.808 99.2523 37.316 100.14 37.316C101.508 37.316 102.132 38.204 102.132 39.872V44H101.04V40.016C101.04 38.792 100.668 38.276 99.8043 38.276C99.1323 38.276 98.6763 38.612 98.0163 39.272V44H96.9243ZM106.944 46.748V37.484H107.844L107.94 38.228H107.976C108.564 37.748 109.296 37.316 110.052 37.316C111.732 37.316 112.644 38.636 112.644 40.64C112.644 42.872 111.312 44.156 109.812 44.156C109.224 44.156 108.6 43.88 108.012 43.4L108.036 44.54V46.748H106.944ZM109.632 43.244C110.712 43.244 111.504 42.272 111.504 40.652C111.504 39.212 111.024 38.24 109.788 38.24C109.236 38.24 108.672 38.552 108.036 39.14V42.56C108.624 43.064 109.2 43.244 109.632 43.244ZM114.385 44V37.484H115.285L115.381 38.672H115.417C115.873 37.844 116.533 37.316 117.265 37.316C117.553 37.316 117.757 37.352 117.961 37.46L117.757 38.42C117.541 38.336 117.385 38.312 117.121 38.312C116.581 38.312 115.909 38.696 115.477 39.812V44H114.385ZM119.038 44V37.484H120.13V44H119.038ZM119.59 36.14C119.158 36.14 118.858 35.852 118.858 35.408C118.858 34.988 119.158 34.7 119.59 34.7C120.022 34.7 120.322 34.988 120.322 35.408C120.322 35.852 120.022 36.14 119.59 36.14ZM122.342 44V37.484H123.242L123.338 38.42H123.374C123.998 37.808 124.67 37.316 125.558 37.316C126.926 37.316 127.55 38.204 127.55 39.872V44H126.458V40.016C126.458 38.792 126.086 38.276 125.222 38.276C124.55 38.276 124.094 38.612 123.434 39.272V44H122.342ZM131.73 44.156C130.338 44.156 129.87 43.28 129.87 41.984V38.372H128.898V37.544L129.918 37.484L130.05 35.648H130.962V37.484H132.726V38.372H130.962V42.008C130.962 42.812 131.214 43.268 131.97 43.268C132.198 43.268 132.498 43.184 132.714 43.1L132.93 43.916C132.558 44.036 132.126 44.156 131.73 44.156ZM136.654 44.156C134.926 44.156 133.534 42.896 133.534 40.748C133.534 38.636 134.962 37.316 136.474 37.316C138.13 37.316 139.066 38.516 139.066 40.376C139.066 40.616 139.042 40.844 139.018 41H134.626C134.698 42.392 135.55 43.28 136.786 43.28C137.422 43.28 137.938 43.088 138.418 42.764L138.814 43.484C138.238 43.856 137.542 44.156 136.654 44.156ZM134.614 40.208H138.106C138.106 38.9 137.506 38.192 136.486 38.192C135.562 38.192 134.746 38.936 134.614 40.208ZM140.67 44V37.484H141.57L141.666 38.672H141.702C142.158 37.844 142.818 37.316 143.55 37.316C143.838 37.316 144.042 37.352 144.246 37.46L144.042 38.42C143.826 38.336 143.67 38.312 143.406 38.312C142.866 38.312 142.194 38.696 141.762 39.812V44H140.67ZM150.058 44.156C148.666 44.156 148.198 43.28 148.198 41.984V38.372H147.226V37.544L148.246 37.484L148.378 35.648H149.29V37.484H151.054V38.372H149.29V42.008C149.29 42.812 149.542 43.268 150.298 43.268C150.526 43.268 150.826 43.184 151.042 43.1L151.258 43.916C150.886 44.036 150.454 44.156 150.058 44.156ZM154.886 44.156C153.29 44.156 151.862 42.908 151.862 40.748C151.862 38.576 153.29 37.316 154.886 37.316C156.482 37.316 157.91 38.576 157.91 40.748C157.91 42.908 156.482 44.156 154.886 44.156ZM154.886 43.244C156.014 43.244 156.782 42.248 156.782 40.748C156.782 39.248 156.014 38.228 154.886 38.228C153.758 38.228 153.002 39.248 153.002 40.748C153.002 42.248 153.758 43.244 154.886 43.244ZM162.163 44.156C160.567 44.156 159.139 42.908 159.139 40.748C159.139 38.576 160.567 37.316 162.163 37.316C163.759 37.316 165.187 38.576 165.187 40.748C165.187 42.908 163.759 44.156 162.163 44.156ZM162.163 43.244C163.291 43.244 164.059 42.248 164.059 40.748C164.059 39.248 163.291 38.228 162.163 38.228C161.035 38.228 160.279 39.248 160.279 40.748C160.279 42.248 161.035 43.244 162.163 43.244ZM166.909 44V34.448H167.989V40.928H168.025L170.797 37.484H172.021L169.849 40.112L172.309 44H171.121L169.213 40.856L167.989 42.284V44H166.909ZM177.713 44.156C176.621 44.156 175.805 43.484 175.805 42.308C175.805 40.892 177.041 40.184 179.813 39.872C179.813 39.032 179.537 38.228 178.469 38.228C177.713 38.228 177.029 38.576 176.513 38.924L176.081 38.168C176.681 37.784 177.605 37.316 178.649 37.316C180.233 37.316 180.905 38.384 180.905 39.992V44H180.005L179.909 43.22H179.873C179.249 43.736 178.517 44.156 177.713 44.156ZM178.025 43.28C178.661 43.28 179.177 42.98 179.813 42.416V40.592C177.617 40.856 176.873 41.396 176.873 42.236C176.873 42.98 177.377 43.28 178.025 43.28ZM187.866 47C186.27 47 185.178 46.376 185.178 45.248C185.178 44.696 185.526 44.168 186.138 43.772V43.724C185.79 43.52 185.538 43.172 185.538 42.656C185.538 42.116 185.934 41.684 186.27 41.444V41.396C185.838 41.048 185.418 40.424 185.418 39.644C185.418 38.216 186.546 37.316 187.866 37.316C188.226 37.316 188.55 37.4 188.778 37.484H191.046V38.324H189.714C190.026 38.624 190.242 39.104 190.242 39.668C190.242 41.06 189.186 41.936 187.866 41.936C187.542 41.936 187.182 41.852 186.894 41.708C186.654 41.912 186.474 42.128 186.474 42.488C186.474 42.908 186.738 43.196 187.614 43.196H188.886C190.398 43.196 191.166 43.676 191.166 44.744C191.166 45.956 189.882 47 187.866 47ZM187.866 41.192C188.61 41.192 189.258 40.592 189.258 39.644C189.258 38.696 188.634 38.12 187.866 38.12C187.098 38.12 186.474 38.684 186.474 39.644C186.474 40.592 187.11 41.192 187.866 41.192ZM188.022 46.256C189.27 46.256 190.098 45.596 190.098 44.912C190.098 44.312 189.63 44.108 188.766 44.108H187.638C187.398 44.108 187.086 44.072 186.798 44C186.33 44.336 186.138 44.72 186.138 45.104C186.138 45.8 186.846 46.256 188.022 46.256ZM193.721 44.156C192.629 44.156 191.813 43.484 191.813 42.308C191.813 40.892 193.049 40.184 195.821 39.872C195.821 39.032 195.545 38.228 194.477 38.228C193.721 38.228 193.037 38.576 192.521 38.924L192.089 38.168C192.689 37.784 193.613 37.316 194.657 37.316C196.241 37.316 196.913 38.384 196.913 39.992V44H196.013L195.917 43.22H195.881C195.257 43.736 194.525 44.156 193.721 44.156ZM194.033 43.28C194.669 43.28 195.185 42.98 195.821 42.416V40.592C193.625 40.856 192.881 41.396 192.881 42.236C192.881 42.98 193.385 43.28 194.033 43.28ZM200.147 44.156C199.331 44.156 198.995 43.628 198.995 42.704V34.448H200.087V42.776C200.087 43.112 200.231 43.244 200.399 43.244C200.459 43.244 200.507 43.244 200.627 43.22L200.783 44.06C200.627 44.12 200.447 44.156 200.147 44.156ZM203.569 44.156C202.753 44.156 202.417 43.628 202.417 42.704V34.448H203.509V42.776C203.509 43.112 203.653 43.244 203.821 43.244C203.881 43.244 203.929 43.244 204.049 43.22L204.205 44.06C204.049 44.12 203.869 44.156 203.569 44.156ZM208.466 44.156C206.738 44.156 205.346 42.896 205.346 40.748C205.346 38.636 206.774 37.316 208.286 37.316C209.942 37.316 210.878 38.516 210.878 40.376C210.878 40.616 210.854 40.844 210.83 41H206.438C206.51 42.392 207.362 43.28 208.598 43.28C209.234 43.28 209.75 43.088 210.23 42.764L210.626 43.484C210.05 43.856 209.354 44.156 208.466 44.156ZM206.426 40.208H209.918C209.918 38.9 209.318 38.192 208.298 38.192C207.374 38.192 206.558 38.936 206.426 40.208ZM212.65 46.808C212.338 46.808 212.086 46.76 211.882 46.676L212.098 45.8C212.229 45.848 212.422 45.908 212.59 45.908C213.334 45.908 213.802 45.308 214.066 44.504L214.21 44.012L211.594 37.484H212.734L214.066 41.108C214.258 41.672 214.486 42.344 214.69 42.932H214.75C214.93 42.344 215.122 41.684 215.302 41.108L216.466 37.484H217.534L215.074 44.54C214.63 45.824 213.946 46.808 212.65 46.808ZM224.015 44.156C222.419 44.156 220.991 42.908 220.991 40.748C220.991 38.576 222.419 37.316 224.015 37.316C225.611 37.316 227.039 38.576 227.039 40.748C227.039 42.908 225.611 44.156 224.015 44.156ZM224.015 43.244C225.143 43.244 225.911 42.248 225.911 40.748C225.911 39.248 225.143 38.228 224.015 38.228C222.887 38.228 222.131 39.248 222.131 40.748C222.131 42.248 222.887 43.244 224.015 43.244ZM228.94 44V38.372H228.052V37.544L228.94 37.484V36.44C228.94 35.12 229.54 34.292 230.836 34.292C231.232 34.292 231.628 34.376 231.928 34.508L231.688 35.336C231.448 35.228 231.184 35.168 230.956 35.168C230.332 35.168 230.032 35.612 230.032 36.452V37.484H231.412V38.372H230.032V44H228.94ZM237.398 44.156C236.006 44.156 235.538 43.28 235.538 41.984V38.372H234.566V37.544L235.586 37.484L235.718 35.648H236.63V37.484H238.394V38.372H236.63V42.008C236.63 42.812 236.882 43.268 237.638 43.268C237.866 43.268 238.166 43.184 238.382 43.1L238.598 43.916C238.226 44.036 237.794 44.156 237.398 44.156ZM239.978 46.808C239.666 46.808 239.414 46.76 239.21 46.676L239.426 45.8C239.558 45.848 239.75 45.908 239.918 45.908C240.662 45.908 241.13 45.308 241.394 44.504L241.538 44.012L238.922 37.484H240.062L241.394 41.108C241.586 41.672 241.814 42.344 242.018 42.932H242.078C242.258 42.344 242.45 41.684 242.63 41.108L243.794 37.484H244.862L242.402 44.54C241.958 45.824 241.274 46.808 239.978 46.808ZM246.127 46.748V37.484H247.027L247.123 38.228H247.159C247.747 37.748 248.479 37.316 249.235 37.316C250.915 37.316 251.827 38.636 251.827 40.64C251.827 42.872 250.495 44.156 248.995 44.156C248.407 44.156 247.783 43.88 247.195 43.4L247.219 44.54V46.748H246.127ZM248.815 43.244C249.895 43.244 250.687 42.272 250.687 40.652C250.687 39.212 250.207 38.24 248.971 38.24C248.419 38.24 247.855 38.552 247.219 39.14V42.56C247.807 43.064 248.383 43.244 248.815 43.244ZM256.197 44.156C254.469 44.156 253.077 42.896 253.077 40.748C253.077 38.636 254.505 37.316 256.017 37.316C257.673 37.316 258.609 38.516 258.609 40.376C258.609 40.616 258.585 40.844 258.561 41H254.169C254.241 42.392 255.093 43.28 256.329 43.28C256.965 43.28 257.481 43.088 257.961 42.764L258.357 43.484C257.781 43.856 257.085 44.156 256.197 44.156ZM254.157 40.208H257.649C257.649 38.9 257.049 38.192 256.029 38.192C255.105 38.192 254.289 38.936 254.157 40.208ZM264.397 44.156C263.305 44.156 262.489 43.484 262.489 42.308C262.489 40.892 263.725 40.184 266.497 39.872C266.497 39.032 266.221 38.228 265.153 38.228C264.397 38.228 263.713 38.576 263.197 38.924L262.765 38.168C263.365 37.784 264.289 37.316 265.333 37.316C266.917 37.316 267.589 38.384 267.589 39.992V44H266.689L266.593 43.22H266.557C265.933 43.736 265.201 44.156 264.397 44.156ZM264.709 43.28C265.345 43.28 265.861 42.98 266.497 42.416V40.592C264.301 40.856 263.557 41.396 263.557 42.236C263.557 42.98 264.061 43.28 264.709 43.28ZM269.67 44V37.484H270.57L270.666 38.42H270.702C271.326 37.808 271.998 37.316 272.886 37.316C274.254 37.316 274.878 38.204 274.878 39.872V44H273.786V40.016C273.786 38.792 273.414 38.276 272.55 38.276C271.878 38.276 271.422 38.612 270.762 39.272V44H269.67ZM279.226 44.156C277.594 44.156 276.538 42.92 276.538 40.748C276.538 38.636 277.87 37.316 279.358 37.316C280.126 37.316 280.618 37.604 281.194 38.084L281.146 36.956V34.448H282.226V44H281.338L281.242 43.232H281.206C280.69 43.736 280.006 44.156 279.226 44.156ZM279.466 43.244C280.066 43.244 280.594 42.944 281.146 42.344V38.924C280.582 38.432 280.09 38.24 279.55 38.24C278.494 38.24 277.666 39.248 277.666 40.736C277.666 42.308 278.314 43.244 279.466 43.244ZM288.835 44.156C287.911 44.156 287.023 43.772 286.399 43.256L286.939 42.536C287.503 42.992 288.091 43.304 288.871 43.304C289.735 43.304 290.155 42.848 290.155 42.284C290.155 41.612 289.387 41.324 288.667 41.048C287.755 40.712 286.759 40.268 286.759 39.164C286.759 38.132 287.599 37.316 289.015 37.316C289.819 37.316 290.527 37.652 291.031 38.048L290.503 38.756C290.059 38.42 289.603 38.18 289.027 38.18C288.199 38.18 287.815 38.612 287.815 39.116C287.815 39.74 288.487 39.968 289.219 40.244C290.167 40.604 291.211 40.988 291.211 42.224C291.211 43.28 290.371 44.156 288.835 44.156ZM295.313 44.156C293.585 44.156 292.253 42.908 292.253 40.748C292.253 38.576 293.729 37.316 295.397 37.316C296.249 37.316 296.837 37.676 297.305 38.084L296.741 38.804C296.357 38.468 295.961 38.228 295.445 38.228C294.257 38.228 293.393 39.248 293.393 40.748C293.393 42.248 294.209 43.244 295.409 43.244C296.009 43.244 296.537 42.968 296.945 42.596L297.425 43.328C296.837 43.856 296.093 44.156 295.313 44.156ZM298.85 44V37.484H299.75L299.846 38.672H299.882C300.338 37.844 300.998 37.316 301.73 37.316C302.018 37.316 302.222 37.352 302.426 37.46L302.222 38.42C302.006 38.336 301.85 38.312 301.586 38.312C301.046 38.312 300.374 38.696 299.942 39.812V44H298.85ZM304.674 44.156C303.582 44.156 302.766 43.484 302.766 42.308C302.766 40.892 304.002 40.184 306.774 39.872C306.774 39.032 306.498 38.228 305.43 38.228C304.674 38.228 303.99 38.576 303.474 38.924L303.042 38.168C303.642 37.784 304.566 37.316 305.61 37.316C307.194 37.316 307.866 38.384 307.866 39.992V44H306.966L306.87 43.22H306.834C306.21 43.736 305.478 44.156 304.674 44.156ZM304.986 43.28C305.622 43.28 306.138 42.98 306.774 42.416V40.592C304.578 40.856 303.834 41.396 303.834 42.236C303.834 42.98 304.338 43.28 304.986 43.28ZM309.948 44V37.484H310.848L310.944 38.432H310.98C311.544 37.808 312.228 37.316 313.008 37.316C314.004 37.316 314.544 37.796 314.808 38.564C315.48 37.832 316.164 37.316 316.956 37.316C318.3 37.316 318.936 38.204 318.936 39.872V44H317.844V40.016C317.844 38.792 317.46 38.276 316.632 38.276C316.128 38.276 315.6 38.6 314.988 39.272V44H313.896V40.016C313.896 38.792 313.512 38.276 312.684 38.276C312.192 38.276 311.64 38.6 311.04 39.272V44H309.948ZM323.925 44.156C323.325 44.156 322.641 43.844 322.077 43.328H322.029L321.933 44H321.057V34.448H322.149V37.064L322.113 38.24C322.701 37.724 323.433 37.316 324.153 37.316C325.845 37.316 326.757 38.636 326.757 40.628C326.757 42.872 325.425 44.156 323.925 44.156ZM323.745 43.244C324.825 43.244 325.617 42.272 325.617 40.652C325.617 39.212 325.137 38.24 323.901 38.24C323.349 38.24 322.773 38.552 322.149 39.14V42.56C322.725 43.064 323.313 43.244 323.745 43.244ZM329.627 44.156C328.811 44.156 328.475 43.628 328.475 42.704V34.448H329.567V42.776C329.567 43.112 329.711 43.244 329.879 43.244C329.939 43.244 329.987 43.244 330.107 43.22L330.263 44.06C330.107 44.12 329.927 44.156 329.627 44.156ZM334.525 44.156C332.797 44.156 331.405 42.896 331.405 40.748C331.405 38.636 332.833 37.316 334.345 37.316C336.001 37.316 336.937 38.516 336.937 40.376C336.937 40.616 336.913 40.844 336.889 41H332.497C332.569 42.392 333.421 43.28 334.657 43.28C335.293 43.28 335.809 43.088 336.289 42.764L336.685 43.484C336.109 43.856 335.413 44.156 334.525 44.156ZM332.485 40.208H335.977C335.977 38.9 335.377 38.192 334.357 38.192C333.433 38.192 332.617 38.936 332.485 40.208ZM340.762 44.156C339.13 44.156 338.074 42.92 338.074 40.748C338.074 38.636 339.406 37.316 340.894 37.316C341.662 37.316 342.154 37.604 342.73 38.084L342.682 36.956V34.448H343.762V44H342.874L342.778 43.232H342.742C342.226 43.736 341.542 44.156 340.762 44.156ZM341.002 43.244C341.602 43.244 342.13 42.944 342.682 42.344V38.924C342.118 38.432 341.626 38.24 341.086 38.24C340.03 38.24 339.201 39.248 339.201 40.736C339.201 42.308 339.85 43.244 341.002 43.244ZM348.667 44V37.484H349.759V44H348.667ZM349.219 36.14C348.787 36.14 348.487 35.852 348.487 35.408C348.487 34.988 348.787 34.7 349.219 34.7C349.651 34.7 349.951 34.988 349.951 35.408C349.951 35.852 349.651 36.14 349.219 36.14ZM354.023 44.156C352.631 44.156 352.163 43.28 352.163 41.984V38.372H351.191V37.544L352.211 37.484L352.343 35.648H353.255V37.484H355.019V38.372H353.255V42.008C353.255 42.812 353.507 43.268 354.263 43.268C354.491 43.268 354.791 43.184 355.007 43.1L355.223 43.916C354.851 44.036 354.419 44.156 354.023 44.156ZM361.23 44.156C359.838 44.156 359.37 43.28 359.37 41.984V38.372H358.398V37.544L359.418 37.484L359.55 35.648H360.462V37.484H362.226V38.372H360.462V42.008C360.462 42.812 360.714 43.268 361.47 43.268C361.698 43.268 361.998 43.184 362.214 43.1L362.43 43.916C362.058 44.036 361.626 44.156 361.23 44.156ZM366.058 44.156C364.462 44.156 363.034 42.908 363.034 40.748C363.034 38.576 364.462 37.316 366.058 37.316C367.654 37.316 369.082 38.576 369.082 40.748C369.082 42.908 367.654 44.156 366.058 44.156ZM366.058 43.244C367.186 43.244 367.954 42.248 367.954 40.748C367.954 39.248 367.186 38.228 366.058 38.228C364.93 38.228 364.174 39.248 364.174 40.748C364.174 42.248 364.93 43.244 366.058 43.244ZM373.487 44V37.484H374.387L374.483 38.432H374.519C375.083 37.808 375.767 37.316 376.547 37.316C377.543 37.316 378.083 37.796 378.347 38.564C379.019 37.832 379.703 37.316 380.495 37.316C381.839 37.316 382.475 38.204 382.475 39.872V44H381.383V40.016C381.383 38.792 380.999 38.276 380.171 38.276C379.667 38.276 379.139 38.6 378.527 39.272V44H377.435V40.016C377.435 38.792 377.051 38.276 376.223 38.276C375.731 38.276 375.179 38.6 374.579 39.272V44H373.487ZM386.096 44.156C385.004 44.156 384.188 43.484 384.188 42.308C384.188 40.892 385.424 40.184 388.196 39.872C388.196 39.032 387.92 38.228 386.852 38.228C386.096 38.228 385.412 38.576 384.896 38.924L384.464 38.168C385.064 37.784 385.988 37.316 387.032 37.316C388.616 37.316 389.288 38.384 389.288 39.992V44H388.388L388.292 43.22H388.256C387.632 43.736 386.9 44.156 386.096 44.156ZM386.408 43.28C387.044 43.28 387.56 42.98 388.196 42.416V40.592C386 40.856 385.256 41.396 385.256 42.236C385.256 42.98 385.76 43.28 386.408 43.28ZM391.37 44V34.448H392.45V40.928H392.486L395.258 37.484H396.482L394.31 40.112L396.77 44H395.582L393.674 40.856L392.45 42.284V44H391.37ZM400.384 44.156C398.656 44.156 397.264 42.896 397.264 40.748C397.264 38.636 398.692 37.316 400.204 37.316C401.86 37.316 402.796 38.516 402.796 40.376C402.796 40.616 402.772 40.844 402.748 41H398.356C398.428 42.392 399.28 43.28 400.516 43.28C401.152 43.28 401.668 43.088 402.148 42.764L402.544 43.484C401.968 43.856 401.272 44.156 400.384 44.156ZM398.344 40.208H401.836C401.836 38.9 401.236 38.192 400.216 38.192C399.292 38.192 398.476 38.936 398.344 40.208ZM11.0845 61.156C9.99247 61.156 9.17647 60.484 9.17647 59.308C9.17647 57.892 10.4125 57.184 13.1845 56.872C13.1845 56.032 12.9085 55.228 11.8405 55.228C11.0845 55.228 10.4005 55.576 9.88447 55.924L9.45247 55.168C10.0525 54.784 10.9765 54.316 12.0205 54.316C13.6045 54.316 14.2765 55.384 14.2765 56.992V61H13.3765L13.2805 60.22H13.2445C12.6205 60.736 11.8885 61.156 11.0845 61.156ZM11.3965 60.28C12.0325 60.28 12.5485 59.98 13.1845 59.416V57.592C10.9885 57.856 10.2445 58.396 10.2445 59.236C10.2445 59.98 10.7485 60.28 11.3965 60.28ZM21.0935 61.156C19.7015 61.156 19.2335 60.28 19.2335 58.984V55.372H18.2615V54.544L19.2815 54.484L19.4135 52.648H20.3255V54.484H22.0895V55.372H20.3255V59.008C20.3255 59.812 20.5775 60.268 21.3335 60.268C21.5615 60.268 21.8615 60.184 22.0775 60.1L22.2935 60.916C21.9215 61.036 21.4895 61.156 21.0935 61.156ZM23.6729 63.808C23.3609 63.808 23.1089 63.76 22.9049 63.676L23.1209 62.8C23.2529 62.848 23.4449 62.908 23.6129 62.908C24.3569 62.908 24.8249 62.308 25.0889 61.504L25.2329 61.012L22.6169 54.484H23.7569L25.0889 58.108C25.2809 58.672 25.5089 59.344 25.7129 59.932H25.7729C25.9529 59.344 26.1449 58.684 26.3249 58.108L27.4889 54.484H28.5569L26.0969 61.54C25.6529 62.824 24.9689 63.808 23.6729 63.808ZM29.8228 63.748V54.484H30.7228L30.8188 55.228H30.8548C31.4428 54.748 32.1748 54.316 32.9308 54.316C34.6108 54.316 35.5228 55.636 35.5228 57.64C35.5228 59.872 34.1908 61.156 32.6908 61.156C32.1028 61.156 31.4788 60.88 30.8908 60.4L30.9148 61.54V63.748H29.8228ZM32.5108 60.244C33.5908 60.244 34.3828 59.272 34.3828 57.652C34.3828 56.212 33.9028 55.24 32.6668 55.24C32.1148 55.24 31.5508 55.552 30.9148 56.14V59.56C31.5028 60.064 32.0788 60.244 32.5108 60.244ZM39.8922 61.156C38.1642 61.156 36.7722 59.896 36.7722 57.748C36.7722 55.636 38.2002 54.316 39.7122 54.316C41.3682 54.316 42.3042 55.516 42.3042 57.376C42.3042 57.616 42.2802 57.844 42.2562 58H37.8642C37.9362 59.392 38.7882 60.28 40.0242 60.28C40.6602 60.28 41.1762 60.088 41.6562 59.764L42.0522 60.484C41.4762 60.856 40.7802 61.156 39.8922 61.156ZM37.8522 57.208H41.3442C41.3442 55.9 40.7442 55.192 39.7242 55.192C38.8002 55.192 37.9842 55.936 37.8522 57.208ZM48.2963 61.156C47.3723 61.156 46.4843 60.772 45.8603 60.256L46.4003 59.536C46.9643 59.992 47.5523 60.304 48.3323 60.304C49.1963 60.304 49.6163 59.848 49.6163 59.284C49.6163 58.612 48.8483 58.324 48.1283 58.048C47.2163 57.712 46.2203 57.268 46.2203 56.164C46.2203 55.132 47.0603 54.316 48.4763 54.316C49.2803 54.316 49.9883 54.652 50.4923 55.048L49.9643 55.756C49.5203 55.42 49.0643 55.18 48.4883 55.18C47.6603 55.18 47.2763 55.612 47.2763 56.116C47.2763 56.74 47.9483 56.968 48.6803 57.244C49.6283 57.604 50.6723 57.988 50.6723 59.224C50.6723 60.28 49.8323 61.156 48.2963 61.156ZM52.2056 63.748V54.484H53.1056L53.2016 55.228H53.2376C53.8256 54.748 54.5576 54.316 55.3136 54.316C56.9936 54.316 57.9056 55.636 57.9056 57.64C57.9056 59.872 56.5736 61.156 55.0736 61.156C54.4856 61.156 53.8616 60.88 53.2736 60.4L53.2976 61.54V63.748H52.2056ZM54.8936 60.244C55.9736 60.244 56.7656 59.272 56.7656 57.652C56.7656 56.212 56.2856 55.24 55.0496 55.24C54.4976 55.24 53.9336 55.552 53.2976 56.14V59.56C53.8856 60.064 54.4616 60.244 54.8936 60.244ZM62.275 61.156C60.547 61.156 59.155 59.896 59.155 57.748C59.155 55.636 60.583 54.316 62.095 54.316C63.751 54.316 64.687 55.516 64.687 57.376C64.687 57.616 64.663 57.844 64.639 58H60.247C60.319 59.392 61.171 60.28 62.407 60.28C63.043 60.28 63.559 60.088 64.039 59.764L64.435 60.484C63.859 60.856 63.163 61.156 62.275 61.156ZM60.235 57.208H63.727C63.727 55.9 63.127 55.192 62.107 55.192C61.183 55.192 60.367 55.936 60.235 57.208ZM68.8595 61.156C67.1315 61.156 65.7995 59.908 65.7995 57.748C65.7995 55.576 67.2755 54.316 68.9435 54.316C69.7955 54.316 70.3835 54.676 70.8515 55.084L70.2875 55.804C69.9035 55.468 69.5075 55.228 68.9915 55.228C67.8035 55.228 66.9395 56.248 66.9395 57.748C66.9395 59.248 67.7555 60.244 68.9555 60.244C69.5555 60.244 70.0835 59.968 70.4915 59.596L70.9715 60.328C70.3835 60.856 69.6395 61.156 68.8595 61.156ZM72.397 61V54.484H73.489V61H72.397ZM72.949 53.14C72.517 53.14 72.217 52.852 72.217 52.408C72.217 51.988 72.517 51.7 72.949 51.7C73.381 51.7 73.681 51.988 73.681 52.408C73.681 52.852 73.381 53.14 72.949 53.14ZM75.7017 61V54.484H76.6017L76.6977 55.432H76.7337C77.2977 54.808 77.9817 54.316 78.7617 54.316C79.7577 54.316 80.2977 54.796 80.5617 55.564C81.2337 54.832 81.9177 54.316 82.7097 54.316C84.0537 54.316 84.6897 55.204 84.6897 56.872V61H83.5977V57.016C83.5977 55.792 83.2137 55.276 82.3857 55.276C81.8817 55.276 81.3537 55.6 80.7417 56.272V61H79.6497V57.016C79.6497 55.792 79.2657 55.276 78.4377 55.276C77.9457 55.276 77.3937 55.6 76.7937 56.272V61H75.7017ZM89.439 61.156C87.711 61.156 86.319 59.896 86.319 57.748C86.319 55.636 87.747 54.316 89.259 54.316C90.915 54.316 91.851 55.516 91.851 57.376C91.851 57.616 91.827 57.844 91.803 58H87.411C87.483 59.392 88.335 60.28 89.571 60.28C90.207 60.28 90.723 60.088 91.203 59.764L91.599 60.484C91.023 60.856 90.327 61.156 89.439 61.156ZM87.399 57.208H90.891C90.891 55.9 90.291 55.192 89.271 55.192C88.347 55.192 87.531 55.936 87.399 57.208ZM93.4556 61V54.484H94.3556L94.4516 55.42H94.4876C95.1116 54.808 95.7836 54.316 96.6716 54.316C98.0396 54.316 98.6636 55.204 98.6636 56.872V61H97.5716V57.016C97.5716 55.792 97.1996 55.276 96.3356 55.276C95.6636 55.276 95.2076 55.612 94.5476 56.272V61H93.4556ZM106.343 61.156C105.743 61.156 105.059 60.844 104.495 60.328H104.447L104.351 61H103.475V51.448H104.567V54.064L104.531 55.24C105.119 54.724 105.851 54.316 106.571 54.316C108.263 54.316 109.175 55.636 109.175 57.628C109.175 59.872 107.843 61.156 106.343 61.156ZM106.163 60.244C107.243 60.244 108.035 59.272 108.035 57.652C108.035 56.212 107.555 55.24 106.319 55.24C105.767 55.24 105.191 55.552 104.567 56.14V59.56C105.143 60.064 105.731 60.244 106.163 60.244ZM113.425 61.156C111.829 61.156 110.401 59.908 110.401 57.748C110.401 55.576 111.829 54.316 113.425 54.316C115.021 54.316 116.449 55.576 116.449 57.748C116.449 59.908 115.021 61.156 113.425 61.156ZM113.425 60.244C114.553 60.244 115.321 59.248 115.321 57.748C115.321 56.248 114.553 55.228 113.425 55.228C112.297 55.228 111.541 56.248 111.541 57.748C111.541 59.248 112.297 60.244 113.425 60.244ZM120.702 61.156C119.106 61.156 117.678 59.908 117.678 57.748C117.678 55.576 119.106 54.316 120.702 54.316C122.298 54.316 123.726 55.576 123.726 57.748C123.726 59.908 122.298 61.156 120.702 61.156ZM120.702 60.244C121.83 60.244 122.598 59.248 122.598 57.748C122.598 56.248 121.83 55.228 120.702 55.228C119.574 55.228 118.818 56.248 118.818 57.748C118.818 59.248 119.574 60.244 120.702 60.244ZM125.448 61V51.448H126.528V57.928H126.564L129.336 54.484H130.56L128.388 57.112L130.848 61H129.66L127.752 57.856L126.528 59.284V61H125.448ZM132.797 61.156C132.365 61.156 132.005 60.82 132.005 60.328C132.005 59.824 132.365 59.476 132.797 59.476C133.229 59.476 133.589 59.824 133.589 60.328C133.589 60.82 133.229 61.156 132.797 61.156ZM138.352 61V52.192H139.468V61H138.352ZM143.824 61.156C142.432 61.156 141.964 60.28 141.964 58.984V55.372H140.992V54.544L142.012 54.484L142.144 52.648H143.056V54.484H144.82V55.372H143.056V59.008C143.056 59.812 143.308 60.268 144.064 60.268C144.292 60.268 144.592 60.184 144.808 60.1L145.024 60.916C144.652 61.036 144.22 61.156 143.824 61.156ZM148.979 61V51.448H150.071V54.064L150.035 55.408C150.635 54.808 151.307 54.316 152.195 54.316C153.563 54.316 154.187 55.204 154.187 56.872V61H153.095V57.016C153.095 55.792 152.723 55.276 151.859 55.276C151.187 55.276 150.731 55.612 150.071 56.272V61H148.979ZM157.768 61.156C156.676 61.156 155.86 60.484 155.86 59.308C155.86 57.892 157.096 57.184 159.868 56.872C159.868 56.032 159.592 55.228 158.524 55.228C157.768 55.228 157.084 55.576 156.568 55.924L156.136 55.168C156.736 54.784 157.66 54.316 158.704 54.316C160.288 54.316 160.96 55.384 160.96 56.992V61H160.06L159.964 60.22H159.928C159.304 60.736 158.572 61.156 157.768 61.156ZM158.08 60.28C158.716 60.28 159.232 59.98 159.868 59.416V57.592C157.672 57.856 156.928 58.396 156.928 59.236C156.928 59.98 157.432 60.28 158.08 60.28ZM164.746 61.156C163.822 61.156 162.934 60.772 162.31 60.256L162.85 59.536C163.414 59.992 164.002 60.304 164.782 60.304C165.646 60.304 166.066 59.848 166.066 59.284C166.066 58.612 165.298 58.324 164.578 58.048C163.666 57.712 162.67 57.268 162.67 56.164C162.67 55.132 163.51 54.316 164.926 54.316C165.73 54.316 166.438 54.652 166.942 55.048L166.414 55.756C165.97 55.42 165.514 55.18 164.938 55.18C164.11 55.18 163.726 55.612 163.726 56.116C163.726 56.74 164.398 56.968 165.13 57.244C166.078 57.604 167.122 57.988 167.122 59.224C167.122 60.28 166.282 61.156 164.746 61.156ZM173.042 61.156C172.118 61.156 171.23 60.772 170.606 60.256L171.146 59.536C171.71 59.992 172.298 60.304 173.078 60.304C173.942 60.304 174.362 59.848 174.362 59.284C174.362 58.612 173.594 58.324 172.874 58.048C171.962 57.712 170.966 57.268 170.966 56.164C170.966 55.132 171.806 54.316 173.222 54.316C174.026 54.316 174.734 54.652 175.238 55.048L174.71 55.756C174.266 55.42 173.81 55.18 173.234 55.18C172.406 55.18 172.022 55.612 172.022 56.116C172.022 56.74 172.694 56.968 173.426 57.244C174.374 57.604 175.418 57.988 175.418 59.224C175.418 60.28 174.578 61.156 173.042 61.156ZM178.848 61.156C177.48 61.156 176.868 60.268 176.868 58.612V54.484H177.96V58.48C177.96 59.692 178.32 60.208 179.184 60.208C179.856 60.208 180.324 59.884 180.948 59.104V54.484H182.04V61H181.128L181.044 59.98H181.008C180.396 60.688 179.748 61.156 178.848 61.156ZM184.241 61V54.484H185.141L185.237 55.672H185.273C185.729 54.844 186.389 54.316 187.121 54.316C187.409 54.316 187.613 54.352 187.817 54.46L187.613 55.42C187.397 55.336 187.241 55.312 186.977 55.312C186.437 55.312 185.765 55.696 185.333 56.812V61H184.241ZM190.649 61L188.297 54.484H189.437L190.661 58.192C190.865 58.828 191.069 59.5 191.273 60.112H191.321C191.525 59.5 191.729 58.828 191.921 58.192L193.157 54.484H194.237L191.921 61H190.649ZM195.502 61V54.484H196.594V61H195.502ZM196.054 53.14C195.622 53.14 195.322 52.852 195.322 52.408C195.322 51.988 195.622 51.7 196.054 51.7C196.486 51.7 196.786 51.988 196.786 52.408C196.786 52.852 196.486 53.14 196.054 53.14ZM200.211 61L197.859 54.484H198.999L200.223 58.192C200.427 58.828 200.631 59.5 200.835 60.112H200.883C201.087 59.5 201.291 58.828 201.483 58.192L202.719 54.484H203.799L201.483 61H200.211ZM207.646 61.156C205.918 61.156 204.526 59.896 204.526 57.748C204.526 55.636 205.954 54.316 207.466 54.316C209.122 54.316 210.058 55.516 210.058 57.376C210.058 57.616 210.034 57.844 210.01 58H205.618C205.69 59.392 206.542 60.28 207.778 60.28C208.414 60.28 208.93 60.088 209.41 59.764L209.806 60.484C209.23 60.856 208.534 61.156 207.646 61.156ZM205.606 57.208H209.098C209.098 55.9 208.498 55.192 207.478 55.192C206.554 55.192 205.738 55.936 205.606 57.208ZM213.883 61.156C212.251 61.156 211.195 59.92 211.195 57.748C211.195 55.636 212.527 54.316 214.015 54.316C214.783 54.316 215.275 54.604 215.851 55.084L215.803 53.956V51.448H216.883V61H215.995L215.899 60.232H215.863C215.347 60.736 214.663 61.156 213.883 61.156ZM214.123 60.244C214.723 60.244 215.251 59.944 215.803 59.344V55.924C215.239 55.432 214.747 55.24 214.207 55.24C213.151 55.24 212.323 56.248 212.323 57.736C212.323 59.308 212.971 60.244 214.123 60.244ZM221.788 61V54.484H222.688L222.784 55.42H222.82C223.444 54.808 224.116 54.316 225.004 54.316C226.372 54.316 226.996 55.204 226.996 56.872V61H225.904V57.016C225.904 55.792 225.532 55.276 224.668 55.276C223.996 55.276 223.54 55.612 222.88 56.272V61H221.788ZM231.656 61.156C230.06 61.156 228.632 59.908 228.632 57.748C228.632 55.576 230.06 54.316 231.656 54.316C233.252 54.316 234.68 55.576 234.68 57.748C234.68 59.908 233.252 61.156 231.656 61.156ZM231.656 60.244C232.784 60.244 233.552 59.248 233.552 57.748C233.552 56.248 232.784 55.228 231.656 55.228C230.528 55.228 229.772 56.248 229.772 57.748C229.772 59.248 230.528 60.244 231.656 60.244ZM238.23 61.156C236.838 61.156 236.37 60.28 236.37 58.984V55.372H235.398V54.544L236.418 54.484L236.55 52.648H237.462V54.484H239.226V55.372H237.462V59.008C237.462 59.812 237.714 60.268 238.47 60.268C238.698 60.268 238.998 60.184 239.214 60.1L239.43 60.916C239.058 61.036 238.626 61.156 238.23 61.156ZM245.917 61.156C244.321 61.156 242.893 59.908 242.893 57.748C242.893 55.576 244.321 54.316 245.917 54.316C247.513 54.316 248.941 55.576 248.941 57.748C248.941 59.908 247.513 61.156 245.917 61.156ZM245.917 60.244C247.045 60.244 247.813 59.248 247.813 57.748C247.813 56.248 247.045 55.228 245.917 55.228C244.789 55.228 244.033 56.248 244.033 57.748C244.033 59.248 244.789 60.244 245.917 60.244ZM250.663 61V54.484H251.563L251.659 55.42H251.695C252.319 54.808 252.991 54.316 253.879 54.316C255.247 54.316 255.871 55.204 255.871 56.872V61H254.779V57.016C254.779 55.792 254.407 55.276 253.543 55.276C252.871 55.276 252.415 55.612 251.755 56.272V61H250.663ZM259.151 61.156C258.335 61.156 257.999 60.628 257.999 59.704V51.448H259.091V59.776C259.091 60.112 259.235 60.244 259.403 60.244C259.463 60.244 259.511 60.244 259.631 60.22L259.787 61.06C259.631 61.12 259.451 61.156 259.151 61.156ZM261.528 63.808C261.216 63.808 260.964 63.76 260.76 63.676L260.976 62.8C261.108 62.848 261.3 62.908 261.468 62.908C262.212 62.908 262.68 62.308 262.944 61.504L263.088 61.012L260.472 54.484H261.612L262.944 58.108C263.136 58.672 263.364 59.344 263.568 59.932H263.628C263.808 59.344 264 58.684 264.18 58.108L265.344 54.484H266.412L263.952 61.54C263.508 62.824 262.824 63.808 261.528 63.808ZM270.542 61V55.372H269.654V54.544L270.542 54.484V53.44C270.542 52.12 271.142 51.292 272.438 51.292C272.834 51.292 273.23 51.376 273.53 51.508L273.29 52.336C273.05 52.228 272.786 52.168 272.558 52.168C271.934 52.168 271.634 52.612 271.634 53.452V54.484H273.014V55.372H271.634V61H270.542ZM274.262 61V54.484H275.366V61H274.262ZM274.814 53.14C274.394 53.14 274.094 52.852 274.094 52.408C274.094 51.988 274.394 51.7 274.814 51.7C275.246 51.7 275.558 51.988 275.558 52.408C275.558 52.852 275.246 53.14 274.814 53.14ZM278.961 61L276.609 54.484H277.749L278.973 58.192C279.177 58.828 279.381 59.5 279.585 60.112H279.633C279.837 59.5 280.041 58.828 280.233 58.192L281.469 54.484H282.549L280.233 61H278.961ZM286.396 61.156C284.668 61.156 283.276 59.896 283.276 57.748C283.276 55.636 284.704 54.316 286.216 54.316C287.872 54.316 288.808 55.516 288.808 57.376C288.808 57.616 288.784 57.844 288.76 58H284.368C284.44 59.392 285.292 60.28 286.528 60.28C287.164 60.28 287.68 60.088 288.16 59.764L288.556 60.484C287.98 60.856 287.284 61.156 286.396 61.156ZM284.356 57.208H287.848C287.848 55.9 287.248 55.192 286.228 55.192C285.304 55.192 284.488 55.936 284.356 57.208ZM295.664 61.156C293.936 61.156 292.604 59.908 292.604 57.748C292.604 55.576 294.08 54.316 295.748 54.316C296.6 54.316 297.188 54.676 297.656 55.084L297.092 55.804C296.708 55.468 296.312 55.228 295.796 55.228C294.608 55.228 293.744 56.248 293.744 57.748C293.744 59.248 294.56 60.244 295.76 60.244C296.36 60.244 296.888 59.968 297.296 59.596L297.776 60.328C297.188 60.856 296.444 61.156 295.664 61.156ZM301.537 61.156C299.809 61.156 298.417 59.896 298.417 57.748C298.417 55.636 299.845 54.316 301.357 54.316C303.013 54.316 303.949 55.516 303.949 57.376C303.949 57.616 303.925 57.844 303.901 58H299.509C299.581 59.392 300.433 60.28 301.669 60.28C302.305 60.28 302.821 60.088 303.301 59.764L303.697 60.484C303.121 60.856 302.425 61.156 301.537 61.156ZM299.497 57.208H302.989C302.989 55.9 302.389 55.192 301.369 55.192C300.445 55.192 299.629 55.936 299.497 57.208ZM305.553 61V54.484H306.453L306.549 55.42H306.585C307.209 54.808 307.881 54.316 308.769 54.316C310.137 54.316 310.761 55.204 310.761 56.872V61H309.669V57.016C309.669 55.792 309.297 55.276 308.433 55.276C307.761 55.276 307.305 55.612 306.645 56.272V61H305.553ZM314.941 61.156C313.549 61.156 313.081 60.28 313.081 58.984V55.372H312.109V54.544L313.129 54.484L313.261 52.648H314.173V54.484H315.937V55.372H314.173V59.008C314.173 59.812 314.425 60.268 315.181 60.268C315.409 60.268 315.709 60.184 315.925 60.1L316.141 60.916C315.769 61.036 315.337 61.156 314.941 61.156ZM319.309 61.156C317.941 61.156 317.329 60.268 317.329 58.612V54.484H318.421V58.48C318.421 59.692 318.781 60.208 319.645 60.208C320.317 60.208 320.785 59.884 321.409 59.104V54.484H322.501V61H321.589L321.505 59.98H321.469C320.857 60.688 320.209 61.156 319.309 61.156ZM324.702 61V54.484H325.602L325.698 55.672H325.734C326.19 54.844 326.85 54.316 327.582 54.316C327.87 54.316 328.074 54.352 328.278 54.46L328.074 55.42C327.858 55.336 327.702 55.312 327.438 55.312C326.898 55.312 326.226 55.696 325.794 56.812V61H324.702ZM329.354 61V54.484H330.446V61H329.354ZM329.906 53.14C329.474 53.14 329.174 52.852 329.174 52.408C329.174 51.988 329.474 51.7 329.906 51.7C330.338 51.7 330.638 51.988 330.638 52.408C330.638 52.852 330.338 53.14 329.906 53.14ZM335.287 61.156C333.559 61.156 332.167 59.896 332.167 57.748C332.167 55.636 333.595 54.316 335.107 54.316C336.763 54.316 337.699 55.516 337.699 57.376C337.699 57.616 337.675 57.844 337.651 58H333.259C333.331 59.392 334.183 60.28 335.419 60.28C336.055 60.28 336.571 60.088 337.051 59.764L337.447 60.484C336.871 60.856 336.175 61.156 335.287 61.156ZM333.247 57.208H336.739C336.739 55.9 336.139 55.192 335.119 55.192C334.195 55.192 333.379 55.936 333.247 57.208ZM341.007 61.156C340.083 61.156 339.195 60.772 338.571 60.256L339.111 59.536C339.675 59.992 340.263 60.304 341.043 60.304C341.907 60.304 342.327 59.848 342.327 59.284C342.327 58.612 341.559 58.324 340.839 58.048C339.927 57.712 338.931 57.268 338.931 56.164C338.931 55.132 339.771 54.316 341.187 54.316C341.991 54.316 342.699 54.652 343.203 55.048L342.675 55.756C342.231 55.42 341.775 55.18 341.199 55.18C340.371 55.18 339.987 55.612 339.987 56.116C339.987 56.74 340.659 56.968 341.391 57.244C342.339 57.604 343.383 57.988 343.383 59.224C343.383 60.28 342.543 61.156 341.007 61.156ZM344.713 63.28L344.449 62.632C345.205 62.296 345.649 61.708 345.649 61C345.601 61.012 345.565 61.012 345.517 61.012C345.097 61.012 344.713 60.748 344.713 60.244C344.713 59.776 345.097 59.476 345.541 59.476C346.117 59.476 346.465 59.968 346.465 60.772C346.465 61.924 345.793 62.824 344.713 63.28ZM353.808 61.156C353.208 61.156 352.524 60.844 351.96 60.328H351.912L351.816 61H350.94V51.448H352.032V54.064L351.996 55.24C352.584 54.724 353.316 54.316 354.036 54.316C355.728 54.316 356.64 55.636 356.64 57.628C356.64 59.872 355.308 61.156 353.808 61.156ZM353.628 60.244C354.708 60.244 355.5 59.272 355.5 57.652C355.5 56.212 355.02 55.24 353.784 55.24C353.232 55.24 352.656 55.552 352.032 56.14V59.56C352.608 60.064 353.196 60.244 353.628 60.244ZM360.254 61.156C358.886 61.156 358.274 60.268 358.274 58.612V54.484H359.366V58.48C359.366 59.692 359.726 60.208 360.59 60.208C361.262 60.208 361.73 59.884 362.354 59.104V54.484H363.446V61H362.534L362.45 59.98H362.414C361.802 60.688 361.154 61.156 360.254 61.156ZM367.699 61.156C366.307 61.156 365.839 60.28 365.839 58.984V55.372H364.867V54.544L365.887 54.484L366.019 52.648H366.931V54.484H368.695V55.372H366.931V59.008C366.931 59.812 367.183 60.268 367.939 60.268C368.167 60.268 368.467 60.184 368.683 60.1L368.899 60.916C368.527 61.036 368.095 61.156 367.699 61.156ZM374.354 61.156C373.262 61.156 372.446 60.484 372.446 59.308C372.446 57.892 373.682 57.184 376.454 56.872C376.454 56.032 376.178 55.228 375.11 55.228C374.354 55.228 373.67 55.576 373.154 55.924L372.722 55.168C373.322 54.784 374.246 54.316 375.29 54.316C376.874 54.316 377.546 55.384 377.546 56.992V61H376.646L376.55 60.22H376.514C375.89 60.736 375.158 61.156 374.354 61.156ZM374.666 60.28C375.302 60.28 375.818 59.98 376.454 59.416V57.592C374.258 57.856 373.514 58.396 373.514 59.236C373.514 59.98 374.018 60.28 374.666 60.28ZM380.779 61.156C379.963 61.156 379.627 60.628 379.627 59.704V51.448H380.719V59.776C380.719 60.112 380.863 60.244 381.031 60.244C381.091 60.244 381.139 60.244 381.259 60.22L381.415 61.06C381.259 61.12 381.079 61.156 380.779 61.156ZM384.753 61.156C383.829 61.156 382.941 60.772 382.317 60.256L382.857 59.536C383.421 59.992 384.009 60.304 384.789 60.304C385.653 60.304 386.073 59.848 386.073 59.284C386.073 58.612 385.305 58.324 384.585 58.048C383.673 57.712 382.677 57.268 382.677 56.164C382.677 55.132 383.517 54.316 384.933 54.316C385.737 54.316 386.445 54.652 386.949 55.048L386.421 55.756C385.977 55.42 385.521 55.18 384.945 55.18C384.117 55.18 383.733 55.612 383.733 56.116C383.733 56.74 384.405 56.968 385.137 57.244C386.085 57.604 387.129 57.988 387.129 59.224C387.129 60.28 386.289 61.156 384.753 61.156ZM391.195 61.156C389.599 61.156 388.171 59.908 388.171 57.748C388.171 55.576 389.599 54.316 391.195 54.316C392.791 54.316 394.219 55.576 394.219 57.748C394.219 59.908 392.791 61.156 391.195 61.156ZM391.195 60.244C392.323 60.244 393.091 59.248 393.091 57.748C393.091 56.248 392.323 55.228 391.195 55.228C390.067 55.228 389.311 56.248 389.311 57.748C389.311 59.248 390.067 60.244 391.195 60.244ZM108.914 78.156C107.522 78.156 107.054 77.28 107.054 75.984V72.372H106.082V71.544L107.102 71.484L107.234 69.648H108.146V71.484H109.91V72.372H108.146V76.008C108.146 76.812 108.398 77.268 109.154 77.268C109.382 77.268 109.682 77.184 109.898 77.1L110.114 77.916C109.742 78.036 109.31 78.156 108.914 78.156ZM111.385 78V68.448H112.477V71.064L112.441 72.408C113.041 71.808 113.713 71.316 114.601 71.316C115.969 71.316 116.593 72.204 116.593 73.872V78H115.501V74.016C115.501 72.792 115.129 72.276 114.265 72.276C113.593 72.276 113.137 72.612 112.477 73.272V78H111.385ZM121.302 78.156C119.574 78.156 118.182 76.896 118.182 74.748C118.182 72.636 119.61 71.316 121.122 71.316C122.778 71.316 123.714 72.516 123.714 74.376C123.714 74.616 123.69 74.844 123.666 75H119.274C119.346 76.392 120.198 77.28 121.434 77.28C122.07 77.28 122.586 77.088 123.066 76.764L123.462 77.484C122.886 77.856 122.19 78.156 121.302 78.156ZM119.262 74.208H122.754C122.754 72.9 122.154 72.192 121.134 72.192C120.21 72.192 119.394 72.936 119.262 74.208ZM129.154 78.156C128.338 78.156 128.002 77.628 128.002 76.704V68.448H129.094V76.776C129.094 77.112 129.238 77.244 129.406 77.244C129.466 77.244 129.514 77.244 129.634 77.22L129.79 78.06C129.634 78.12 129.454 78.156 129.154 78.156ZM134.052 78.156C132.324 78.156 130.932 76.896 130.932 74.748C130.932 72.636 132.36 71.316 133.872 71.316C135.528 71.316 136.464 72.516 136.464 74.376C136.464 74.616 136.44 74.844 136.416 75H132.024C132.096 76.392 132.948 77.28 134.184 77.28C134.82 77.28 135.336 77.088 135.816 76.764L136.212 77.484C135.636 77.856 134.94 78.156 134.052 78.156ZM132.012 74.208H135.504C135.504 72.9 134.904 72.192 133.884 72.192C132.96 72.192 132.144 72.936 132.012 74.208ZM139.381 78.156C138.289 78.156 137.473 77.484 137.473 76.308C137.473 74.892 138.709 74.184 141.481 73.872C141.481 73.032 141.205 72.228 140.137 72.228C139.381 72.228 138.697 72.576 138.181 72.924L137.749 72.168C138.349 71.784 139.273 71.316 140.317 71.316C141.901 71.316 142.573 72.384 142.573 73.992V78H141.673L141.577 77.22H141.541C140.917 77.736 140.185 78.156 139.381 78.156ZM139.693 77.28C140.329 77.28 140.845 76.98 141.481 76.416V74.592C139.285 74.856 138.541 75.396 138.541 76.236C138.541 76.98 139.045 77.28 139.693 77.28ZM144.655 80.748V71.484H145.555L145.651 72.228H145.687C146.275 71.748 147.007 71.316 147.763 71.316C149.443 71.316 150.355 72.636 150.355 74.64C150.355 76.872 149.023 78.156 147.523 78.156C146.935 78.156 146.311 77.88 145.723 77.4L145.747 78.54V80.748H144.655ZM147.343 77.244C148.423 77.244 149.215 76.272 149.215 74.652C149.215 73.212 148.735 72.24 147.499 72.24C146.947 72.24 146.383 72.552 145.747 73.14V76.56C146.335 77.064 146.911 77.244 147.343 77.244ZM154.78 78V71.484H155.872V78H154.78ZM155.332 70.14C154.9 70.14 154.6 69.852 154.6 69.408C154.6 68.988 154.9 68.7 155.332 68.7C155.764 68.7 156.064 68.988 156.064 69.408C156.064 69.852 155.764 70.14 155.332 70.14ZM158.084 78V71.484H158.984L159.08 72.42H159.116C159.74 71.808 160.412 71.316 161.3 71.316C162.668 71.316 163.292 72.204 163.292 73.872V78H162.2V74.016C162.2 72.792 161.828 72.276 160.964 72.276C160.292 72.276 159.836 72.612 159.176 73.272V78H158.084ZM167.472 78.156C166.08 78.156 165.612 77.28 165.612 75.984V72.372H164.64V71.544L165.66 71.484L165.792 69.648H166.704V71.484H168.468V72.372H166.704V76.008C166.704 76.812 166.956 77.268 167.712 77.268C167.94 77.268 168.24 77.184 168.456 77.1L168.672 77.916C168.3 78.036 167.868 78.156 167.472 78.156ZM172.3 78.156C170.704 78.156 169.276 76.908 169.276 74.748C169.276 72.576 170.704 71.316 172.3 71.316C173.896 71.316 175.324 72.576 175.324 74.748C175.324 76.908 173.896 78.156 172.3 78.156ZM172.3 77.244C173.428 77.244 174.196 76.248 174.196 74.748C174.196 73.248 173.428 72.228 172.3 72.228C171.172 72.228 170.416 73.248 170.416 74.748C170.416 76.248 171.172 77.244 172.3 77.244ZM182.357 78.156C180.629 78.156 179.237 76.896 179.237 74.748C179.237 72.636 180.665 71.316 182.177 71.316C183.833 71.316 184.769 72.516 184.769 74.376C184.769 74.616 184.745 74.844 184.721 75H180.329C180.401 76.392 181.253 77.28 182.489 77.28C183.125 77.28 183.641 77.088 184.121 76.764L184.517 77.484C183.941 77.856 183.245 78.156 182.357 78.156ZM180.317 74.208H183.809C183.809 72.9 183.209 72.192 182.189 72.192C181.265 72.192 180.449 72.936 180.317 74.208ZM187.526 78.156C186.71 78.156 186.374 77.628 186.374 76.704V68.448H187.466V76.776C187.466 77.112 187.61 77.244 187.778 77.244C187.838 77.244 187.886 77.244 188.006 77.22L188.162 78.06C188.006 78.12 187.826 78.156 187.526 78.156ZM192.423 78.156C190.695 78.156 189.303 76.896 189.303 74.748C189.303 72.636 190.731 71.316 192.243 71.316C193.899 71.316 194.835 72.516 194.835 74.376C194.835 74.616 194.811 74.844 194.787 75H190.395C190.467 76.392 191.319 77.28 192.555 77.28C193.191 77.28 193.707 77.088 194.187 76.764L194.583 77.484C194.007 77.856 193.311 78.156 192.423 78.156ZM190.383 74.208H193.875C193.875 72.9 193.275 72.192 192.255 72.192C191.331 72.192 190.515 72.936 190.383 74.208ZM199.008 78.156C197.28 78.156 195.948 76.908 195.948 74.748C195.948 72.576 197.424 71.316 199.092 71.316C199.944 71.316 200.532 71.676 201 72.084L200.436 72.804C200.052 72.468 199.656 72.228 199.14 72.228C197.952 72.228 197.088 73.248 197.088 74.748C197.088 76.248 197.904 77.244 199.104 77.244C199.704 77.244 200.232 76.968 200.64 76.596L201.12 77.328C200.532 77.856 199.788 78.156 199.008 78.156ZM204.469 78.156C203.076 78.156 202.609 77.28 202.609 75.984V72.372H201.637V71.544L202.657 71.484L202.789 69.648H203.701V71.484H205.465V72.372H203.701V76.008C203.701 76.812 203.953 77.268 204.709 77.268C204.937 77.268 205.237 77.184 205.453 77.1L205.669 77.916C205.297 78.036 204.865 78.156 204.469 78.156ZM206.94 78V71.484H207.84L207.936 72.672H207.972C208.428 71.844 209.088 71.316 209.82 71.316C210.108 71.316 210.312 71.352 210.516 71.46L210.312 72.42C210.096 72.336 209.94 72.312 209.676 72.312C209.136 72.312 208.464 72.696 208.032 73.812V78H206.94ZM213.995 78.156C212.399 78.156 210.971 76.908 210.971 74.748C210.971 72.576 212.399 71.316 213.995 71.316C215.591 71.316 217.019 72.576 217.019 74.748C217.019 76.908 215.591 78.156 213.995 78.156ZM213.995 77.244C215.123 77.244 215.891 76.248 215.891 74.748C215.891 73.248 215.123 72.228 213.995 72.228C212.867 72.228 212.111 73.248 212.111 74.748C212.111 76.248 212.867 77.244 213.995 77.244ZM218.741 78V71.484H219.641L219.737 72.42H219.773C220.397 71.808 221.069 71.316 221.957 71.316C223.325 71.316 223.949 72.204 223.949 73.872V78H222.857V74.016C222.857 72.792 222.485 72.276 221.621 72.276C220.949 72.276 220.493 72.612 219.833 73.272V78H218.741ZM226.077 78V71.484H227.169V78H226.077ZM226.629 70.14C226.197 70.14 225.897 69.852 225.897 69.408C225.897 68.988 226.197 68.7 226.629 68.7C227.061 68.7 227.361 68.988 227.361 69.408C227.361 69.852 227.061 70.14 226.629 70.14ZM231.949 78.156C230.221 78.156 228.889 76.908 228.889 74.748C228.889 72.576 230.365 71.316 232.033 71.316C232.885 71.316 233.473 71.676 233.941 72.084L233.377 72.804C232.993 72.468 232.597 72.228 232.081 72.228C230.893 72.228 230.029 73.248 230.029 74.748C230.029 76.248 230.845 77.244 232.045 77.244C232.645 77.244 233.173 76.968 233.581 76.596L234.061 77.328C233.473 77.856 232.729 78.156 231.949 78.156ZM240.222 78.156C238.83 78.156 238.362 77.28 238.362 75.984V72.372H237.39V71.544L238.41 71.484L238.542 69.648H239.454V71.484H241.218V72.372H239.454V76.008C239.454 76.812 239.706 77.268 240.462 77.268C240.69 77.268 240.99 77.184 241.206 77.1L241.422 77.916C241.05 78.036 240.618 78.156 240.222 78.156ZM242.802 80.808C242.49 80.808 242.238 80.76 242.034 80.676L242.25 79.8C242.382 79.848 242.574 79.908 242.742 79.908C243.486 79.908 243.954 79.308 244.218 78.504L244.362 78.012L241.746 71.484H242.886L244.218 75.108C244.41 75.672 244.638 76.344 244.842 76.932H244.902C245.082 76.344 245.274 75.684 245.454 75.108L246.618 71.484H247.686L245.226 78.54C244.782 79.824 244.098 80.808 242.802 80.808ZM248.952 80.748V71.484H249.852L249.948 72.228H249.984C250.572 71.748 251.304 71.316 252.06 71.316C253.74 71.316 254.652 72.636 254.652 74.64C254.652 76.872 253.32 78.156 251.82 78.156C251.232 78.156 250.608 77.88 250.02 77.4L250.044 78.54V80.748H248.952ZM251.64 77.244C252.72 77.244 253.512 76.272 253.512 74.652C253.512 73.212 253.032 72.24 251.796 72.24C251.244 72.24 250.68 72.552 250.044 73.14V76.56C250.632 77.064 251.208 77.244 251.64 77.244ZM259.021 78.156C257.293 78.156 255.901 76.896 255.901 74.748C255.901 72.636 257.329 71.316 258.841 71.316C260.497 71.316 261.433 72.516 261.433 74.376C261.433 74.616 261.409 74.844 261.385 75H256.993C257.065 76.392 257.917 77.28 259.153 77.28C259.789 77.28 260.305 77.088 260.785 76.764L261.181 77.484C260.605 77.856 259.909 78.156 259.021 78.156ZM256.981 74.208H260.473C260.473 72.9 259.873 72.192 258.853 72.192C257.929 72.192 257.113 72.936 256.981 74.208ZM264.742 78.156C263.818 78.156 262.93 77.772 262.306 77.256L262.846 76.536C263.41 76.992 263.998 77.304 264.778 77.304C265.642 77.304 266.062 76.848 266.062 76.284C266.062 75.612 265.294 75.324 264.574 75.048C263.662 74.712 262.666 74.268 262.666 73.164C262.666 72.132 263.506 71.316 264.922 71.316C265.726 71.316 266.434 71.652 266.938 72.048L266.41 72.756C265.966 72.42 265.51 72.18 264.934 72.18C264.106 72.18 263.722 72.612 263.722 73.116C263.722 73.74 264.394 73.968 265.126 74.244C266.074 74.604 267.118 74.988 267.118 76.224C267.118 77.28 266.278 78.156 264.742 78.156ZM271.279 78.156C269.551 78.156 268.159 76.896 268.159 74.748C268.159 72.636 269.587 71.316 271.099 71.316C272.755 71.316 273.691 72.516 273.691 74.376C273.691 74.616 273.667 74.844 273.643 75H269.251C269.323 76.392 270.175 77.28 271.411 77.28C272.047 77.28 272.563 77.088 273.043 76.764L273.439 77.484C272.863 77.856 272.167 78.156 271.279 78.156ZM269.239 74.208H272.731C272.731 72.9 272.131 72.192 271.111 72.192C270.187 72.192 269.371 72.936 269.239 74.208ZM277.219 78.156C275.826 78.156 275.359 77.28 275.359 75.984V72.372H274.387V71.544L275.407 71.484L275.539 69.648H276.451V71.484H278.215V72.372H276.451V76.008C276.451 76.812 276.703 77.268 277.459 77.268C277.687 77.268 277.987 77.184 278.203 77.1L278.419 77.916C278.047 78.036 277.615 78.156 277.219 78.156ZM281.472 78.156C280.08 78.156 279.612 77.28 279.612 75.984V72.372H278.64V71.544L279.66 71.484L279.792 69.648H280.704V71.484H282.468V72.372H280.704V76.008C280.704 76.812 280.956 77.268 281.712 77.268C281.94 77.268 282.24 77.184 282.456 77.1L282.672 77.916C282.3 78.036 281.868 78.156 281.472 78.156ZM283.944 78V71.484H285.036V78H283.944ZM284.496 70.14C284.064 70.14 283.764 69.852 283.764 69.408C283.764 68.988 284.064 68.7 284.496 68.7C284.928 68.7 285.228 68.988 285.228 69.408C285.228 69.852 284.928 70.14 284.496 70.14ZM287.249 78V71.484H288.149L288.245 72.42H288.281C288.905 71.808 289.577 71.316 290.465 71.316C291.833 71.316 292.457 72.204 292.457 73.872V78H291.365V74.016C291.365 72.792 290.993 72.276 290.129 72.276C289.457 72.276 289.001 72.612 288.341 73.272V78H287.249ZM296.78 81C295.184 81 294.092 80.376 294.092 79.248C294.092 78.696 294.44 78.168 295.052 77.772V77.724C294.704 77.52 294.452 77.172 294.452 76.656C294.452 76.116 294.848 75.684 295.184 75.444V75.396C294.752 75.048 294.332 74.424 294.332 73.644C294.332 72.216 295.46 71.316 296.78 71.316C297.14 71.316 297.464 71.4 297.692 71.484H299.96V72.324H298.628C298.94 72.624 299.156 73.104 299.156 73.668C299.156 75.06 298.1 75.936 296.78 75.936C296.456 75.936 296.096 75.852 295.808 75.708C295.568 75.912 295.388 76.128 295.388 76.488C295.388 76.908 295.652 77.196 296.528 77.196H297.8C299.312 77.196 300.08 77.676 300.08 78.744C300.08 79.956 298.796 81 296.78 81ZM296.78 75.192C297.524 75.192 298.172 74.592 298.172 73.644C298.172 72.696 297.548 72.12 296.78 72.12C296.012 72.12 295.388 72.684 295.388 73.644C295.388 74.592 296.024 75.192 296.78 75.192ZM296.936 80.256C298.184 80.256 299.012 79.596 299.012 78.912C299.012 78.312 298.544 78.108 297.68 78.108H296.552C296.312 78.108 296 78.072 295.712 78C295.244 78.336 295.052 78.72 295.052 79.104C295.052 79.8 295.76 80.256 296.936 80.256Z" fill="#333333"/>
<rect x="171" y="95" width="80" height="20" fill="#666666"/>
<path d="M199.702 102.648C199.671 102.375 199.571 102.141 199.403 101.945C199.239 101.746 199.02 101.596 198.747 101.494C198.473 101.389 198.167 101.336 197.827 101.336C197.46 101.336 197.133 101.396 196.848 101.518C196.567 101.635 196.348 101.799 196.192 102.01C196.04 102.221 195.964 102.461 195.964 102.73C195.964 103.121 196.122 103.42 196.438 103.627C196.758 103.834 197.147 103.996 197.604 104.113L198.448 104.348C199.104 104.516 199.669 104.775 200.141 105.127C200.614 105.475 200.85 105.996 200.85 106.691C200.85 107.156 200.727 107.576 200.481 107.951C200.239 108.322 199.885 108.615 199.421 108.83C198.96 109.045 198.409 109.152 197.768 109.152C197.167 109.152 196.641 109.055 196.192 108.859C195.743 108.664 195.391 108.389 195.137 108.033C194.883 107.678 194.741 107.266 194.71 106.797H195.788C195.819 107.102 195.926 107.359 196.11 107.57C196.294 107.777 196.528 107.934 196.813 108.039C197.102 108.141 197.421 108.191 197.768 108.191C198.159 108.191 198.508 108.129 198.817 108.004C199.13 107.879 199.374 107.701 199.549 107.471C199.729 107.236 199.819 106.969 199.819 106.668C199.819 106.41 199.745 106.193 199.596 106.018C199.452 105.842 199.26 105.699 199.022 105.59C198.788 105.48 198.495 105.375 198.143 105.273L197.1 104.992C196.405 104.789 195.872 104.508 195.501 104.148C195.13 103.789 194.944 103.332 194.944 102.777C194.944 102.312 195.071 101.9 195.325 101.541C195.583 101.178 195.932 100.896 196.374 100.697C196.819 100.498 197.315 100.398 197.862 100.398C198.401 100.398 198.885 100.496 199.315 100.691C199.745 100.887 200.085 101.156 200.335 101.5C200.585 101.84 200.717 102.223 200.733 102.648H199.702ZM202.122 100.516H203.177V104.289H207.665V100.516H208.731V109H207.665V105.215H203.177V109H202.122V100.516ZM217.526 104.758C217.526 105.637 217.366 106.406 217.046 107.066C216.726 107.723 216.28 108.229 215.71 108.584C215.144 108.939 214.499 109.117 213.776 109.117C213.05 109.117 212.403 108.939 211.837 108.584C211.271 108.229 210.827 107.723 210.507 107.066C210.187 106.406 210.026 105.637 210.026 104.758C210.026 103.879 210.187 103.111 210.507 102.455C210.827 101.795 211.271 101.287 211.837 100.932C212.403 100.576 213.05 100.398 213.776 100.398C214.499 100.398 215.144 100.576 215.71 100.932C216.28 101.287 216.726 101.795 217.046 102.455C217.366 103.111 217.526 103.879 217.526 104.758ZM216.507 104.758C216.507 104.047 216.388 103.438 216.15 102.93C215.911 102.422 215.585 102.037 215.171 101.775C214.761 101.514 214.296 101.383 213.776 101.383C213.257 101.383 212.79 101.514 212.376 101.775C211.966 102.037 211.642 102.422 211.403 102.93C211.165 103.438 211.046 104.047 211.046 104.758C211.046 105.469 211.165 106.078 211.403 106.586C211.642 107.094 211.966 107.479 212.376 107.74C212.79 108.002 213.257 108.133 213.776 108.133C214.296 108.133 214.761 108.002 215.171 107.74C215.585 107.479 215.911 107.094 216.15 106.586C216.388 106.078 216.507 105.469 216.507 104.758ZM218.072 100.516H219.138L220.908 107.383H220.99L222.783 100.516H223.966L225.771 107.383H225.841L227.611 100.516H228.677L226.357 109H225.267L223.415 102.285H223.345L221.482 109H220.392L218.072 100.516Z" fill="white"/>
</svg>
