<svg width="384" height="96" viewBox="0 0 384 96" fill="none" xmlns="http://www.w3.org/2000/svg">
<path d="M0.9375 2.51562H1.99219V10.0625H5.92969V11H0.9375V2.51562ZM9.56859 11.1289C8.99438 11.1289 8.48656 10.9941 8.04516 10.7246C7.60766 10.4512 7.26781 10.0664 7.02563 9.57031C6.78344 9.07422 6.66234 8.5 6.66234 7.84766C6.66234 7.19531 6.78344 6.62109 7.02563 6.125C7.26781 5.625 7.60766 5.23828 8.04516 4.96484C8.48656 4.69141 8.99438 4.55469 9.56859 4.55469C10.1389 4.55469 10.6409 4.69141 11.0745 4.96484C11.512 5.23828 11.8498 5.625 12.0881 6.125C12.3303 6.62109 12.4514 7.19531 12.4514 7.84766C12.4514 8.5 12.3303 9.07422 12.0881 9.57031C11.8498 10.0664 11.512 10.4512 11.0745 10.7246C10.6409 10.9941 10.1389 11.1289 9.56859 11.1289ZM9.56859 10.2383C9.97875 10.2383 10.3245 10.1309 10.6057 9.91602C10.887 9.69727 11.0959 9.4082 11.2327 9.04883C11.3733 8.68555 11.4436 8.28516 11.4436 7.84766C11.4436 7.41016 11.3733 7.00977 11.2327 6.64648C11.0959 6.2832 10.887 5.99219 10.6057 5.77344C10.3245 5.55469 9.97875 5.44531 9.56859 5.44531C9.15063 5.44531 8.79906 5.55469 8.51391 5.77344C8.23266 5.99219 8.02172 6.2832 7.88109 6.64648C7.74047 7.00977 7.67016 7.41016 7.67016 7.84766C7.67016 8.28516 7.74047 8.68555 7.88109 9.04883C8.02172 9.4082 8.23266 9.69727 8.51391 9.91602C8.79906 10.1309 9.15063 10.2383 9.56859 10.2383ZM13.5356 4.63672H14.5083V5.60938H14.5786C14.6958 5.28516 14.9048 5.02539 15.2055 4.83008C15.5063 4.63086 15.8442 4.53125 16.2192 4.53125C16.4145 4.53125 16.5903 4.53906 16.7466 4.55469V5.57422C16.7036 5.55859 16.6196 5.54297 16.4946 5.52734C16.3735 5.51172 16.2544 5.50391 16.1372 5.50391C15.8364 5.50391 15.5649 5.56836 15.3227 5.69727C15.0805 5.82617 14.8891 6.00391 14.7485 6.23047C14.6118 6.45703 14.5434 6.71094 14.5434 6.99219V11H13.5356V4.63672ZM19.9519 11.1289C19.3464 11.1289 18.8191 10.9941 18.3698 10.7246C17.9206 10.4551 17.5749 10.0742 17.3327 9.58203C17.0945 9.08984 16.9753 8.51953 16.9753 7.87109C16.9753 7.22266 17.0945 6.64844 17.3327 6.14844C17.5749 5.64453 17.9128 5.25391 18.3464 4.97656C18.7839 4.69531 19.2878 4.55469 19.8581 4.55469C20.3386 4.55469 20.7859 4.66211 21.1999 4.87695C21.614 5.08789 21.9499 5.43164 22.2077 5.9082C22.4695 6.38086 22.6003 6.98828 22.6003 7.73047V8.15234H17.9831C17.9988 8.59375 18.0905 8.9707 18.2585 9.2832C18.4265 9.5957 18.655 9.83398 18.9441 9.99805C19.237 10.1582 19.573 10.2383 19.9519 10.2383C20.3113 10.2383 20.614 10.1719 20.8601 10.0391C21.1101 9.90234 21.2995 9.72656 21.4284 9.51172H22.5066C22.405 9.83203 22.2351 10.1152 21.9968 10.3613C21.7624 10.6035 21.4695 10.793 21.1179 10.9297C20.7702 11.0625 20.3816 11.1289 19.9519 11.1289ZM21.5808 7.29688C21.5808 6.94141 21.5085 6.625 21.364 6.34766C21.2234 6.06641 21.0222 5.8457 20.7605 5.68555C20.4988 5.52539 20.198 5.44531 19.8581 5.44531C19.5027 5.44531 19.1863 5.5293 18.9089 5.69727C18.6355 5.86523 18.4187 6.0918 18.2585 6.37695C18.1023 6.6582 18.0124 6.96484 17.989 7.29688H21.5808ZM23.6728 4.63672H24.6455V5.63281H24.7275C24.8642 5.28906 25.0791 5.02344 25.372 4.83594C25.6689 4.64844 26.0244 4.55469 26.4384 4.55469C26.8447 4.55469 27.1904 4.64844 27.4755 4.83594C27.7607 5.01953 27.9814 5.28516 28.1377 5.63281H28.208C28.3759 5.29688 28.624 5.0332 28.9521 4.8418C29.2802 4.65039 29.6689 4.55469 30.1181 4.55469C30.5048 4.55469 30.8427 4.63477 31.1318 4.79492C31.4248 4.95508 31.6533 5.19922 31.8173 5.52734C31.9814 5.85156 32.0634 6.25781 32.0634 6.74609V11H31.0556V6.75781C31.0556 6.31641 30.9345 5.99023 30.6923 5.7793C30.4502 5.56445 30.1416 5.45703 29.7666 5.45703C29.4775 5.45703 29.2275 5.51758 29.0166 5.63867C28.8056 5.75977 28.6455 5.92578 28.5361 6.13672C28.4267 6.34766 28.372 6.58984 28.372 6.86328V11H27.3525V6.65234C27.3525 6.41797 27.2998 6.21094 27.1943 6.03125C27.0888 5.84766 26.9404 5.70703 26.749 5.60938C26.5615 5.50781 26.3486 5.45703 26.1103 5.45703C25.8564 5.45703 25.6201 5.52539 25.4013 5.66211C25.1826 5.79492 25.0068 5.98047 24.874 6.21875C24.7451 6.45703 24.6806 6.72656 24.6806 7.02734V11H23.6728V4.63672ZM37.3959 11H36.3413V2.51562H37.3959V11ZM38.902 4.63672H39.8747V5.64453H39.9919C40.1169 5.44141 40.238 5.27148 40.3552 5.13477C40.4723 4.99414 40.654 4.86328 40.9001 4.74219C41.1462 4.61719 41.4567 4.55469 41.8317 4.55469C42.363 4.55469 42.8317 4.68945 43.238 4.95898C43.6481 5.22461 43.9665 5.60547 44.193 6.10156C44.4235 6.59766 44.5387 7.17578 44.5387 7.83594C44.5387 8.49609 44.4235 9.07617 44.193 9.57617C43.9665 10.0723 43.6481 10.4551 43.238 10.7246C42.8317 10.9941 42.3669 11.1289 41.8434 11.1289C41.4723 11.1289 41.1618 11.0684 40.9118 10.9473C40.6657 10.8223 40.4802 10.6875 40.3552 10.543C40.2302 10.3945 40.1091 10.2227 39.9919 10.0273H39.9098V13.3906H38.902V4.63672ZM39.8864 7.8125C39.8864 8.29297 39.9567 8.71484 40.0973 9.07812C40.238 9.44141 40.445 9.72461 40.7184 9.92773C40.9919 10.127 41.32 10.2266 41.7028 10.2266C42.0934 10.2266 42.4255 10.123 42.6989 9.91602C42.9762 9.70508 43.1833 9.41797 43.32 9.05469C43.4606 8.6875 43.5309 8.27344 43.5309 7.8125C43.5309 7.36328 43.4606 6.96094 43.32 6.60547C43.1833 6.25 42.9782 5.9707 42.7048 5.76758C42.4313 5.56055 42.0973 5.45703 41.7028 5.45703C41.3122 5.45703 40.9802 5.55469 40.7067 5.75C40.4372 5.94531 40.2321 6.2207 40.0915 6.57617C39.9548 6.92773 39.8864 7.33984 39.8864 7.8125ZM49.1503 6.28906C49.0761 6.01172 48.9316 5.79688 48.7167 5.64453C48.5058 5.48828 48.2206 5.41016 47.8613 5.41016C47.6034 5.41016 47.371 5.45312 47.164 5.53906C46.9609 5.62109 46.8007 5.73633 46.6835 5.88477C46.5702 6.0293 46.5136 6.19141 46.5136 6.37109C46.5136 6.58203 46.6015 6.76172 46.7773 6.91016C46.957 7.05859 47.2323 7.17578 47.6034 7.26172L48.5527 7.49609C49.123 7.63281 49.5488 7.84375 49.83 8.12891C50.1113 8.41016 50.2519 8.77344 50.2519 9.21875C50.2519 9.58984 50.1523 9.91992 49.953 10.209C49.7577 10.4941 49.4726 10.7188 49.0976 10.8828C48.7226 11.0469 48.2753 11.1289 47.7558 11.1289C47.0409 11.1289 46.4745 10.9766 46.0566 10.6719C45.6386 10.3633 45.3886 9.91797 45.3066 9.33594H46.3613C46.4198 9.64453 46.5624 9.875 46.789 10.0273C47.0155 10.1758 47.33 10.25 47.7323 10.25C48.1855 10.25 48.5448 10.1621 48.8105 9.98633C49.0761 9.81055 49.2089 9.57422 49.2089 9.27734C49.2089 9.05078 49.1249 8.86328 48.957 8.71484C48.789 8.5625 48.5253 8.44531 48.1659 8.36328L47.205 8.14062C46.6503 8.01172 46.2284 7.80078 45.9394 7.50781C45.6503 7.21484 45.5058 6.85547 45.5058 6.42969C45.5058 6.07031 45.6034 5.74805 45.7988 5.46289C45.998 5.17773 46.2753 4.95508 46.6308 4.79492C46.9902 4.63477 47.4003 4.55469 47.8613 4.55469C48.2909 4.55469 48.6698 4.62695 48.998 4.77148C49.3261 4.91602 49.5859 5.11914 49.7773 5.38086C49.9726 5.64258 50.0917 5.94531 50.1347 6.28906H49.1503ZM55.3439 4.63672H56.34V11H55.3439V9.92188H55.2736C55.1095 10.2695 54.8673 10.5508 54.547 10.7656C54.2306 10.9766 53.8439 11.082 53.3869 11.082C52.9767 11.082 52.6173 10.9941 52.3088 10.8184C52.0002 10.6387 51.758 10.3691 51.5822 10.0098C51.4103 9.65039 51.3244 9.20703 51.3244 8.67969V4.63672H52.3322V8.60938C52.3322 8.91016 52.3908 9.17383 52.508 9.40039C52.6252 9.62695 52.7873 9.80273 52.9943 9.92773C53.2052 10.0488 53.4455 10.1094 53.715 10.1094C53.9689 10.1094 54.2209 10.0449 54.4709 9.91602C54.7248 9.78711 54.9338 9.59375 55.0978 9.33594C55.2619 9.07422 55.3439 8.75781 55.3439 8.38672V4.63672ZM57.7172 4.63672H58.6898V5.63281H58.7719C58.9086 5.28906 59.1234 5.02344 59.4164 4.83594C59.7133 4.64844 60.0687 4.55469 60.4828 4.55469C60.8891 4.55469 61.2348 4.64844 61.5199 4.83594C61.8051 5.01953 62.0258 5.28516 62.182 5.63281H62.2523C62.4203 5.29688 62.6684 5.0332 62.9965 4.8418C63.3246 4.65039 63.7133 4.55469 64.1625 4.55469C64.5492 4.55469 64.8871 4.63477 65.1762 4.79492C65.4691 4.95508 65.6977 5.19922 65.8617 5.52734C66.0258 5.85156 66.1078 6.25781 66.1078 6.74609V11H65.1V6.75781C65.1 6.31641 64.9789 5.99023 64.7367 5.7793C64.4945 5.56445 64.1859 5.45703 63.8109 5.45703C63.5219 5.45703 63.2719 5.51758 63.0609 5.63867C62.85 5.75977 62.6898 5.92578 62.5805 6.13672C62.4711 6.34766 62.4164 6.58984 62.4164 6.86328V11H61.3969V6.65234C61.3969 6.41797 61.3441 6.21094 61.2387 6.03125C61.1332 5.84766 60.9848 5.70703 60.7934 5.60938C60.6059 5.50781 60.393 5.45703 60.1547 5.45703C59.9008 5.45703 59.6645 5.52539 59.4457 5.66211C59.227 5.79492 59.0512 5.98047 58.9184 6.21875C58.7895 6.45703 58.725 6.72656 58.725 7.02734V11H57.7172V4.63672ZM70.2567 4.63672H71.2645V11H70.2567V4.63672ZM70.7606 3.58203C70.5653 3.58203 70.3993 3.51758 70.2626 3.38867C70.1259 3.25977 70.0575 3.10156 70.0575 2.91406C70.0575 2.72656 70.1259 2.56836 70.2626 2.43945C70.3993 2.31055 70.5653 2.24609 70.7606 2.24609C70.9559 2.24609 71.1239 2.31055 71.2645 2.43945C71.4052 2.56836 71.4755 2.72656 71.4755 2.91406C71.4755 3.10156 71.4052 3.25977 71.2645 3.38867C71.1239 3.51758 70.9559 3.58203 70.7606 3.58203ZM76.1691 6.28906C76.0948 6.01172 75.9503 5.79688 75.7355 5.64453C75.5245 5.48828 75.2394 5.41016 74.88 5.41016C74.6222 5.41016 74.3898 5.45312 74.1827 5.53906C73.9796 5.62109 73.8195 5.73633 73.7023 5.88477C73.589 6.0293 73.5323 6.19141 73.5323 6.37109C73.5323 6.58203 73.6202 6.76172 73.796 6.91016C73.9757 7.05859 74.2511 7.17578 74.6222 7.26172L75.5714 7.49609C76.1417 7.63281 76.5675 7.84375 76.8487 8.12891C77.13 8.41016 77.2706 8.77344 77.2706 9.21875C77.2706 9.58984 77.171 9.91992 76.9718 10.209C76.7765 10.4941 76.4913 10.7188 76.1163 10.8828C75.7413 11.0469 75.2941 11.1289 74.7745 11.1289C74.0597 11.1289 73.4933 10.9766 73.0753 10.6719C72.6573 10.3633 72.4073 9.91797 72.3253 9.33594H73.38C73.4386 9.64453 73.5812 9.875 73.8077 10.0273C74.0343 10.1758 74.3487 10.25 74.7511 10.25C75.2042 10.25 75.5636 10.1621 75.8292 9.98633C76.0948 9.81055 76.2277 9.57422 76.2277 9.27734C76.2277 9.05078 76.1437 8.86328 75.9757 8.71484C75.8077 8.5625 75.5441 8.44531 75.1847 8.36328L74.2237 8.14062C73.6691 8.01172 73.2472 7.80078 72.9581 7.50781C72.6691 7.21484 72.5245 6.85547 72.5245 6.42969C72.5245 6.07031 72.6222 5.74805 72.8175 5.46289C73.0167 5.17773 73.2941 4.95508 73.6495 4.79492C74.0089 4.63477 74.4191 4.55469 74.88 4.55469C75.3097 4.55469 75.6886 4.62695 76.0167 4.77148C76.3448 4.91602 76.6046 5.11914 76.796 5.38086C76.9913 5.64258 77.1105 5.94531 77.1534 6.28906H76.1691ZM84.6539 6.28906C84.5797 6.01172 84.4352 5.79688 84.2203 5.64453C84.0094 5.48828 83.7242 5.41016 83.3648 5.41016C83.107 5.41016 82.8746 5.45312 82.6676 5.53906C82.4645 5.62109 82.3043 5.73633 82.1871 5.88477C82.0738 6.0293 82.0172 6.19141 82.0172 6.37109C82.0172 6.58203 82.1051 6.76172 82.2809 6.91016C82.4605 7.05859 82.7359 7.17578 83.107 7.26172L84.0563 7.49609C84.6266 7.63281 85.0523 7.84375 85.3336 8.12891C85.6148 8.41016 85.7555 8.77344 85.7555 9.21875C85.7555 9.58984 85.6559 9.91992 85.4566 10.209C85.2613 10.4941 84.9762 10.7188 84.6012 10.8828C84.2262 11.0469 83.7789 11.1289 83.2594 11.1289C82.5445 11.1289 81.9781 10.9766 81.5602 10.6719C81.1422 10.3633 80.8922 9.91797 80.8102 9.33594H81.8648C81.9234 9.64453 82.066 9.875 82.2926 10.0273C82.5191 10.1758 82.8336 10.25 83.2359 10.25C83.6891 10.25 84.0484 10.1621 84.3141 9.98633C84.5797 9.81055 84.7125 9.57422 84.7125 9.27734C84.7125 9.05078 84.6285 8.86328 84.4605 8.71484C84.2926 8.5625 84.0289 8.44531 83.6695 8.36328L82.7086 8.14062C82.1539 8.01172 81.732 7.80078 81.443 7.50781C81.1539 7.21484 81.0094 6.85547 81.0094 6.42969C81.0094 6.07031 81.107 5.74805 81.3023 5.46289C81.5016 5.17773 81.7789 4.95508 82.1344 4.79492C82.4938 4.63477 82.9039 4.55469 83.3648 4.55469C83.7945 4.55469 84.1734 4.62695 84.5016 4.77148C84.8297 4.91602 85.0895 5.11914 85.2809 5.38086C85.4762 5.64258 85.5953 5.94531 85.6383 6.28906H84.6539ZM86.828 4.63672H87.8358V11H86.828V4.63672ZM87.3319 3.58203C87.1366 3.58203 86.9706 3.51758 86.8338 3.38867C86.6971 3.25977 86.6288 3.10156 86.6288 2.91406C86.6288 2.72656 86.6971 2.56836 86.8338 2.43945C86.9706 2.31055 87.1366 2.24609 87.3319 2.24609C87.5272 2.24609 87.6952 2.31055 87.8358 2.43945C87.9764 2.56836 88.0467 2.72656 88.0467 2.91406C88.0467 3.10156 87.9764 3.25977 87.8358 3.38867C87.6952 3.51758 87.5272 3.58203 87.3319 3.58203ZM89.2012 4.63672H90.1739V5.63281H90.2559C90.3927 5.28906 90.6075 5.02344 90.9005 4.83594C91.1973 4.64844 91.5528 4.55469 91.9669 4.55469C92.3731 4.55469 92.7188 4.64844 93.004 4.83594C93.2891 5.01953 93.5098 5.28516 93.6661 5.63281H93.7364C93.9044 5.29688 94.1524 5.0332 94.4805 4.8418C94.8087 4.65039 95.1973 4.55469 95.6466 4.55469C96.0333 4.55469 96.3712 4.63477 96.6602 4.79492C96.9532 4.95508 97.1817 5.19922 97.3458 5.52734C97.5098 5.85156 97.5919 6.25781 97.5919 6.74609V11H96.5841V6.75781C96.5841 6.31641 96.463 5.99023 96.2208 5.7793C95.9786 5.56445 95.67 5.45703 95.295 5.45703C95.0059 5.45703 94.7559 5.51758 94.545 5.63867C94.3341 5.75977 94.1739 5.92578 94.0645 6.13672C93.9552 6.34766 93.9005 6.58984 93.9005 6.86328V11H92.8809V6.65234C92.8809 6.41797 92.8282 6.21094 92.7227 6.03125C92.6173 5.84766 92.4688 5.70703 92.2774 5.60938C92.0899 5.50781 91.877 5.45703 91.6387 5.45703C91.3848 5.45703 91.1485 5.52539 90.9298 5.66211C90.711 5.79492 90.5352 5.98047 90.4024 6.21875C90.2735 6.45703 90.2091 6.72656 90.2091 7.02734V11H89.2012V4.63672ZM98.9691 4.63672H99.9417V5.64453H100.059C100.184 5.44141 100.305 5.27148 100.422 5.13477C100.539 4.99414 100.721 4.86328 100.967 4.74219C101.213 4.61719 101.524 4.55469 101.899 4.55469C102.43 4.55469 102.899 4.68945 103.305 4.95898C103.715 5.22461 104.034 5.60547 104.26 6.10156C104.491 6.59766 104.606 7.17578 104.606 7.83594C104.606 8.49609 104.491 9.07617 104.26 9.57617C104.034 10.0723 103.715 10.4551 103.305 10.7246C102.899 10.9941 102.434 11.1289 101.91 11.1289C101.539 11.1289 101.229 11.0684 100.979 10.9473C100.733 10.8223 100.547 10.6875 100.422 10.543C100.297 10.3945 100.176 10.2227 100.059 10.0273H99.9769V13.3906H98.9691V4.63672ZM99.9534 7.8125C99.9534 8.29297 100.024 8.71484 100.164 9.07812C100.305 9.44141 100.512 9.72461 100.785 9.92773C101.059 10.127 101.387 10.2266 101.77 10.2266C102.16 10.2266 102.493 10.123 102.766 9.91602C103.043 9.70508 103.25 9.41797 103.387 9.05469C103.528 8.6875 103.598 8.27344 103.598 7.8125C103.598 7.36328 103.528 6.96094 103.387 6.60547C103.25 6.25 103.045 5.9707 102.772 5.76758C102.498 5.56055 102.164 5.45703 101.77 5.45703C101.379 5.45703 101.047 5.55469 100.774 5.75C100.504 5.94531 100.299 6.2207 100.159 6.57617C100.022 6.92773 99.9534 7.33984 99.9534 7.8125ZM106.686 11H105.678V2.51562H106.686V11ZM108.696 13.3906C108.493 13.3906 108.305 13.3828 108.134 13.3672V12.4648C108.274 12.4805 108.438 12.4883 108.626 12.4883C108.794 12.4883 108.934 12.4707 109.048 12.4355C109.161 12.4004 109.274 12.3125 109.387 12.1719C109.501 12.0352 109.61 11.8203 109.716 11.5273L109.903 11.0469L107.548 4.63672H108.649L110.384 9.6875H110.454L112.188 4.63672H113.29L110.595 11.9141C110.407 12.4102 110.157 12.7793 109.845 13.0215C109.532 13.2676 109.149 13.3906 108.696 13.3906ZM119.337 11.1289C118.81 11.1289 118.341 10.9941 117.931 10.7246C117.525 10.4551 117.206 10.0723 116.976 9.57617C116.745 9.07617 116.63 8.49609 116.63 7.83594C116.63 7.17578 116.745 6.59766 116.976 6.10156C117.206 5.60547 117.527 5.22461 117.937 4.95898C118.347 4.68945 118.818 4.55469 119.349 4.55469C119.724 4.55469 120.034 4.61719 120.281 4.74219C120.527 4.86328 120.708 4.99414 120.825 5.13477C120.943 5.27148 121.064 5.44141 121.189 5.64453H121.259V2.51562H122.279V11H121.294V10.0273H121.189C121.056 10.2344 120.929 10.4082 120.808 10.5488C120.691 10.6895 120.509 10.8223 120.263 10.9473C120.017 11.0684 119.708 11.1289 119.337 11.1289ZM119.478 10.2266C119.857 10.2266 120.183 10.127 120.456 9.92773C120.73 9.72461 120.937 9.44141 121.077 9.07812C121.222 8.71094 121.294 8.28906 121.294 7.8125C121.294 7.33984 121.224 6.92773 121.083 6.57617C120.947 6.2207 120.741 5.94531 120.468 5.75C120.195 5.55469 119.865 5.45703 119.478 5.45703C119.083 5.45703 118.749 5.56055 118.476 5.76758C118.202 5.9707 117.995 6.25 117.855 6.60547C117.718 6.96094 117.65 7.36328 117.65 7.8125C117.65 8.27344 117.718 8.6875 117.855 9.05469C117.995 9.41797 118.202 9.70508 118.476 9.91602C118.753 10.123 119.087 10.2266 119.478 10.2266ZM127.804 4.63672H128.8V11H127.804V9.92188H127.734C127.57 10.2695 127.328 10.5508 127.007 10.7656C126.691 10.9766 126.304 11.082 125.847 11.082C125.437 11.082 125.078 10.9941 124.769 10.8184C124.46 10.6387 124.218 10.3691 124.043 10.0098C123.871 9.65039 123.785 9.20703 123.785 8.67969V4.63672H124.793V8.60938C124.793 8.91016 124.851 9.17383 124.968 9.40039C125.085 9.62695 125.248 9.80273 125.455 9.92773C125.666 10.0488 125.906 10.1094 126.175 10.1094C126.429 10.1094 126.681 10.0449 126.931 9.91602C127.185 9.78711 127.394 9.59375 127.558 9.33594C127.722 9.07422 127.804 8.75781 127.804 8.38672V4.63672ZM130.178 4.63672H131.15V5.63281H131.232C131.369 5.28906 131.584 5.02344 131.877 4.83594C132.174 4.64844 132.529 4.55469 132.943 4.55469C133.349 4.55469 133.695 4.64844 133.98 4.83594C134.265 5.01953 134.486 5.28516 134.642 5.63281H134.713C134.881 5.29688 135.129 5.0332 135.457 4.8418C135.785 4.65039 136.174 4.55469 136.623 4.55469C137.01 4.55469 137.347 4.63477 137.636 4.79492C137.929 4.95508 138.158 5.19922 138.322 5.52734C138.486 5.85156 138.568 6.25781 138.568 6.74609V11H137.56V6.75781C137.56 6.31641 137.439 5.99023 137.197 5.7793C136.955 5.56445 136.646 5.45703 136.271 5.45703C135.982 5.45703 135.732 5.51758 135.521 5.63867C135.31 5.75977 135.15 5.92578 135.041 6.13672C134.931 6.34766 134.877 6.58984 134.877 6.86328V11H133.857V6.65234C133.857 6.41797 133.804 6.21094 133.699 6.03125C133.594 5.84766 133.445 5.70703 133.254 5.60938C133.066 5.50781 132.853 5.45703 132.615 5.45703C132.361 5.45703 132.125 5.52539 131.906 5.66211C131.687 5.79492 131.511 5.98047 131.379 6.21875C131.25 6.45703 131.185 6.72656 131.185 7.02734V11H130.178V4.63672ZM139.945 4.63672H140.918V5.63281H141C141.137 5.28906 141.352 5.02344 141.645 4.83594C141.941 4.64844 142.297 4.55469 142.711 4.55469C143.117 4.55469 143.463 4.64844 143.748 4.83594C144.033 5.01953 144.254 5.28516 144.41 5.63281H144.48C144.648 5.29688 144.896 5.0332 145.225 4.8418C145.553 4.65039 145.941 4.55469 146.391 4.55469C146.777 4.55469 147.115 4.63477 147.404 4.79492C147.697 4.95508 147.926 5.19922 148.09 5.52734C148.254 5.85156 148.336 6.25781 148.336 6.74609V11H147.328V6.75781C147.328 6.31641 147.207 5.99023 146.965 5.7793C146.723 5.56445 146.414 5.45703 146.039 5.45703C145.75 5.45703 145.5 5.51758 145.289 5.63867C145.078 5.75977 144.918 5.92578 144.809 6.13672C144.699 6.34766 144.645 6.58984 144.645 6.86328V11H143.625V6.65234C143.625 6.41797 143.572 6.21094 143.467 6.03125C143.361 5.84766 143.213 5.70703 143.021 5.60938C142.834 5.50781 142.621 5.45703 142.383 5.45703C142.129 5.45703 141.893 5.52539 141.674 5.66211C141.455 5.79492 141.279 5.98047 141.146 6.21875C141.018 6.45703 140.953 6.72656 140.953 7.02734V11H139.945V4.63672ZM150.123 13.3906C149.92 13.3906 149.733 13.3828 149.561 13.3672V12.4648C149.701 12.4805 149.865 12.4883 150.053 12.4883C150.221 12.4883 150.362 12.4707 150.475 12.4355C150.588 12.4004 150.701 12.3125 150.815 12.1719C150.928 12.0352 151.037 11.8203 151.143 11.5273L151.33 11.0469L148.975 4.63672H150.076L151.811 9.6875H151.881L153.615 4.63672H154.717L152.022 11.9141C151.834 12.4102 151.584 12.7793 151.272 13.0215C150.959 13.2676 150.576 13.3906 150.123 13.3906Z" fill="#0059FF"/>
<path d="M0.953125 22.6875H3.29688V32.0625H8.17188V34H0.953125V22.6875ZM13.1331 34.1719C12.2894 34.1719 11.555 33.9896 10.93 33.625C10.305 33.2604 9.82323 32.7474 9.48469 32.0859C9.14615 31.4193 8.97688 30.651 8.97688 29.7812C8.97688 28.9115 9.14354 28.1458 9.47688 27.4844C9.81542 26.8229 10.2972 26.3125 10.9222 25.9531C11.5524 25.5885 12.2894 25.4062 13.1331 25.4062C13.9769 25.4062 14.7139 25.5885 15.3441 25.9531C15.9743 26.3125 16.4586 26.8229 16.7972 27.4844C17.1357 28.1458 17.305 28.9115 17.305 29.7812C17.305 30.651 17.1357 31.4193 16.7972 32.0859C16.4586 32.7474 15.9743 33.2604 15.3441 33.625C14.7139 33.9896 13.9769 34.1719 13.1331 34.1719ZM13.1488 32.375C13.5342 32.375 13.8623 32.2656 14.1331 32.0469C14.404 31.8229 14.6071 31.5156 14.7425 31.125C14.8779 30.7344 14.9456 30.2865 14.9456 29.7812C14.9456 29.276 14.8779 28.8281 14.7425 28.4375C14.6071 28.0417 14.404 27.7318 14.1331 27.5078C13.8623 27.2839 13.5342 27.1719 13.1488 27.1719C12.7581 27.1719 12.4248 27.2839 12.1488 27.5078C11.8779 27.7318 11.6722 28.0417 11.5316 28.4375C11.3909 28.8281 11.3206 29.276 11.3206 29.7812C11.3206 30.2812 11.3909 30.7292 11.5316 31.125C11.6722 31.5156 11.8779 31.8229 12.1488 32.0469C12.4248 32.2656 12.7581 32.375 13.1488 32.375ZM18.4381 25.5156H20.6725V26.9844H20.7663C20.9173 26.4688 21.1751 26.0755 21.5397 25.8047C21.9043 25.5286 22.3288 25.3906 22.8131 25.3906C23.0788 25.3906 23.3235 25.4167 23.5475 25.4688V27.5312C23.4329 27.5 23.2793 27.4714 23.0866 27.4453C22.8939 27.4193 22.7194 27.4062 22.5631 27.4062C22.2194 27.4062 21.9095 27.4818 21.6334 27.6328C21.3574 27.7839 21.1413 27.9948 20.985 28.2656C20.8288 28.5312 20.7506 28.8333 20.7506 29.1719V34H18.4381V25.5156ZM27.9306 34.1719C27.0713 34.1719 26.3265 33.9948 25.6963 33.6406C25.0713 33.2865 24.5895 32.7812 24.2509 32.125C23.9124 31.4635 23.7431 30.6875 23.7431 29.7969C23.7431 28.9271 23.9098 28.1615 24.2431 27.5C24.5817 26.8333 25.0608 26.3177 25.6806 25.9531C26.3004 25.5885 27.0192 25.4062 27.8369 25.4062C28.5973 25.4062 29.277 25.5677 29.8759 25.8906C30.4801 26.2083 30.9541 26.6901 31.2978 27.3359C31.6468 27.9818 31.8213 28.7708 31.8213 29.7031V30.3594H26.0244C26.0244 30.7812 26.1025 31.1484 26.2588 31.4609C26.4202 31.7734 26.6468 32.0156 26.9384 32.1875C27.2353 32.3542 27.5817 32.4375 27.9775 32.4375C28.3577 32.4375 28.6858 32.362 28.9619 32.2109C29.2379 32.0547 29.4358 31.8438 29.5556 31.5781H31.7588C31.6494 32.099 31.4254 32.5547 31.0869 32.9453C30.7483 33.3359 30.3082 33.638 29.7666 33.8516C29.2301 34.0651 28.6181 34.1719 27.9306 34.1719ZM29.6338 28.9062C29.6338 28.5677 29.5582 28.2656 29.4072 28C29.2614 27.7292 29.0556 27.5182 28.79 27.3672C28.5244 27.2161 28.2223 27.1406 27.8838 27.1406C27.54 27.1406 27.2275 27.2188 26.9463 27.375C26.6702 27.5312 26.4489 27.7448 26.2822 28.0156C26.1207 28.2865 26.0348 28.5833 26.0244 28.9062H29.6338ZM32.9544 25.5156H35.1575V27H35.2513C35.4335 26.5052 35.7304 26.1172 36.1419 25.8359C36.5533 25.5495 37.0429 25.4062 37.6106 25.4062C38.194 25.4062 38.6888 25.5495 39.095 25.8359C39.5065 26.1172 39.7825 26.5052 39.9231 27H40.0013C40.1835 26.5104 40.5013 26.1224 40.9544 25.8359C41.4075 25.5495 41.944 25.4062 42.5638 25.4062C43.0898 25.4062 43.5533 25.5208 43.9544 25.75C44.3606 25.974 44.6757 26.3047 44.8997 26.7422C45.1236 27.1745 45.2356 27.6927 45.2356 28.2969V34H42.9231V28.75C42.9231 28.2812 42.8007 27.9245 42.5559 27.6797C42.3164 27.4349 41.996 27.3125 41.595 27.3125C41.1627 27.3125 40.8242 27.4505 40.5794 27.7266C40.3398 27.9974 40.22 28.3594 40.22 28.8125V34H37.97V28.6875C37.97 28.2708 37.8502 27.9375 37.6106 27.6875C37.371 27.4375 37.0533 27.3125 36.6575 27.3125C36.3971 27.3125 36.1601 27.3802 35.9466 27.5156C35.7382 27.6458 35.5716 27.8307 35.4466 28.0703C35.3268 28.3099 35.2669 28.5885 35.2669 28.9062V34H32.9544V25.5156ZM52.455 34H50.1113V22.6875H52.455V34ZM53.9944 25.5156H56.2756V26.9375H56.3694C56.5621 26.5104 56.8537 26.1484 57.2444 25.8516C57.635 25.5547 58.1506 25.4062 58.7912 25.4062C59.4319 25.4062 60.0126 25.5729 60.5334 25.9062C61.0543 26.2344 61.4657 26.7266 61.7678 27.3828C62.0751 28.0339 62.2287 28.8281 62.2287 29.7656C62.2287 30.6823 62.0777 31.4714 61.7756 32.1328C61.4787 32.7891 61.0699 33.2891 60.5491 33.6328C60.0334 33.9714 59.4475 34.1406 58.7912 34.1406C58.161 34.1406 57.648 33.9974 57.2522 33.7109C56.8616 33.4193 56.5673 33.0625 56.3694 32.6406H56.3069V37.1875H53.9944V25.5156ZM56.26 29.75C56.26 30.2604 56.3303 30.7083 56.4709 31.0938C56.6116 31.474 56.8173 31.7708 57.0881 31.9844C57.359 32.1927 57.6819 32.2969 58.0569 32.2969C58.635 32.2969 59.0803 32.0651 59.3928 31.6016C59.7105 31.138 59.8694 30.5208 59.8694 29.75C59.8694 28.9896 59.7105 28.3828 59.3928 27.9297C59.0803 27.4766 58.635 27.25 58.0569 27.25C57.484 27.25 57.0412 27.474 56.7287 27.9219C56.4162 28.3646 56.26 28.974 56.26 29.75ZM68.2525 28.0312C68.2056 27.7344 68.0572 27.4974 67.8072 27.3203C67.5572 27.138 67.2421 27.0469 66.8619 27.0469C66.6119 27.0469 66.3853 27.0859 66.1822 27.1641C65.9843 27.237 65.828 27.3411 65.7134 27.4766C65.5989 27.6068 65.5442 27.7552 65.5494 27.9219C65.5337 28.3229 65.8983 28.6042 66.6431 28.7656L68.1587 29.0781C68.9817 29.25 69.5936 29.5234 69.9947 29.8984C70.4009 30.2734 70.6067 30.7656 70.6119 31.375C70.6067 31.9271 70.4452 32.4141 70.1275 32.8359C69.815 33.2578 69.3749 33.5859 68.8072 33.8203C68.2395 34.0547 67.5858 34.1719 66.8462 34.1719C66.091 34.1719 65.4374 34.0651 64.8853 33.8516C64.3332 33.6328 63.8983 33.3229 63.5806 32.9219C63.2681 32.5156 63.0806 32.0365 63.0181 31.4844H65.3462C65.3983 31.8177 65.5546 32.0703 65.815 32.2422C66.0754 32.4141 66.4192 32.5 66.8462 32.5C67.2681 32.5 67.6067 32.4193 67.8619 32.2578C68.1223 32.0964 68.2525 31.8802 68.2525 31.6094C68.2525 31.3906 68.1587 31.2135 67.9712 31.0781C67.789 30.9375 67.4973 30.8229 67.0962 30.7344L65.69 30.4531C64.8879 30.2969 64.2785 30.013 63.8619 29.6016C63.4452 29.1901 63.2421 28.6719 63.2525 28.0469C63.2473 27.5104 63.3905 27.0443 63.6822 26.6484C63.9739 26.2474 64.3905 25.9401 64.9322 25.7266C65.4739 25.513 66.1067 25.4062 66.8306 25.4062C67.5337 25.4062 68.1483 25.513 68.6744 25.7266C69.2004 25.9401 69.6119 26.2448 69.9087 26.6406C70.2108 27.0312 70.3827 27.4948 70.4244 28.0312H68.2525ZM77.1513 25.5156H79.4638V34H77.245V32.4688H77.1513C76.9481 32.974 76.6226 33.375 76.1747 33.6719C75.732 33.9635 75.1981 34.1094 74.5731 34.1094C74.0054 34.1094 73.5054 33.9818 73.0731 33.7266C72.646 33.4714 72.3127 33.1042 72.0731 32.625C71.8335 32.1406 71.7138 31.5729 71.7138 30.9219V25.5156H74.0263V30.5156C74.0263 31.0156 74.1591 31.4141 74.4247 31.7109C74.6955 32.0078 75.0575 32.1562 75.5106 32.1562C75.8023 32.1562 76.0731 32.0885 76.3231 31.9531C76.5731 31.8125 76.7736 31.6094 76.9247 31.3438C77.0757 31.0781 77.1513 30.7604 77.1513 30.3906V25.5156ZM80.9406 25.5156H83.1438V27H83.2375C83.4198 26.5052 83.7167 26.1172 84.1281 25.8359C84.5396 25.5495 85.0292 25.4062 85.5969 25.4062C86.1802 25.4062 86.675 25.5495 87.0813 25.8359C87.4927 26.1172 87.7688 26.5052 87.9094 27H87.9875C88.1698 26.5104 88.4875 26.1224 88.9406 25.8359C89.3938 25.5495 89.9302 25.4062 90.55 25.4062C91.076 25.4062 91.5396 25.5208 91.9406 25.75C92.3469 25.974 92.662 26.3047 92.8859 26.7422C93.1099 27.1745 93.2219 27.6927 93.2219 28.2969V34H90.9094V28.75C90.9094 28.2812 90.787 27.9245 90.5422 27.6797C90.3026 27.4349 89.9823 27.3125 89.5813 27.3125C89.149 27.3125 88.8104 27.4505 88.5656 27.7266C88.326 27.9974 88.2063 28.3594 88.2063 28.8125V34H85.9563V28.6875C85.9563 28.2708 85.8365 27.9375 85.5969 27.6875C85.3573 27.4375 85.0396 27.3125 84.6438 27.3125C84.3833 27.3125 84.1464 27.3802 83.9328 27.5156C83.7245 27.6458 83.5578 27.8307 83.4328 28.0703C83.313 28.3099 83.2531 28.5885 83.2531 28.9062V34H80.9406V25.5156ZM100.363 34H98.0506V22.6875H100.301V27H100.394C100.592 26.4948 100.907 26.1042 101.34 25.8281C101.772 25.5469 102.301 25.4062 102.926 25.4062C103.514 25.4062 104.03 25.5339 104.473 25.7891C104.915 26.0443 105.256 26.4115 105.496 26.8906C105.741 27.3698 105.863 27.9375 105.863 28.5938V34H103.551V29C103.551 28.474 103.415 28.0651 103.144 27.7734C102.879 27.4766 102.504 27.3281 102.019 27.3281C101.696 27.3281 101.41 27.3984 101.16 27.5391C100.91 27.6745 100.715 27.875 100.574 28.1406C100.433 28.4062 100.363 28.724 100.363 29.0938V34ZM106.918 31.625C106.918 30.75 107.212 30.1094 107.801 29.7031C108.389 29.2969 109.147 29.0677 110.074 29.0156C110.647 28.9792 111.35 28.9427 112.184 28.9062V28.2188C112.173 27.8646 112.051 27.5885 111.817 27.3906C111.582 27.1927 111.251 27.0938 110.824 27.0938C110.439 27.0938 110.124 27.1771 109.879 27.3438C109.634 27.5104 109.481 27.7396 109.418 28.0312H107.215C107.262 27.5312 107.434 27.0833 107.731 26.6875C108.033 26.2917 108.452 25.9792 108.988 25.75C109.525 25.5208 110.158 25.4062 110.887 25.4062C111.533 25.4062 112.126 25.5078 112.668 25.7109C113.215 25.9141 113.652 26.2318 113.981 26.6641C114.314 27.0911 114.481 27.6302 114.481 28.2812V34H112.293V32.8281H112.231C112.007 33.2396 111.686 33.5651 111.27 33.8047C110.858 34.0391 110.35 34.1562 109.746 34.1562C109.194 34.1562 108.705 34.0625 108.277 33.875C107.856 33.6823 107.522 33.3958 107.277 33.0156C107.038 32.6354 106.918 32.1719 106.918 31.625ZM109.137 31.5625C109.137 31.8802 109.251 32.1276 109.481 32.3047C109.715 32.4766 110.022 32.5625 110.402 32.5625C110.746 32.5625 111.054 32.4922 111.324 32.3516C111.6 32.2109 111.814 32.0182 111.965 31.7734C112.116 31.5286 112.189 31.2604 112.184 30.9688V30.3516C111.939 30.3568 111.637 30.3698 111.277 30.3906C110.918 30.4115 110.642 30.4323 110.449 30.4531C110.043 30.4948 109.723 30.6094 109.488 30.7969C109.254 30.9844 109.137 31.2396 109.137 31.5625ZM120.77 28.0312C120.723 27.7344 120.575 27.4974 120.325 27.3203C120.075 27.138 119.76 27.0469 119.379 27.0469C119.129 27.0469 118.903 27.0859 118.7 27.1641C118.502 27.237 118.346 27.3411 118.231 27.4766C118.116 27.6068 118.062 27.7552 118.067 27.9219C118.051 28.3229 118.416 28.6042 119.161 28.7656L120.676 29.0781C121.499 29.25 122.111 29.5234 122.512 29.8984C122.918 30.2734 123.124 30.7656 123.129 31.375C123.124 31.9271 122.963 32.4141 122.645 32.8359C122.332 33.2578 121.892 33.5859 121.325 33.8203C120.757 34.0547 120.103 34.1719 119.364 34.1719C118.609 34.1719 117.955 34.0651 117.403 33.8516C116.851 33.6328 116.416 33.3229 116.098 32.9219C115.786 32.5156 115.598 32.0365 115.536 31.4844H117.864C117.916 31.8177 118.072 32.0703 118.332 32.2422C118.593 32.4141 118.937 32.5 119.364 32.5C119.786 32.5 120.124 32.4193 120.379 32.2578C120.64 32.0964 120.77 31.8802 120.77 31.6094C120.77 31.3906 120.676 31.2135 120.489 31.0781C120.306 30.9375 120.015 30.8229 119.614 30.7344L118.207 30.4531C117.405 30.2969 116.796 30.013 116.379 29.6016C115.963 29.1901 115.76 28.6719 115.77 28.0469C115.765 27.5104 115.908 27.0443 116.2 26.6484C116.491 26.2474 116.908 25.9401 117.45 25.7266C117.991 25.513 118.624 25.4062 119.348 25.4062C120.051 25.4062 120.666 25.513 121.192 25.7266C121.718 25.9401 122.129 26.2448 122.426 26.6406C122.728 27.0312 122.9 27.4948 122.942 28.0312H120.77ZM127.646 22.6875H129.958V26.9375H130.021C130.224 26.5052 130.518 26.1432 130.903 25.8516C131.289 25.5547 131.802 25.4062 132.442 25.4062C133.083 25.4062 133.664 25.5729 134.185 25.9062C134.711 26.2344 135.127 26.7266 135.435 27.3828C135.742 28.0339 135.896 28.8281 135.896 29.7656C135.896 30.6823 135.745 31.4714 135.442 32.1328C135.14 32.7891 134.729 33.2891 134.208 33.6328C133.687 33.9714 133.099 34.1406 132.442 34.1406C131.812 34.1406 131.299 33.9974 130.903 33.7109C130.513 33.4193 130.219 33.0625 130.021 32.6406H129.927V34H127.646V22.6875ZM129.911 29.75C129.911 30.2604 129.982 30.7083 130.122 31.0938C130.263 31.474 130.469 31.7708 130.739 31.9844C131.01 32.1927 131.333 32.2969 131.708 32.2969C132.286 32.2969 132.732 32.0651 133.044 31.6016C133.362 31.138 133.521 30.5208 133.521 29.75C133.521 28.9896 133.362 28.3828 133.044 27.9297C132.732 27.4766 132.286 27.25 131.708 27.25C131.135 27.25 130.692 27.474 130.38 27.9219C130.067 28.3646 129.911 28.974 129.911 29.75ZM140.904 34.1719C140.044 34.1719 139.3 33.9948 138.669 33.6406C138.044 33.2865 137.563 32.7812 137.224 32.125C136.886 31.4635 136.716 30.6875 136.716 29.7969C136.716 28.9271 136.883 28.1615 137.216 27.5C137.555 26.8333 138.034 26.3177 138.654 25.9531C139.274 25.5885 139.992 25.4062 140.81 25.4062C141.57 25.4062 142.25 25.5677 142.849 25.8906C143.453 26.2083 143.927 26.6901 144.271 27.3359C144.62 27.9818 144.794 28.7708 144.794 29.7031V30.3594H138.997C138.997 30.7812 139.076 31.1484 139.232 31.4609C139.393 31.7734 139.62 32.0156 139.912 32.1875C140.208 32.3542 140.555 32.4375 140.951 32.4375C141.331 32.4375 141.659 32.362 141.935 32.2109C142.211 32.0547 142.409 31.8438 142.529 31.5781H144.732C144.622 32.099 144.399 32.5547 144.06 32.9453C143.721 33.3359 143.281 33.638 142.74 33.8516C142.203 34.0651 141.591 34.1719 140.904 34.1719ZM142.607 28.9062C142.607 28.5677 142.531 28.2656 142.38 28C142.234 27.7292 142.029 27.5182 141.763 27.3672C141.497 27.2161 141.195 27.1406 140.857 27.1406C140.513 27.1406 140.201 27.2188 139.919 27.375C139.643 27.5312 139.422 27.7448 139.255 28.0156C139.094 28.2865 139.008 28.5833 138.997 28.9062H142.607ZM149.771 34.1719C148.912 34.1719 148.167 33.9948 147.537 33.6406C146.912 33.2865 146.43 32.7812 146.092 32.125C145.753 31.4635 145.584 30.6875 145.584 29.7969C145.584 28.9271 145.75 28.1615 146.084 27.5C146.422 26.8333 146.901 26.3177 147.521 25.9531C148.141 25.5885 148.86 25.4062 149.678 25.4062C150.438 25.4062 151.118 25.5677 151.717 25.8906C152.321 26.2083 152.795 26.6901 153.138 27.3359C153.487 27.9818 153.662 28.7708 153.662 29.7031V30.3594H147.865C147.865 30.7812 147.943 31.1484 148.099 31.4609C148.261 31.7734 148.487 32.0156 148.779 32.1875C149.076 32.3542 149.422 32.4375 149.818 32.4375C150.198 32.4375 150.526 32.362 150.803 32.2109C151.079 32.0547 151.276 31.8438 151.396 31.5781H153.599C153.49 32.099 153.266 32.5547 152.928 32.9453C152.589 33.3359 152.149 33.638 151.607 33.8516C151.071 34.0651 150.459 34.1719 149.771 34.1719ZM151.474 28.9062C151.474 28.5677 151.399 28.2656 151.248 28C151.102 27.7292 150.896 27.5182 150.631 27.3672C150.365 27.2161 150.063 27.1406 149.724 27.1406C149.381 27.1406 149.068 27.2188 148.787 27.375C148.511 27.5312 148.289 27.7448 148.123 28.0156C147.961 28.2865 147.875 28.5833 147.865 28.9062H151.474ZM157.107 34H154.795V25.5156H156.998V27H157.092C157.29 26.5 157.61 26.1094 158.053 25.8281C158.496 25.5469 159.024 25.4062 159.639 25.4062C160.227 25.4062 160.743 25.5339 161.186 25.7891C161.628 26.0443 161.969 26.4141 162.209 26.8984C162.449 27.3776 162.566 27.9427 162.561 28.5938V34H160.264V29C160.264 28.4792 160.128 28.0703 159.857 27.7734C159.587 27.4766 159.212 27.3281 158.732 27.3281C158.238 27.3281 157.842 27.4844 157.545 27.7969C157.253 28.1094 157.107 28.5417 157.107 29.0938V34ZM5.375 46.25H3.78125V50.3906C3.78125 50.7031 3.84896 50.9219 3.98438 51.0469C4.11979 51.1719 4.31771 51.2396 4.57812 51.25C4.91146 51.25 5.21875 51.2344 5.5 51.2031V53.0312C5.22396 53.0833 4.8125 53.1094 4.26562 53.1094C3.39583 53.1094 2.71094 52.9089 2.21094 52.5078C1.71094 52.1068 1.46354 51.5104 1.46875 50.7188V46.25H0.296875V44.5156H1.46875V42.4844H3.78125V44.5156H5.375V46.25ZM9.00812 53H6.69562V41.6875H8.94562V46H9.03937C9.23729 45.4948 9.5524 45.1042 9.98469 44.8281C10.417 44.5469 10.9456 44.4062 11.5706 44.4062C12.1592 44.4062 12.6748 44.5339 13.1175 44.7891C13.5602 45.0443 13.9014 45.4115 14.1409 45.8906C14.3857 46.3698 14.5081 46.9375 14.5081 47.5938V53H12.1956V48C12.1956 47.474 12.0602 47.0651 11.7894 46.7734C11.5237 46.4766 11.1487 46.3281 10.6644 46.3281C10.3415 46.3281 10.055 46.3984 9.805 46.5391C9.555 46.6745 9.35969 46.875 9.21906 47.1406C9.07844 47.4062 9.00812 47.724 9.00812 48.0938V53ZM19.8131 53.1719C18.9537 53.1719 18.209 52.9948 17.5787 52.6406C16.9537 52.2865 16.472 51.7812 16.1334 51.125C15.7949 50.4635 15.6256 49.6875 15.6256 48.7969C15.6256 47.9271 15.7923 47.1615 16.1256 46.5C16.4642 45.8333 16.9433 45.3177 17.5631 44.9531C18.1829 44.5885 18.9017 44.4062 19.7194 44.4062C20.4798 44.4062 21.1595 44.5677 21.7584 44.8906C22.3626 45.2083 22.8366 45.6901 23.1803 46.3359C23.5293 46.9818 23.7037 47.7708 23.7037 48.7031V49.3594H17.9069C17.9069 49.7812 17.985 50.1484 18.1412 50.4609C18.3027 50.7734 18.5293 51.0156 18.8209 51.1875C19.1178 51.3542 19.4642 51.4375 19.86 51.4375C20.2402 51.4375 20.5683 51.362 20.8444 51.2109C21.1204 51.0547 21.3183 50.8438 21.4381 50.5781H23.6412C23.5319 51.099 23.3079 51.5547 22.9694 51.9453C22.6308 52.3359 22.1907 52.638 21.6491 52.8516C21.1126 53.0651 20.5006 53.1719 19.8131 53.1719ZM21.5162 47.9062C21.5162 47.5677 21.4407 47.2656 21.2897 47C21.1439 46.7292 20.9381 46.5182 20.6725 46.3672C20.4069 46.2161 20.1048 46.1406 19.7662 46.1406C19.4225 46.1406 19.11 46.2188 18.8287 46.375C18.5527 46.5312 18.3314 46.7448 18.1647 47.0156C18.0032 47.2865 17.9173 47.5833 17.9069 47.9062H21.5162ZM28.2044 44.5156H30.5169V53H28.2044V44.5156ZM29.3606 43.4062C29.1315 43.4062 28.9179 43.3542 28.72 43.25C28.5273 43.1406 28.3736 42.9974 28.2591 42.8203C28.1497 42.638 28.095 42.4427 28.095 42.2344C28.095 42.0208 28.1497 41.8229 28.2591 41.6406C28.3736 41.4583 28.5273 41.3151 28.72 41.2109C28.9179 41.1016 29.1315 41.0469 29.3606 41.0469C29.5846 41.0469 29.7929 41.1016 29.9856 41.2109C30.1783 41.3151 30.3294 41.4583 30.4387 41.6406C30.5533 41.8229 30.6106 42.0208 30.6106 42.2344C30.6106 42.4427 30.5533 42.638 30.4387 42.8203C30.3294 42.9974 30.1783 43.1406 29.9856 43.25C29.7929 43.3542 29.5846 43.4062 29.3606 43.4062ZM34.3062 53H31.9937V44.5156H34.1969V46H34.2906C34.4885 45.5 34.8089 45.1094 35.2516 44.8281C35.6943 44.5469 36.2229 44.4062 36.8375 44.4062C37.426 44.4062 37.9417 44.5339 38.3844 44.7891C38.8271 45.0443 39.1682 45.4141 39.4078 45.8984C39.6474 46.3776 39.7646 46.9427 39.7594 47.5938V53H37.4625V48C37.4625 47.4792 37.3271 47.0703 37.0562 46.7734C36.7854 46.4766 36.4104 46.3281 35.9312 46.3281C35.4365 46.3281 35.0406 46.4844 34.7437 46.7969C34.4521 47.1094 34.3062 47.5417 34.3062 48.0938V53ZM44.3613 53.1406C43.705 53.1406 43.1165 52.9714 42.5956 52.6328C42.0748 52.2891 41.6633 51.7891 41.3613 51.1328C41.0592 50.4714 40.9081 49.6823 40.9081 48.7656C40.9081 47.8281 41.0618 47.0339 41.3691 46.3828C41.6764 45.7266 42.0904 45.2344 42.6113 44.9062C43.1373 44.5729 43.7206 44.4062 44.3613 44.4062C45.0019 44.4062 45.5149 44.5547 45.9003 44.8516C46.2857 45.1484 46.5748 45.5104 46.7675 45.9375H46.8456V41.6875H49.1581V53H46.8769V51.6406H46.7675C46.5696 52.0625 46.2753 52.4193 45.8847 52.7109C45.4941 52.9974 44.9863 53.1406 44.3613 53.1406ZM45.08 51.2969C45.4602 51.2969 45.7857 51.1927 46.0566 50.9844C46.3274 50.7708 46.5331 50.474 46.6738 50.0938C46.8196 49.7083 46.8925 49.2604 46.8925 48.75C46.8925 47.9792 46.7336 47.3698 46.4159 46.9219C46.0982 46.474 45.6529 46.25 45.08 46.25C44.5071 46.25 44.0644 46.4766 43.7519 46.9297C43.4394 47.3828 43.2831 47.9896 43.2831 48.75C43.2831 49.5208 43.4394 50.138 43.7519 50.6016C44.0644 51.0651 44.5071 51.2969 45.08 51.2969ZM56.135 44.5156H58.4475V53H56.2287V51.4688H56.135C55.9319 51.974 55.6064 52.375 55.1584 52.6719C54.7157 52.9635 54.1819 53.1094 53.5569 53.1094C52.9892 53.1094 52.4892 52.9818 52.0569 52.7266C51.6298 52.4714 51.2965 52.1042 51.0569 51.625C50.8173 51.1406 50.6975 50.5729 50.6975 49.9219V44.5156H53.01V49.5156C53.01 50.0156 53.1428 50.4141 53.4084 50.7109C53.6793 51.0078 54.0412 51.1562 54.4944 51.1562C54.786 51.1562 55.0569 51.0885 55.3069 50.9531C55.5569 50.8125 55.7574 50.6094 55.9084 50.3438C56.0595 50.0781 56.135 49.7604 56.135 49.3906V44.5156ZM64.7681 47.0312C64.7212 46.7344 64.5728 46.4974 64.3228 46.3203C64.0728 46.138 63.7577 46.0469 63.3775 46.0469C63.1275 46.0469 62.9009 46.0859 62.6978 46.1641C62.4999 46.237 62.3436 46.3411 62.2291 46.4766C62.1145 46.6068 62.0598 46.7552 62.065 46.9219C62.0494 47.3229 62.414 47.6042 63.1587 47.7656L64.6744 48.0781C65.4973 48.25 66.1093 48.5234 66.5103 48.8984C66.9166 49.2734 67.1223 49.7656 67.1275 50.375C67.1223 50.9271 66.9608 51.4141 66.6431 51.8359C66.3306 52.2578 65.8905 52.5859 65.3228 52.8203C64.7551 53.0547 64.1015 53.1719 63.3619 53.1719C62.6067 53.1719 61.953 53.0651 61.4009 52.8516C60.8489 52.6328 60.414 52.3229 60.0962 51.9219C59.7837 51.5156 59.5962 51.0365 59.5337 50.4844H61.8619C61.914 50.8177 62.0702 51.0703 62.3306 51.2422C62.591 51.4141 62.9348 51.5 63.3619 51.5C63.7837 51.5 64.1223 51.4193 64.3775 51.2578C64.6379 51.0964 64.7681 50.8802 64.7681 50.6094C64.7681 50.3906 64.6744 50.2135 64.4869 50.0781C64.3046 49.9375 64.0129 49.8229 63.6119 49.7344L62.2056 49.4531C61.4035 49.2969 60.7942 49.013 60.3775 48.6016C59.9608 48.1901 59.7577 47.6719 59.7681 47.0469C59.7629 46.5104 59.9061 46.0443 60.1978 45.6484C60.4895 45.2474 60.9061 44.9401 61.4478 44.7266C61.9895 44.513 62.6223 44.4062 63.3462 44.4062C64.0494 44.4062 64.664 44.513 65.19 44.7266C65.716 44.9401 66.1275 45.2448 66.4244 45.6406C66.7265 46.0312 66.8983 46.4948 66.94 47.0312H64.7681ZM72.6981 46.25H71.1044V50.3906C71.1044 50.7031 71.1721 50.9219 71.3075 51.0469C71.4429 51.1719 71.6408 51.2396 71.9013 51.25C72.2346 51.25 72.5419 51.2344 72.8231 51.2031V53.0312C72.5471 53.0833 72.1356 53.1094 71.5888 53.1094C70.719 53.1094 70.0341 52.9089 69.5341 52.5078C69.0341 52.1068 68.7867 51.5104 68.7919 50.7188V46.25H67.62V44.5156H68.7919V42.4844H71.1044V44.5156H72.6981V46.25ZM73.8313 44.5156H76.0656V45.9844H76.1594C76.3104 45.4688 76.5682 45.0755 76.9328 44.8047C77.2974 44.5286 77.7219 44.3906 78.2063 44.3906C78.4719 44.3906 78.7167 44.4167 78.9406 44.4688V46.5312C78.826 46.5 78.6724 46.4714 78.4797 46.4453C78.287 46.4193 78.1125 46.4062 77.9563 46.4062C77.6125 46.4062 77.3026 46.4818 77.0266 46.6328C76.7505 46.7839 76.5344 46.9948 76.3781 47.2656C76.2219 47.5312 76.1438 47.8333 76.1438 48.1719V53H73.8313V44.5156ZM81.3706 56.1875C80.8863 56.1875 80.4956 56.1719 80.1988 56.1406V54.3438C80.5946 54.3646 80.9071 54.375 81.1363 54.375C81.3185 54.375 81.4696 54.3594 81.5894 54.3281C81.7144 54.2969 81.8316 54.224 81.9409 54.1094C82.0555 53.9948 82.1571 53.8229 82.2456 53.5938L82.3863 53.2344L79.3394 44.5156H81.7613L83.5425 50.7656H83.6363L85.4331 44.5156H87.8863L84.5738 53.9375C84.3185 54.6615 83.9357 55.2161 83.4253 55.6016C82.9149 55.9922 82.23 56.1875 81.3706 56.1875ZM90.1913 45.9688H88.5194V41.6875H90.1913V45.9688ZM96.3712 47.0312C96.3244 46.7344 96.1759 46.4974 95.9259 46.3203C95.6759 46.138 95.3608 46.0469 94.9806 46.0469C94.7306 46.0469 94.5041 46.0859 94.3009 46.1641C94.103 46.237 93.9468 46.3411 93.8322 46.4766C93.7176 46.6068 93.6629 46.7552 93.6681 46.9219C93.6525 47.3229 94.0171 47.6042 94.7619 47.7656L96.2775 48.0781C97.1004 48.25 97.7124 48.5234 98.1134 48.8984C98.5197 49.2734 98.7254 49.7656 98.7306 50.375C98.7254 50.9271 98.564 51.4141 98.2462 51.8359C97.9337 52.2578 97.4936 52.5859 96.9259 52.8203C96.3582 53.0547 95.7046 53.1719 94.965 53.1719C94.2098 53.1719 93.5561 53.0651 93.0041 52.8516C92.452 52.6328 92.0171 52.3229 91.6994 51.9219C91.3869 51.5156 91.1994 51.0365 91.1369 50.4844H93.465C93.5171 50.8177 93.6733 51.0703 93.9337 51.2422C94.1942 51.4141 94.5379 51.5 94.965 51.5C95.3869 51.5 95.7254 51.4193 95.9806 51.2578C96.241 51.0964 96.3712 50.8802 96.3712 50.6094C96.3712 50.3906 96.2775 50.2135 96.09 50.0781C95.9077 49.9375 95.616 49.8229 95.215 49.7344L93.8087 49.4531C93.0067 49.2969 92.3973 49.013 91.9806 48.6016C91.564 48.1901 91.3608 47.6719 91.3712 47.0469C91.366 46.5104 91.5093 46.0443 91.8009 45.6484C92.0926 45.2474 92.5093 44.9401 93.0509 44.7266C93.5926 44.513 94.2254 44.4062 94.9494 44.4062C95.6525 44.4062 96.2671 44.513 96.7931 44.7266C97.3192 44.9401 97.7306 45.2448 98.0275 45.6406C98.3296 46.0312 98.5015 46.4948 98.5431 47.0312H96.3712ZM108.044 47.0312C107.997 46.7344 107.848 46.4974 107.598 46.3203C107.348 46.138 107.033 46.0469 106.653 46.0469C106.403 46.0469 106.177 46.0859 105.973 46.1641C105.776 46.237 105.619 46.3411 105.505 46.4766C105.39 46.6068 105.335 46.7552 105.341 46.9219C105.325 47.3229 105.69 47.6042 106.434 47.7656L107.95 48.0781C108.773 48.25 109.385 48.5234 109.786 48.8984C110.192 49.2734 110.398 49.7656 110.403 50.375C110.398 50.9271 110.236 51.4141 109.919 51.8359C109.606 52.2578 109.166 52.5859 108.598 52.8203C108.031 53.0547 107.377 53.1719 106.637 53.1719C105.882 53.1719 105.229 53.0651 104.677 52.8516C104.124 52.6328 103.69 52.3229 103.372 51.9219C103.059 51.5156 102.872 51.0365 102.809 50.4844H105.137C105.19 50.8177 105.346 51.0703 105.606 51.2422C105.867 51.4141 106.21 51.5 106.637 51.5C107.059 51.5 107.398 51.4193 107.653 51.2578C107.914 51.0964 108.044 50.8802 108.044 50.6094C108.044 50.3906 107.95 50.2135 107.762 50.0781C107.58 49.9375 107.289 49.8229 106.887 49.7344L105.481 49.4531C104.679 49.2969 104.07 49.013 103.653 48.6016C103.236 48.1901 103.033 47.6719 103.044 47.0469C103.039 46.5104 103.182 46.0443 103.473 45.6484C103.765 45.2474 104.182 44.9401 104.723 44.7266C105.265 44.513 105.898 44.4062 106.622 44.4062C107.325 44.4062 107.94 44.513 108.466 44.7266C108.992 44.9401 109.403 45.2448 109.7 45.6406C110.002 46.0312 110.174 46.4948 110.216 47.0312H108.044ZM115.974 46.25H114.38V50.3906C114.38 50.7031 114.448 50.9219 114.583 51.0469C114.719 51.1719 114.916 51.2396 115.177 51.25C115.51 51.25 115.817 51.2344 116.099 51.2031V53.0312C115.823 53.0833 115.411 53.1094 114.864 53.1094C113.995 53.1094 113.31 52.9089 112.81 52.5078C112.31 52.1068 112.062 51.5104 112.067 50.7188V46.25H110.896V44.5156H112.067V42.4844H114.38V44.5156H115.974V46.25ZM116.701 50.625C116.701 49.75 116.995 49.1094 117.583 48.7031C118.172 48.2969 118.93 48.0677 119.857 48.0156C120.43 47.9792 121.133 47.9427 121.966 47.9062V47.2188C121.956 46.8646 121.833 46.5885 121.599 46.3906C121.365 46.1927 121.034 46.0938 120.607 46.0938C120.221 46.0938 119.906 46.1771 119.662 46.3438C119.417 46.5104 119.263 46.7396 119.201 47.0312H116.997C117.044 46.5312 117.216 46.0833 117.513 45.6875C117.815 45.2917 118.234 44.9792 118.771 44.75C119.307 44.5208 119.94 44.4062 120.669 44.4062C121.315 44.4062 121.909 44.5078 122.451 44.7109C122.997 44.9141 123.435 45.2318 123.763 45.6641C124.096 46.0911 124.263 46.6302 124.263 47.2812V53H122.076V51.8281H122.013C121.789 52.2396 121.469 52.5651 121.052 52.8047C120.641 53.0391 120.133 53.1562 119.529 53.1562C118.977 53.1562 118.487 53.0625 118.06 52.875C117.638 52.6823 117.305 52.3958 117.06 52.0156C116.82 51.6354 116.701 51.1719 116.701 50.625ZM118.919 50.5625C118.919 50.8802 119.034 51.1276 119.263 51.3047C119.497 51.4766 119.805 51.5625 120.185 51.5625C120.529 51.5625 120.836 51.4922 121.107 51.3516C121.383 51.2109 121.596 51.0182 121.747 50.7734C121.899 50.5286 121.971 50.2604 121.966 49.9688V49.3516C121.721 49.3568 121.419 49.3698 121.06 49.3906C120.701 49.4115 120.425 49.4323 120.232 49.4531C119.826 49.4948 119.505 49.6094 119.271 49.7969C119.037 49.9844 118.919 50.2396 118.919 50.5625ZM128.021 53H125.709V44.5156H127.912V46H128.006C128.204 45.5 128.524 45.1094 128.967 44.8281C129.409 44.5469 129.938 44.4062 130.552 44.4062C131.141 44.4062 131.657 44.5339 132.099 44.7891C132.542 45.0443 132.883 45.4141 133.123 45.8984C133.362 46.3776 133.48 46.9427 133.474 47.5938V53H131.177V48C131.177 47.4792 131.042 47.0703 130.771 46.7734C130.5 46.4766 130.125 46.3281 129.646 46.3281C129.151 46.3281 128.756 46.4844 128.459 46.7969C128.167 47.1094 128.021 47.5417 128.021 48.0938V53ZM138.076 53.1406C137.42 53.1406 136.831 52.9714 136.311 52.6328C135.79 52.2891 135.378 51.7891 135.076 51.1328C134.774 50.4714 134.623 49.6823 134.623 48.7656C134.623 47.8281 134.777 47.0339 135.084 46.3828C135.391 45.7266 135.805 45.2344 136.326 44.9062C136.852 44.5729 137.436 44.4062 138.076 44.4062C138.717 44.4062 139.23 44.5547 139.615 44.8516C140.001 45.1484 140.29 45.5104 140.482 45.9375H140.561V41.6875H142.873V53H140.592V51.6406H140.482C140.285 52.0625 139.99 52.4193 139.6 52.7109C139.209 52.9974 138.701 53.1406 138.076 53.1406ZM138.795 51.2969C139.175 51.2969 139.501 51.1927 139.772 50.9844C140.042 50.7708 140.248 50.474 140.389 50.0938C140.535 49.7083 140.607 49.2604 140.607 48.75C140.607 47.9792 140.449 47.3698 140.131 46.9219C139.813 46.474 139.368 46.25 138.795 46.25C138.222 46.25 137.779 46.4766 137.467 46.9297C137.154 47.3828 136.998 47.9896 136.998 48.75C136.998 49.5208 137.154 50.138 137.467 50.6016C137.779 51.0651 138.222 51.2969 138.795 51.2969ZM144.006 50.625C144.006 49.75 144.301 49.1094 144.889 48.7031C145.478 48.2969 146.235 48.0677 147.163 48.0156C147.735 47.9792 148.439 47.9427 149.272 47.9062V47.2188C149.261 46.8646 149.139 46.5885 148.905 46.3906C148.67 46.1927 148.34 46.0938 147.913 46.0938C147.527 46.0938 147.212 46.1771 146.967 46.3438C146.722 46.5104 146.569 46.7396 146.506 47.0312H144.303C144.35 46.5312 144.522 46.0833 144.819 45.6875C145.121 45.2917 145.54 44.9792 146.077 44.75C146.613 44.5208 147.246 44.4062 147.975 44.4062C148.621 44.4062 149.215 44.5078 149.756 44.7109C150.303 44.9141 150.741 45.2318 151.069 45.6641C151.402 46.0911 151.569 46.6302 151.569 47.2812V53H149.381V51.8281H149.319C149.095 52.2396 148.774 52.5651 148.358 52.8047C147.946 53.0391 147.439 53.1562 146.834 53.1562C146.282 53.1562 145.793 53.0625 145.366 52.875C144.944 52.6823 144.61 52.3958 144.366 52.0156C144.126 51.6354 144.006 51.1719 144.006 50.625ZM146.225 50.5625C146.225 50.8802 146.34 51.1276 146.569 51.3047C146.803 51.4766 147.11 51.5625 147.491 51.5625C147.834 51.5625 148.142 51.4922 148.413 51.3516C148.689 51.2109 148.902 51.0182 149.053 50.7734C149.204 50.5286 149.277 50.2604 149.272 49.9688V49.3516C149.027 49.3568 148.725 49.3698 148.366 49.3906C148.006 49.4115 147.73 49.4323 147.538 49.4531C147.131 49.4948 146.811 49.6094 146.577 49.7969C146.342 49.9844 146.225 50.2396 146.225 50.5625ZM153.014 44.5156H155.249V45.9844H155.342C155.494 45.4688 155.751 45.0755 156.116 44.8047C156.481 44.5286 156.905 44.3906 157.389 44.3906C157.655 44.3906 157.9 44.4167 158.124 44.4688V46.5312C158.009 46.5 157.856 46.4714 157.663 46.4453C157.47 46.4193 157.296 46.4062 157.139 46.4062C156.796 46.4062 156.486 46.4818 156.21 46.6328C155.934 46.7839 155.717 46.9948 155.561 47.2656C155.405 47.5312 155.327 47.8333 155.327 48.1719V53H153.014V44.5156ZM161.788 53.1406C161.132 53.1406 160.543 52.9714 160.023 52.6328C159.502 52.2891 159.09 51.7891 158.788 51.1328C158.486 50.4714 158.335 49.6823 158.335 48.7656C158.335 47.8281 158.489 47.0339 158.796 46.3828C159.103 45.7266 159.517 45.2344 160.038 44.9062C160.564 44.5729 161.148 44.4062 161.788 44.4062C162.429 44.4062 162.942 44.5547 163.327 44.8516C163.713 45.1484 164.002 45.5104 164.194 45.9375H164.273V41.6875H166.585V53H164.304V51.6406H164.194C163.996 52.0625 163.702 52.4193 163.312 52.7109C162.921 52.9974 162.413 53.1406 161.788 53.1406ZM162.507 51.2969C162.887 51.2969 163.213 51.1927 163.483 50.9844C163.754 50.7708 163.96 50.474 164.101 50.0938C164.246 49.7083 164.319 49.2604 164.319 48.75C164.319 47.9792 164.161 47.3698 163.843 46.9219C163.525 46.474 163.08 46.25 162.507 46.25C161.934 46.25 161.491 46.4766 161.179 46.9297C160.866 47.3828 160.71 47.9896 160.71 48.75C160.71 49.5208 160.866 50.138 161.179 50.6016C161.491 51.0651 161.934 51.2969 162.507 51.2969Z" fill="#333333"/>
<rect y="76" width="80" height="20" rx="10" fill="#666666"/>
<path d="M28.7018 83.6484C28.6705 83.375 28.5709 83.1406 28.403 82.9453C28.2389 82.7461 28.0202 82.5957 27.7467 82.4941C27.4733 82.3887 27.1666 82.3359 26.8268 82.3359C26.4596 82.3359 26.1334 82.3965 25.8483 82.5176C25.567 82.6348 25.3483 82.7988 25.192 83.0098C25.0397 83.2207 24.9635 83.4609 24.9635 83.7305C24.9635 84.1211 25.1217 84.4199 25.4381 84.627C25.7584 84.834 26.1471 84.9961 26.6041 85.1133L27.4479 85.3477C28.1041 85.5156 28.6686 85.7754 29.1413 86.127C29.6139 86.4746 29.8502 86.9961 29.8502 87.6914C29.8502 88.1562 29.7272 88.5762 29.4811 88.9512C29.2389 89.3223 28.8854 89.6152 28.4205 89.8301C27.9596 90.0449 27.4088 90.1523 26.7682 90.1523C26.1666 90.1523 25.6413 90.0547 25.192 89.8594C24.7428 89.6641 24.3913 89.3887 24.1373 89.0332C23.8834 88.6777 23.7409 88.2656 23.7096 87.7969H24.7877C24.819 88.1016 24.9264 88.3594 25.11 88.5703C25.2936 88.7773 25.528 88.9336 25.8131 89.0391C26.1022 89.1406 26.4205 89.1914 26.7682 89.1914C27.1588 89.1914 27.5084 89.1289 27.817 89.0039C28.1295 88.8789 28.3737 88.7012 28.5495 88.4707C28.7291 88.2363 28.819 87.9688 28.819 87.668C28.819 87.4102 28.7448 87.1934 28.5963 87.0176C28.4518 86.8418 28.2604 86.6992 28.0221 86.5898C27.7877 86.4805 27.4948 86.375 27.1432 86.2734L26.1002 85.9922C25.4049 85.7891 24.8717 85.5078 24.5006 85.1484C24.1295 84.7891 23.944 84.332 23.944 83.7773C23.944 83.3125 24.0709 82.9004 24.3248 82.541C24.5827 82.1777 24.9323 81.8965 25.3737 81.6973C25.819 81.498 26.3151 81.3984 26.862 81.3984C27.401 81.3984 27.8854 81.4961 28.3151 81.6914C28.7448 81.8867 29.0846 82.1562 29.3346 82.5C29.5846 82.8398 29.7174 83.2227 29.733 83.6484H28.7018ZM31.122 81.5156H32.1766V85.2891H36.6649V81.5156H37.7313V90H36.6649V86.2148H32.1766V90H31.122V81.5156ZM46.5265 85.7578C46.5265 86.6367 46.3663 87.4062 46.046 88.0664C45.7257 88.7227 45.2804 89.2285 44.7101 89.584C44.1437 89.9395 43.4991 90.1172 42.7765 90.1172C42.0499 90.1172 41.4034 89.9395 40.837 89.584C40.2706 89.2285 39.8273 88.7227 39.507 88.0664C39.1866 87.4062 39.0265 86.6367 39.0265 85.7578C39.0265 84.8789 39.1866 84.1113 39.507 83.4551C39.8273 82.7949 40.2706 82.2871 40.837 81.9316C41.4034 81.5762 42.0499 81.3984 42.7765 81.3984C43.4991 81.3984 44.1437 81.5762 44.7101 81.9316C45.2804 82.2871 45.7257 82.7949 46.046 83.4551C46.3663 84.1113 46.5265 84.8789 46.5265 85.7578ZM45.507 85.7578C45.507 85.0469 45.3878 84.4375 45.1495 83.9297C44.9113 83.4219 44.5851 83.0371 44.171 82.7754C43.7609 82.5137 43.296 82.3828 42.7765 82.3828C42.257 82.3828 41.7902 82.5137 41.3761 82.7754C40.9659 83.0371 40.6417 83.4219 40.4034 83.9297C40.1652 84.4375 40.046 85.0469 40.046 85.7578C40.046 86.4688 40.1652 87.0781 40.4034 87.5859C40.6417 88.0938 40.9659 88.4785 41.3761 88.7402C41.7902 89.002 42.257 89.1328 42.7765 89.1328C43.296 89.1328 43.7609 89.002 44.171 88.7402C44.5851 88.4785 44.9113 88.0938 45.1495 87.5859C45.3878 87.0781 45.507 86.4688 45.507 85.7578ZM47.0716 81.5156H48.138L49.9076 88.3828H49.9896L51.7826 81.5156H52.9662L54.7709 88.3828H54.8412L56.6107 81.5156H57.6771L55.3568 90H54.267L52.4154 83.2852H52.3451L50.4818 90H49.392L47.0716 81.5156Z" fill="white"/>
</svg>
