<svg width="250" height="51" viewBox="0 0 250 51" fill="none" xmlns="http://www.w3.org/2000/svg">
<path d="M1.42969 0.03125H4.94531V14.0938H12.2578V17H1.42969V0.03125ZM19.6997 17.2578C18.4341 17.2578 17.3325 16.9844 16.395 16.4375C15.4575 15.8906 14.7348 15.1211 14.227 14.1289C13.7192 13.1289 13.4653 11.9766 13.4653 10.6719C13.4653 9.36719 13.7153 8.21875 14.2153 7.22656C14.7231 6.23438 15.4458 5.46875 16.3833 4.92969C17.3286 4.38281 18.4341 4.10938 19.6997 4.10938C20.9653 4.10938 22.0708 4.38281 23.0161 4.92969C23.9614 5.46875 24.688 6.23438 25.1958 7.22656C25.7036 8.21875 25.9575 9.36719 25.9575 10.6719C25.9575 11.9766 25.7036 13.1289 25.1958 14.1289C24.688 15.1211 23.9614 15.8906 23.0161 16.4375C22.0708 16.9844 20.9653 17.2578 19.6997 17.2578ZM19.7231 14.5625C20.3013 14.5625 20.7934 14.3984 21.1997 14.0703C21.6059 13.7344 21.9106 13.2734 22.1138 12.6875C22.3169 12.1016 22.4184 11.4297 22.4184 10.6719C22.4184 9.91406 22.3169 9.24219 22.1138 8.65625C21.9106 8.0625 21.6059 7.59766 21.1997 7.26172C20.7934 6.92578 20.3013 6.75781 19.7231 6.75781C19.1372 6.75781 18.6372 6.92578 18.2231 7.26172C17.8169 7.59766 17.5083 8.0625 17.2973 8.65625C17.0864 9.24219 16.9809 9.91406 16.9809 10.6719C16.9809 11.4219 17.0864 12.0938 17.2973 12.6875C17.5083 13.2734 17.8169 13.7344 18.2231 14.0703C18.6372 14.3984 19.1372 14.5625 19.7231 14.5625ZM27.6572 4.27344H31.0088V6.47656H31.1494C31.3759 5.70312 31.7627 5.11328 32.3095 4.70703C32.8564 4.29297 33.4931 4.08594 34.2197 4.08594C34.6181 4.08594 34.9853 4.125 35.3213 4.20312V7.29688C35.1494 7.25 34.9189 7.20703 34.6298 7.16797C34.3408 7.12891 34.0791 7.10938 33.8447 7.10938C33.3291 7.10938 32.8642 7.22266 32.4502 7.44922C32.0361 7.67578 31.7119 7.99219 31.4775 8.39844C31.2431 8.79688 31.1259 9.25 31.1259 9.75781V17H27.6572V4.27344ZM41.8959 17.2578C40.6069 17.2578 39.4897 16.9922 38.5444 16.4609C37.6069 15.9297 36.8842 15.1719 36.3764 14.1875C35.8686 13.1953 35.6147 12.0312 35.6147 10.6953C35.6147 9.39062 35.8647 8.24219 36.3647 7.25C36.8725 6.25 37.5913 5.47656 38.5209 4.92969C39.4506 4.38281 40.5288 4.10938 41.7553 4.10938C42.8959 4.10938 43.9155 4.35156 44.8139 4.83594C45.7202 5.3125 46.4311 6.03516 46.9467 7.00391C47.4702 7.97266 47.7319 9.15625 47.7319 10.5547V11.5391H39.0366C39.0366 12.1719 39.1538 12.7227 39.3881 13.1914C39.6303 13.6602 39.9702 14.0234 40.4077 14.2812C40.853 14.5312 41.3725 14.6562 41.9663 14.6562C42.5366 14.6562 43.0288 14.543 43.4428 14.3164C43.8569 14.082 44.1538 13.7656 44.3334 13.3672H47.6381C47.4741 14.1484 47.1381 14.832 46.6303 15.418C46.1225 16.0039 45.4623 16.457 44.6498 16.7773C43.8452 17.0977 42.9272 17.2578 41.8959 17.2578ZM44.4506 9.35938C44.4506 8.85156 44.3373 8.39844 44.1108 8C43.892 7.59375 43.5834 7.27734 43.185 7.05078C42.7866 6.82422 42.3334 6.71094 41.8256 6.71094C41.31 6.71094 40.8413 6.82812 40.4194 7.0625C40.0053 7.29688 39.6733 7.61719 39.4233 8.02344C39.1811 8.42969 39.0522 8.875 39.0366 9.35938H44.4506ZM49.4316 4.27344H52.7363V6.5H52.8769C53.1503 5.75781 53.5956 5.17578 54.2128 4.75391C54.83 4.32422 55.5644 4.10938 56.4159 4.10938C57.2909 4.10938 58.0331 4.32422 58.6425 4.75391C59.2597 5.17578 59.6738 5.75781 59.8847 6.5H60.0019C60.2753 5.76562 60.7519 5.18359 61.4316 4.75391C62.1113 4.32422 62.9159 4.10938 63.8456 4.10938C64.6347 4.10938 65.33 4.28125 65.9316 4.625C66.5409 4.96094 67.0136 5.45703 67.3495 6.11328C67.6855 6.76172 67.8534 7.53906 67.8534 8.44531V17H64.3847V9.125C64.3847 8.42188 64.2011 7.88672 63.8339 7.51953C63.4745 7.15234 62.9941 6.96875 62.3925 6.96875C61.7441 6.96875 61.2363 7.17578 60.8691 7.58984C60.5097 7.99609 60.33 8.53906 60.33 9.21875V17H56.955V9.03125C56.955 8.40625 56.7753 7.90625 56.4159 7.53125C56.0566 7.15625 55.58 6.96875 54.9863 6.96875C54.5956 6.96875 54.2402 7.07031 53.9198 7.27344C53.6073 7.46875 53.3573 7.74609 53.1698 8.10547C52.9902 8.46484 52.9003 8.88281 52.9003 9.35938V17H49.4316V4.27344ZM78.6825 17H75.1669V0.03125H78.6825V17ZM80.9916 4.27344H84.4134V6.40625H84.5541C84.8431 5.76562 85.2806 5.22266 85.8666 4.77734C86.4525 4.33203 87.2259 4.10938 88.1869 4.10938C89.1478 4.10938 90.0189 4.35938 90.8002 4.85938C91.5814 5.35156 92.1986 6.08984 92.6517 7.07422C93.1127 8.05078 93.3431 9.24219 93.3431 10.6484C93.3431 12.0234 93.1166 13.207 92.6634 14.1992C92.2181 15.1836 91.6048 15.9336 90.8236 16.4492C90.0502 16.957 89.1712 17.2109 88.1869 17.2109C87.2416 17.2109 86.472 16.9961 85.8783 16.5664C85.2923 16.1289 84.8509 15.5938 84.5541 14.9609H84.4603V21.7812H80.9916V4.27344ZM84.39 10.625C84.39 11.3906 84.4955 12.0625 84.7064 12.6406C84.9173 13.2109 85.2259 13.6562 85.6322 13.9766C86.0384 14.2891 86.5228 14.4453 87.0853 14.4453C87.9525 14.4453 88.6205 14.0977 89.0892 13.4023C89.5658 12.707 89.8041 11.7812 89.8041 10.625C89.8041 9.48438 89.5658 8.57422 89.0892 7.89453C88.6205 7.21484 87.9525 6.875 87.0853 6.875C86.2259 6.875 85.5619 7.21094 85.0931 7.88281C84.6244 8.54688 84.39 9.46094 84.39 10.625ZM102.379 8.04688C102.308 7.60156 102.086 7.24609 101.711 6.98047C101.336 6.70703 100.863 6.57031 100.293 6.57031C99.9178 6.57031 99.578 6.62891 99.2733 6.74609C98.9764 6.85547 98.742 7.01172 98.5702 7.21484C98.3983 7.41016 98.3163 7.63281 98.3241 7.88281C98.3006 8.48438 98.8475 8.90625 99.9647 9.14844L102.238 9.61719C103.473 9.875 104.39 10.2852 104.992 10.8477C105.601 11.4102 105.91 12.1484 105.918 13.0625C105.91 13.8906 105.668 14.6211 105.191 15.2539C104.723 15.8867 104.062 16.3789 103.211 16.7305C102.359 17.082 101.379 17.2578 100.269 17.2578C99.1366 17.2578 98.1561 17.0977 97.328 16.7773C96.4998 16.4492 95.8475 15.9844 95.3709 15.3828C94.9022 14.7734 94.6209 14.0547 94.5272 13.2266H98.0194C98.0975 13.7266 98.3319 14.1055 98.7225 14.3633C99.1131 14.6211 99.6288 14.75 100.269 14.75C100.902 14.75 101.41 14.6289 101.793 14.3867C102.183 14.1445 102.379 13.8203 102.379 13.4141C102.379 13.0859 102.238 12.8203 101.957 12.6172C101.683 12.4062 101.246 12.2344 100.644 12.1016L98.535 11.6797C97.3319 11.4453 96.4178 11.0195 95.7928 10.4023C95.1678 9.78516 94.8631 9.00781 94.8788 8.07031C94.8709 7.26562 95.0858 6.56641 95.5233 5.97266C95.9608 5.37109 96.5858 4.91016 97.3983 4.58984C98.2108 4.26953 99.16 4.10938 100.246 4.10938C101.301 4.10938 102.223 4.26953 103.012 4.58984C103.801 4.91016 104.418 5.36719 104.863 5.96094C105.316 6.54688 105.574 7.24219 105.637 8.04688H102.379ZM115.727 4.27344H119.196V17H115.868V14.7031H115.727C115.422 15.4609 114.934 16.0625 114.262 16.5078C113.598 16.9453 112.797 17.1641 111.86 17.1641C111.008 17.1641 110.258 16.9727 109.61 16.5898C108.969 16.207 108.469 15.6562 108.11 14.9375C107.75 14.2109 107.571 13.3594 107.571 12.3828V4.27344H111.039V11.7734C111.039 12.5234 111.239 13.1211 111.637 13.5664C112.043 14.0117 112.586 14.2344 113.266 14.2344C113.703 14.2344 114.11 14.1328 114.485 13.9297C114.86 13.7188 115.16 13.4141 115.387 13.0156C115.614 12.6172 115.727 12.1406 115.727 11.5859V4.27344ZM121.411 4.27344H124.716V6.5H124.856C125.13 5.75781 125.575 5.17578 126.192 4.75391C126.809 4.32422 127.544 4.10938 128.395 4.10938C129.27 4.10938 130.012 4.32422 130.622 4.75391C131.239 5.17578 131.653 5.75781 131.864 6.5H131.981C132.255 5.76562 132.731 5.18359 133.411 4.75391C134.091 4.32422 134.895 4.10938 135.825 4.10938C136.614 4.10938 137.309 4.28125 137.911 4.625C138.52 4.96094 138.993 5.45703 139.329 6.11328C139.665 6.76172 139.833 7.53906 139.833 8.44531V17H136.364V9.125C136.364 8.42188 136.18 7.88672 135.813 7.51953C135.454 7.15234 134.973 6.96875 134.372 6.96875C133.723 6.96875 133.216 7.17578 132.848 7.58984C132.489 7.99609 132.309 8.53906 132.309 9.21875V17H128.934V9.03125C128.934 8.40625 128.755 7.90625 128.395 7.53125C128.036 7.15625 127.559 6.96875 126.966 6.96875C126.575 6.96875 126.22 7.07031 125.899 7.27344C125.587 7.46875 125.337 7.74609 125.149 8.10547C124.97 8.46484 124.88 8.88281 124.88 9.35938V17H121.411V4.27344ZM150.545 17H147.076V0.03125H150.451V6.5H150.592C150.888 5.74219 151.361 5.15625 152.01 4.74219C152.658 4.32031 153.451 4.10938 154.388 4.10938C155.271 4.10938 156.045 4.30078 156.709 4.68359C157.373 5.06641 157.885 5.61719 158.244 6.33594C158.611 7.05469 158.795 7.90625 158.795 8.89062V17H155.326V9.5C155.326 8.71094 155.123 8.09766 154.717 7.66016C154.318 7.21484 153.756 6.99219 153.029 6.99219C152.545 6.99219 152.115 7.09766 151.74 7.30859C151.365 7.51172 151.072 7.8125 150.861 8.21094C150.65 8.60938 150.545 9.08594 150.545 9.64062V17ZM160.377 13.4375C160.377 12.125 160.819 11.1641 161.701 10.5547C162.584 9.94531 163.721 9.60156 165.112 9.52344C165.971 9.46875 167.026 9.41406 168.276 9.35938V8.32812C168.26 7.79688 168.076 7.38281 167.725 7.08594C167.373 6.78906 166.877 6.64062 166.237 6.64062C165.658 6.64062 165.186 6.76562 164.819 7.01562C164.451 7.26562 164.221 7.60938 164.127 8.04688H160.822C160.893 7.29688 161.151 6.625 161.596 6.03125C162.049 5.4375 162.678 4.96875 163.483 4.625C164.287 4.28125 165.237 4.10938 166.33 4.10938C167.299 4.10938 168.19 4.26172 169.002 4.56641C169.822 4.87109 170.479 5.34766 170.971 5.99609C171.471 6.63672 171.721 7.44531 171.721 8.42188V17H168.44V15.2422H168.346C168.01 15.8594 167.53 16.3477 166.905 16.707C166.287 17.0586 165.526 17.2344 164.619 17.2344C163.791 17.2344 163.057 17.0938 162.416 16.8125C161.783 16.5234 161.283 16.0938 160.916 15.5234C160.557 14.9531 160.377 14.2578 160.377 13.4375ZM163.705 13.3438C163.705 13.8203 163.877 14.1914 164.221 14.457C164.572 14.7148 165.033 14.8438 165.604 14.8438C166.119 14.8438 166.58 14.7383 166.987 14.5273C167.401 14.3164 167.721 14.0273 167.947 13.6602C168.174 13.293 168.283 12.8906 168.276 12.4531V11.5273C167.908 11.5352 167.455 11.5547 166.916 11.5859C166.377 11.6172 165.963 11.6484 165.674 11.6797C165.065 11.7422 164.584 11.9141 164.233 12.1953C163.881 12.4766 163.705 12.8594 163.705 13.3438ZM181.155 8.04688C181.085 7.60156 180.862 7.24609 180.487 6.98047C180.112 6.70703 179.639 6.57031 179.069 6.57031C178.694 6.57031 178.354 6.62891 178.05 6.74609C177.753 6.85547 177.518 7.01172 177.346 7.21484C177.175 7.41016 177.092 7.63281 177.1 7.88281C177.077 8.48438 177.624 8.90625 178.741 9.14844L181.014 9.61719C182.249 9.875 183.167 10.2852 183.768 10.8477C184.378 11.4102 184.686 12.1484 184.694 13.0625C184.686 13.8906 184.444 14.6211 183.967 15.2539C183.499 15.8867 182.839 16.3789 181.987 16.7305C181.135 17.082 180.155 17.2578 179.046 17.2578C177.913 17.2578 176.932 17.0977 176.104 16.7773C175.276 16.4492 174.624 15.9844 174.147 15.3828C173.678 14.7734 173.397 14.0547 173.303 13.2266H176.796C176.874 13.7266 177.108 14.1055 177.499 14.3633C177.889 14.6211 178.405 14.75 179.046 14.75C179.678 14.75 180.186 14.6289 180.569 14.3867C180.96 14.1445 181.155 13.8203 181.155 13.4141C181.155 13.0859 181.014 12.8203 180.733 12.6172C180.46 12.4062 180.022 12.2344 179.421 12.1016L177.311 11.6797C176.108 11.4453 175.194 11.0195 174.569 10.4023C173.944 9.78516 173.639 9.00781 173.655 8.07031C173.647 7.26562 173.862 6.56641 174.3 5.97266C174.737 5.37109 175.362 4.91016 176.175 4.58984C176.987 4.26953 177.936 4.10938 179.022 4.10938C180.077 4.10938 180.999 4.26953 181.788 4.58984C182.577 4.91016 183.194 5.36719 183.639 5.96094C184.092 6.54688 184.35 7.24219 184.413 8.04688H181.155ZM191.468 0.03125H194.937V6.40625H195.031C195.336 5.75781 195.777 5.21484 196.355 4.77734C196.933 4.33203 197.703 4.10938 198.664 4.10938C199.625 4.10938 200.496 4.35938 201.277 4.85938C202.066 5.35156 202.691 6.08984 203.152 7.07422C203.613 8.05078 203.843 9.24219 203.843 10.6484C203.843 12.0234 203.617 13.207 203.164 14.1992C202.711 15.1836 202.093 15.9336 201.312 16.4492C200.531 16.957 199.648 17.2109 198.664 17.2109C197.718 17.2109 196.949 16.9961 196.355 16.5664C195.769 16.1289 195.328 15.5938 195.031 14.9609H194.89V17H191.468V0.03125ZM194.867 10.625C194.867 11.3906 194.972 12.0625 195.183 12.6406C195.394 13.2109 195.703 13.6562 196.109 13.9766C196.515 14.2891 197 14.4453 197.562 14.4453C198.429 14.4453 199.097 14.0977 199.566 13.4023C200.043 12.707 200.281 11.7812 200.281 10.625C200.281 9.48438 200.043 8.57422 199.566 7.89453C199.097 7.21484 198.429 6.875 197.562 6.875C196.703 6.875 196.039 7.21094 195.57 7.88281C195.101 8.54688 194.867 9.46094 194.867 10.625ZM211.356 17.2578C210.067 17.2578 208.949 16.9922 208.004 16.4609C207.067 15.9297 206.344 15.1719 205.836 14.1875C205.328 13.1953 205.074 12.0312 205.074 10.6953C205.074 9.39062 205.324 8.24219 205.824 7.25C206.332 6.25 207.051 5.47656 207.981 4.92969C208.91 4.38281 209.988 4.10938 211.215 4.10938C212.356 4.10938 213.375 4.35156 214.274 4.83594C215.18 5.3125 215.891 6.03516 216.406 7.00391C216.93 7.97266 217.192 9.15625 217.192 10.5547V11.5391H208.496C208.496 12.1719 208.613 12.7227 208.848 13.1914C209.09 13.6602 209.43 14.0234 209.867 14.2812C210.313 14.5312 210.832 14.6562 211.426 14.6562C211.996 14.6562 212.488 14.543 212.902 14.3164C213.317 14.082 213.613 13.7656 213.793 13.3672H217.098C216.934 14.1484 216.598 14.832 216.09 15.418C215.582 16.0039 214.922 16.457 214.11 16.7773C213.305 17.0977 212.387 17.2578 211.356 17.2578ZM213.91 9.35938C213.91 8.85156 213.797 8.39844 213.57 8C213.352 7.59375 213.043 7.27734 212.645 7.05078C212.246 6.82422 211.793 6.71094 211.285 6.71094C210.77 6.71094 210.301 6.82812 209.879 7.0625C209.465 7.29688 209.133 7.61719 208.883 8.02344C208.641 8.42969 208.512 8.875 208.496 9.35938H213.91ZM224.657 17.2578C223.368 17.2578 222.251 16.9922 221.305 16.4609C220.368 15.9297 219.645 15.1719 219.137 14.1875C218.63 13.1953 218.376 12.0312 218.376 10.6953C218.376 9.39062 218.626 8.24219 219.126 7.25C219.633 6.25 220.352 5.47656 221.282 4.92969C222.212 4.38281 223.29 4.10938 224.516 4.10938C225.657 4.10938 226.676 4.35156 227.575 4.83594C228.481 5.3125 229.192 6.03516 229.708 7.00391C230.231 7.97266 230.493 9.15625 230.493 10.5547V11.5391H221.798C221.798 12.1719 221.915 12.7227 222.149 13.1914C222.391 13.6602 222.731 14.0234 223.169 14.2812C223.614 14.5312 224.133 14.6562 224.727 14.6562C225.298 14.6562 225.79 14.543 226.204 14.3164C226.618 14.082 226.915 13.7656 227.094 13.3672H230.399C230.235 14.1484 229.899 14.832 229.391 15.418C228.883 16.0039 228.223 16.457 227.411 16.7773C226.606 17.0977 225.688 17.2578 224.657 17.2578ZM227.212 9.35938C227.212 8.85156 227.098 8.39844 226.872 8C226.653 7.59375 226.344 7.27734 225.946 7.05078C225.548 6.82422 225.094 6.71094 224.587 6.71094C224.071 6.71094 223.602 6.82812 223.18 7.0625C222.766 7.29688 222.434 7.61719 222.184 8.02344C221.942 8.42969 221.813 8.875 221.798 9.35938H227.212ZM235.661 17H232.193V4.27344H235.497V6.5H235.638C235.935 5.75 236.415 5.16406 237.079 4.74219C237.743 4.32031 238.536 4.10938 239.458 4.10938C240.341 4.10938 241.114 4.30078 241.778 4.68359C242.443 5.06641 242.954 5.62109 243.314 6.34766C243.673 7.06641 243.849 7.91406 243.841 8.89062V17H240.396V9.5C240.396 8.71875 240.193 8.10547 239.786 7.66016C239.38 7.21484 238.818 6.99219 238.099 6.99219C237.357 6.99219 236.763 7.22656 236.318 7.69531C235.88 8.16406 235.661 8.8125 235.661 9.64062V17ZM8.0625 35.875H5.67188V42.0859C5.67188 42.5547 5.77344 42.8828 5.97656 43.0703C6.17969 43.2578 6.47656 43.3594 6.86719 43.375C7.36719 43.375 7.82812 43.3516 8.25 43.3047V46.0469C7.83594 46.125 7.21875 46.1641 6.39844 46.1641C5.09375 46.1641 4.06641 45.8633 3.31641 45.2617C2.56641 44.6602 2.19531 43.7656 2.20312 42.5781V35.875H0.445312V33.2734H2.20312V30.2266H5.67188V33.2734H8.0625V35.875ZM13.5122 46H10.0434V29.0312H13.4184V35.5H13.5591C13.8559 34.7422 14.3286 34.1562 14.977 33.7422C15.6255 33.3203 16.4184 33.1094 17.3559 33.1094C18.2388 33.1094 19.0122 33.3008 19.6763 33.6836C20.3403 34.0664 20.852 34.6172 21.2114 35.3359C21.5786 36.0547 21.7622 36.9062 21.7622 37.8906V46H18.2934V38.5C18.2934 37.7109 18.0903 37.0977 17.6841 36.6602C17.2856 36.2148 16.7231 35.9922 15.9966 35.9922C15.5122 35.9922 15.0825 36.0977 14.7075 36.3086C14.3325 36.5117 14.0395 36.8125 13.8286 37.2109C13.6177 37.6094 13.5122 38.0859 13.5122 38.6406V46ZM29.7197 46.2578C28.4306 46.2578 27.3134 45.9922 26.3681 45.4609C25.4306 44.9297 24.708 44.1719 24.2002 43.1875C23.6923 42.1953 23.4384 41.0312 23.4384 39.6953C23.4384 38.3906 23.6884 37.2422 24.1884 36.25C24.6963 35.25 25.415 34.4766 26.3447 33.9297C27.2744 33.3828 28.3525 33.1094 29.5791 33.1094C30.7197 33.1094 31.7392 33.3516 32.6377 33.8359C33.5439 34.3125 34.2548 35.0352 34.7705 36.0039C35.2939 36.9727 35.5556 38.1562 35.5556 39.5547V40.5391H26.8603C26.8603 41.1719 26.9775 41.7227 27.2119 42.1914C27.4541 42.6602 27.7939 43.0234 28.2314 43.2812C28.6767 43.5312 29.1963 43.6562 29.79 43.6562C30.3603 43.6562 30.8525 43.543 31.2666 43.3164C31.6806 43.082 31.9775 42.7656 32.1572 42.3672H35.4619C35.2978 43.1484 34.9619 43.832 34.4541 44.418C33.9463 45.0039 33.2861 45.457 32.4736 45.7773C31.6689 46.0977 30.7509 46.2578 29.7197 46.2578ZM32.2744 38.3594C32.2744 37.8516 32.1611 37.3984 31.9345 37C31.7158 36.5938 31.4072 36.2773 31.0088 36.0508C30.6103 35.8242 30.1572 35.7109 29.6494 35.7109C29.1338 35.7109 28.665 35.8281 28.2431 36.0625C27.8291 36.2969 27.497 36.6172 27.247 37.0234C27.0048 37.4297 26.8759 37.875 26.8603 38.3594H32.2744ZM42.3066 33.2734H45.7753V46H42.3066V33.2734ZM44.0409 31.6094C43.6972 31.6094 43.3769 31.5312 43.08 31.375C42.7909 31.2109 42.5605 30.9961 42.3886 30.7305C42.2245 30.457 42.1425 30.1641 42.1425 29.8516C42.1425 29.5312 42.2245 29.2344 42.3886 28.9609C42.5605 28.6875 42.7909 28.4727 43.08 28.3164C43.3769 28.1523 43.6972 28.0703 44.0409 28.0703C44.3769 28.0703 44.6894 28.1523 44.9784 28.3164C45.2675 28.4727 45.4941 28.6875 45.6581 28.9609C45.83 29.2344 45.9159 29.5312 45.9159 29.8516C45.9159 30.1641 45.83 30.457 45.6581 30.7305C45.4941 30.9961 45.2675 31.2109 44.9784 31.375C44.6894 31.5312 44.3769 31.6094 44.0409 31.6094ZM51.4594 46H47.9906V33.2734H51.2953V35.5H51.4359C51.7328 34.75 52.2133 34.1641 52.8773 33.7422C53.5414 33.3203 54.3344 33.1094 55.2562 33.1094C56.1391 33.1094 56.9125 33.3008 57.5766 33.6836C58.2406 34.0664 58.7523 34.6211 59.1117 35.3477C59.4711 36.0664 59.6469 36.9141 59.6391 37.8906V46H56.1937V38.5C56.1937 37.7188 55.9906 37.1055 55.5844 36.6602C55.1781 36.2148 54.6156 35.9922 53.8969 35.9922C53.1547 35.9922 52.5609 36.2266 52.1156 36.6953C51.6781 37.1641 51.4594 37.8125 51.4594 38.6406V46ZM66.5419 46.2109C65.5575 46.2109 64.6747 45.957 63.8934 45.4492C63.1122 44.9336 62.495 44.1836 62.0419 43.1992C61.5887 42.207 61.3622 41.0234 61.3622 39.6484C61.3622 38.2422 61.5927 37.0508 62.0536 36.0742C62.5145 35.0898 63.1356 34.3516 63.9169 33.8594C64.7059 33.3594 65.5809 33.1094 66.5419 33.1094C67.5028 33.1094 68.2723 33.332 68.8505 33.7773C69.4286 34.2227 69.8622 34.7656 70.1512 35.4062H70.2684V29.0312H73.7372V46H70.3153V43.9609H70.1512C69.8544 44.5938 69.413 45.1289 68.827 45.5664C68.2411 45.9961 67.4794 46.2109 66.5419 46.2109ZM67.62 43.4453C68.1903 43.4453 68.6786 43.2891 69.0848 42.9766C69.4911 42.6562 69.7997 42.2109 70.0106 41.6406C70.2294 41.0625 70.3387 40.3906 70.3387 39.625C70.3387 38.4688 70.1005 37.5547 69.6239 36.8828C69.1473 36.2109 68.4794 35.875 67.62 35.875C66.7606 35.875 66.0966 36.2148 65.6278 36.8945C65.1591 37.5742 64.9247 38.4844 64.9247 39.625C64.9247 40.7812 65.1591 41.707 65.6278 42.4023C66.0966 43.0977 66.7606 43.4453 67.62 43.4453ZM84.2025 33.2734H87.6712V46H84.3431V43.7031H84.2025C83.8978 44.4609 83.4095 45.0625 82.7377 45.5078C82.0736 45.9453 81.2728 46.1641 80.3353 46.1641C79.4837 46.1641 78.7337 45.9727 78.0853 45.5898C77.4447 45.207 76.9447 44.6562 76.5853 43.9375C76.2259 43.2109 76.0462 42.3594 76.0462 41.3828V33.2734H79.515V40.7734C79.515 41.5234 79.7142 42.1211 80.1127 42.5664C80.5189 43.0117 81.0619 43.2344 81.7416 43.2344C82.1791 43.2344 82.5853 43.1328 82.9603 42.9297C83.3353 42.7188 83.6361 42.4141 83.8627 42.0156C84.0892 41.6172 84.2025 41.1406 84.2025 40.5859V33.2734ZM97.1522 37.0469C97.0819 36.6016 96.8592 36.2461 96.4842 35.9805C96.1092 35.707 95.6366 35.5703 95.0663 35.5703C94.6913 35.5703 94.3514 35.6289 94.0467 35.7461C93.7498 35.8555 93.5155 36.0117 93.3436 36.2148C93.1717 36.4102 93.0897 36.6328 93.0975 36.8828C93.0741 37.4844 93.6209 37.9062 94.7381 38.1484L97.0116 38.6172C98.2459 38.875 99.1639 39.2852 99.7655 39.8477C100.375 40.4102 100.683 41.1484 100.691 42.0625C100.683 42.8906 100.441 43.6211 99.9647 44.2539C99.4959 44.8867 98.8358 45.3789 97.9842 45.7305C97.1327 46.082 96.1522 46.2578 95.0428 46.2578C93.91 46.2578 92.9295 46.0977 92.1014 45.7773C91.2733 45.4492 90.6209 44.9844 90.1444 44.3828C89.6756 43.7734 89.3944 43.0547 89.3006 42.2266H92.7928C92.8709 42.7266 93.1053 43.1055 93.4959 43.3633C93.8866 43.6211 94.4022 43.75 95.0428 43.75C95.6756 43.75 96.1834 43.6289 96.5663 43.3867C96.9569 43.1445 97.1522 42.8203 97.1522 42.4141C97.1522 42.0859 97.0116 41.8203 96.7303 41.6172C96.4569 41.4062 96.0194 41.2344 95.4178 41.1016L93.3084 40.6797C92.1053 40.4453 91.1913 40.0195 90.5663 39.4023C89.9413 38.7852 89.6366 38.0078 89.6522 37.0703C89.6444 36.2656 89.8592 35.5664 90.2967 34.9727C90.7342 34.3711 91.3592 33.9102 92.1717 33.5898C92.9842 33.2695 93.9334 33.1094 95.0194 33.1094C96.0741 33.1094 96.9959 33.2695 97.785 33.5898C98.5741 33.9102 99.1913 34.3672 99.6366 34.9609C100.09 35.5469 100.348 36.2422 100.41 37.0469H97.1522ZM109.047 35.875H106.657V42.0859C106.657 42.5547 106.758 42.8828 106.961 43.0703C107.164 43.2578 107.461 43.3594 107.852 43.375C108.352 43.375 108.813 43.3516 109.235 43.3047V46.0469C108.821 46.125 108.203 46.1641 107.383 46.1641C106.078 46.1641 105.051 45.8633 104.301 45.2617C103.551 44.6602 103.18 43.7656 103.188 42.5781V35.875H101.43V33.2734H103.188V30.2266H106.657V33.2734H109.047V35.875ZM110.747 33.2734H114.098V35.4766H114.239C114.466 34.7031 114.852 34.1133 115.399 33.707C115.946 33.293 116.583 33.0859 117.309 33.0859C117.708 33.0859 118.075 33.125 118.411 33.2031V36.2969C118.239 36.25 118.009 36.207 117.72 36.168C117.43 36.1289 117.169 36.1094 116.934 36.1094C116.419 36.1094 115.954 36.2227 115.54 36.4492C115.126 36.6758 114.802 36.9922 114.567 37.3984C114.333 37.7969 114.216 38.25 114.216 38.7578V46H110.747V33.2734ZM122.056 50.7812C121.329 50.7812 120.743 50.7578 120.298 50.7109V48.0156C120.892 48.0469 121.361 48.0625 121.704 48.0625C121.978 48.0625 122.204 48.0391 122.384 47.9922C122.572 47.9453 122.747 47.8359 122.911 47.6641C123.083 47.4922 123.236 47.2344 123.368 46.8906L123.579 46.3516L119.009 33.2734H122.642L125.314 42.6484H125.454L128.15 33.2734H131.829L126.861 47.4062C126.478 48.4922 125.904 49.3242 125.138 49.9023C124.372 50.4883 123.345 50.7812 122.056 50.7812ZM135.287 35.4531H132.779V29.0312H135.287V35.4531ZM144.557 37.0469C144.487 36.6016 144.264 36.2461 143.889 35.9805C143.514 35.707 143.041 35.5703 142.471 35.5703C142.096 35.5703 141.756 35.6289 141.451 35.7461C141.155 35.8555 140.92 36.0117 140.748 36.2148C140.576 36.4102 140.494 36.6328 140.502 36.8828C140.479 37.4844 141.026 37.9062 142.143 38.1484L144.416 38.6172C145.651 38.875 146.569 39.2852 147.17 39.8477C147.78 40.4102 148.088 41.1484 148.096 42.0625C148.088 42.8906 147.846 43.6211 147.369 44.2539C146.901 44.8867 146.24 45.3789 145.389 45.7305C144.537 46.082 143.557 46.2578 142.447 46.2578C141.315 46.2578 140.334 46.0977 139.506 45.7773C138.678 45.4492 138.026 44.9844 137.549 44.3828C137.08 43.7734 136.799 43.0547 136.705 42.2266H140.197C140.276 42.7266 140.51 43.1055 140.901 43.3633C141.291 43.6211 141.807 43.75 142.447 43.75C143.08 43.75 143.588 43.6289 143.971 43.3867C144.362 43.1445 144.557 42.8203 144.557 42.4141C144.557 42.0859 144.416 41.8203 144.135 41.6172C143.862 41.4062 143.424 41.2344 142.822 41.1016L140.713 40.6797C139.51 40.4453 138.596 40.0195 137.971 39.4023C137.346 38.7852 137.041 38.0078 137.057 37.0703C137.049 36.2656 137.264 35.5664 137.701 34.9727C138.139 34.3711 138.764 33.9102 139.576 33.5898C140.389 33.2695 141.338 33.1094 142.424 33.1094C143.479 33.1094 144.401 33.2695 145.19 33.5898C145.979 33.9102 146.596 34.3672 147.041 34.9609C147.494 35.5469 147.752 36.2422 147.815 37.0469H144.557ZM162.066 37.0469C161.995 36.6016 161.773 36.2461 161.398 35.9805C161.023 35.707 160.55 35.5703 159.98 35.5703C159.605 35.5703 159.265 35.6289 158.96 35.7461C158.663 35.8555 158.429 36.0117 158.257 36.2148C158.085 36.4102 158.003 36.6328 158.011 36.8828C157.988 37.4844 158.534 37.9062 159.652 38.1484L161.925 38.6172C163.159 38.875 164.077 39.2852 164.679 39.8477C165.288 40.4102 165.597 41.1484 165.605 42.0625C165.597 42.8906 165.355 43.6211 164.878 44.2539C164.409 44.8867 163.749 45.3789 162.898 45.7305C162.046 46.082 161.066 46.2578 159.956 46.2578C158.823 46.2578 157.843 46.0977 157.015 45.7773C156.187 45.4492 155.534 44.9844 155.058 44.3828C154.589 43.7734 154.308 43.0547 154.214 42.2266H157.706C157.784 42.7266 158.019 43.1055 158.409 43.3633C158.8 43.6211 159.316 43.75 159.956 43.75C160.589 43.75 161.097 43.6289 161.48 43.3867C161.87 43.1445 162.066 42.8203 162.066 42.4141C162.066 42.0859 161.925 41.8203 161.644 41.6172C161.37 41.4062 160.933 41.2344 160.331 41.1016L158.222 40.6797C157.019 40.4453 156.105 40.0195 155.48 39.4023C154.855 38.7852 154.55 38.0078 154.566 37.0703C154.558 36.2656 154.773 35.5664 155.21 34.9727C155.648 34.3711 156.273 33.9102 157.085 33.5898C157.898 33.2695 158.847 33.1094 159.933 33.1094C160.988 33.1094 161.909 33.2695 162.698 33.5898C163.488 33.9102 164.105 34.3672 164.55 34.9609C165.003 35.5469 165.261 36.2422 165.323 37.0469H162.066ZM173.961 35.875H171.57V42.0859C171.57 42.5547 171.672 42.8828 171.875 43.0703C172.078 43.2578 172.375 43.3594 172.765 43.375C173.265 43.375 173.726 43.3516 174.148 43.3047V46.0469C173.734 46.125 173.117 46.1641 172.297 46.1641C170.992 46.1641 169.965 45.8633 169.215 45.2617C168.465 44.6602 168.093 43.7656 168.101 42.5781V35.875H166.343V33.2734H168.101V30.2266H171.57V33.2734H173.961V35.875ZM175.051 42.4375C175.051 41.125 175.492 40.1641 176.375 39.5547C177.258 38.9453 178.395 38.6016 179.785 38.5234C180.645 38.4688 181.699 38.4141 182.949 38.3594V37.3281C182.934 36.7969 182.75 36.3828 182.399 36.0859C182.047 35.7891 181.551 35.6406 180.91 35.6406C180.332 35.6406 179.86 35.7656 179.492 36.0156C179.125 36.2656 178.895 36.6094 178.801 37.0469H175.496C175.567 36.2969 175.824 35.625 176.27 35.0312C176.723 34.4375 177.352 33.9688 178.156 33.625C178.961 33.2812 179.91 33.1094 181.004 33.1094C181.973 33.1094 182.863 33.2617 183.676 33.5664C184.496 33.8711 185.152 34.3477 185.645 34.9961C186.145 35.6367 186.395 36.4453 186.395 37.4219V46H183.113V44.2422H183.02C182.684 44.8594 182.203 45.3477 181.578 45.707C180.961 46.0586 180.199 46.2344 179.293 46.2344C178.465 46.2344 177.731 46.0938 177.09 45.8125C176.457 45.5234 175.957 45.0938 175.59 44.5234C175.231 43.9531 175.051 43.2578 175.051 42.4375ZM178.379 42.3438C178.379 42.8203 178.551 43.1914 178.895 43.457C179.246 43.7148 179.707 43.8438 180.277 43.8438C180.793 43.8438 181.254 43.7383 181.66 43.5273C182.074 43.3164 182.395 43.0273 182.621 42.6602C182.848 42.293 182.957 41.8906 182.949 41.4531V40.5273C182.582 40.5352 182.129 40.5547 181.59 40.5859C181.051 40.6172 180.637 40.6484 180.348 40.6797C179.738 40.7422 179.258 40.9141 178.906 41.1953C178.555 41.4766 178.379 41.8594 178.379 42.3438ZM192.032 46H188.563V33.2734H191.868V35.5H192.008C192.305 34.75 192.786 34.1641 193.45 33.7422C194.114 33.3203 194.907 33.1094 195.829 33.1094C196.712 33.1094 197.485 33.3008 198.149 33.6836C198.813 34.0664 199.325 34.6211 199.684 35.3477C200.044 36.0664 200.219 36.9141 200.212 37.8906V46H196.766V38.5C196.766 37.7188 196.563 37.1055 196.157 36.6602C195.751 36.2148 195.188 35.9922 194.469 35.9922C193.727 35.9922 193.133 36.2266 192.688 36.6953C192.251 37.1641 192.032 37.8125 192.032 38.6406V46ZM207.114 46.2109C206.13 46.2109 205.247 45.957 204.466 45.4492C203.685 44.9336 203.068 44.1836 202.614 43.1992C202.161 42.207 201.935 41.0234 201.935 39.6484C201.935 38.2422 202.165 37.0508 202.626 36.0742C203.087 35.0898 203.708 34.3516 204.489 33.8594C205.278 33.3594 206.153 33.1094 207.114 33.1094C208.075 33.1094 208.845 33.332 209.423 33.7773C210.001 34.2227 210.435 34.7656 210.724 35.4062H210.841V29.0312H214.31V46H210.888V43.9609H210.724C210.427 44.5938 209.985 45.1289 209.4 45.5664C208.814 45.9961 208.052 46.2109 207.114 46.2109ZM208.193 43.4453C208.763 43.4453 209.251 43.2891 209.657 42.9766C210.064 42.6562 210.372 42.2109 210.583 41.6406C210.802 41.0625 210.911 40.3906 210.911 39.625C210.911 38.4688 210.673 37.5547 210.196 36.8828C209.72 36.2109 209.052 35.875 208.193 35.875C207.333 35.875 206.669 36.2148 206.2 36.8945C205.732 37.5742 205.497 38.4844 205.497 39.625C205.497 40.7812 205.732 41.707 206.2 42.4023C206.669 43.0977 207.333 43.4453 208.193 43.4453ZM216.009 42.4375C216.009 41.125 216.451 40.1641 217.334 39.5547C218.216 38.9453 219.353 38.6016 220.744 38.5234C221.603 38.4688 222.658 38.4141 223.908 38.3594V37.3281C223.892 36.7969 223.709 36.3828 223.357 36.0859C223.005 35.7891 222.509 35.6406 221.869 35.6406C221.291 35.6406 220.818 35.7656 220.451 36.0156C220.084 36.2656 219.853 36.6094 219.759 37.0469H216.455C216.525 36.2969 216.783 35.625 217.228 35.0312C217.681 34.4375 218.31 33.9688 219.115 33.625C219.92 33.2812 220.869 33.1094 221.962 33.1094C222.931 33.1094 223.822 33.2617 224.634 33.5664C225.455 33.8711 226.111 34.3477 226.603 34.9961C227.103 35.6367 227.353 36.4453 227.353 37.4219V46H224.072V44.2422H223.978C223.642 44.8594 223.162 45.3477 222.537 45.707C221.92 46.0586 221.158 46.2344 220.252 46.2344C219.423 46.2344 218.689 46.0938 218.048 45.8125C217.416 45.5234 216.916 45.0938 216.548 44.5234C216.189 43.9531 216.009 43.2578 216.009 42.4375ZM219.337 42.3438C219.337 42.8203 219.509 43.1914 219.853 43.457C220.205 43.7148 220.666 43.8438 221.236 43.8438C221.752 43.8438 222.212 43.7383 222.619 43.5273C223.033 43.3164 223.353 43.0273 223.58 42.6602C223.806 42.293 223.916 41.8906 223.908 41.4531V40.5273C223.541 40.5352 223.087 40.5547 222.548 40.5859C222.009 40.6172 221.595 40.6484 221.306 40.6797C220.697 40.7422 220.216 40.9141 219.865 41.1953C219.513 41.4766 219.337 41.8594 219.337 42.3438ZM229.522 33.2734H232.873V35.4766H233.014C233.24 34.7031 233.627 34.1133 234.174 33.707C234.721 33.293 235.357 33.0859 236.084 33.0859C236.482 33.0859 236.85 33.125 237.186 33.2031V36.2969C237.014 36.25 236.783 36.207 236.494 36.168C236.205 36.1289 235.943 36.1094 235.709 36.1094C235.193 36.1094 234.729 36.2227 234.315 36.4492C233.9 36.6758 233.576 36.9922 233.342 37.3984C233.107 37.7969 232.99 38.25 232.99 38.7578V46H229.522V33.2734ZM242.682 46.2109C241.698 46.2109 240.815 45.957 240.034 45.4492C239.253 44.9336 238.635 44.1836 238.182 43.1992C237.729 42.207 237.503 41.0234 237.503 39.6484C237.503 38.2422 237.733 37.0508 238.194 36.0742C238.655 35.0898 239.276 34.3516 240.057 33.8594C240.846 33.3594 241.721 33.1094 242.682 33.1094C243.643 33.1094 244.413 33.332 244.991 33.7773C245.569 34.2227 246.003 34.7656 246.292 35.4062H246.409V29.0312H249.878V46H246.456V43.9609H246.292C245.995 44.5938 245.553 45.1289 244.967 45.5664C244.381 45.9961 243.62 46.2109 242.682 46.2109ZM243.76 43.4453C244.331 43.4453 244.819 43.2891 245.225 42.9766C245.631 42.6562 245.94 42.2109 246.151 41.6406C246.37 41.0625 246.479 40.3906 246.479 39.625C246.479 38.4688 246.241 37.5547 245.764 36.8828C245.288 36.2109 244.62 35.875 243.76 35.875C242.901 35.875 242.237 36.2148 241.768 36.8945C241.299 37.5742 241.065 38.4844 241.065 39.625C241.065 40.7812 241.299 41.707 241.768 42.4023C242.237 43.0977 242.901 43.4453 243.76 43.4453Z" fill="#333333"/>
</svg>
